<svg width="21" height="15" viewBox="0 0 21 15" fill="none" xmlns="http://www.w3.org/2000/svg">
<path fill-rule="evenodd" clip-rule="evenodd" d="M15.3199 10.4493V14.5H7.65995H0V9.23144V3.96289H7.65995H11.2763C11.1519 4.34854 11.073 4.75466 11.046 5.1749H10.0164V6.39516V7.61542H11.5038C11.8864 8.43373 12.4841 9.13133 13.2242 9.63544H7.65995H0.960739V10.0395V10.4435H7.65995H14.3657V10.2145C14.6712 10.3227 14.9904 10.4021 15.3199 10.4493ZM3.82997 7.60718V8.01118H2.39536H0.960739V7.60718V7.20317H2.39536H3.82997V7.60718ZM14.3657 12.884V13.288H12.931H11.4899V12.884V12.48H12.9245H14.3592V12.884H14.3657Z" fill="white"/>
<circle cx="16" cy="5.5" r="4.75" stroke="white" stroke-width="0.5"/>
<path d="M18.5 2.90039L14.1698 8.40031" stroke="white" stroke-linecap="round"/>
</svg>
