<svg width="17" height="16" viewBox="0 0 17 16" fill="none" xmlns="http://www.w3.org/2000/svg">
<path d="M11.4048 7.51365C11.3762 7.52512 11.336 7.54232 11.3131 7.55379C11.2901 7.56526 10.6736 8.17607 9.94234 8.9102C8.4569 10.3956 8.56013 10.2781 8.56013 10.4759C8.56013 10.5591 8.56587 10.5878 8.59741 10.6509C8.64329 10.7426 8.73219 10.8229 8.82682 10.8602C8.89565 10.886 8.92719 10.886 9.78462 10.886H10.6707L10.6736 12.2309L10.6765 13.5787L10.7137 13.6877C10.8801 14.181 11.4335 14.4132 11.8981 14.1838C12.0386 14.115 12.2049 13.9487 12.2737 13.8082C12.3655 13.6218 12.3626 13.6705 12.3626 12.2051V10.886L13.2717 10.8831L14.1807 10.8803L14.2496 10.8459C14.3356 10.8 14.4274 10.6996 14.456 10.6165C14.4876 10.5276 14.4847 10.4042 14.4503 10.3096C14.4245 10.2379 14.3643 10.1748 13.091 8.90159C12.0042 7.81475 11.749 7.56526 11.6945 7.54232C11.6171 7.50217 11.4765 7.4907 11.4048 7.51365Z" fill="white"/>
<path d="M5.7572 0.96123L4.2627 1.92826L5.76892 1.93412C6.5953 1.93412 7.94914 1.93412 8.77552 1.93412L10.2759 1.92826L8.77552 0.96123C7.94914 0.433758 7.26929 -0.00580287 7.26343 5.79391e-05C7.25757 5.79391e-05 6.58357 0.433758 5.7572 0.96123Z" fill="white"/>
<path d="M3.15503 2.20347C3.14331 2.20933 3.13745 2.8423 3.13745 3.61007V4.99322H7.26932H11.4012L11.3953 3.59249L11.3895 2.19761L7.28104 2.19175C5.02463 2.18589 3.16089 2.19175 3.15503 2.20347ZM5.00119 2.86575C5.26492 2.9771 5.31181 3.34633 5.0891 3.49285L5.00705 3.55146L5.10082 3.58662C5.24148 3.63937 5.30595 3.75659 5.29423 3.96172C5.28837 4.09651 5.27078 4.1434 5.21804 4.20201C5.07738 4.34853 5.03049 4.36025 4.42683 4.37197L3.86419 4.38369V3.58662V2.80128L4.3858 2.813C4.77848 2.81886 4.93086 2.83058 5.00119 2.86575ZM6.75943 3.58662C6.92353 4.0086 7.05247 4.36025 7.05247 4.36025C7.05247 4.36611 6.94111 4.36611 6.80046 4.36611H6.54844L6.50741 4.23717L6.47225 4.10824H6.20265H5.93306L5.89203 4.23717L5.851 4.36611H5.61071C5.48177 4.36611 5.37042 4.36025 5.37042 4.34853C5.37042 4.33681 5.49936 3.98516 5.6576 3.56318L5.94478 2.79542L6.21437 2.813L6.47225 2.81886L6.75943 3.58662ZM7.94331 3.23498L8.22463 3.65109L8.23635 3.23498L8.24807 2.81886L8.47078 2.813L8.6935 2.80714V3.59249V4.37783H8.46492H8.23635L7.9609 3.96758L7.68544 3.55732L7.67958 3.96758L7.67371 4.37783H7.44514H7.21657V3.58662V2.80128L7.43928 2.80714L7.66199 2.813L7.94331 3.23498ZM9.51401 3.10018L9.52573 3.3815L9.76602 3.09432L10.0063 2.80714H10.3111C10.4752 2.80714 10.6158 2.813 10.6158 2.83058C10.6158 2.8423 10.5279 2.93607 10.4224 3.03571C10.3169 3.1412 10.1997 3.27014 10.1528 3.31703L10.0766 3.41666L10.147 3.53388C10.188 3.60421 10.3228 3.8152 10.44 4.01446L10.6569 4.37197H10.3638H10.0649L9.94185 4.12582C9.87152 3.98516 9.80119 3.85036 9.77188 3.8152L9.73086 3.75073L9.61364 3.86794C9.49643 3.9793 9.49643 3.9793 9.49643 4.17857V4.37783H9.25613H9.02756V3.58662V2.80128L9.26199 2.813L9.49643 2.81886L9.51401 3.10018Z" fill="white"/>
<path d="M4.35059 3.2764V3.42292H4.49125C4.65535 3.42292 4.75498 3.37018 4.75498 3.2764C4.75498 3.18263 4.65535 3.12988 4.49125 3.12988H4.35059V3.2764Z" fill="white"/>
<path d="M4.35059 3.88578V4.04988H4.48538C4.56158 4.04988 4.66121 4.0323 4.71396 4.01472C4.79015 3.97955 4.80773 3.96197 4.80773 3.89164C4.80773 3.77443 4.72568 3.72754 4.52055 3.72754H4.35059V3.88578Z" fill="white"/>
<path d="M6.11477 3.51081L6.03271 3.7804H6.20854H6.3785L6.33748 3.65147C6.31403 3.58114 6.27887 3.45806 6.25543 3.38187C6.23198 3.30568 6.20854 3.24121 6.20854 3.24121C6.20268 3.24121 6.16165 3.35843 6.11477 3.51081Z" fill="white"/>
<path fill-rule="evenodd" clip-rule="evenodd" d="M0.38868 4.46036C0.412124 4.42519 0.96304 4.0501 1.65461 3.61054L2.87952 2.83105L2.89124 3.95047C2.89711 4.56585 2.91469 5.09333 2.92641 5.11677C2.94399 5.14021 2.97916 5.18124 3.01432 5.20468C3.07293 5.23985 3.51835 5.24571 7.26927 5.24571C11.2312 5.24571 11.5491 5.25431 11.5994 5.1425C11.6078 5.12381 11.6088 5.10176 11.618 5.07574C11.6356 5.01714 11.6473 4.61274 11.6473 3.90944C11.6473 3.05377 11.6532 2.83105 11.6825 2.84278C11.7997 2.88966 14.1205 4.41347 14.1499 4.46036C14.1733 4.50138 14.185 4.71823 14.185 5.25743V6.00761L14.1088 6.0838C14.0385 6.15413 14.0151 6.16585 13.8451 6.16585C13.8035 6.16585 13.7373 6.16688 13.6602 6.16807C13.6305 6.16853 13.5993 6.16901 13.5672 6.16947C12.9396 5.89569 12.2467 5.74383 11.5184 5.74383C10.7828 5.74383 10.0834 5.89869 9.45105 6.17758C9.0978 6.17761 8.80202 6.17804 8.76963 6.18344C8.70861 6.19453 8.70535 6.20037 8.70517 6.58363C8.38261 6.79566 8.0854 7.0431 7.81908 7.32043H7.71469H7.59161V7.57349C7.44504 7.7478 7.30986 7.932 7.18722 8.12496V7.32043H7.06414H6.94106V8.55725C6.76321 8.90826 6.62453 9.28248 6.53081 9.67416V9.5827V7.31457H6.37842C6.27293 7.31457 6.19674 7.29699 6.13813 7.26182L6.04436 7.20322C6.04436 7.20225 6.04404 7.19503 6.04348 7.18238C6.04064 7.11854 6.03167 6.9164 6.02678 6.6816V6.16585L5.26487 6.15999C4.84289 6.15999 4.49711 6.16585 4.48538 6.17171C4.47366 6.17758 4.4678 6.40029 4.4678 6.65816V7.12703L4.37403 7.2208C4.29198 7.30285 4.26853 7.31457 4.14546 7.31457H4.0048V9.5827V11.8508H4.15132C4.26853 11.8508 4.31542 11.8626 4.37403 11.9153C4.39194 11.9305 4.40564 11.9421 4.4162 11.956C4.45054 12.0015 4.4516 12.0721 4.45608 12.3724L4.46194 12.7651H5.24729H6.02092V12.3842V12.0032L6.09711 11.927C6.1733 11.8567 6.19674 11.8508 6.35498 11.8508H6.48345C6.62412 12.5787 6.91873 13.2518 7.33204 13.8347C3.95103 13.8349 0.550183 13.8202 0.494175 13.7908C0.371098 13.7322 0.347655 13.6325 0.359376 13.2516C0.364348 13.0453 0.358777 12.9317 0.412407 12.868C0.485232 12.7815 0.66722 12.787 1.133 12.7768L1.77183 12.7534L1.78355 12.3666L1.78364 12.3638C1.79527 11.9856 1.79546 11.9796 1.87146 11.9153C1.93593 11.8626 1.97696 11.8508 2.12348 11.8508H2.29344V9.5827V7.31457L2.10004 7.30285C1.93007 7.29699 1.90077 7.28527 1.84216 7.2208C1.77769 7.15047 1.77769 7.13289 1.77769 6.66402V6.18344L1.70736 6.16585C1.66634 6.15413 1.40847 6.15413 1.13302 6.15413H1.133H0.570365C0.535201 6.14827 0.470732 6.11311 0.429706 6.07208L0.353516 5.99589V5.25743C0.353516 4.71237 0.359376 4.50725 0.38868 4.46036ZM2.94985 11.8567V9.58856V7.32043H2.82678H2.7037V9.58856V11.8567H2.82678H2.94985ZM3.59454 11.8567V9.58856V7.32043H3.47146H3.34839V9.58856V11.8567H3.47146H3.59454Z" fill="white"/>
<circle cx="11.5183" cy="10.8714" r="4.87821" stroke="white" stroke-width="0.5"/>
</svg>
