<svg width="19" height="16" viewBox="0 0 19 16" fill="none" xmlns="http://www.w3.org/2000/svg">
<path fill-rule="evenodd" clip-rule="evenodd" d="M3.15705 9.41866V14.0488C3.15705 14.8429 3.59973 15.5 4.35956 15.5H17.5541C17.9703 15.5 18.2875 15.2946 18.4923 14.9866C16.7612 11.7693 14.5544 12.3923 14.5544 12.3923V14.2542L11.5548 11.1464L14.5544 8.66158V10.5235C14.5544 10.5235 18.2148 9.99641 18.6971 14.4801C18.7302 14.3431 18.75 14.1926 18.75 14.042V7.42259H9.24572C8.62764 8.99333 7.13893 10.1004 5.40064 10.1004C4.57409 10.1004 3.80397 9.8501 3.15705 9.41866ZM9.88781 13.6452H4.27884V14.5168H9.88781V13.6452ZM4.27884 13.1803H9.88781V13.4709H4.27884V13.1803Z" fill="white"/>
<path d="M9.75 5.5L18.75 5.56069V4.52705C18.75 3.72616 18.3139 3.06901 17.5475 3.06901H9.04692C9.59132 3.75418 9.69999 4.55621 9.75 5.5Z" fill="white"/>
<path d="M4.45929 2.84888C4.35203 2.91389 4.2708 3.02997 4.23372 3.16802L4.21137 3.25042L4.14409 3.20176C4.02065 3.11562 3.90305 3.1101 3.80946 3.18798C3.73833 3.24717 3.69261 3.34391 3.66409 3.49143L3.65071 3.55361L3.73745 3.5797C4.02512 3.66319 4.30599 3.8825 4.37459 4.07426L4.39042 4.11851L4.90719 4.00498C5.37569 3.90227 5.42351 3.88928 5.41449 3.87764C5.41057 3.86941 5.39656 3.83386 5.38464 3.79783C5.34527 3.67236 5.36738 3.54676 5.45274 3.39789C5.48473 3.34064 5.58331 3.20246 5.60413 3.18642C5.60413 3.18642 5.60316 3.15021 5.60129 3.10966C5.59413 2.97014 5.53257 2.85419 5.43182 2.79255C5.28602 2.70458 5.10093 2.77565 5.05834 2.93998L5.04717 2.98118L4.96037 2.92324C4.86847 2.86189 4.77691 2.82322 4.69125 2.81283C4.62703 2.7999 4.50649 2.82237 4.45929 2.84888Z" fill="white"/>
<path d="M4.38834 4.37159C4.33735 4.5378 4.24258 4.78894 4.11162 5.09826C3.95186 5.48005 3.90558 5.59513 3.85425 5.73865C3.73146 6.08712 3.67856 6.34936 3.6792 6.61553C3.67961 6.75429 3.72882 7.00048 3.7817 7.12748C3.8626 7.32559 4.01374 7.54438 4.18008 7.70969C4.29383 7.82305 4.383 7.87135 4.58768 7.92564C5.07866 8.05689 5.7473 7.98672 6.23791 7.75841C6.82427 7.4836 7.20067 6.97132 7.29036 6.32753C7.35295 5.86964 7.14955 5.45315 6.63965 4.98925C6.49573 4.85762 6.33291 4.73022 6.03133 4.50644C5.73486 4.28608 5.58481 4.1672 5.50487 4.08951L5.44927 4.03368L4.42083 4.26415L4.38834 4.37159ZM5.2602 4.70657L5.29033 4.86143L5.34343 4.86319C5.48667 4.86523 5.81371 4.98997 5.82506 5.04434C5.82778 5.05738 5.75949 5.19333 5.7085 5.27532L5.65048 5.36571L5.60288 5.33768C5.57571 5.32329 5.51387 5.30072 5.46271 5.28715C5.37688 5.26541 5.36757 5.26295 5.29201 5.27988C5.15979 5.30951 5.09926 5.34584 5.07567 5.4012C5.06223 5.43153 5.06376 5.44939 5.07919 5.52333C5.09508 5.59943 5.09991 5.61201 5.13673 5.65156C5.1761 5.69281 5.1812 5.69622 5.47171 5.77225C5.76267 5.85045 5.76732 5.85168 5.86898 5.91767C5.98851 5.99559 6.03764 6.04149 6.0828 6.13152C6.10357 6.16784 6.12961 6.21891 6.1439 6.2453C6.16603 6.28814 6.16966 6.30553 6.17415 6.37964C6.18586 6.62513 6.13873 6.76771 5.98291 6.93693C5.92409 7.00246 5.88365 7.02974 5.84167 7.03914C5.82488 7.04291 5.8048 7.05196 5.80032 7.06207C5.79374 7.07265 5.80135 7.13012 5.82631 7.24972L5.86263 7.42368L5.552 7.49329L5.47982 7.14755L5.45191 7.14015C5.43585 7.13691 5.38905 7.13374 5.34991 7.13569C5.22063 7.13734 5.10105 7.11179 4.95486 7.0535C4.8591 7.01578 4.86001 7.02013 4.92937 6.81566C4.96113 6.71522 4.99022 6.63358 4.99232 6.63311C4.99442 6.63264 5.02369 6.64656 5.05552 6.66219C5.12683 6.69857 5.28243 6.73881 5.36837 6.74004C5.49017 6.74461 5.62551 6.69835 5.68598 6.63017C5.72325 6.58767 5.73719 6.50716 5.72085 6.42887C5.71086 6.38104 5.70076 6.35371 5.68664 6.33866C5.64216 6.294 5.56949 6.25111 5.53874 6.25117C5.5215 6.25276 5.48684 6.24459 5.46102 6.23672C5.43521 6.22884 5.38915 6.21868 5.3575 6.21439C5.32584 6.2101 5.27257 6.197 5.23701 6.18449C5.20354 6.1715 5.16377 6.15993 5.14981 6.15623C5.09955 6.147 4.95574 6.07908 4.90633 6.04235C4.72145 5.90396 4.64366 5.77344 4.63792 5.58807C4.63456 5.47729 4.64641 5.39724 4.67624 5.30861C4.71146 5.21422 4.74674 5.15169 4.79899 5.09673C4.84419 5.05018 4.96326 4.95749 4.98424 4.95279C4.99474 4.95043 4.99003 4.91735 4.96233 4.7847L4.92783 4.61944L5.22377 4.55312L5.2602 4.70657Z" fill="white"/>
<path d="M10.0055 5.5C10.0055 8.12322 7.87776 10.25 5.25275 10.25C2.62775 10.25 0.5 8.12322 0.5 5.5C0.5 2.87678 2.62775 0.75 5.25275 0.75C7.87776 0.75 10.0055 2.87678 10.0055 5.5Z" stroke="white" stroke-width="0.5"/>
</svg>
