<svg width="13" height="17" viewBox="0 0 13 17" fill="none" xmlns="http://www.w3.org/2000/svg">
<path d="M11.9321 0.5601L10.9815 1.13106C10.9554 1.14441 10.926 1.14441 10.8999 1.13106L9.87095 0.510027C9.84482 0.496658 9.81216 0.496658 9.78603 0.510027L8.76037 1.13106C8.73423 1.14441 8.70158 1.14441 8.67544 1.13106L7.64981 0.510027C7.62367 0.496658 7.591 0.496658 7.56488 0.510027L6.53922 1.13106C6.51308 1.14441 6.48043 1.14441 6.45429 1.13106L5.42864 0.510027C5.40252 0.496658 5.37312 0.496658 5.34698 0.510027L4.31808 1.13106C4.29194 1.14441 4.26253 1.14441 4.23642 1.13106L3.20749 0.510027C3.18136 0.496658 3.15197 0.496658 3.12583 0.510027L2.10018 1.13106C2.07406 1.14441 2.04139 1.14441 2.01527 1.13106L1.07127 0.5601C1.01574 0.526721 0.947144 0.566785 0.947144 0.633566V15.7988C0.947144 15.8289 0.963472 15.8556 0.989607 15.869L2.01526 16.49C2.04138 16.5033 2.07405 16.5033 2.10017 16.49L3.12582 15.869C3.15196 15.8556 3.18135 15.8556 3.20748 15.869L4.23641 16.49C4.26252 16.5033 4.29193 16.5033 4.31807 16.49L5.34697 15.869C5.37311 15.8556 5.40251 15.8556 5.42863 15.869L6.45428 16.49C6.48042 16.5033 6.51307 16.5033 6.53921 16.49L7.56487 15.869C7.59098 15.8556 7.62366 15.8556 7.6498 15.869L8.67543 16.49C8.70157 16.5033 8.73422 16.5033 8.76036 16.49L9.78603 15.869C9.81216 15.8556 9.84482 15.8556 9.87095 15.869L10.8999 16.49C10.926 16.5033 10.9554 16.5033 10.9815 16.49L12.0137 15.869C12.0398 15.8556 12.0529 15.8289 12.0529 15.7988V0.633566C12.0529 0.566785 11.9843 0.526721 11.9321 0.5601ZM2.4007 10.9775H6.27464C6.45429 10.9775 6.60128 11.1244 6.60128 11.3114C6.60128 11.495 6.45429 11.6452 6.27464 11.6452H2.4007C2.22103 11.6452 2.07406 11.495 2.07406 11.3114C2.07406 11.1244 2.22103 10.9775 2.4007 10.9775ZM2.07406 9.58515C2.07406 9.40151 2.22103 9.25126 2.4007 9.25126H6.27464C6.45429 9.25126 6.60128 9.40151 6.60128 9.58515C6.60128 9.76879 6.45429 9.91904 6.27464 9.91904H2.4007C2.22103 9.91904 2.07406 9.76879 2.07406 9.58515ZM2.4007 12.7003H6.27464C6.45429 12.7003 6.60128 12.8506 6.60128 13.0342C6.60128 13.2212 6.45429 13.3681 6.27464 13.3681H2.4007C2.22103 13.3681 2.07406 13.2212 2.07406 13.0342C2.07406 12.8506 2.22103 12.7003 2.4007 12.7003ZM9.31893 12.6135C9.35813 12.6135 9.39405 12.6102 9.42673 12.6002C9.60964 12.5534 9.74683 12.3831 9.74683 12.1761C9.74683 11.9591 9.58024 11.7721 9.36792 11.7521C9.35486 11.7554 9.3418 11.7554 9.32872 11.7554C8.62646 11.7554 8.05484 11.1678 8.05484 10.4533C8.05484 10.2997 8.08749 10.1394 8.13976 9.99917C8.26714 9.6419 8.54807 9.34808 8.90082 9.22788V9.13106C8.90082 8.89065 9.09355 8.69365 9.32872 8.69365C9.56391 8.69365 9.75662 8.89065 9.75662 9.13106V9.22788C10.1094 9.34808 10.3903 9.6419 10.5177 9.99917C10.5732 10.1394 10.6026 10.2997 10.6026 10.4533C10.6026 10.687 10.4132 10.884 10.178 10.884C9.94607 10.884 9.75662 10.687 9.75662 10.4533C9.75662 10.2162 9.56391 10.0159 9.32872 10.0159C9.09355 10.0159 8.90082 10.2162 8.90082 10.4533C8.90082 10.6736 9.06741 10.8606 9.283 10.8773C9.29607 10.874 9.30585 10.874 9.31893 10.874C10.0277 10.874 10.5961 11.4616 10.5961 12.1761C10.5961 12.5234 10.4687 12.8305 10.2531 13.0609C10.1192 13.2145 9.9428 13.3314 9.74683 13.4015V13.4883C9.74683 13.5851 9.71742 13.672 9.66516 13.7454C9.5835 13.8556 9.45938 13.9257 9.31893 13.9257C9.087 13.9257 8.8943 13.7287 8.8943 13.4883V13.4015C8.54153 13.2813 8.25408 12.9875 8.12342 12.6235C8.07116 12.4833 8.04503 12.3331 8.04503 12.1761C8.04503 11.9424 8.23775 11.7454 8.47292 11.7454C8.47619 11.7454 8.47619 11.7454 8.47946 11.7454C8.70485 11.7521 8.89103 11.9424 8.8943 12.1694C8.8943 12.1728 8.8943 12.1728 8.8943 12.1761C8.8943 12.4232 9.08701 12.6135 9.31893 12.6135ZM2.2537 2.94074H10.7463C10.926 2.94074 11.073 3.08765 11.073 3.27463C11.073 3.45826 10.926 3.60852 10.7463 3.60852H2.2537C2.07406 3.60852 1.92706 3.45826 1.92706 3.27463C1.92706 3.08765 2.07406 2.94074 2.2537 2.94074ZM2.2537 4.71035H10.7463C10.926 4.71035 11.073 4.8606 11.073 5.04424C11.073 5.23121 10.926 5.37813 10.7463 5.37813H2.2537C2.07406 5.37813 1.92706 5.23121 1.92706 5.04424C1.92706 4.8606 2.07406 4.71035 2.2537 4.71035ZM2.2537 6.4833H10.7463C10.926 6.4833 11.073 6.63355 11.073 6.81719C11.073 7.00085 10.926 7.15108 10.7463 7.15108H2.2537C2.07406 7.15108 1.92706 7.00085 1.92706 6.81719C1.92706 6.63355 2.07406 6.4833 2.2537 6.4833Z" fill="white"/>
</svg>
