<svg width="17" height="16" viewBox="0 0 17 16" fill="none" xmlns="http://www.w3.org/2000/svg">
<path d="M15.4306 11.711V11.7008C15.4306 11.6974 15.4306 11.6974 15.4306 11.694L14.2503 8.87416C14.2537 8.86396 14.2503 8.85375 14.2503 8.84355V8.36735C14.2503 8.31973 14.2095 8.27891 14.1619 8.27891H11.9407V7.38434C11.9407 7.33672 11.8999 7.2959 11.8523 7.2959H11.0462C10.9985 7.2959 10.9577 7.33672 10.9577 7.38434V8.27891H8.67876C8.62774 8.27891 8.59032 8.31973 8.59032 8.36735V8.84015C8.59032 8.85035 8.58692 8.86056 8.59032 8.86736L7.40662 11.6905C7.40322 11.6905 7.41002 11.6905 7.40662 11.6905C7.40662 12.0273 7.98146 12.2994 8.69576 12.2994C9.39646 12.2994 9.9679 12.0375 9.98831 11.7076V11.6974C9.98831 11.694 9.98831 11.694 9.98831 11.6905L8.82162 8.93199H10.9577V13.779H9.88627C9.83865 13.779 9.79783 13.8198 9.79783 13.8675V14.3233C9.79783 14.3709 9.83865 14.4117 9.88627 14.4117H12.9067C12.9544 14.4117 12.9952 14.3709 12.9952 14.3233V13.8675C12.9952 13.8198 12.9544 13.779 12.9067 13.779H11.9407V8.93199H14.0122L12.8489 11.694C12.8455 11.694 12.8523 11.694 12.8489 11.694C12.8489 12.0307 13.4238 12.3028 14.1381 12.3028C14.8388 12.3028 15.4102 12.0375 15.4306 11.711ZM7.95425 11.3368L8.69576 9.57146L9.43728 11.3436L7.95425 11.3368ZM14.1415 9.57146L14.883 11.3436L13.3999 11.3368L14.1415 9.57146Z" fill="white"/>
<path d="M5.75708 0.961234L4.26257 1.92827L5.76881 1.93413C6.59518 1.93413 7.94903 1.93413 8.77541 1.93413L10.2758 1.92827L8.77541 0.961234C7.94903 0.433759 7.26918 -0.00580289 7.26332 5.79393e-05C7.25746 5.79393e-05 6.58346 0.433759 5.75708 0.961234Z" fill="white"/>
<path d="M3.15491 2.20347C3.14319 2.20933 3.13733 2.8423 3.13733 3.61007V4.99323H7.26921H11.4011L11.3952 3.59249L11.3894 2.19761L7.28093 2.19175C5.02452 2.18589 3.16077 2.19175 3.15491 2.20347ZM5.00107 2.86575C5.26481 2.9771 5.3117 3.34634 5.08898 3.49286L5.00693 3.55146L5.10071 3.58663C5.24137 3.63938 5.30584 3.75659 5.29411 3.96172C5.28825 4.09652 5.27067 4.14341 5.21792 4.20202C5.07726 4.34854 5.03038 4.36026 4.42671 4.37198L3.86407 4.3837V3.58663V2.80128L4.38569 2.813C4.77836 2.81886 4.93074 2.83058 5.00107 2.86575ZM6.75932 3.58663C6.92342 4.00861 7.05236 4.36026 7.05236 4.36026C7.05236 4.36612 6.94101 4.36612 6.80035 4.36612H6.54833L6.50731 4.23718L6.47214 4.10824H6.20254H5.93294L5.89192 4.23718L5.85089 4.36612H5.6106C5.48166 4.36612 5.3703 4.36026 5.3703 4.34854C5.3703 4.33681 5.49924 3.98517 5.65749 3.56319L5.94467 2.79542L6.21426 2.813L6.47214 2.81886L6.75932 3.58663ZM7.94321 3.23498L8.22453 3.6511L8.23625 3.23498L8.24797 2.81886L8.47068 2.813L8.69339 2.80714V3.59249V4.37784H8.46482H8.23625L7.96079 3.96758L7.68533 3.55732L7.67947 3.96758L7.67361 4.37784H7.44504H7.21646V3.58663V2.80128L7.43918 2.80714L7.66189 2.813L7.94321 3.23498ZM9.51391 3.10018L9.52563 3.3815L9.76593 3.09432L10.0062 2.80714H10.311C10.4751 2.80714 10.6157 2.813 10.6157 2.83058C10.6157 2.8423 10.5278 2.93608 10.4223 3.03571C10.3168 3.14121 10.1996 3.27014 10.1527 3.31703L10.0765 3.41667L10.1469 3.53388C10.1879 3.60421 10.3227 3.8152 10.4399 4.01447L10.6568 4.37198H10.3637H10.0648L9.94175 4.12583C9.87142 3.98517 9.80109 3.85037 9.77179 3.8152L9.73076 3.75073L9.61354 3.86795C9.49633 3.9793 9.49633 3.9793 9.49633 4.17857V4.37784H9.25603H9.02746V3.58663V2.80128L9.26189 2.813L9.49633 2.81886L9.51391 3.10018Z" fill="white"/>
<path d="M4.35059 3.2764V3.42292H4.49125C4.65535 3.42292 4.75498 3.37018 4.75498 3.2764C4.75498 3.18263 4.65535 3.12988 4.49125 3.12988H4.35059V3.2764Z" fill="white"/>
<path d="M4.35059 3.88578V4.04988H4.48539C4.56158 4.04988 4.66121 4.0323 4.71396 4.01472C4.79015 3.97955 4.80773 3.96197 4.80773 3.89164C4.80773 3.77443 4.72568 3.72754 4.52055 3.72754H4.35059V3.88578Z" fill="white"/>
<path d="M6.11464 3.51081L6.03259 3.78041H6.20842H6.37838L6.33736 3.65147C6.31391 3.58114 6.27875 3.45806 6.2553 3.38187C6.23186 3.30568 6.20842 3.24121 6.20842 3.24121C6.20256 3.24121 6.16153 3.35843 6.11464 3.51081Z" fill="white"/>
<path fill-rule="evenodd" clip-rule="evenodd" d="M0.388559 4.46036C0.412002 4.4252 0.96292 4.05011 1.6545 3.61054L2.87941 2.83105L2.89113 3.95047C2.89699 4.56586 2.91458 5.09333 2.9263 5.11678C2.94388 5.14022 2.97904 5.18125 3.01421 5.20469C3.07282 5.23986 3.51824 5.24572 7.26917 5.24572C11.2312 5.24572 11.549 5.25432 11.5993 5.14251C11.6077 5.12382 11.6087 5.10177 11.6179 5.07575C11.6355 5.01714 11.6472 4.61275 11.6472 3.90945C11.6472 3.05377 11.6531 2.83105 11.6824 2.84278C11.7996 2.88966 14.1205 4.41348 14.1498 4.46036C14.1732 4.50139 14.1849 4.71824 14.1849 5.25744V6.00762L14.1088 6.08381C14.0384 6.15414 14.015 6.16587 13.845 6.16587C13.8034 6.16587 13.7372 6.16689 13.6601 6.16808C13.6305 6.16854 13.5993 6.16902 13.5672 6.16948C12.9397 5.89566 12.2467 5.74378 11.5183 5.74378C10.7827 5.74378 10.0832 5.89866 9.45082 6.17759C9.09763 6.17762 8.80192 6.17805 8.76954 6.18345C8.70853 6.19454 8.70526 6.20039 8.70508 6.58358C8.38249 6.79563 8.08526 7.04309 7.81892 7.32045H7.71459H7.59152V7.57345C7.44494 7.74775 7.30976 7.93196 7.18712 8.12491V7.32045H7.06404H6.94096V8.55721C6.76311 8.90821 6.62444 9.28243 6.53071 9.67411V9.58273V7.31459H6.37832C6.27283 7.31459 6.19664 7.29701 6.13803 7.26184L6.04426 7.20323C6.04426 7.20226 6.04394 7.19504 6.04338 7.1824C6.04054 7.11856 6.03157 6.91642 6.02668 6.68162V6.16587L5.26477 6.16C4.84279 6.16 4.497 6.16587 4.48528 6.17173C4.47356 6.17759 4.46769 6.4003 4.46769 6.65818V7.12704L4.37392 7.22081C4.29187 7.30287 4.26843 7.31459 4.14535 7.31459H4.00469V9.58273V11.8509H4.15121C4.26843 11.8509 4.31531 11.8626 4.37392 11.9153C4.39183 11.9305 4.40553 11.9421 4.41609 11.9561C4.45044 12.0015 4.45149 12.0721 4.45597 12.3725L4.46183 12.7652H5.24719H6.02081V12.3842V12.0033L6.09701 11.9271C6.1732 11.8567 6.19664 11.8509 6.35488 11.8509H6.48336C6.62404 12.5788 6.91866 13.2518 7.33198 13.8348C3.95095 13.8349 0.550062 13.8203 0.494053 13.7908C0.370976 13.7322 0.347533 13.6326 0.359254 13.2516C0.364226 13.0453 0.358655 12.9318 0.412285 12.8681C0.48511 12.7816 0.667099 12.787 1.13288 12.7769L1.77171 12.7534L1.78344 12.3666L1.78352 12.3639C1.79516 11.9856 1.79534 11.9797 1.87135 11.9153C1.93582 11.8626 1.97684 11.8509 2.12336 11.8509H2.29333V9.58273V7.31459L2.09992 7.30287C1.92996 7.29701 1.90065 7.28528 1.84204 7.22081C1.77757 7.15048 1.77757 7.1329 1.77757 6.66404V6.18345L1.70724 6.16587C1.66622 6.15414 1.40834 6.15414 1.13288 6.15414H0.570244C0.535079 6.14828 0.47061 6.11312 0.429584 6.07209L0.353394 5.9959V5.25744C0.353394 4.71238 0.359254 4.50725 0.388559 4.46036ZM2.94974 11.8567V9.58859V7.32045H2.82666H2.70359V9.58859V11.8567H2.82666H2.94974ZM3.59443 11.8567V9.58859V7.32045H3.47135H3.34828V9.58859V11.8567H3.47135H3.59443Z" fill="white"/>
<circle cx="11.5182" cy="10.8714" r="4.87822" stroke="white" stroke-width="0.5"/>
</svg>
