<svg width="18" height="22" viewBox="0 0 18 22" fill="none" xmlns="http://www.w3.org/2000/svg">
<path d="M14.8098 9.72789V6.38347C14.8098 4.95569 14.1725 3.58638 13.038 2.57678C11.9035 1.56719 10.3648 1 8.76044 1C7.15605 1 5.61736 1.56719 4.48289 2.57678C3.34841 3.58638 2.71106 4.95569 2.71106 6.38347V9.72789C1.78816 10.7442 1.20738 11.9723 1.0359 13.27C0.86441 14.5678 1.10922 15.8822 1.74202 17.0614C2.37482 18.2405 3.36976 19.2361 4.61176 19.9331C5.85377 20.6301 7.29211 21 8.76044 21C10.2288 21 11.6671 20.6301 12.9091 19.9331C14.1511 19.2361 15.1461 18.2405 15.7789 17.0614C16.4117 15.8822 16.6565 14.5678 16.485 13.27C16.3135 11.9723 15.7327 10.7442 14.8098 9.72789Z" stroke="#BCBEC0" stroke-linecap="round" stroke-linejoin="round"/>
<path d="M8.7605 7.15253C9.96063 7.15321 11.1441 7.40247 12.2173 7.88059V6.38347C12.2173 5.56759 11.8531 4.78513 11.2048 4.20822C10.5565 3.6313 9.6773 3.3072 8.7605 3.3072C7.8437 3.3072 6.96445 3.6313 6.31618 4.20822C5.66791 4.78513 5.30371 5.56759 5.30371 6.38347V7.88059C6.37687 7.40245 7.56036 7.15319 8.7605 7.15253ZM10.777 13.0487C10.7782 12.7273 10.6825 12.4115 10.4997 12.1343C10.3169 11.8571 10.0538 11.6287 9.73795 11.4729C9.42206 11.3171 9.06495 11.2396 8.70393 11.2486C8.34291 11.2577 7.99124 11.3528 7.68566 11.5241C7.38009 11.6954 7.13182 11.9367 6.96682 12.2226C6.80181 12.5085 6.72611 12.8285 6.74764 13.1494C6.76916 13.4702 6.88712 13.78 7.08918 14.0464C7.29124 14.3128 7.56999 14.526 7.8963 14.6638V17.1504H9.6247V14.6638C9.96876 14.5191 10.2597 14.2906 10.4636 14.0047C10.6676 13.7189 10.7762 13.3874 10.777 13.0487Z" stroke="#BCBEC0" stroke-linecap="round" stroke-linejoin="round"/>
</svg>
