<svg width="34" height="34" viewBox="0 0 34 34" fill="none" xmlns="http://www.w3.org/2000/svg">
<path fill-rule="evenodd" clip-rule="evenodd" d="M19.4286 2.42857C19.4286 1.78447 19.1727 1.16676 18.7173 0.711312C18.2618 0.255867 17.6441 0 17 0C16.3559 0 15.7382 0.255867 15.2827 0.711312C14.8273 1.16676 14.5714 1.78447 14.5714 2.42857V14.5714H2.42857C1.78447 14.5714 1.16676 14.8273 0.711312 15.2827C0.255867 15.7382 0 16.3559 0 17C0 17.6441 0.255867 18.2618 0.711312 18.7173C1.16676 19.1727 1.78447 19.4286 2.42857 19.4286H14.5714V31.5714C14.5714 32.2155 14.8273 32.8332 15.2827 33.2887C15.7382 33.7441 16.3559 34 17 34C17.6441 34 18.2618 33.7441 18.7173 33.2887C19.1727 32.8332 19.4286 32.2155 19.4286 31.5714V19.4286H31.5714C32.2155 19.4286 32.8332 19.1727 33.2887 18.7173C33.7441 18.2618 34 17.6441 34 17C34 16.3559 33.7441 15.7382 33.2887 15.2827C32.8332 14.8273 32.2155 14.5714 31.5714 14.5714H19.4286V2.42857Z" fill="#464F60" fill-opacity="0.5"/>
</svg>
