<svg width="11" height="8" viewBox="0 0 11 8" fill="none" xmlns="http://www.w3.org/2000/svg">
<path d="M6.36837 1.35336C6.11268 1.11739 5.76604 0.984848 5.40462 0.984848C5.0432 0.984848 4.69657 1.11739 4.44087 1.35336L0.631555 4.87175C0.440905 5.04792 0.311079 5.27236 0.258486 5.51668C0.205894 5.76101 0.232898 6.01425 0.336085 6.2444C0.439271 6.47455 0.614007 6.67127 0.838202 6.8097C1.0624 6.94812 1.32599 7.02203 1.59565 7.02208H9.2136C9.48326 7.02203 9.74685 6.94812 9.97104 6.8097C10.1952 6.67127 10.37 6.47455 10.4732 6.2444C10.5763 6.01425 10.6034 5.76101 10.5508 5.51668C10.4982 5.27236 10.3683 5.04792 10.1777 4.87175L6.36837 1.35336Z" fill="#4CD964" fill-opacity="0.75"/>
</svg>
