<svg width="12" height="7" viewBox="0 0 12 7" fill="none" xmlns="http://www.w3.org/2000/svg">
<path d="M11.1107 1.60093C11.0067 1.37068 10.8305 1.17387 10.6043 1.03541C10.3782 0.896941 10.1123 0.82304 9.84025 0.823051H2.1595C1.88759 0.823105 1.62181 0.897014 1.39574 1.03544C1.16968 1.17386 0.993486 1.37058 0.88944 1.60073C0.785394 1.83088 0.758164 2.08413 0.811195 2.32845C0.864225 2.57278 0.995134 2.79721 1.18737 2.97339L5.02775 6.49177C5.2856 6.72793 5.63527 6.8606 5.99987 6.8606C6.36447 6.8606 6.71415 6.72793 6.972 6.49177L10.8124 2.97339C11.0046 2.79727 11.1356 2.57289 11.1887 2.32861C11.2418 2.08432 11.2147 1.83109 11.1107 1.60093Z" fill="#FF3B30" fill-opacity="0.75"/>
</svg>
