<svg width="40" height="46" viewBox="0 0 40 46" fill="none" xmlns="http://www.w3.org/2000/svg">
<path d="M34.778 0.982452H4.80232C2.28224 0.982452 0.226379 2.96109 0.226379 5.40639V43.8778C0.226379 44.5498 0.790082 45.0725 1.46984 45.0725C1.53616 45.0725 1.60248 45.0725 1.66879 45.0538C1.73511 45.0725 1.80143 45.0725 1.88433 45.0725C2.1496 45.0725 2.43145 44.9792 2.64698 44.8112L7.78662 40.9099L12.9263 44.8112C13.3739 45.1472 14.0205 45.1472 14.4682 44.8112L19.8068 40.7606L24.9796 44.6805C25.4272 45.0165 26.0738 45.0165 26.5214 44.6805L31.6611 40.7792L36.9002 44.7552C37.1489 44.9418 37.4473 45.0165 37.7292 45.0165C37.8452 45.0538 37.9613 45.0725 38.0939 45.0725C38.7903 45.0725 39.3374 44.5312 39.3374 43.8778V5.40639C39.354 2.96109 37.2981 0.982452 34.778 0.982452ZM7.83636 8.33701C7.83636 7.92635 8.16795 7.60903 8.59902 7.60903H24.3164C24.7309 7.60903 25.079 7.94502 25.079 8.33701V9.513C25.079 9.92366 24.7474 10.241 24.3164 10.241H8.59902C8.18453 10.241 7.83636 9.90499 7.83636 9.513V8.33701ZM31.1803 30.662C31.1803 31.0727 30.8487 31.39 30.4176 31.39H8.59902C8.18453 31.39 7.83636 31.054 7.83636 30.662V29.486C7.83636 29.0754 8.16795 28.7581 8.59902 28.7581H30.4176C30.8321 28.7581 31.1803 29.0941 31.1803 29.486V30.662ZM31.1803 23.6248C31.1803 24.0355 30.8487 24.3528 30.4176 24.3528H8.59902C8.18453 24.3528 7.83636 24.0168 7.83636 23.6248V22.4488C7.83636 22.0382 8.16795 21.7208 8.59902 21.7208H30.4176C30.8321 21.7208 31.1803 22.0568 31.1803 22.4488V23.6248ZM31.1803 16.5689C31.1803 16.9796 30.8487 17.2969 30.4176 17.2969H8.59902C8.18453 17.2969 7.83636 16.9609 7.83636 16.5689V15.3929C7.83636 14.9823 8.16795 14.6649 8.59902 14.6649H30.4176C30.8321 14.6649 31.1803 15.0009 31.1803 15.3929V16.5689Z" fill="white"/>
</svg>
