<svg width="35" height="44" viewBox="0 0 35 44" fill="none" xmlns="http://www.w3.org/2000/svg">
<path d="M1.36629 0.333607C1.27119 0.37033 1.11904 0.480497 1.02395 0.572304C0.60553 1.01297 0.624549 0.0765497 0.60553 21.8714C0.60553 36.0095 0.624549 42.4543 0.700625 42.6747C0.738663 42.8583 0.909834 43.1154 1.04297 43.2622L1.29021 43.5377L17.5514 43.556C33.2801 43.5744 33.8127 43.5744 34.0979 43.4091C34.2691 43.3173 34.4783 43.1154 34.5734 42.9685C34.7446 42.6747 34.7446 42.5278 34.7446 27.7837V12.9111L28.6585 12.8744C21.8878 12.8193 22.2681 12.8744 21.9638 12.2501C21.8497 11.9746 21.8307 11.3687 21.8307 6.09904V0.260162H11.6936C6.12103 0.260162 1.46138 0.296885 1.36629 0.333607ZM8.85976 18.346L6.76768 20.3657L6.17809 19.7965C5.85477 19.4844 5.55046 19.2273 5.49341 19.2273C5.45537 19.2273 5.26518 19.3559 5.09401 19.5395L4.7897 19.8516L5.56948 20.5677C6.00692 20.9717 6.44435 21.3389 6.55847 21.4307C6.76768 21.5592 6.7867 21.5409 9.08799 19.3375L11.4083 17.0974V20.2923V23.4872H7.73764H4.04796V19.9985C4.04796 18.0706 4.06698 16.4732 4.10502 16.4364C4.12404 16.3997 5.6836 16.3814 7.54745 16.3814H10.9328L8.85976 18.346ZM31.3782 19.9251L31.3592 20.8799H23.3712H15.3833L15.3643 19.9251L15.3452 18.9703H23.3712H31.3972L31.3782 19.9251ZM8.80271 26.682L6.76768 28.6467L6.17809 28.0775C5.85477 27.7653 5.55046 27.5083 5.51242 27.5083C5.45537 27.5083 5.2842 27.6184 5.11303 27.7653L4.80872 28.004L5.79771 28.9588L6.7867 29.9136L9.10701 27.6735L11.4273 25.4335V28.6283V31.8415L7.77568 31.8232L4.10502 31.8048L4.086 28.2611L4.06698 24.7357H7.43334H10.8377L8.80271 26.682ZM31.3782 28.2611L31.3972 29.2159H23.3712H15.3452V28.2978C15.3452 27.7837 15.3643 27.3614 15.4023 27.3247C15.4213 27.2879 19.0349 27.2696 23.3903 27.2879L31.3402 27.3063L31.3782 28.2611ZM8.85976 35.018C7.73764 36.1014 6.7867 37.0011 6.74866 37.0011C6.72964 37.0011 6.42534 36.6889 6.10201 36.3217L5.49341 35.6423L5.13205 35.9912L4.77068 36.34L5.75967 37.2948L6.74866 38.2496L9.06897 36.0095L11.3893 33.7695V36.9643V40.1592H7.71863H4.04796V36.5971V33.035H7.4904H10.9328L8.85976 35.018ZM31.3972 36.5787V37.5152H23.3712H15.3452V36.5787V35.6423H23.3712H31.3972V36.5787Z" fill="white"/>
<path d="M23.6946 5.34619C23.6946 9.95487 23.6946 10.2303 23.8657 10.469C24.2081 11.0198 24.113 11.0198 29.6095 11.0015L34.5734 10.9831L29.115 5.71342L23.6755 0.462097L23.6946 5.34619Z" fill="white"/>
</svg>
