<svg width="42" height="36" viewBox="0 0 42 36" fill="none" xmlns="http://www.w3.org/2000/svg">
<path d="M2.62047 1.00153C1.88141 1.22497 1.22829 1.79216 0.918912 2.49685C0.626724 3.13278 0.643912 4.18122 0.9361 4.83435C1.19391 5.38435 1.64079 5.84841 2.19079 6.10622C2.55172 6.29528 2.68922 6.29528 4.35641 6.29528C6.04079 6.29528 6.14391 6.29528 6.50485 6.10622C6.9861 5.84841 7.46735 5.34997 7.6736 4.92028L7.82829 4.57653H9.77048H11.7127L14.6345 12.1218C16.2502 16.264 17.5736 19.7015 17.5908 19.7359C17.608 19.7875 17.5392 19.839 17.4361 19.8734C17.1267 19.9593 15.9236 20.5609 15.5111 20.8531C14.9439 21.2484 13.9986 22.1593 13.5861 22.7437C13.1048 23.414 12.572 24.514 12.3658 25.3562C12.0908 26.3531 12.0908 28.2093 12.3658 29.2062C13.122 32.0078 15.2361 34.1218 18.0548 34.8953C18.6564 35.05 18.9658 35.0843 20.0314 35.0843C21.1658 35.0672 21.3892 35.05 22.0595 34.8437C24.0017 34.2593 25.5486 33.1078 26.5627 31.475C27.0439 30.7187 27.5595 29.4125 27.6455 28.725L27.697 28.3125L34.2283 25.9578C38.1986 24.514 40.8455 23.5172 40.983 23.3968C41.2752 23.139 41.3611 22.7265 41.1892 22.3656C41.0517 22.0906 40.6736 21.85 40.3986 21.85C40.3127 21.85 37.4767 22.864 34.0736 24.0843C30.6877 25.3218 27.8689 26.3187 27.8002 26.3187C27.7314 26.3187 27.6798 26.1468 27.6455 25.8718C27.6283 25.6312 27.6111 25.4078 27.6283 25.4078C27.6283 25.4078 30.2752 24.4453 33.472 23.2937C36.8408 22.0906 39.3845 21.1281 39.5048 21.025C39.9002 20.664 39.8658 20.4922 38.8689 17.6906C35.5173 8.28903 33.5924 2.9781 33.472 2.77185C33.3174 2.46247 33.1111 2.34216 32.7502 2.34216C32.4923 2.34216 28.4877 3.71716 28.333 3.87185C28.2986 3.90622 28.883 5.55622 29.622 7.54997C30.3783 9.54372 30.9799 11.2625 30.9799 11.3656C30.9799 11.4687 30.8939 11.675 30.7908 11.8468C30.4814 12.3109 30.2408 12.3281 28.5049 12.0187C27.0611 11.7609 26.9924 11.7609 26.8892 11.8984C26.8205 11.9843 26.4424 12.4828 26.0299 13.0156C25.1877 14.1156 24.8439 14.3734 24.3799 14.2015C24.2423 14.15 24.0533 14.0468 23.9674 13.9781C23.8986 13.9093 23.2627 12.2078 22.5752 10.1968C21.8877 8.18591 21.3033 6.50153 21.2689 6.46716C21.2174 6.39841 17.883 7.54997 16.972 7.9281C16.5595 8.09997 16.3189 8.49529 16.3877 8.85622C16.4048 8.97653 17.2642 11.3828 18.2611 14.1843C19.2752 16.9859 20.0658 19.3062 20.0486 19.3234C20.0314 19.3406 19.8767 19.375 19.722 19.4093L19.4298 19.4609L16.2502 11.2625C13.6892 4.71403 13.0361 3.06403 12.847 2.92653C12.658 2.78903 12.4517 2.77185 10.2517 2.75466H7.86266L7.65641 2.35935C7.38141 1.82653 6.67672 1.22497 6.14391 1.0531C5.69704 0.915596 3.05016 0.881221 2.62047 1.00153ZM5.71422 2.80622C6.31579 3.08122 6.31579 4.18122 5.71422 4.45622C5.57672 4.52497 5.04391 4.55935 4.27047 4.55935H3.05016L2.77516 4.31872C2.53454 4.09528 2.50016 4.02653 2.50016 3.63122C2.50016 3.23591 2.53454 3.16716 2.77516 2.94372L3.05016 2.7031H4.27047C5.04391 2.7031 5.57672 2.73747 5.71422 2.80622ZM21.8877 21.5234C23.1939 21.9703 24.4658 22.9843 25.1705 24.1531C25.7205 25.0468 25.9439 25.8718 25.9783 27.0234C26.0127 28.2093 25.8923 28.8625 25.4455 29.7906C23.933 33.039 19.9798 34.2593 16.8861 32.4547C16.1298 32.0078 15.2017 31.0797 14.7377 30.3062C12.7095 26.8515 14.5314 22.4515 18.3986 21.3687C19.3267 21.1625 20.9595 21.1968 21.8877 21.5234Z" fill="white"/>
</svg>
