<svg width="28" height="42" viewBox="0 0 28 42" fill="none" xmlns="http://www.w3.org/2000/svg">
<path d="M23.5539 42H4.44612C2.71267 42 0 39.0814 0 36.0381V11.7458C0 9.18305 1.95841 5.7839 4.03592 5.7839H6.45747V11.5678H21.5161V5.7839H23.6333C25.7108 5.7839 28 8.3822 28 11.7814V36.2161C28 39.7398 25.6446 42 23.5539 42ZM22.6144 18.0992C22.6144 17.7076 22.3762 17.3695 22.0718 17.3695H5.92817C5.63705 17.3695 5.38563 17.6898 5.38563 18.0992V19.5407C5.38563 19.9322 5.62382 20.2703 5.92817 20.2703H22.0718C22.3629 20.2703 22.6144 19.95 22.6144 19.5407V18.0992ZM22.6144 25.3424C22.6144 24.9508 22.3762 24.6127 22.0718 24.6127H5.92817C5.63705 24.6127 5.38563 24.9331 5.38563 25.3424V26.7839C5.38563 27.1932 5.62382 27.5136 5.92817 27.5136H22.0718C22.3629 27.5136 22.6144 27.1932 22.6144 26.7839V25.3424ZM22.6144 32.5856C22.6144 32.1941 22.3762 31.8559 22.0718 31.8559H5.92817C5.63705 31.8559 5.38563 32.1763 5.38563 32.5856V34.0271C5.38563 34.4186 5.62382 34.7568 5.92817 34.7568H22.0718C22.3629 34.7568 22.6144 34.4364 22.6144 34.0271V32.5856ZM12.9149 8.68475H8.60113V2.90085H10.758C10.758 1.29915 11.724 0 12.9149 0H15.0586C16.2495 0 17.2155 1.29915 17.2155 2.90085H19.3724V8.68475H12.9149ZM13.9868 2.43814C13.2457 2.43814 12.6371 3.25678 12.6371 4.25339C12.6371 5.25 13.2457 6.05085 13.9868 6.05085C14.7278 6.05085 15.3365 5.2322 15.3365 4.25339C15.3365 3.27458 14.7278 2.43814 13.9868 2.43814Z" fill="white"/>
</svg>
