<svg width="30" height="40" viewBox="0 0 30 40" fill="none" xmlns="http://www.w3.org/2000/svg">
<path d="M20.2892 4.69798C20.2892 8.95504 20.2892 9.20945 20.4396 9.42993C20.7404 9.93874 20.6569 9.93874 25.4869 9.92178L29.8491 9.90482L25.0524 5.03719L20.2725 0.186523L20.2892 4.69798Z" fill="white"/>
<path fill-rule="evenodd" clip-rule="evenodd" d="M0.668524 0.0678415C0.584958 0.101762 0.451254 0.203525 0.367688 0.288326C0.352813 0.304794 0.338567 0.31918 0.324922 0.332958L0.324922 0.332959C0.314324 0.34366 0.30409 0.353995 0.294205 0.364654C0.0153791 0.665329 0.0149346 1.22416 0.00195105 17.5463L0 19.9624C0 33.0219 0.0167131 38.975 0.0835655 39.1785C0.116992 39.3481 0.26741 39.5855 0.384402 39.7212L0.601672 39.9756L14.8914 39.9926C28.7131 40.0095 29.1811 40.0095 29.4318 39.8569C29.5822 39.7721 29.766 39.5855 29.8496 39.4498C30 39.1785 30 39.0428 30 25.4236V11.6857L24.6518 11.6518C24.1908 11.6478 23.7676 11.6445 23.3789 11.6414H23.3788C19.6692 11.6122 19.1031 11.6078 18.8975 11.3333C18.8605 11.2839 18.8352 11.2257 18.8053 11.157C18.794 11.1312 18.7822 11.104 18.7688 11.0751C18.6685 10.8207 18.6518 10.261 18.6518 5.3934V0H9.74373C4.8468 0 0.752089 0.0339207 0.668524 0.0678415ZM7.20334 24.406L5.41504 26.2208L4.89694 25.695C4.61281 25.4067 4.3454 25.1692 4.31198 25.1692C4.26184 25.1692 4.11142 25.271 3.961 25.4067L3.69359 25.6271L4.56267 26.5091L5.43175 27.391L7.47075 25.3218L9.50975 23.2527V26.2038V29.1719L6.30084 29.1549L3.07521 29.1379L3.0585 25.8646L3.04178 22.6082H6H8.99164L7.20334 24.406ZM27.0418 25.8646L27.0585 26.7465H20.0056H12.9526V25.8985C12.9526 25.4236 12.9694 25.0335 13.0028 24.9996C13.0195 24.9657 16.195 24.9487 20.0223 24.9657L27.0084 24.9826L27.0418 25.8646ZM7.25348 32.106C6.26741 33.1067 5.43176 33.9377 5.39833 33.9377C5.38162 33.9377 5.11421 33.6494 4.83008 33.3102L4.29526 32.6827L3.97772 33.0049L3.66017 33.3271L4.52925 34.2091L5.39833 35.091L7.43733 33.0219L9.47632 30.9527V33.9038V36.8549H6.2507H3.02507V33.5646V30.2743H6.05014H9.07521L7.25348 32.106ZM27.0585 33.5476V34.4126H20.0056H12.9526V33.5476V32.6827H20.0056H27.0585V33.5476ZM12.2657 5.11851C11.5249 5.22591 10.9075 5.56005 10.3783 6.13286C9.36698 7.23074 9.24351 8.85966 10.0726 10.1306C10.2489 10.3991 10.637 10.7989 10.9075 10.9779C12.0658 11.7655 13.5181 11.7297 14.6294 10.8824C14.7176 10.8108 14.894 10.6437 15.0174 10.5125C16.0582 9.38474 16.164 7.71405 15.282 6.44313C14.6235 5.48248 13.4005 4.95144 12.2657 5.11851ZM12.8948 6.33573C12.9654 6.39539 12.9713 6.42523 12.983 6.6281L12.9948 6.85483L13.2182 6.90257C13.4828 6.96223 13.7415 7.0756 13.8944 7.21284C14.0179 7.32024 14.1472 7.55891 14.1472 7.67825C14.1472 7.93482 13.8356 8.07205 13.6592 7.89305C13.6181 7.85128 13.5828 7.78565 13.5828 7.75581C13.5828 7.72598 13.5593 7.68421 13.5357 7.66035C13.4652 7.58874 13.2535 7.50521 13.1124 7.48731L12.9889 7.46941V7.76178V8.05415L13.1477 8.08399C13.3593 8.12575 13.6827 8.23912 13.8003 8.31669C14.0179 8.45392 14.1531 8.68066 14.1531 8.89546C14.1531 9.11623 13.9767 9.39071 13.7298 9.53391C13.5828 9.62341 13.2888 9.72484 13.1183 9.74871L12.9889 9.76661V9.95755C12.9889 10.1783 12.9595 10.2619 12.8537 10.3215C12.7302 10.3991 12.6185 10.3812 12.5127 10.2738C12.4245 10.1843 12.4186 10.1724 12.4186 9.97545V9.77258L12.1716 9.71291C11.8718 9.64131 11.6836 9.54584 11.5131 9.39667C11.225 9.13413 11.1838 8.79403 11.4308 8.67469C11.5425 8.62099 11.566 8.62099 11.6719 8.67469C11.7306 8.70453 11.7777 8.75823 11.8188 8.8358C11.8894 8.979 11.9482 9.02673 12.1716 9.09833L12.2044 9.10899C12.3045 9.14157 12.3579 9.15897 12.3864 9.13963C12.419 9.11749 12.4189 9.04713 12.4186 8.89616L12.4186 8.8537V8.56133L12.1893 8.51359C11.9012 8.45989 11.5719 8.30476 11.4367 8.16155C11.3132 8.03028 11.2367 7.79758 11.2661 7.64841C11.3132 7.39781 11.4896 7.18897 11.7836 7.04577C11.9776 6.9503 12.2481 6.86677 12.3598 6.86677C12.4186 6.86677 12.4245 6.85483 12.4245 6.66986C12.4245 6.46103 12.4539 6.38346 12.5421 6.31186C12.6185 6.24622 12.8008 6.25816 12.8948 6.33573ZM11.8541 7.74365C11.8306 7.67205 12.0011 7.56465 12.2539 7.49901L12.4009 7.46918L12.4068 7.71381C12.4127 7.84508 12.4127 7.96442 12.4068 7.97038C12.4009 7.97635 12.3186 7.95845 12.2186 7.93458C12.0246 7.88685 11.8835 7.81525 11.8541 7.74365ZM12.983 8.91317C12.983 9.10411 12.9888 9.15781 13.0182 9.15781C13.1123 9.15781 13.4181 9.03847 13.5004 8.97284L13.5886 8.90124L13.518 8.8356C13.4475 8.77594 13.1358 8.66257 13.0359 8.66257C12.9888 8.66257 12.983 8.68643 12.983 8.91317ZM2.00554 6.56216C2.00554 6.44879 2.05846 6.35332 2.14078 6.30559C2.1937 6.28172 2.42301 6.26979 3.1815 6.25785H4.15166L4.22221 6.32946C4.29277 6.40106 4.31041 6.47862 4.4574 7.21254L4.61616 8.01805H6.67407L6.90623 8.01803C8.61659 8.01786 8.82906 8.01784 8.88938 8.11363C8.89793 8.12722 8.90343 8.14273 8.9097 8.16044L8.90971 8.16045L8.91426 8.17318C8.92602 8.21495 8.94954 8.37605 8.95542 8.53119C8.97306 8.86533 9.05538 9.25317 9.16709 9.58134C9.53164 10.6315 10.4077 11.5205 11.4426 11.8905C11.8894 12.0516 12.1893 12.1053 12.7008 12.1053C13.3358 12.1053 13.7533 12.0158 14.3119 11.7473C14.453 11.6816 14.6059 11.6279 14.6588 11.6279C14.7646 11.6279 14.8999 11.7353 14.9234 11.8368C14.9351 11.9084 14.7352 13.06 14.6941 13.1435L14.6874 13.156C14.6841 13.1621 14.6811 13.168 14.6776 13.1736C14.6141 13.2773 14.4233 13.3031 10.7032 13.806L10.7032 13.806L10.3078 13.8595C7.9735 14.1757 6.04494 14.4383 6.03318 14.4442C5.98614 14.4562 6.22721 14.7008 6.38596 14.8082C6.47416 14.8619 6.62704 14.9455 6.73287 14.9813L6.9269 15.0529L10.4489 15.0648C12.3892 15.0708 13.9944 15.0887 14.0238 15.1006C14.0885 15.1364 14.1531 15.2617 14.1531 15.3691C14.1531 15.4288 14.1237 15.4825 14.0591 15.5481L13.965 15.6436L10.3901 15.6376L6.81519 15.6316L6.62704 15.566C5.96262 15.3393 5.4746 14.8619 5.26881 14.2533C5.23941 14.1578 3.79299 6.9142 3.79299 6.84856C3.79299 6.8426 3.43433 6.8426 2.99334 6.8426H2.1937L2.09962 6.74713C2.02906 6.68149 2.00554 6.63376 2.00554 6.56216ZM6.67405 16.2584C5.85677 16.4076 5.32171 17.225 5.51574 18.0425C5.63921 18.5735 6.07432 19.0091 6.59173 19.1344C7.49134 19.3492 8.35566 18.663 8.35566 17.7322C8.35566 17.0758 7.997 16.5508 7.3855 16.324C7.19147 16.2465 6.87984 16.2226 6.67405 16.2584ZM11.3133 17.3085C11.4838 16.7417 11.9306 16.3539 12.5245 16.2465C12.6597 16.2226 13.0008 16.2644 13.1772 16.324C13.8769 16.5687 14.2826 17.3145 14.112 18.0424C13.9298 18.8181 13.1242 19.3253 12.3775 19.1344C11.8777 19.0031 11.5073 18.663 11.3368 18.1737C11.2545 17.9291 11.2427 17.5412 11.3133 17.3085Z" fill="white"/>
</svg>
