<svg width="26" height="48" viewBox="0 0 26 48" fill="none" xmlns="http://www.w3.org/2000/svg">
<path d="M12.0901 3.27437V5.91657L11.7157 5.97662C9.71878 6.29689 8.57472 6.59714 7.26424 7.25769C5.30892 8.17845 3.76963 9.61965 2.85438 11.3811C1.68951 13.623 1.4815 16.7656 2.31355 19.3878C3.33281 22.5704 6.22418 24.7723 12.3813 27.1342C14.5655 27.9549 15.1063 28.2151 16.1048 28.8757C17.4568 29.7764 18.1017 30.7773 18.3097 32.2185C18.5385 33.7598 18.1433 35.201 17.228 36.1417C16.3336 37.0425 15.1895 37.4628 13.5254 37.4628C11.8613 37.4628 10.6132 37.0225 9.55237 36.0817C8.55392 35.201 8.07549 34 7.95068 32.2185L7.88828 31.2377H4.20646H0.545441V32.1784C0.545441 35.9616 2.08473 38.884 5.05931 40.8056C6.78581 41.9266 8.59552 42.5471 11.1333 42.9074L11.5701 42.9674V45.4095V47.8515H13.6086H15.6471V45.3894V42.9274L15.8759 42.8874C16.0008 42.8673 16.5208 42.7673 17.0408 42.6872C20.5146 42.1267 23.406 40.2652 24.7789 37.7231C26.2974 34.9407 26.2766 30.8974 24.7581 28.055C24.4253 27.4345 24.1132 27.0342 23.2812 26.2535C21.5547 24.5721 19.2041 23.251 15.0023 21.5496C12.6518 20.6088 11.4869 19.9683 10.6756 19.2076C9.61478 18.2068 9.15715 16.7456 9.38596 15.0642C9.69798 12.8624 11.0293 11.5813 13.1718 11.4212C16.188 11.181 18.0185 13.0425 18.3721 16.7256L18.4345 17.5062H22.1163H25.7981V16.8657C25.7981 15.3044 25.3821 13.3828 24.7581 11.9816C23.7596 9.75977 21.9499 7.95827 19.6202 6.93742C18.7881 6.57712 17.3736 6.15677 16.604 6.03667L16.1048 5.97662V3.3144V0.612152H14.0662H12.0485L12.0901 3.27437Z" fill="white"/>
</svg>
