<svg width="16" height="16" viewBox="0 0 16 16" fill="none" xmlns="http://www.w3.org/2000/svg">
<path d="M5.48475 3.04099C5.12881 3.13168 4.80254 3.38673 4.64831 3.68712L4.57119 3.83449L3.79407 3.84015C3.05847 3.84582 3.01695 3.85149 2.93983 3.9025C2.79746 4.00452 2.75 4.08954 2.75 4.25391C2.75 4.41827 2.79153 4.50329 2.93983 4.60531C3.01102 4.65632 3.05847 4.66199 3.79407 4.66766L4.57119 4.67332L4.64831 4.82069C4.68983 4.90571 4.79661 5.04173 4.89746 5.13242C5.28898 5.5065 5.86441 5.60852 6.37458 5.37614C6.6 5.27411 6.86695 5.0304 6.97373 4.82069L7.05085 4.66766L10.0169 4.66199C12.9653 4.65632 12.9831 4.65632 13.0602 4.59964C13.2025 4.49762 13.25 4.4126 13.25 4.24824C13.25 4.08387 13.2085 3.99885 13.0602 3.89683C12.989 3.84015 12.9653 3.84015 10.0169 3.83449L7.05085 3.82882L6.97966 3.68146C6.71271 3.17702 6.06017 2.88796 5.48475 3.04099ZM5.98305 3.87416C6.2678 3.98752 6.33305 4.33892 6.11356 4.54863C5.93559 4.71867 5.68644 4.71867 5.50847 4.54863C5.17034 4.2199 5.54407 3.69279 5.98305 3.87416Z" fill="white"/>
<path d="M9.86885 6.53879C9.51825 6.62936 9.19737 6.87278 9.03098 7.18413L8.94779 7.33132L5.9826 7.33698C3.03523 7.34264 3.0174 7.34264 2.94015 7.39925C2.79754 7.50115 2.75 7.58606 2.75 7.75023C2.75 7.91439 2.7916 7.99931 2.94015 8.10121C3.01146 8.15782 3.03523 8.15781 5.9826 8.16348L8.94779 8.16914L9.03098 8.31632C9.14389 8.52011 9.36969 8.74655 9.55985 8.84279C9.96986 9.04658 10.3977 9.05224 10.8018 8.85977C10.9919 8.7692 11.2653 8.50879 11.3544 8.32198L11.4317 8.1748L12.2101 8.16914C12.9469 8.16348 12.9885 8.15781 13.0598 8.10687C13.2025 8.00497 13.25 7.92006 13.25 7.75589C13.25 7.59172 13.2084 7.50681 13.0598 7.40491C12.9885 7.35396 12.941 7.3483 12.2101 7.34264L11.4317 7.33698L11.3604 7.19546C11.0989 6.67465 10.4452 6.3916 9.86885 6.53879ZM10.368 7.37094C10.6532 7.48416 10.7186 7.83514 10.4987 8.0446C10.3205 8.21442 10.0709 8.21442 9.89261 8.0446C9.5539 7.72192 9.92827 7.19546 10.368 7.37094Z" fill="white"/>
<path d="M6.35696 10.0389C6.00637 10.1294 5.68548 10.3728 5.5191 10.6842L5.43591 10.8314L4.22368 10.837C3.05306 10.8427 3.01146 10.8483 2.94015 10.8993C2.79754 11.0012 2.75 11.0861 2.75 11.2503C2.75 11.4144 2.7916 11.4993 2.94015 11.6012C3.01146 11.6522 3.05306 11.6578 4.22368 11.6635L5.43591 11.6692L5.5191 11.8163C5.632 12.0201 5.85781 12.2466 6.04796 12.3428C6.45798 12.5466 6.88582 12.5522 7.2899 12.3598C7.48005 12.2692 7.7534 12.0088 7.84253 11.822L7.91978 11.6692L10.4512 11.6635C12.9588 11.6578 12.9826 11.6578 13.0598 11.6012C13.2025 11.4993 13.25 11.4144 13.25 11.2503C13.25 11.0861 13.2084 11.0012 13.0598 10.8993C12.9885 10.8427 12.9588 10.8427 10.4512 10.837L7.91978 10.8314L7.84847 10.6842C7.58107 10.1747 6.93336 9.89167 6.35696 10.0389ZM6.85611 10.871C7.14134 10.9842 7.20671 11.3352 6.98684 11.5446C6.80857 11.7144 6.559 11.7144 6.38073 11.5446C6.03608 11.222 6.41044 10.6898 6.85611 10.871Z" fill="white"/>
<path d="M14.0136 0H1.98644C0.888135 0 0 0.888135 0 1.98644V14.0136C0 15.1119 0.888135 16 1.98644 16H10.2712C10.6169 16 10.8949 15.722 10.8949 15.3763C10.8949 15.0305 10.6169 14.7525 10.2712 14.7525H1.98644C1.57966 14.7525 1.24746 14.4203 1.24746 14.0136V1.98644C1.24746 1.57966 1.57966 1.24746 1.98644 1.24746H14.0136C14.4203 1.24746 14.7525 1.57966 14.7525 1.98644V14.0136C14.7525 14.4271 14.4407 14.7525 14.0339 14.7525C13.6881 14.7525 13.4102 15.0305 13.4102 15.3763C13.4102 15.722 13.6881 16 14.0339 16C15.1186 16 16 15.1051 16 14.0136V1.98644C16 0.888135 15.1119 0 14.0136 0Z" fill="white"/>
</svg>
