<svg width="16" height="18" viewBox="0 0 16 18" fill="none" xmlns="http://www.w3.org/2000/svg">
<path fill-rule="evenodd" clip-rule="evenodd" d="M9.67072 3.72779V0.625L12.7061 3.72779H9.67072ZM9.21426 0.625H1.625V16.625H6.73979C5.94728 16.1326 5.30264 15.4246 4.88775 14.5831H3.2392C3.09508 14.5831 2.97834 14.4638 2.97834 14.3165C2.97834 14.1691 3.09508 14.0498 3.2392 14.0498H4.66239C4.52956 13.6761 4.43993 13.2818 4.3995 12.8731H3.2392C3.09508 12.8731 2.97834 12.7538 2.97834 12.6065C2.97834 12.4592 3.09508 12.3398 3.2392 12.3398H4.37512C4.37791 11.9343 4.42898 11.5403 4.52285 11.1632H3.2392C3.09508 11.1632 2.97834 11.0439 2.97834 10.8965C2.97834 10.7492 3.09508 10.6299 3.2392 10.6299H4.68798C4.84522 10.2077 5.05786 9.81258 5.31705 9.45323H3.2392C3.09508 9.45323 2.97834 9.3339 2.97834 9.18657C2.97834 9.03925 3.09508 8.91992 3.2392 8.91992H5.76079C6.67111 7.96794 7.95381 7.375 9.375 7.375C10.6545 7.375 11.8218 7.85563 12.7061 8.6462V4.19439H9.21426V0.625ZM12.7061 16.1038C12.4902 16.2968 12.2574 16.4714 12.0102 16.625H12.7061V16.1038ZM3.71382 3.27154C4.16819 2.80709 4.79583 2.51974 5.48925 2.51974C6.18267 2.51974 6.81031 2.80709 7.26468 3.27154C7.71905 3.736 8.00016 4.37775 8.00016 5.08638C8.00016 5.79501 7.71905 6.43676 7.26468 6.90122C6.81031 7.36567 6.1825 7.65301 5.48925 7.65301C4.796 7.65301 4.16819 7.36567 3.71382 6.90122C3.25945 6.43676 2.97834 5.79501 2.97834 5.08638C2.97834 4.37775 3.25945 3.736 3.71382 3.27154ZM6.04814 6.35614C5.95671 6.41304 5.85568 6.45353 5.75011 6.47796H5.74976V6.61191C5.74976 6.75924 5.63303 6.87856 5.4889 6.87856C5.34477 6.87856 5.22804 6.75924 5.22804 6.61191V6.46851C5.15371 6.44907 5.08094 6.4216 5.0115 6.38611L5.01115 6.387C4.76948 6.26357 4.56986 6.04597 4.48489 5.7333C4.44667 5.59168 4.52798 5.44524 4.66636 5.40618C4.8049 5.36712 4.94816 5.45024 4.98637 5.59168C5.02755 5.74364 5.12526 5.84959 5.24357 5.91006L5.24322 5.91095L5.24357 5.91113C5.32977 5.95518 5.42713 5.97587 5.52293 5.97355C5.61506 5.97141 5.7037 5.94733 5.77698 5.90185C5.86213 5.84888 5.92722 5.76273 5.94903 5.64394C5.9752 5.49822 5.8829 5.4547 5.76058 5.43151C5.69585 5.4192 5.62832 5.41029 5.55974 5.40137C5.09438 5.34072 4.59726 5.2758 4.57213 4.5784C4.56027 4.24879 4.69864 4.00372 4.90977 3.84837C5.00452 3.77863 5.11322 3.72886 5.22839 3.69943V3.56049C5.22839 3.41316 5.34512 3.29384 5.48925 3.29384C5.63338 3.29384 5.75011 3.41316 5.75011 3.56049V3.69997C5.76651 3.70407 5.78292 3.70871 5.79914 3.71352C6.10398 3.8052 6.37775 4.03226 6.49134 4.40182C6.53409 4.5422 6.45749 4.69148 6.32017 4.73518C6.18285 4.77888 6.0368 4.70058 5.99405 4.56021C5.93873 4.38042 5.8035 4.26948 5.6524 4.224C5.57231 4.19992 5.48803 4.19368 5.40863 4.20473C5.33483 4.21508 5.26712 4.24023 5.21338 4.27982C5.13695 4.33601 5.08705 4.42947 5.09176 4.55985C5.10066 4.80599 5.37147 4.84149 5.62483 4.87448L5.62707 4.87478C5.70552 4.88502 5.7829 4.89513 5.85428 4.90873C6.26294 4.9865 6.56812 5.14952 6.46046 5.74097V5.74204C6.40881 6.02367 6.25317 6.22861 6.04814 6.35614ZM5.48925 3.05305C6.03854 3.05305 6.53584 3.28064 6.89581 3.6486C7.25578 4.01656 7.47843 4.52489 7.47843 5.08638C7.47843 5.64786 7.25578 6.1562 6.89581 6.52416C6.53584 6.89212 6.03854 7.11971 5.48925 7.11971C4.93996 7.11971 4.44266 6.89212 4.08269 6.52416C3.72272 6.1562 3.50007 5.64786 3.50007 5.08638C3.50007 4.52489 3.72272 4.01656 4.08269 3.6486C4.44266 3.28064 4.93996 3.05305 5.48925 3.05305Z" fill="white"/>
<path d="M9.375 17.625C12.2745 17.625 14.625 15.2745 14.625 12.375C14.625 9.47551 12.2745 7.125 9.375 7.125C6.4755 7.125 4.125 9.47551 4.125 12.375C4.125 15.2745 6.4755 17.625 9.375 17.625Z" stroke="white" stroke-width="0.5"/>
<path d="M5.5 11.0943L8.69613 13.6683V12.1083C9.66465 12.1083 12.1286 12.1253 12.1286 14.2482C12.1286 15.3605 11.1872 16.2864 9.93584 16.5C11.9465 16.2728 13.5 14.8417 13.5 13.0986C13.5 9.85312 9.36247 9.82599 8.69613 9.82599V8.5L5.5 11.0943Z" fill="white"/>
</svg>
