<svg width="22" height="18" viewBox="0 0 22 18" fill="none" xmlns="http://www.w3.org/2000/svg">
<path d="M11.6591 4.7387L14.8371 7.29804V5.74693C15.8001 5.74693 18.25 5.76378 18.25 7.87466C18.25 8.98067 17.314 9.90123 16.0697 10.1137C18.069 9.88774 19.6137 8.46476 19.6137 6.73155C19.6137 3.50455 15.4996 3.47757 14.8371 3.47757V2.15912L11.6591 4.7387Z" fill="white"/>
<path fill-rule="evenodd" clip-rule="evenodd" d="M17.4913 11.4686C19.6754 10.7402 21.25 8.67897 21.25 6.25C21.25 3.21243 18.7876 0.75 15.75 0.75C14.2994 0.75 12.98 1.31156 11.9973 2.22915L9.04728 1.25L4.86903 2.63684L9.04728 4.02722L11.0741 3.35277C10.8699 3.68151 10.6995 4.03336 10.5676 4.4035L9.33813 4.83237L9.33103 9.61359L11.0025 9.02859C11.106 9.20511 11.2191 9.37533 11.341 9.53856L9.12776 10.2732L13.306 11.6636L13.9508 11.449C14.4875 11.6347 15.0619 11.7396 15.6594 11.7493L13.5969 12.4687L13.5898 17.2499L17.4913 15.8844V11.4686ZM11.8439 9.37164C11.7138 9.20905 11.5937 9.03818 11.4844 8.85991L11.4739 8.84268C11.0145 8.0867 10.75 7.19924 10.75 6.25C10.75 5.51349 10.9092 4.81417 11.1952 4.1846C11.3755 3.78756 11.6062 3.41826 11.8792 3.08487L11.8918 3.06954C12.0891 2.83046 12.3082 2.61003 12.546 2.41129C13.4137 1.68631 14.5309 1.25 15.75 1.25C18.5114 1.25 20.75 3.48858 20.75 6.25C20.75 9.01142 18.5114 11.25 15.75 11.25C15.4296 11.25 15.1162 11.2199 14.8125 11.1623C14.7955 11.159 14.7784 11.1557 14.7614 11.1523C13.5886 10.9171 12.564 10.2715 11.8439 9.37164Z" fill="white"/>
<path d="M5.22619 12.4688L5.21909 17.25L9.12068 15.8844L13.0187 17.2499L13.0152 12.4687L9.12067 11.1103L5.22619 12.4688Z" fill="white"/>
<path d="M4.93534 8.88641L0.757094 10.2733L4.93534 11.6636L9.11359 10.2733L4.93534 8.88641Z" fill="white"/>
<path d="M0.75 15.8844L4.64804 17.25L4.6445 12.4688L0.75 11.1103V15.8844Z" fill="white"/>
<path d="M4.86194 8.24803L8.75998 9.61359L8.75643 4.83237L4.86194 3.47391V8.24803Z" fill="white"/>
</svg>
