<svg width="18" height="12" viewBox="0 0 18 12" fill="none" xmlns="http://www.w3.org/2000/svg">
<path d="M10.781 1.96972C10.4913 2.15629 10.4989 1.96972 10.4989 5.60419V8.88791H7.95238C6.54952 8.88791 5.40588 8.89537 5.40588 8.90283C5.40588 8.9103 5.46688 9.01478 5.55074 9.13419C5.79472 9.49241 5.88621 9.776 5.90908 10.276L5.93196 10.7313H9.33237H12.7328V10.4178C12.7328 9.61928 13.0759 8.95507 13.7087 8.53715C14.616 7.93264 15.7825 8.02966 16.5602 8.77596C17.0024 9.20135 17.2311 9.73123 17.2311 10.3656V10.7313H17.3531C17.5513 10.7313 17.8487 10.5596 17.9325 10.3954C18.0011 10.2611 18.0088 10.0894 17.9935 8.24609L17.9783 6.24601L17.8487 6.05943C17.7572 5.93256 17.6199 5.82808 17.376 5.70121C16.8118 5.40269 16.7889 5.37284 15.9731 3.78322C15.569 2.99961 15.1954 2.29809 15.142 2.22346C15.0887 2.14883 14.9438 2.03688 14.8142 1.97718L14.5931 1.86523H12.748C10.9868 1.88762 10.903 1.89509 10.781 1.96972ZM14.4254 2.70855C14.5169 2.77572 14.6541 3.06678 15.0429 3.98472C15.325 4.64147 15.5538 5.20865 15.5538 5.24597C15.5538 5.28328 15.5156 5.36538 15.4623 5.42508L15.3784 5.53703H13.7011C12.2296 5.53703 12.0161 5.52956 11.9094 5.46986C11.6578 5.3206 11.6501 5.28328 11.6501 3.92502C11.6501 2.79065 11.6578 2.68616 11.7264 2.64885C11.7721 2.619 12.2372 2.60407 13.053 2.61153C14.2424 2.619 14.311 2.62646 14.4254 2.70855Z" fill="white"/>
<path d="M3.30917 8.73145C2.82122 8.82101 2.2799 9.26879 2.09692 9.72403C2.02068 9.9106 1.9978 10.0449 1.9978 10.3584C1.9978 10.7091 2.01305 10.7838 2.11217 11.0002C2.43238 11.6719 3.0042 12.0226 3.74376 11.9853C4.38419 11.9629 4.92551 11.6047 5.19999 11.045C5.77943 9.82851 4.67391 8.46279 3.30917 8.73145Z" fill="white"/>
<path d="M14.5931 8.7392C13.5028 9.00041 12.9538 10.2393 13.518 11.1796C14.0136 12.008 15.1573 12.2543 15.9502 11.7095C16.2475 11.5005 16.4762 11.1945 16.583 10.8512C16.9794 9.61983 15.8587 8.44068 14.5931 8.7392Z" fill="white"/>
<path d="M0.29759 8.99218C0.0612381 9.1489 0.000244141 9.31309 0.000244141 9.82057C0.000244141 10.2161 0.0154926 10.2833 0.0993594 10.4027C0.282341 10.6714 0.381457 10.7087 0.915154 10.7311L1.40311 10.746L1.42598 10.2907C1.44885 9.77579 1.54034 9.4922 1.78432 9.13397C1.86818 9.01457 1.92918 8.91008 1.92918 8.90262C1.92918 8.89516 1.59371 8.8877 1.182 8.8877C0.488196 8.89516 0.434826 8.89516 0.29759 8.99218Z" fill="white"/>
<path fill-rule="evenodd" clip-rule="evenodd" d="M0.164093 0.150192C0.194843 0.125408 0.231339 0.107754 0.274651 0.0820931C0.404263 0.00746316 0.579621 0 4.89494 0H9.38563L9.53811 0.126871C9.62198 0.201501 9.70584 0.328372 9.72872 0.417928C9.75921 0.529873 9.77446 1.78365 9.76684 4.14196L9.75159 7.70181L9.65247 7.8436C9.62375 7.88214 9.60511 7.91515 9.58091 7.94339C9.43171 8.11751 9.07079 8.11019 4.82633 8.09735L0.350894 8.08242L0.23653 7.97794C0.200994 7.94526 0.170781 7.92122 0.145097 7.89305C-0.011067 7.72177 0.000178214 7.39786 0.000178214 4.0524C0.000178214 0.662939 -0.0108519 0.291192 0.164093 0.150192ZM8.48198 1.39373C8.44779 1.37365 8.40653 1.3662 8.36703 1.37365L4.0492 0.822473C4.01855 0.818458 3.98907 0.823046 3.96314 0.834517L1.46911 1.90132C1.40662 1.9277 1.37067 1.98793 1.37244 2.04987V6.69161C1.37244 6.77592 1.44081 6.84475 1.52629 6.84819L6.49784 7.38618C6.50609 7.3879 6.51493 7.38848 6.52378 7.38848C6.56032 7.38848 6.59392 7.37701 6.62104 7.35693L8.5368 6.24482C8.58985 6.21442 8.61815 6.15878 8.6152 6.10258L8.5816 1.53826C8.5816 1.47288 8.54034 1.41724 8.48198 1.39373ZM6.68588 6.95373V2.76337L8.26152 1.79693L8.29276 6.02113L6.68588 6.95373ZM6.36226 2.80753V7.05524L1.69605 6.55109V2.22824L2.83726 2.36991L2.68341 4.43182L3.4279 4.02231L4.1724 4.51556L4.24195 2.54427L6.36226 2.80753ZM4.463 2.2552L6.02686 1.39143L7.92317 1.63347L6.49725 2.50756L4.463 2.2552ZM4.5526 1.20331L3.0365 2.07797L2.12341 1.96498L4.05274 1.13965L4.5526 1.20331Z" fill="white"/>
</svg>
