<svg width="12" height="16" viewBox="0 0 12 16" fill="none" xmlns="http://www.w3.org/2000/svg">
<path fill-rule="evenodd" clip-rule="evenodd" d="M8.50519 0V3.10279H11.5406L8.50519 0ZM0.459473 0H8.04873V3.56939H11.5406V16H0.459473V0ZM4.32372 1.89474C3.6303 1.89474 3.00266 2.18209 2.54829 2.64654C2.09392 3.111 1.81281 3.75275 1.81281 4.46138C1.81281 5.17001 2.09392 5.81176 2.54829 6.27622C3.00266 6.74067 3.63047 7.02801 4.32372 7.02801C5.01697 7.02801 5.64478 6.74067 6.09915 6.27622C6.55353 5.81176 6.83463 5.17001 6.83463 4.46138C6.83463 3.75275 6.55353 3.111 6.09915 2.64654C5.64478 2.18209 5.01714 1.89474 4.32372 1.89474ZM4.58458 5.85296C4.69015 5.82853 4.79118 5.78804 4.88261 5.73114C5.08764 5.60361 5.24328 5.39867 5.29493 5.11704V5.11597C5.40259 4.52452 5.09741 4.3615 4.68875 4.28373C4.61669 4.27 4.53852 4.25983 4.4593 4.24948C4.20594 4.21649 3.93513 4.18099 3.92623 3.93485C3.92152 3.80447 3.97143 3.71101 4.04785 3.65482C4.1016 3.61523 4.1693 3.59008 4.24311 3.57973C4.3225 3.56868 4.40678 3.57492 4.48687 3.599C4.63798 3.64448 4.77321 3.75542 4.82852 3.93521C4.87127 4.07558 5.01732 4.15388 5.15464 4.11018C5.29197 4.06648 5.36857 3.9172 5.32582 3.77682C5.21222 3.40726 4.93845 3.1802 4.63362 3.08852C4.61739 3.08371 4.60099 3.07907 4.58458 3.07497V2.93549C4.58458 2.78816 4.46785 2.66884 4.32372 2.66884C4.17959 2.66884 4.06286 2.78816 4.06286 2.93549V3.07443C3.9477 3.10386 3.83899 3.15363 3.74424 3.22337C3.53311 3.37872 3.39474 3.62379 3.4066 3.9534C3.43173 4.6508 3.92885 4.71572 4.39422 4.77637C4.46279 4.78529 4.53032 4.7942 4.59505 4.80651C4.71737 4.8297 4.80968 4.87322 4.7835 5.01894C4.76169 5.13773 4.69661 5.22388 4.61146 5.27685C4.53817 5.32233 4.44953 5.34641 4.3574 5.34855C4.2616 5.35087 4.16424 5.33018 4.07804 5.28613L4.07769 5.28595L4.07804 5.28506C3.95974 5.22459 3.86202 5.11864 3.82084 4.96668C3.78263 4.82524 3.63937 4.74212 3.50083 4.78118C3.36246 4.82024 3.28115 4.96668 3.31936 5.1083C3.40434 5.42097 3.60395 5.63857 3.84562 5.762L3.84597 5.76111C3.91542 5.7966 3.98818 5.82407 4.06251 5.84351V5.98691C4.06251 6.13424 4.17924 6.25356 4.32337 6.25356C4.4675 6.25356 4.58424 6.13424 4.58424 5.98691V5.85296H4.58458ZM5.73028 3.0236C5.37031 2.65564 4.87302 2.42805 4.32372 2.42805C3.77443 2.42805 3.27713 2.65564 2.91716 3.0236C2.55719 3.39156 2.33454 3.89989 2.33454 4.46138C2.33454 5.02286 2.55719 5.5312 2.91716 5.89916C3.27713 6.26712 3.77443 6.49471 4.32372 6.49471C4.87302 6.49471 5.37031 6.26712 5.73028 5.89916C6.09026 5.5312 6.3129 5.02286 6.3129 4.46138C6.3129 3.89989 6.09026 3.39156 5.73028 3.0236ZM2.07368 13.9581H9.85452C9.99865 13.9581 10.1154 13.8388 10.1154 13.6915C10.1154 13.5441 9.99865 13.4248 9.85452 13.4248H2.07368C1.92955 13.4248 1.81281 13.5441 1.81281 13.6915C1.81281 13.8388 1.92955 13.9581 2.07368 13.9581ZM2.07368 12.2481H9.85452C9.99865 12.2481 10.1154 12.1288 10.1154 11.9815C10.1154 11.8342 9.99865 11.7148 9.85452 11.7148H2.07368C1.92955 11.7148 1.81281 11.8342 1.81281 11.9815C1.81281 12.1288 1.92955 12.2481 2.07368 12.2481ZM2.07368 10.5382H9.85452C9.99865 10.5382 10.1154 10.4189 10.1154 10.2715C10.1154 10.1242 9.99865 10.0049 9.85452 10.0049H2.07368C1.92955 10.0049 1.81281 10.1242 1.81281 10.2715C1.81281 10.4189 1.92955 10.5382 2.07368 10.5382ZM2.07368 8.82823H9.85452C9.99865 8.82823 10.1154 8.7089 10.1154 8.56157C10.1154 8.41425 9.99865 8.29492 9.85452 8.29492H2.07368C1.92955 8.29492 1.81281 8.41425 1.81281 8.56157C1.81281 8.7089 1.92955 8.82823 2.07368 8.82823Z" fill="white"/>
</svg>
