<svg width="12" height="17" viewBox="0 0 12 17" fill="none" xmlns="http://www.w3.org/2000/svg">
<path d="M0.308931 0.527137C0.275747 0.540705 0.222652 0.58141 0.189468 0.615331C0.0434571 0.77815 0.0500939 0.432158 0.043457 8.48495C0.043457 13.7087 0.0500939 16.09 0.0766413 16.1714C0.089915 16.2392 0.149647 16.3342 0.196105 16.3885L0.282384 16.4902L5.95689 16.497C11.4456 16.5038 11.6314 16.5038 11.731 16.4428C11.7907 16.4088 11.8637 16.3342 11.8969 16.2799C11.9566 16.1714 11.9566 16.1171 11.9566 10.6694V5.17428L9.83281 5.16071C7.47009 5.14036 7.60283 5.16071 7.49664 4.93005C7.45682 4.82829 7.45018 4.60441 7.45018 2.65736V0.5H3.91274C1.96814 0.5 0.342115 0.513568 0.308931 0.527137ZM2.92385 7.18239L2.1938 7.92865L1.98805 7.71834C1.87523 7.60301 1.76904 7.50803 1.74913 7.50803C1.73585 7.50803 1.66949 7.55552 1.60975 7.62336L1.50356 7.73869L1.77568 8.00327C1.92832 8.15252 2.08097 8.28821 2.12079 8.32213C2.1938 8.36962 2.20043 8.36283 3.00349 7.54874L3.81319 6.72107V7.90151V9.08195H2.53228H1.24473V7.79296C1.24473 7.08063 1.25136 6.49041 1.26464 6.47684C1.27127 6.46327 1.8155 6.45649 2.46591 6.45649H3.64727L2.92385 7.18239ZM10.7819 7.76583L10.7752 8.1186H7.98777H5.20029L5.19365 7.76583L5.18702 7.41305H7.98777H10.7885L10.7819 7.76583ZM2.90394 10.2624L2.1938 10.9883L1.98805 10.778C1.87523 10.6627 1.76904 10.5677 1.75576 10.5677C1.73585 10.5677 1.67612 10.6084 1.61639 10.6627L1.5102 10.7509L1.85532 11.1036L2.20043 11.4564L3.01013 10.6287L3.81983 9.80107V10.9815V12.1687L2.54555 12.162L1.26464 12.1552L1.258 10.8458L1.25136 9.54328H2.42609H3.61408L2.90394 10.2624ZM10.7819 10.8458L10.7885 11.1986H7.98777H5.18702V10.8594C5.18702 10.6694 5.19365 10.5134 5.20693 10.4998C5.21356 10.4863 6.47457 10.4795 7.9944 10.4863L10.7686 10.4931L10.7819 10.8458ZM2.92385 13.3424C2.53228 13.7427 2.20043 14.0751 2.18716 14.0751C2.18052 14.0751 2.07433 13.9598 1.96151 13.8241L1.74913 13.5731L1.62303 13.702L1.49693 13.8309L1.84204 14.1836L2.18716 14.5364L2.99686 13.7087L3.80655 12.8811V14.0615V15.242H2.52564H1.24473V13.9258V12.6097H2.446H3.64727L2.92385 13.3424ZM10.7885 13.9191V14.265H7.98777H5.18702V13.9191V13.5731H7.98777H10.7885V13.9191Z" fill="white"/>
<path d="M8.10063 2.3788C8.10063 4.08163 8.10063 4.18339 8.16036 4.27158C8.27983 4.47511 8.24664 4.47511 10.1647 4.46832L11.8969 4.46154L9.99213 2.51449L8.09399 0.574219L8.10063 2.3788Z" fill="white"/>
</svg>
