<svg width="12" height="16" viewBox="0 0 12 16" fill="none" xmlns="http://www.w3.org/2000/svg">
<path d="M11.4321 0.0601002L10.4815 0.631058C10.4554 0.644407 10.426 0.644407 10.3999 0.631058L9.37095 0.0100267C9.34482 -0.00334224 9.31216 -0.00334224 9.28603 0.0100267L8.26037 0.631058C8.23423 0.644407 8.20158 0.644407 8.17544 0.631058L7.14981 0.0100267C7.12367 -0.00334224 7.091 -0.00334224 7.06488 0.0100267L6.03922 0.631058C6.01308 0.644407 5.98043 0.644407 5.95429 0.631058L4.92864 0.0100267C4.90252 -0.00334224 4.87312 -0.00334224 4.84698 0.0100267L3.81808 0.631058C3.79194 0.644407 3.76253 0.644407 3.73642 0.631058L2.70749 0.0100267C2.68136 -0.00334224 2.65197 -0.00334224 2.62583 0.0100267L1.60018 0.631058C1.57406 0.644407 1.54139 0.644407 1.51527 0.631058L0.571267 0.0601002C0.515745 0.0267212 0.447144 0.0667846 0.447144 0.133566V15.2988C0.447144 15.3289 0.463472 15.3556 0.489607 15.369L1.51526 15.99C1.54138 16.0033 1.57405 16.0033 1.60017 15.99L2.62582 15.369C2.65196 15.3556 2.68135 15.3556 2.70748 15.369L3.73641 15.99C3.76252 16.0033 3.79193 16.0033 3.81807 15.99L4.84697 15.369C4.87311 15.3556 4.90251 15.3556 4.92863 15.369L5.95428 15.99C5.98042 16.0033 6.01307 16.0033 6.03921 15.99L7.06487 15.369C7.09098 15.3556 7.12366 15.3556 7.1498 15.369L8.17543 15.99C8.20157 16.0033 8.23422 16.0033 8.26036 15.99L9.28603 15.369C9.31216 15.3556 9.34482 15.3556 9.37095 15.369L10.3999 15.99C10.426 16.0033 10.4554 16.0033 10.4815 15.99L11.5137 15.369C11.5398 15.3556 11.5529 15.3289 11.5529 15.2988V0.133566C11.5529 0.0667846 11.4843 0.0267212 11.4321 0.0601002ZM1.9007 10.4775H5.77464C5.95429 10.4775 6.10128 10.6244 6.10128 10.8114C6.10128 10.995 5.95429 11.1452 5.77464 11.1452H1.9007C1.72103 11.1452 1.57406 10.995 1.57406 10.8114C1.57406 10.6244 1.72103 10.4775 1.9007 10.4775ZM1.57406 9.08515C1.57406 8.90151 1.72103 8.75126 1.9007 8.75126H5.77464C5.95429 8.75126 6.10128 8.90151 6.10128 9.08515C6.10128 9.26879 5.95429 9.41904 5.77464 9.41904H1.9007C1.72103 9.41904 1.57406 9.26879 1.57406 9.08515ZM1.9007 12.2003H5.77464C5.95429 12.2003 6.10128 12.3506 6.10128 12.5342C6.10128 12.7212 5.95429 12.8681 5.77464 12.8681H1.9007C1.72103 12.8681 1.57406 12.7212 1.57406 12.5342C1.57406 12.3506 1.72103 12.2003 1.9007 12.2003ZM8.81893 12.1135C8.85813 12.1135 8.89405 12.1102 8.92673 12.1002C9.10964 12.0534 9.24683 11.8831 9.24683 11.6761C9.24683 11.4591 9.08024 11.2721 8.86792 11.2521C8.85486 11.2554 8.8418 11.2554 8.82872 11.2554C8.12646 11.2554 7.55484 10.6678 7.55484 9.95326C7.55484 9.79968 7.58749 9.6394 7.63976 9.49917C7.76714 9.1419 8.04807 8.84808 8.40082 8.72788V8.63106C8.40082 8.39065 8.59355 8.19365 8.82872 8.19365C9.06391 8.19365 9.25662 8.39065 9.25662 8.63106V8.72788C9.6094 8.84808 9.8903 9.1419 10.0177 9.49917C10.0732 9.6394 10.1026 9.79968 10.1026 9.95326C10.1026 10.187 9.91317 10.384 9.678 10.384C9.44607 10.384 9.25662 10.187 9.25662 9.95326C9.25662 9.71621 9.06391 9.51586 8.82872 9.51586C8.59355 9.51586 8.40082 9.71621 8.40082 9.95326C8.40082 10.1736 8.56741 10.3606 8.783 10.3773C8.79607 10.374 8.80585 10.374 8.81893 10.374C9.52773 10.374 10.0961 10.9616 10.0961 11.6761C10.0961 12.0234 9.96869 12.3305 9.75311 12.5609C9.6192 12.7145 9.4428 12.8314 9.24683 12.9015V12.9883C9.24683 13.0851 9.21742 13.172 9.16516 13.2454C9.0835 13.3556 8.95938 13.4257 8.81893 13.4257C8.587 13.4257 8.3943 13.2287 8.3943 12.9883V12.9015C8.04153 12.7813 7.75408 12.4875 7.62342 12.1235C7.57116 11.9833 7.54503 11.8331 7.54503 11.6761C7.54503 11.4424 7.73775 11.2454 7.97292 11.2454C7.97619 11.2454 7.97619 11.2454 7.97946 11.2454C8.20485 11.2521 8.39103 11.4424 8.3943 11.6694C8.3943 11.6728 8.3943 11.6728 8.3943 11.6761C8.3943 11.9232 8.58701 12.1135 8.81893 12.1135ZM1.7537 2.44074H10.2463C10.426 2.44074 10.573 2.58765 10.573 2.77463C10.573 2.95826 10.426 3.10852 10.2463 3.10852H1.7537C1.57406 3.10852 1.42706 2.95826 1.42706 2.77463C1.42706 2.58765 1.57406 2.44074 1.7537 2.44074ZM1.7537 4.21035H10.2463C10.426 4.21035 10.573 4.3606 10.573 4.54424C10.573 4.73121 10.426 4.87813 10.2463 4.87813H1.7537C1.57406 4.87813 1.42706 4.73121 1.42706 4.54424C1.42706 4.3606 1.57406 4.21035 1.7537 4.21035ZM1.7537 5.9833H10.2463C10.426 5.9833 10.573 6.13355 10.573 6.31719C10.573 6.50085 10.426 6.65108 10.2463 6.65108H1.7537C1.57406 6.65108 1.42706 6.50085 1.42706 6.31719C1.42706 6.13355 1.57406 5.9833 1.7537 5.9833Z" fill="white"/>
</svg>
