<svg width="12" height="16" viewBox="0 0 12 16" fill="none" xmlns="http://www.w3.org/2000/svg">
<path d="M6.29166 4.5H6.2446V3.57018L6.39868 3.60963C6.50336 3.63636 6.59486 3.70129 6.65595 3.7922C6.71704 3.88311 6.7435 3.99372 6.73034 4.10319C6.71718 4.21266 6.66532 4.31343 6.58451 4.38652C6.50371 4.4596 6.39955 4.49997 6.29166 4.5ZM1.84231 10.25H2.33145V9.75H1.84231V10.25ZM1.84231 12.25H2.33145V11.75H1.84231V12.25ZM1.84231 14.25H2.33145V13.75H1.84231V14.25ZM9.42404 15.8535L11.4819 13.75H9.42404V15.8535ZM11.6252 0.25V13.25H9.17947C9.1146 13.25 9.05239 13.2763 9.00653 13.3232C8.96066 13.3701 8.93489 13.4337 8.93489 13.5V16H0.61945C0.554585 16 0.492378 15.9737 0.446511 15.9268C0.400645 15.8799 0.374878 15.8163 0.374878 15.75V0.25C0.374878 0.183696 0.400645 0.120107 0.446511 0.0732233C0.492378 0.0263392 0.554585 0 0.61945 0L11.3806 0C11.4455 0 11.5077 0.0263392 11.5536 0.0732233C11.5994 0.120107 11.6252 0.183696 11.6252 0.25ZM8.20118 3.25C8.20118 3.3163 8.22694 3.37989 8.27281 3.42678C8.31868 3.47366 8.38089 3.5 8.44575 3.5H9.17947C9.24433 3.5 9.30654 3.47366 9.3524 3.42678C9.39827 3.37989 9.42404 3.3163 9.42404 3.25C9.42404 3.1837 9.39827 3.12011 9.3524 3.07322C9.30654 3.02634 9.24433 3 9.17947 3H8.44575C8.38089 3 8.31868 3.02634 8.27281 3.07322C8.22694 3.12011 8.20118 3.1837 8.20118 3.25ZM4.77717 4.0481C4.77744 4.30047 4.87564 4.54243 5.05022 4.72089C5.2248 4.89934 5.46151 4.99972 5.7084 5H5.75546V5.25C5.75546 5.3163 5.78123 5.37989 5.82709 5.42678C5.87296 5.47366 5.93517 5.5 6.00003 5.5C6.0649 5.5 6.1271 5.47366 6.17297 5.42678C6.21884 5.37989 6.2446 5.3163 6.2446 5.25V5H6.29166C6.51892 5.00001 6.73835 4.91506 6.90859 4.76116C7.07883 4.60726 7.18813 4.39503 7.21589 4.16446C7.24366 3.93389 7.18797 3.7009 7.05932 3.50939C6.93068 3.31788 6.73796 3.18108 6.51747 3.12475L6.2446 3.055V2H6.29166C6.40886 2.00016 6.52122 2.04782 6.60409 2.13253C6.68696 2.21725 6.73359 2.3321 6.73375 2.4519V2.5C6.73375 2.5663 6.75951 2.62989 6.80538 2.67678C6.85125 2.72366 6.91345 2.75 6.97832 2.75C7.04318 2.75 7.10539 2.72366 7.15126 2.67678C7.19712 2.62989 7.22289 2.5663 7.22289 2.5V2.4519C7.22262 2.19953 7.12442 1.95757 6.94984 1.77911C6.77526 1.60066 6.53855 1.50028 6.29166 1.5H6.2446V1.25C6.2446 1.1837 6.21884 1.12011 6.17297 1.07322C6.1271 1.02634 6.0649 1 6.00003 1C5.93517 1 5.87296 1.02634 5.82709 1.07322C5.78123 1.12011 5.75546 1.1837 5.75546 1.25V1.5H5.7084C5.48114 1.49999 5.26171 1.58494 5.09147 1.73884C4.92123 1.89274 4.81194 2.10497 4.78417 2.33554C4.75641 2.56611 4.81209 2.7991 4.94074 2.99061C5.06938 3.18212 5.2621 3.31893 5.48259 3.37525L5.75546 3.445V4.5H5.7084C5.5912 4.49984 5.47885 4.45218 5.39597 4.36747C5.3131 4.28275 5.26647 4.1679 5.26632 4.0481V4C5.26632 3.9337 5.24055 3.87011 5.19468 3.82322C5.14882 3.77634 5.08661 3.75 5.02174 3.75C4.95688 3.75 4.89467 3.77634 4.8488 3.82322C4.80294 3.87011 4.77717 3.9337 4.77717 4V4.0481ZM2.57602 3.25C2.57602 3.3163 2.60179 3.37989 2.64766 3.42678C2.69352 3.47366 2.75573 3.5 2.8206 3.5H3.55431C3.61918 3.5 3.68138 3.47366 3.72725 3.42678C3.77312 3.37989 3.79888 3.3163 3.79888 3.25C3.79888 3.1837 3.77312 3.12011 3.72725 3.07322C3.68138 3.02634 3.61918 3 3.55431 3H2.8206C2.75573 3 2.69352 3.02634 2.64766 3.07322C2.60179 3.12011 2.57602 3.1837 2.57602 3.25ZM2.8206 13.5C2.8206 13.4337 2.79483 13.3701 2.74896 13.3232C2.7031 13.2763 2.64089 13.25 2.57602 13.25H1.59774C1.53287 13.25 1.47066 13.2763 1.4248 13.3232C1.37893 13.3701 1.35317 13.4337 1.35317 13.5V14.5C1.35317 14.5663 1.37893 14.6299 1.4248 14.6768C1.47066 14.7237 1.53287 14.75 1.59774 14.75H2.57602C2.64089 14.75 2.7031 14.7237 2.74896 14.6768C2.79483 14.6299 2.8206 14.5663 2.8206 14.5V13.5ZM2.8206 11.5C2.8206 11.4337 2.79483 11.3701 2.74896 11.3232C2.7031 11.2763 2.64089 11.25 2.57602 11.25H1.59774C1.53287 11.25 1.47066 11.2763 1.4248 11.3232C1.37893 11.3701 1.35317 11.4337 1.35317 11.5V12.5C1.35317 12.5663 1.37893 12.6299 1.4248 12.6768C1.47066 12.7237 1.53287 12.75 1.59774 12.75H2.57602C2.64089 12.75 2.7031 12.7237 2.74896 12.6768C2.79483 12.6299 2.8206 12.5663 2.8206 12.5V11.5ZM2.8206 9.5C2.8206 9.4337 2.79483 9.37011 2.74896 9.32322C2.7031 9.27634 2.64089 9.25 2.57602 9.25H1.59774C1.53287 9.25 1.47066 9.27634 1.4248 9.32322C1.37893 9.37011 1.35317 9.4337 1.35317 9.5V10.5C1.35317 10.5663 1.37893 10.6299 1.4248 10.6768C1.47066 10.7237 1.53287 10.75 1.59774 10.75H2.57602C2.64089 10.75 2.7031 10.7237 2.74896 10.6768C2.79483 10.6299 2.8206 10.5663 2.8206 10.5V9.5ZM2.8206 7.5C2.8206 7.4337 2.79483 7.37011 2.74896 7.32322C2.7031 7.27634 2.64089 7.25 2.57602 7.25H1.59774C1.53287 7.25 1.47066 7.27634 1.4248 7.32322C1.37893 7.37011 1.35317 7.4337 1.35317 7.5V8.5C1.35317 8.5663 1.37893 8.62989 1.4248 8.67678C1.47066 8.72366 1.53287 8.75 1.59774 8.75H2.57602C2.64089 8.75 2.7031 8.72366 2.74896 8.67678C2.79483 8.62989 2.8206 8.5663 2.8206 8.5V7.5ZM6.2446 14.5C6.2446 14.4337 6.21884 14.3701 6.17297 14.3232C6.1271 14.2763 6.0649 14.25 6.00003 14.25H3.55431C3.48945 14.25 3.42724 14.2763 3.38137 14.3232C3.33551 14.3701 3.30974 14.4337 3.30974 14.5C3.30974 14.5663 3.33551 14.6299 3.38137 14.6768C3.42724 14.7237 3.48945 14.75 3.55431 14.75H6.00003C6.0649 14.75 6.1271 14.7237 6.17297 14.6768C6.21884 14.6299 6.2446 14.5663 6.2446 14.5ZM8.44575 13.5C8.44575 13.4337 8.41998 13.3701 8.37412 13.3232C8.32825 13.2763 8.26604 13.25 8.20118 13.25H3.55431C3.48945 13.25 3.42724 13.2763 3.38137 13.3232C3.33551 13.3701 3.30974 13.4337 3.30974 13.5C3.30974 13.5663 3.33551 13.6299 3.38137 13.6768C3.42724 13.7237 3.48945 13.75 3.55431 13.75H8.20118C8.26604 13.75 8.32825 13.7237 8.37412 13.6768C8.41998 13.6299 8.44575 13.5663 8.44575 13.5ZM3.55431 12.75H6.00003C6.0649 12.75 6.1271 12.7237 6.17297 12.6768C6.21884 12.6299 6.2446 12.5663 6.2446 12.5C6.2446 12.4337 6.21884 12.3701 6.17297 12.3232C6.1271 12.2763 6.0649 12.25 6.00003 12.25H3.55431C3.48945 12.25 3.42724 12.2763 3.38137 12.3232C3.33551 12.3701 3.30974 12.4337 3.30974 12.5C3.30974 12.5663 3.33551 12.6299 3.38137 12.6768C3.42724 12.7237 3.48945 12.75 3.55431 12.75ZM10.6469 11.5C10.6469 11.4337 10.6211 11.3701 10.5753 11.3232C10.5294 11.2763 10.4672 11.25 10.4023 11.25H3.55431C3.48945 11.25 3.42724 11.2763 3.38137 11.3232C3.33551 11.3701 3.30974 11.4337 3.30974 11.5C3.30974 11.5663 3.33551 11.6299 3.38137 11.6768C3.42724 11.7237 3.48945 11.75 3.55431 11.75H10.4023C10.4672 11.75 10.5294 11.7237 10.5753 11.6768C10.6211 11.6299 10.6469 11.5663 10.6469 11.5ZM3.55431 10.75H6.00003C6.0649 10.75 6.1271 10.7237 6.17297 10.6768C6.21884 10.6299 6.2446 10.5663 6.2446 10.5C6.2446 10.4337 6.21884 10.3701 6.17297 10.3232C6.1271 10.2763 6.0649 10.25 6.00003 10.25H3.55431C3.48945 10.25 3.42724 10.2763 3.38137 10.3232C3.33551 10.3701 3.30974 10.4337 3.30974 10.5C3.30974 10.5663 3.33551 10.6299 3.38137 10.6768C3.42724 10.7237 3.48945 10.75 3.55431 10.75ZM10.6469 9.5C10.6469 9.4337 10.6211 9.37011 10.5753 9.32322C10.5294 9.27634 10.4672 9.25 10.4023 9.25H3.55431C3.48945 9.25 3.42724 9.27634 3.38137 9.32322C3.33551 9.37011 3.30974 9.4337 3.30974 9.5C3.30974 9.5663 3.33551 9.62989 3.38137 9.67678C3.42724 9.72366 3.48945 9.75 3.55431 9.75H10.4023C10.4672 9.75 10.5294 9.72366 10.5753 9.67678C10.6211 9.62989 10.6469 9.5663 10.6469 9.5ZM3.55431 8.75H6.00003C6.0649 8.75 6.1271 8.72366 6.17297 8.67678C6.21884 8.62989 6.2446 8.5663 6.2446 8.5C6.2446 8.4337 6.21884 8.37011 6.17297 8.32322C6.1271 8.27634 6.0649 8.25 6.00003 8.25H3.55431C3.48945 8.25 3.42724 8.27634 3.38137 8.32322C3.33551 8.37011 3.30974 8.4337 3.30974 8.5C3.30974 8.5663 3.33551 8.62989 3.38137 8.67678C3.42724 8.72366 3.48945 8.75 3.55431 8.75ZM10.6469 7.5C10.6469 7.4337 10.6211 7.37011 10.5753 7.32322C10.5294 7.27634 10.4672 7.25 10.4023 7.25H3.55431C3.48945 7.25 3.42724 7.27634 3.38137 7.32322C3.33551 7.37011 3.30974 7.4337 3.30974 7.5C3.30974 7.5663 3.33551 7.62989 3.38137 7.67678C3.42724 7.72366 3.48945 7.75 3.55431 7.75H10.4023C10.4672 7.75 10.5294 7.72366 10.5753 7.67678C10.6211 7.62989 10.6469 7.5663 10.6469 7.5ZM10.6469 6.5C10.6469 6.4337 10.6211 6.37011 10.5753 6.32322C10.5294 6.27634 10.4672 6.25 10.4023 6.25H1.59774C1.53287 6.25 1.47066 6.27634 1.4248 6.32322C1.37893 6.37011 1.35317 6.4337 1.35317 6.5C1.35317 6.5663 1.37893 6.62989 1.4248 6.67678C1.47066 6.72366 1.53287 6.75 1.59774 6.75H10.4023C10.4672 6.75 10.5294 6.72366 10.5753 6.67678C10.6211 6.62989 10.6469 6.5663 10.6469 6.5ZM1.84231 8.25H2.33145V7.75H1.84231V8.25ZM5.75546 2H5.7084C5.6005 2.00001 5.49632 2.04035 5.4155 2.11344C5.33468 2.18652 5.2828 2.28729 5.26963 2.39676C5.25646 2.50624 5.28291 2.61685 5.344 2.70778C5.40509 2.7987 5.49659 2.86364 5.60128 2.89038L5.75536 2.92983L5.75546 2Z" fill="white"/>
</svg>
