<svg width="16" height="18" viewBox="0 0 16 18" fill="none" xmlns="http://www.w3.org/2000/svg">
<path d="M9.81675 7.38831V8.41011C10.5537 8.49017 13.7454 8.96294 13.75 11.1857C13.75 11.2505 13.6947 11.3077 13.6164 11.3192C13.6072 11.323 13.5934 11.323 13.5842 11.323C13.5197 11.323 13.4552 11.2887 13.4322 11.2391C13.4138 11.201 12.9394 10.3203 11.1662 10.1449C10.7978 10.1106 10.3556 10.0915 9.81675 10.0877V11.1857C9.81675 11.2353 9.78451 11.2849 9.72924 11.3077C9.67397 11.3306 9.60949 11.3268 9.55883 11.3001L6.15063 9.4014C6.10457 9.37471 6.07694 9.33277 6.07694 9.28702C6.07694 9.24127 6.10457 9.19933 6.15063 9.17264L9.55883 7.27393C9.60949 7.24343 9.67397 7.24343 9.72924 7.26631C9.78451 7.29299 9.81675 7.33875 9.81675 7.38831Z" fill="white"/>
<path d="M9.94116 12.1998L13.3494 14.0985C13.3954 14.1214 13.4231 14.1672 13.4231 14.2129C13.4231 14.2587 13.3954 14.3006 13.3494 14.3273L9.94116 16.226C9.8905 16.2565 9.82602 16.2565 9.77076 16.2336C9.71549 16.207 9.68325 16.1612 9.68325 16.1116V15.0898C8.94173 15.0098 5.75 14.5332 5.75 12.3104C5.75 12.2456 5.80527 12.1884 5.88356 12.177C5.89278 12.1731 5.90659 12.1731 5.9158 12.1731C5.98028 12.1731 6.04016 12.2075 6.06779 12.257C6.08621 12.2952 6.5606 13.1759 8.33378 13.3513C8.70224 13.3894 9.14438 13.4085 9.68325 13.4123V12.3142C9.68325 12.2647 9.71549 12.2151 9.77076 12.1922C9.82602 12.1693 9.8905 12.1731 9.94116 12.1998Z" fill="white"/>
<path fill-rule="evenodd" clip-rule="evenodd" d="M0.75 15.9147H6.15742C7.12117 16.7468 8.37682 17.25 9.75 17.25C12.7876 17.25 15.25 14.7876 15.25 11.75C15.25 9.56241 13.9728 7.67313 12.1235 6.78708C12.1235 6.71012 12.1235 6.62984 12.1235 6.54609V4.52831L8.34518 0.75H0.75V15.9147ZM12.1233 7.34805C11.4172 6.96656 10.6089 6.75 9.75 6.75C8.56173 6.75 7.47027 7.16451 6.61234 7.85683C6.27263 8.13096 5.96953 8.44865 5.71153 8.80141C5.39924 9.2284 5.15303 9.70678 4.98795 10.2215C4.89005 10.5268 4.82068 10.8448 4.78299 11.1725C4.7612 11.362 4.75 11.5547 4.75 11.75C4.75 12.0372 4.77421 12.3187 4.82069 12.5926C4.87653 12.9216 4.96452 13.2397 5.08132 13.5436C5.4557 14.5175 6.12602 15.3445 6.98215 15.9147C7.77468 16.4424 8.72642 16.75 9.75 16.75C12.5114 16.75 14.75 14.5114 14.75 11.75C14.75 9.84746 13.6874 8.19311 12.1233 7.34805ZM4.54908 13.5436C4.44368 13.2379 4.36447 12.92 4.31413 12.5926H2.64558V13.5436H4.54908ZM4.27996 11.1725C4.31401 10.8462 4.3766 10.5283 4.46518 10.2215H2.64558V11.1725H4.27996ZM5.10635 8.80141C5.32426 8.45895 5.579 8.14223 5.865 7.85683H2.64558V8.80141H5.10635ZM10.2279 6.27048C10.0704 6.25692 9.91101 6.25 9.75 6.25C9.2567 6.25 8.77857 6.31494 8.32369 6.43675H2.64558V5.48574H10.2279V6.27048ZM9.75241 3.13394L11.1596 4.54116H8.33233V3.13394C8.33233 2.36285 8.33233 1.72671 8.33875 1.72671C8.34518 1.72671 8.98137 2.36289 9.75241 3.13394ZM6.43675 4.07209H2.64558V3.12108H6.43675V4.07209Z" fill="white"/>
</svg>
