<svg width="18" height="16" viewBox="0 0 18 16" fill="none" xmlns="http://www.w3.org/2000/svg">
<path d="M0.987972 4.8237C3.61247 3.3972 6.23004 1.97069 8.85454 0.544184C8.95148 0.488785 9.02765 0.481861 9.1246 0.544184C11.7491 1.97069 14.3667 3.3972 16.9912 4.8237C17.0396 4.8514 17.0881 4.8791 17.1574 4.92065C16.9912 5.01067 16.8388 5.09377 16.6934 5.17687C14.1728 6.54798 11.6522 7.91909 9.13845 9.29019C9.04843 9.33867 8.97918 9.35944 8.87531 9.30404C6.23004 7.86369 3.59169 6.42333 0.953348 4.9899C0.918724 4.96912 0.891025 4.95528 0.835627 4.92065C0.89795 4.8791 0.939499 4.8514 0.987972 4.8237ZM0.994897 7.91216C1.39653 7.69057 1.79817 7.48282 2.19981 7.2543C2.30368 7.19891 2.37986 7.19198 2.49065 7.2543C4.59579 8.40382 6.70785 9.54641 8.81299 10.7029C8.94456 10.779 9.0415 10.779 9.17308 10.7029C11.2782 9.55334 13.3903 8.40382 15.4954 7.2543C15.6062 7.19198 15.6893 7.19891 15.8001 7.2543C16.1948 7.48282 16.6034 7.69057 17.005 7.91216C17.0535 7.93986 17.095 7.96756 17.1504 8.00218C17.095 8.03681 17.0604 8.05758 17.0189 8.08528C14.3874 9.51871 11.756 10.9452 9.1246 12.3787C9.03458 12.4271 8.97226 12.434 8.87531 12.3787C6.24389 10.9383 3.60554 9.50486 0.967198 8.07143C0.932574 8.05066 0.89795 8.02988 0.835627 7.99526C0.89795 7.96756 0.946424 7.93986 0.994897 7.91216ZM17.1643 11.0976C16.4995 11.4577 15.8347 11.8108 15.1769 12.1709C13.1687 13.265 11.1536 14.3591 9.14538 15.4533C9.03458 15.5156 8.95148 15.5156 8.84069 15.4533C6.18849 14.006 3.52937 12.5587 0.877176 11.1183C0.856401 11.1114 0.842552 11.1045 0.821777 11.0976V11.0629C0.870251 11.0422 0.918724 11.0283 0.967198 11.0075C1.37576 10.7859 1.79125 10.5644 2.19981 10.3358C2.30368 10.2804 2.37986 10.2804 2.49065 10.3358C4.60271 11.4923 6.7217 12.6418 8.84069 13.7982C8.95841 13.8606 9.0415 13.8606 9.15923 13.7982C11.2782 12.6418 13.3903 11.4923 15.5093 10.3358C15.6131 10.2804 15.6893 10.2804 15.8001 10.3358C16.2087 10.5644 16.6172 10.7859 17.0327 11.0075C17.0812 11.0352 17.1297 11.0491 17.1781 11.0629C17.1643 11.0768 17.1643 11.0906 17.1643 11.0976Z" fill="white"/>
</svg>
