<svg width="14" height="16" viewBox="0 0 14 16" fill="none" xmlns="http://www.w3.org/2000/svg">
<path d="M0.882324 15.5294V0.470588C0.882324 0.21069 1.09301 0 1.35291 0H12.647C12.9069 0 13.1176 0.21069 13.1176 0.470588V15.5294C13.1176 15.7893 12.9069 16 12.647 16H1.35291C1.09301 16 0.882324 15.7893 0.882324 15.5294ZM5.78313 3.05882L6.15625 2.6857C6.34003 2.50192 6.34003 2.20396 6.15625 2.02018C5.97247 1.83641 5.67453 1.83641 5.49075 2.02018L4.31428 3.19666C4.1305 3.38043 4.1305 3.67839 4.31428 3.86217L5.49075 5.03864C5.67453 5.22241 5.97247 5.22241 6.15625 5.03864C6.34003 4.85486 6.34003 4.5569 6.15625 4.37313L5.78313 4H7.93932C8.71869 4 9.35188 4.63342 9.35188 5.41176C9.35188 6.19218 8.72073 6.82353 7.93932 6.82353H5.11762C4.85772 6.82353 4.64703 7.03422 4.64703 7.29412C4.64703 7.55402 4.85772 7.76471 5.11762 7.76471H7.93932C9.24059 7.76471 10.2931 6.71191 10.2931 5.41176C10.2931 4.11369 9.23856 3.05882 7.93932 3.05882H5.78313ZM3.23527 11.5294H10.7647C11.0246 11.5294 11.2353 11.3187 11.2353 11.0588C11.2353 10.7989 11.0246 10.5882 10.7647 10.5882H3.23527C2.97537 10.5882 2.76468 10.7989 2.76468 11.0588C2.76468 11.3187 2.97537 11.5294 3.23527 11.5294ZM3.23527 14.1176H6.99997C7.25987 14.1176 7.47056 13.907 7.47056 13.6471C7.47056 13.3872 7.25987 13.1765 6.99997 13.1765H3.23527C2.97537 13.1765 2.76468 13.3872 2.76468 13.6471C2.76468 13.907 2.97537 14.1176 3.23527 14.1176Z" fill="white"/>
</svg>
