<svg width="12" height="17" viewBox="0 0 12 17" fill="none" xmlns="http://www.w3.org/2000/svg">
<path d="M2.69568 7.15217V7.84783H3.39134V7.15217H2.69568ZM2.69568 10.2374V10.933H3.39134V10.2374H2.69568ZM2.69568 7.15217V7.84783H3.39134V7.15217H2.69568ZM2.69568 10.2374V10.933H3.39134V10.2374H2.69568ZM2.69568 7.15217V7.84783H3.39134V7.15217H2.69568ZM2.69568 10.2374V10.933H3.39134V10.2374H2.69568ZM2.69568 7.15217V7.84783H3.39134V7.15217H2.69568ZM2.69568 10.2374V10.933H3.39134V10.2374H2.69568ZM9.47829 2.93478C9.38613 2.93451 9.29781 2.89778 9.23264 2.83261C9.16747 2.76744 9.13074 2.67912 9.13047 2.58696V0.5H0.782641C0.690474 0.500267 0.602158 0.536999 0.536986 0.602171C0.471814 0.667344 0.435082 0.755659 0.434814 0.847826V16.1522C0.435086 16.2443 0.471819 16.3327 0.53699 16.3978C0.602161 16.463 0.690475 16.4997 0.782641 16.5H11.2174C11.3096 16.4997 11.3979 16.463 11.4631 16.3978C11.5282 16.3327 11.565 16.2443 11.5652 16.1522V2.93478H9.47829ZM4.08699 14.3261C4.08672 14.4183 4.04998 14.5066 3.98481 14.5717C3.91964 14.6369 3.83133 14.6736 3.73916 14.6739H2.34786C2.25569 14.6736 2.16738 14.6369 2.10221 14.5717C2.03704 14.5066 2.0003 14.4183 2.00003 14.3261V12.9348C2.0003 12.8426 2.03703 12.7543 2.1022 12.6891C2.16738 12.624 2.25569 12.5872 2.34786 12.587H3.73916C3.83133 12.5872 3.91964 12.624 3.98482 12.6891C4.04999 12.7543 4.08672 12.8426 4.08699 12.9348V14.3261ZM4.08699 11.2809C4.08672 11.373 4.04998 11.4613 3.98481 11.5265C3.91964 11.5917 3.83133 11.6284 3.73916 11.6287H2.34786C2.25569 11.6284 2.16738 11.5917 2.10221 11.5265C2.03704 11.4613 2.0003 11.373 2.00003 11.2809V9.88957C2.0003 9.7974 2.03704 9.70909 2.10221 9.64391C2.16738 9.57874 2.25569 9.54201 2.34786 9.54174H3.73916C3.83133 9.54201 3.91964 9.57874 3.98481 9.64391C4.04998 9.70909 4.08672 9.7974 4.08699 9.88957V11.2809ZM4.08699 8.19565C4.087 8.24133 4.07801 8.28657 4.06054 8.32877C4.04306 8.37098 4.01744 8.40933 3.98514 8.44163C3.95284 8.47393 3.91449 8.49955 3.87228 8.51703C3.83008 8.5345 3.78484 8.54349 3.73916 8.54348H2.34786C2.30218 8.54349 2.25694 8.5345 2.21474 8.51703C2.17253 8.49955 2.13418 8.47393 2.10188 8.44163C2.06958 8.40933 2.04396 8.37098 2.02648 8.32877C2.00901 8.28657 2.00002 8.24133 2.00003 8.19565V6.80435C2.0003 6.71218 2.03703 6.62387 2.1022 6.55869C2.16738 6.49352 2.25569 6.45679 2.34786 6.45652H3.73916C3.83133 6.45679 3.91964 6.49352 3.98482 6.55869C4.04999 6.62387 4.08672 6.71218 4.08699 6.80435V8.19565ZM4.08699 5.1087C4.08672 5.20086 4.04998 5.28918 3.98481 5.35435C3.91964 5.41952 3.83133 5.45625 3.73916 5.45652H2.34786C2.25569 5.45625 2.16738 5.41952 2.10221 5.35435C2.03704 5.28918 2.0003 5.20086 2.00003 5.1087V3.71739C2.0003 3.62522 2.03703 3.53691 2.1022 3.47174C2.16738 3.40656 2.25569 3.36983 2.34786 3.36957H3.73916C3.83133 3.36983 3.91964 3.40656 3.98482 3.47174C4.04999 3.53691 4.08672 3.62522 4.08699 3.71739V5.1087ZM9.65221 14.067H5.13047C5.03822 14.067 4.94975 14.0303 4.88452 13.9651C4.81929 13.8999 4.78264 13.8114 4.78264 13.7191C4.78264 13.6269 4.81929 13.5384 4.88452 13.4732C4.94975 13.408 5.03822 13.3713 5.13047 13.3713H9.65221C9.74446 13.3713 9.83293 13.408 9.89816 13.4732C9.96339 13.5384 10 13.6269 10 13.7191C10 13.8114 9.96339 13.8999 9.89816 13.9651C9.83293 14.0303 9.74446 14.067 9.65221 14.067ZM9.65221 11.0217H5.13047C5.03822 11.0217 4.94975 10.9851 4.88452 10.9199C4.81929 10.8546 4.78264 10.7662 4.78264 10.6739C4.78264 10.5817 4.81929 10.4932 4.88452 10.428C4.94975 10.3627 5.03822 10.3261 5.13047 10.3261H9.65221C9.74446 10.3261 9.83293 10.3627 9.89816 10.428C9.96339 10.4932 10 10.5817 10 10.6739C10 10.7662 9.96339 10.8546 9.89816 10.9199C9.83293 10.9851 9.74446 11.0217 9.65221 11.0217ZM9.65221 7.8913H5.13047C5.03822 7.8913 4.94975 7.85466 4.88452 7.78943C4.81929 7.7242 4.78264 7.63573 4.78264 7.54348C4.78264 7.45123 4.81929 7.36276 4.88452 7.29753C4.94975 7.2323 5.03822 7.19565 5.13047 7.19565H9.65221C9.74446 7.19565 9.83293 7.2323 9.89816 7.29753C9.96339 7.36276 10 7.45123 10 7.54348C10 7.63573 9.96339 7.7242 9.89816 7.78943C9.83293 7.85466 9.74446 7.8913 9.65221 7.8913ZM9.65221 4.76087H5.13047C5.03822 4.76087 4.94975 4.72422 4.88452 4.65899C4.81929 4.59376 4.78264 4.50529 4.78264 4.41304C4.78264 4.32079 4.81929 4.23232 4.88452 4.16709C4.94975 4.10186 5.03822 4.06522 5.13047 4.06522H9.65221C9.74446 4.06522 9.83293 4.10186 9.89816 4.16709C9.96339 4.23232 10 4.32079 10 4.41304C10 4.50529 9.96339 4.59376 9.89816 4.65899C9.83293 4.72422 9.74446 4.76087 9.65221 4.76087ZM2.69568 13.9783H3.39134V13.2826H2.69568V13.9783ZM2.69568 10.933H3.39134V10.2374H2.69568V10.933ZM2.69568 7.84783H3.39134V7.15217H2.69568V7.84783ZM2.69568 10.2374V10.933H3.39134V10.2374H2.69568ZM2.69568 7.15217V7.84783H3.39134V7.15217H2.69568ZM2.69568 10.2374V10.933H3.39134V10.2374H2.69568ZM2.69568 7.15217V7.84783H3.39134V7.15217H2.69568ZM2.69568 7.15217V7.84783H3.39134V7.15217H2.69568ZM2.69568 7.15217V7.84783H3.39134V7.15217H2.69568Z" fill="white"/>
</svg>
