<svg width="18" height="16" viewBox="0 0 18 16" fill="none" xmlns="http://www.w3.org/2000/svg">
<path d="M0.8573 0.774414V11.6131H9.2596C9.0866 11.0302 8.99865 10.4204 8.99906 9.80667H4.114C4.114 9.32757 3.94245 8.86809 3.63707 8.52932C3.3317 8.19054 2.91752 8.00022 2.48565 8.00022V4.38732C3.38939 4.38732 4.114 3.58345 4.114 2.58087H12.2558C12.2558 3.05997 12.4273 3.51944 12.7327 3.85822C13.0381 4.197 13.4523 4.38732 13.8841 4.38732V4.44151C14.4296 4.44151 14.9751 4.5499 15.5125 4.74861V0.774414H0.8573ZM8.18489 3.48409C6.80079 3.51119 5.74236 4.65829 5.74236 6.19377C5.74236 7.72925 6.80079 8.84925 8.18489 8.90345C8.49427 8.90345 8.8118 8.83119 9.11305 8.6957C9.33287 7.70216 9.69925 6.7628 10.603 5.84151C10.5053 4.64022 9.47943 3.45699 8.18489 3.48409ZM13.8841 5.29054L15.716 7.3228L13.8841 9.35506V8.00022C12.3779 8.00022 11.3927 9.77054 12.0604 11.2699L11.1729 12.2544C9.73996 9.85183 11.2869 6.64538 13.8841 6.64538V5.29054ZM13.8841 15.226L12.0522 13.1938L13.8841 11.1615V12.5163C15.3903 12.5163 16.3755 10.746 15.7079 9.24667L16.5953 8.26216C18.0283 10.6647 16.4813 13.8712 13.8841 13.8712V15.226Z" fill="white"/>
</svg>
