<svg width="18" height="14" viewBox="0 0 18 14" fill="none" xmlns="http://www.w3.org/2000/svg">
<path fill-rule="evenodd" clip-rule="evenodd" d="M17.6203 12.3475C17.6203 12.5996 17.52 12.8414 17.3417 13.0197C17.1636 13.198 16.9217 13.2981 16.6696 13.2981C13.6615 13.2981 4.37148 13.2981 1.34417 13.2981C1.08836 13.2981 0.84302 13.1965 0.66214 13.0156C0.48126 12.8347 0.379639 12.5894 0.379639 12.3336C0.379639 9.91393 0.379639 3.77878 0.379639 3.77878H17.6203C17.6203 3.77878 17.6203 9.93749 17.6203 12.3475ZM7.6342 7.38145C6.6213 7.95094 6.44413 9.65433 7.54645 10.6973C8.46635 11.5677 9.62023 11.7663 10.0849 11.7371C10.2333 11.7278 10.0454 12.4535 10.2685 12.3378C10.4906 12.2226 11.4767 11.4124 11.7778 11.0055C11.8343 10.929 11.8667 10.8668 11.8653 10.8261C11.8583 10.6262 10.508 9.57008 10.2239 9.44164C9.99232 9.33691 10.2614 10.0939 10.0688 10.0675C9.78705 10.029 8.54427 9.99482 7.83959 8.90288C7.33266 8.11736 7.77308 7.30337 7.6342 7.38145ZM12.2128 9.6143C13.2103 9.01822 13.3423 7.31073 12.2128 6.29724C11.2702 5.45148 10.1115 5.28352 9.64771 5.32496C9.49962 5.3382 9.66828 4.60777 9.44835 4.72935C9.22938 4.8504 8.26507 5.68643 7.97485 6.10117C7.9203 6.17912 7.88957 6.24217 7.89206 6.28281C7.90434 6.48242 9.28216 7.50247 9.56947 7.62334C9.80378 7.72192 9.51482 6.97231 9.70801 6.99356C9.99068 7.02466 11.2339 7.02591 11.9672 8.09883C12.4948 8.87068 12.0761 9.69602 12.2128 9.6143ZM4.08769 6.54476H2.49805C2.29164 6.54477 2.12407 6.71234 2.12407 6.91872V7.66664C2.12407 7.87304 2.29165 8.04061 2.49805 8.04061H4.08769C4.29409 8.04061 4.46166 7.87304 4.46166 7.66664V6.91872C4.46166 6.71234 4.29411 6.54477 4.08769 6.54476ZM17.6203 2.5062H0.379639C0.379639 2.5062 0.379639 2.08647 0.379639 1.65181C0.379639 1.12679 0.805254 0.701172 1.33028 0.701172C4.33834 0.701172 13.6284 0.701172 16.6557 0.701172C16.9115 0.701172 17.1568 0.802793 17.3377 0.983689C17.5186 1.16457 17.6203 1.40991 17.6203 1.66572V2.5062Z" fill="white"/>
</svg>
