<svg width="16" height="17" viewBox="0 0 16 17" fill="none" xmlns="http://www.w3.org/2000/svg">
<path fill-rule="evenodd" clip-rule="evenodd" d="M0 8.66669C0 4.24829 3.5816 0.666687 8 0.666687C12.4184 0.666687 16 4.24829 16 8.66669C16 13.0851 12.4184 16.6667 8 16.6667C3.5816 16.6667 0 13.0851 0 8.66669ZM8 2.26669C6.30261 2.26669 4.67475 2.94097 3.47452 4.1412C2.27428 5.34144 1.6 6.9693 1.6 8.66669C1.6 10.3641 2.27428 11.9919 3.47452 13.1922C4.67475 14.3924 6.30261 15.0667 8 15.0667C9.69739 15.0667 11.3253 14.3924 12.5255 13.1922C13.7257 11.9919 14.4 10.3641 14.4 8.66669C14.4 6.9693 13.7257 5.34144 12.5255 4.1412C11.3253 2.94097 9.69739 2.26669 8 2.26669Z" fill="#023F81"/>
<path fill-rule="evenodd" clip-rule="evenodd" d="M8.79971 4.6667C8.79971 4.45453 8.71542 4.25104 8.56539 4.10101C8.41536 3.95098 8.21188 3.8667 7.99971 3.8667C7.78753 3.8667 7.58405 3.95098 7.43402 4.10101C7.28399 4.25104 7.19971 4.45453 7.19971 4.6667V7.8667H3.99971C3.78753 7.8667 3.58405 7.95098 3.43402 8.10101C3.28399 8.25104 3.19971 8.45453 3.19971 8.6667C3.19971 8.87887 3.28399 9.08236 3.43402 9.23238C3.58405 9.38241 3.78753 9.4667 3.99971 9.4667H7.19971V12.6667C7.19971 12.8789 7.28399 13.0824 7.43402 13.2324C7.58405 13.3824 7.78753 13.4667 7.99971 13.4667C8.21188 13.4667 8.41536 13.3824 8.56539 13.2324C8.71542 13.0824 8.79971 12.8789 8.79971 12.6667V9.4667H11.9997C12.2119 9.4667 12.4154 9.38241 12.5654 9.23238C12.7154 9.08236 12.7997 8.87887 12.7997 8.6667C12.7997 8.45453 12.7154 8.25104 12.5654 8.10101C12.4154 7.95098 12.2119 7.8667 11.9997 7.8667H8.79971V4.6667Z" fill="#023F81"/>
</svg>
