<svg width="19" height="19" viewBox="0 0 19 19" fill="none" xmlns="http://www.w3.org/2000/svg">
<path d="M9.17358 0.239266C8.41577 0.262704 7.48608 0.426766 6.72827 0.668954C3.22827 1.78614 0.751709 4.80177 0.329834 8.46583C0.275146 8.91895 0.275146 10.0205 0.329834 10.4736C0.751709 14.1377 3.23608 17.1533 6.73608 18.2705C7.64233 18.5596 8.50171 18.6846 9.50952 18.6846C10.5173 18.6846 11.3845 18.5518 12.283 18.2705C15.783 17.1455 18.2595 14.1299 18.6892 10.4736C18.7126 10.2783 18.7283 9.8252 18.7283 9.47364C18.7283 9.11427 18.7126 8.66114 18.6892 8.47364C18.5486 7.28614 18.1658 6.06739 17.6189 5.0752C15.9001 1.95802 12.7126 0.137704 9.17358 0.239266ZM10.0798 3.84864C10.3455 3.98145 10.533 4.16895 10.6658 4.44239C10.7517 4.60645 10.7517 4.6377 10.7673 6.39552L10.783 8.17677L12.5642 8.19239L14.3455 8.20802L14.533 8.29395C14.7751 8.41895 15.0173 8.66895 15.1423 8.91895C15.2283 9.09864 15.2439 9.18458 15.2439 9.4502C15.2439 9.71583 15.2283 9.80177 15.1423 9.98145C15.0251 10.2393 14.783 10.4815 14.533 10.6065L14.3455 10.7002L12.5642 10.7158L10.783 10.7315L10.7673 12.5127L10.7517 14.294L10.658 14.4815C10.533 14.7315 10.2908 14.9658 10.033 15.0908C9.85327 15.1768 9.76733 15.1924 9.50171 15.1924C9.23608 15.1924 9.15015 15.1768 8.97046 15.0908C8.71265 14.9736 8.46265 14.7315 8.34546 14.4815L8.25952 14.294L8.2439 12.5127L8.22827 10.7315L6.44702 10.7158L4.65796 10.708L4.47046 10.6221C4.22827 10.4971 3.98608 10.2471 3.86108 9.99708C3.77515 9.81739 3.75952 9.73145 3.75952 9.46583C3.75952 9.2002 3.77515 9.11427 3.86108 8.93458C3.97827 8.67677 4.22046 8.42677 4.47046 8.30958L4.65796 8.22364L6.43921 8.20802L8.22046 8.19239L8.23608 6.41114C8.25171 4.86427 8.25952 4.60645 8.31421 4.49708C8.64233 3.79395 9.41577 3.52052 10.0798 3.84864Z" fill="#023F81"/>
</svg>
