<svg width="17" height="17" viewBox="0 0 17 17" fill="none" xmlns="http://www.w3.org/2000/svg">
<path d="M1.29097 0.82928C0.992799 0.903793 0.721734 1.12056 0.586202 1.41861L0.504883 1.59473V7.80641V14.0113L0.586202 14.1874C0.694628 14.411 0.884373 14.6074 1.11478 14.7158L1.29097 14.7971L4.19814 14.8039L7.1053 14.8106L7.05787 14.7158C6.85457 14.3161 6.59706 13.4626 6.5564 13.0291L6.52929 12.8056H4.50986H2.49043V12.3043V11.803H4.50308H6.51574L6.53607 11.5863C6.54962 11.4643 6.58351 11.2543 6.61739 11.1121C6.65127 10.9698 6.67838 10.8479 6.67838 10.8276C6.67838 10.814 5.86518 10.8005 4.5844 10.8005H2.49043V10.2992V9.79794H4.7877H7.08497L7.24761 9.52021C7.33571 9.36441 7.49157 9.14087 7.57967 9.01894L7.74908 8.7954H5.11976H2.49043V8.29413V7.79286H5.66189H8.82656L8.98243 7.68448C9.85661 7.09515 11.029 6.76323 12.12 6.7971L12.4995 6.80387V5.81488V4.81234L10.4868 2.80049L8.48773 0.79541H4.95034C3.00545 0.802184 1.35874 0.815732 1.29097 0.82928ZM10.3445 4.79202C9.63298 4.79202 9.13829 4.78524 9.07052 4.76492C8.89433 4.71751 8.70459 4.56848 8.60971 4.39913L8.52162 4.25011L8.51484 3.01725L8.50129 1.77763L10.0057 3.28144L11.5101 4.78524L10.3445 4.79202ZM10.5072 6.3026V6.80387H6.49541H2.49043V6.3026V5.80133H6.49541H10.5004V6.3026H10.5072Z" fill="#023F81"/>
<path d="M11.4836 7.83358C10.4468 7.96228 9.53193 8.41613 8.80005 9.16126C8.1766 9.79801 7.78356 10.5364 7.59382 11.4305C7.49217 11.8979 7.49217 12.7108 7.59382 13.1782C7.98686 15.0275 9.35573 16.3687 11.2125 16.7345C11.5988 16.8158 12.4188 16.8158 12.8118 16.7345C14.6957 16.3687 16.0781 14.9801 16.4441 13.1037C16.5254 12.7176 16.5254 11.8979 16.4441 11.505C16.0781 9.64898 14.716 8.26711 12.8864 7.89454C12.5069 7.82003 11.8292 7.79293 11.4836 7.83358ZM12.3171 9.88607C12.5001 10.0216 12.5136 10.0825 12.5136 10.9834V11.8031H13.3539C14.1332 11.8031 14.1942 11.8031 14.2959 11.8641C14.4517 11.9589 14.5195 12.1011 14.5195 12.3044C14.5195 12.5143 14.4382 12.6634 14.2688 12.7447C14.1739 12.7921 14.0587 12.7989 13.3404 12.7989H12.5204V13.6185C12.5204 14.5397 12.5136 14.5939 12.3036 14.7294C12.1545 14.831 11.8834 14.831 11.7343 14.7294C11.531 14.5939 11.5175 14.5397 11.5175 13.6185V12.7989H10.6975C10.0063 12.7989 9.86398 12.7921 9.77588 12.7514C9.61325 12.6769 9.53193 12.5414 9.51837 12.3382C9.50482 12.1282 9.57259 11.9792 9.72845 11.8776C9.8301 11.8099 9.85043 11.8031 10.6704 11.8031H11.5107L11.5175 10.9428C11.5243 10.1299 11.531 10.0825 11.592 9.99445C11.6259 9.94704 11.7072 9.8793 11.7614 9.8522C11.9037 9.78446 12.1951 9.79801 12.3171 9.88607Z" fill="#023F81"/>
</svg>
