<svg width="15" height="15" viewBox="0 0 15 15" fill="none" xmlns="http://www.w3.org/2000/svg">
<path d="M5.3086 0.803096C2.80402 0.957379 1.1719 1.5033 0.768317 2.31626L0.691162 2.47648V7.28893V12.1014L0.768317 12.2616C1.21938 13.1754 3.40346 13.7926 6.18698 13.7926C6.90511 13.7926 8.12179 13.7095 8.21081 13.6561C8.23455 13.6442 8.20488 13.5789 8.11585 13.4484C8.04463 13.3475 7.94967 13.1873 7.90219 13.0864L7.81317 12.9084L7.67666 12.9262C6.80422 13.0271 5.37388 13.0152 4.36493 12.8965C3.07703 12.7482 1.89003 12.3803 1.57548 12.0302L1.48052 11.9234V10.9087V9.89395L1.70605 10.0008C2.78028 10.4992 4.6142 10.7781 6.52527 10.7306C6.91698 10.7247 7.31463 10.7069 7.39772 10.695L7.55203 10.6772L7.56983 10.5645C7.57577 10.5051 7.62918 10.3212 7.6826 10.1669C7.73601 10.0126 7.77162 9.87614 7.77162 9.87021C7.76569 9.87021 7.64105 9.87614 7.48674 9.89395C7.01788 9.94142 5.22551 9.92955 4.66761 9.87614C3.2076 9.7278 2.0028 9.37769 1.59328 8.98605L1.47458 8.8733V7.85266V6.83202L1.70011 6.93883C3.26102 7.65684 6.276 7.88826 8.73309 7.47882C9.5818 7.3364 10.2584 7.12871 10.8341 6.83795C10.846 6.83202 10.8519 6.99817 10.8519 7.21179V7.59156H11.2495H11.6472L11.6412 5.03402L11.6353 2.47648L11.5582 2.31626C11.1961 1.58045 9.82513 1.06419 7.68853 0.850567C7.28495 0.814964 5.68844 0.77936 5.3086 0.803096ZM7.17812 1.61012C8.56098 1.69913 9.72424 1.95429 10.4186 2.32219C10.6738 2.45867 10.8519 2.61889 10.8519 2.71977C10.8519 2.80285 10.6501 2.9868 10.4246 3.09954C9.10106 3.79382 6.15137 4.03711 3.81297 3.66327C2.77435 3.49119 1.90784 3.18855 1.59328 2.89186C1.52206 2.82658 1.47458 2.75537 1.47458 2.71977C1.47458 2.50021 2.1393 2.14417 2.94053 1.94242C3.53403 1.79407 4.34712 1.66946 5.06526 1.61605C5.54006 1.58045 6.69739 1.58045 7.17812 1.61012ZM1.59328 3.83536C1.74759 3.9303 2.24613 4.11425 2.59036 4.2092C4.59046 4.75512 7.52829 4.77293 9.57586 4.25074C10.0803 4.12019 10.4186 3.99557 10.8341 3.78789C10.846 3.78195 10.8519 4.23887 10.8519 4.8026V5.82324L10.7273 5.94192C10.3177 6.3395 9.07139 6.68367 7.51048 6.83795C7.04162 6.87949 5.32047 6.87949 4.82786 6.83795C3.29069 6.6896 2.01467 6.3395 1.59922 5.94192L1.47458 5.82324V4.8026C1.47458 4.23887 1.48052 3.78195 1.48645 3.78195C1.49239 3.78195 1.53987 3.80569 1.59328 3.83536Z" fill="#023F81"/>
<path d="M10.7155 7.94722C9.30888 8.17271 8.18717 9.24083 7.87261 10.6531C7.78952 11.021 7.79546 11.7153 7.87261 12.0713C7.9557 12.4274 8.08034 12.7537 8.24652 13.0445C8.75693 13.9346 9.57002 14.528 10.573 14.7416C10.8995 14.8128 11.5939 14.8128 11.9203 14.7416C12.7749 14.5577 13.4871 14.1067 13.9916 13.4302C15.1964 11.828 14.8047 9.57313 13.131 8.46941C12.7809 8.23798 12.407 8.0837 11.9737 7.98282C11.6532 7.91162 11.0538 7.89382 10.7155 7.94722ZM11.9084 8.78391C12.0271 8.81358 12.2645 8.90852 12.4307 8.9916C12.9648 9.25863 13.3388 9.63247 13.6118 10.1725C13.8373 10.6175 13.8788 10.8193 13.8788 11.3533C13.8788 11.8696 13.8373 12.0773 13.6355 12.4926C13.3566 13.0682 12.9589 13.4658 12.3832 13.7447C11.9678 13.9465 11.76 13.988 11.2437 13.988C10.7095 13.988 10.5078 13.9465 10.0626 13.721C9.52254 13.448 9.14864 13.0742 8.88156 12.5401C8.66197 12.0951 8.60855 11.8636 8.60855 11.3593C8.60855 10.8549 8.66197 10.6234 8.88156 10.1784C9.25547 9.43071 9.93799 8.90853 10.7808 8.74831C11.0597 8.68897 11.6295 8.70677 11.9084 8.78391Z" fill="#023F81"/>
<path d="M10.941 9.81697L10.8638 9.88225L10.8579 10.4222L10.8519 10.9622H10.3297H9.80739L9.73023 11.0394C9.65308 11.1165 9.65308 11.1343 9.65308 11.3598C9.65308 11.5853 9.65308 11.6031 9.73023 11.6802L9.80739 11.7574H10.3297H10.8519V12.2796V12.8018L10.9291 12.8789C11.0063 12.956 11.0241 12.956 11.2496 12.956C11.4751 12.956 11.4929 12.956 11.5701 12.8789L11.6472 12.8018V12.2796V11.7574H12.1755H12.6977L12.7749 11.6802C12.852 11.6031 12.852 11.5853 12.852 11.3598C12.852 11.1343 12.852 11.1165 12.7749 11.0394L12.6977 10.9622H12.1755H11.6472V10.44V9.91785L11.5701 9.84071C11.4929 9.76357 11.4751 9.76357 11.2555 9.76357C11.0478 9.74576 11.0122 9.75763 10.941 9.81697Z" fill="#023F81"/>
</svg>
