<svg width="15" height="16" viewBox="0 0 15 16" fill="none" xmlns="http://www.w3.org/2000/svg">
<path d="M7.22752 0.669969C6.61106 0.689025 5.85478 0.822414 5.23832 1.01932C2.39117 1.92764 0.376549 4.37945 0.0333651 7.35847C-0.0111217 7.72687 -0.0111217 8.62249 0.0333651 8.99089C0.376549 11.9699 2.39752 14.4217 5.24468 15.33C5.98189 15.5651 6.68097 15.6667 7.50079 15.6667C8.32062 15.6667 9.02606 15.5587 9.75691 15.33C12.6041 14.4154 14.6187 11.9636 14.9682 8.99089C14.9873 8.8321 15 8.46369 15 8.17786C15 7.88567 14.9873 7.51726 14.9682 7.36482C14.8538 6.39934 14.5424 5.40845 14.0976 4.60176C12.6994 2.06738 10.1065 0.587395 7.22752 0.669969ZM7.96473 3.60452C8.18081 3.71251 8.33333 3.86495 8.44137 4.08726C8.51128 4.22065 8.51128 4.24606 8.52399 5.67523L8.5367 7.12345L9.9857 7.13615L11.4347 7.14886L11.5872 7.21873C11.7842 7.32036 11.9813 7.52362 12.0829 7.72687C12.1528 7.87297 12.1656 7.94284 12.1656 8.1588C12.1656 8.37476 12.1528 8.44463 12.0829 8.59073C11.9876 8.80034 11.7906 8.99724 11.5872 9.09887L11.4347 9.1751L9.9857 9.1878L8.5367 9.2005L8.52399 10.6487L8.51128 12.0969L8.43502 12.2494C8.33333 12.4527 8.13632 12.6432 7.9266 12.7448C7.78043 12.8147 7.71052 12.8274 7.49444 12.8274C7.27836 12.8274 7.20845 12.8147 7.06228 12.7448C6.85256 12.6496 6.64919 12.4527 6.55386 12.2494L6.48395 12.0969L6.47124 10.6487L6.45853 9.2005L5.00953 9.1878L3.55418 9.18145L3.40165 9.11158C3.20464 9.00995 3.00763 8.80669 2.90594 8.60343C2.83603 8.45734 2.82332 8.38747 2.82332 8.1715C2.82332 7.95554 2.83603 7.88567 2.90594 7.73958C3.00127 7.52997 3.19828 7.32671 3.40165 7.23143L3.55418 7.16156L5.00318 7.14886L6.45218 7.13615L6.46489 5.68793C6.4776 4.43026 6.48395 4.22065 6.52844 4.13173C6.79536 3.56006 7.42453 3.33775 7.96473 3.60452Z" fill="white"/>
</svg>
