<svg width="15" height="14" viewBox="0 0 15 14" fill="none" xmlns="http://www.w3.org/2000/svg">
<path d="M11.6659 0.031749C11.4466 0.0787532 11.1977 0.184513 11.0022 0.296148C10.6169 0.531169 10.6466 0.495915 7.23297 5.12583C4.99871 8.15173 3.96159 9.58536 3.88455 9.744C3.45784 10.5842 3.3808 11.4832 3.68305 12.2C3.9201 12.7699 4.4357 13.2693 5.09946 13.5807C5.53801 13.7864 5.72766 13.8275 6.22548 13.8216C6.61069 13.8216 6.67589 13.8157 6.90109 13.7452C7.42261 13.5925 7.91451 13.2811 8.32343 12.8639C8.47159 12.717 9.28351 11.6183 11.0022 9.24458C12.3593 7.37028 13.515 5.77214 13.5683 5.70163L13.669 5.5665L13.3075 5.30797C12.9579 5.0612 12.946 5.04945 12.9045 5.10233C12.8808 5.13171 11.737 6.70635 10.3621 8.60415C7.73671 12.2293 7.64782 12.341 7.25075 12.6054C6.73515 12.9462 6.24918 13.0402 5.74544 12.8815C5.21799 12.717 4.71424 12.3057 4.5246 11.8827C4.32903 11.4479 4.37644 10.8075 4.64313 10.2199C4.7498 9.9849 11.0555 1.43012 11.2629 1.23623C11.3459 1.15985 11.4881 1.05409 11.583 1.00121C11.7252 0.924829 11.7904 0.907203 11.98 0.901327C12.2645 0.889576 12.4186 0.93658 12.6971 1.11872C13.0942 1.38312 13.2898 1.68865 13.2898 2.0353C13.2898 2.24682 13.2186 2.51122 13.1179 2.68749C13.0408 2.81087 8.04489 9.71462 7.95599 9.8145C7.84931 9.93202 7.58263 10.12 7.42854 10.1905C7.31001 10.2434 7.24482 10.2552 7.13815 10.2493C6.97221 10.2317 6.79441 10.12 6.7233 9.97902C6.6344 9.80863 6.68181 9.41497 6.81812 9.15057C6.84775 9.09182 7.54707 8.12823 8.37676 7.01775C9.20646 5.9014 9.888 4.97894 9.89393 4.96132C9.89985 4.94369 9.75169 4.81443 9.55612 4.67929C9.21832 4.43252 9.20646 4.42664 9.15905 4.47952C9.12942 4.5089 8.4301 5.44311 7.59448 6.56534C6.53365 7.99309 6.05954 8.6629 5.98842 8.80391C5.79285 9.2152 5.71581 9.71462 5.79878 10.0495C5.88767 10.4197 6.0951 10.7193 6.40327 10.9191C7.04925 11.3363 7.84339 11.1776 8.53678 10.4961C8.67901 10.3551 9.42574 9.34446 11.2274 6.86499C12.6023 4.97307 13.7817 3.32792 13.8528 3.21629C14.1491 2.74037 14.2676 2.17044 14.1669 1.7004C14.0187 1.00709 13.3846 0.349028 12.6201 0.0963798C12.3356 -0.0035042 11.9267 -0.0270063 11.6659 0.031749Z" fill="#023F81"/>
<path d="M1.33699 0.272664C0.874441 0.354922 0.499613 0.631072 0.300237 1.03648L0.212512 1.21275L0.204537 7.09415C0.196562 11.0836 0.204537 13.0402 0.236437 13.1636C0.332137 13.6101 0.69899 13.898 1.28914 13.9803C1.40079 13.992 2.42957 14.0038 3.76141 13.9979L6.04227 13.992L5.59567 13.7688C5.35642 13.6454 5.06932 13.4809 4.96564 13.4045L4.78221 13.2693H3.01175H1.24129V7.13528V1.00711H7.06308H12.8928L13.2437 0.642823C13.5707 0.307918 13.5946 0.284415 13.5229 0.260913C13.3953 0.231536 1.49649 0.243287 1.33699 0.272664Z" fill="#023F81"/>
<path d="M10.6815 10.6841L10.3022 11.207V12.2352V13.2634H9.59105H8.87988L8.76135 13.3985C8.69616 13.4749 8.50652 13.6394 8.34058 13.7628L8.03833 13.992L9.03989 13.9979C9.70365 14.0037 10.0948 13.9979 10.2074 13.9744C10.5689 13.9038 10.8712 13.6688 10.9956 13.3574C11.0608 13.1988 11.0608 13.1929 11.0727 11.8415C11.0786 11.0953 11.0786 10.4138 11.0727 10.3256L11.0667 10.1611L10.6815 10.6841Z" fill="#023F81"/>
</svg>
