<svg width="16" height="16" viewBox="0 0 16 16" fill="none" xmlns="http://www.w3.org/2000/svg">
<path fill-rule="evenodd" clip-rule="evenodd" d="M8 16C4.2288 16 2.3432 16 1.1712 14.828C0 13.6576 0 11.7712 0 8C0 4.2288 0 2.3432 1.1712 1.1712C2.344 0 4.2288 0 8 0C11.7712 0 13.6568 0 14.828 1.1712C16 2.344 16 4.2288 16 8C16 11.7712 16 13.6568 14.828 14.828C13.6576 16 11.7712 16 8 16ZM5.4 3.6C5.4 3.44087 5.33679 3.28826 5.22426 3.17574C5.11174 3.06321 4.95913 3 4.8 3C4.64087 3 4.48826 3.06321 4.37574 3.17574C4.26321 3.28826 4.2 3.44087 4.2 3.6V4.6H3.2C3.04087 4.6 2.88826 4.66321 2.77574 4.77574C2.66321 4.88826 2.6 5.04087 2.6 5.2C2.6 5.35913 2.66321 5.51174 2.77574 5.62426C2.88826 5.73679 3.04087 5.8 3.2 5.8H4.2V6.8C4.2 6.95913 4.26321 7.11174 4.37574 7.22426C4.48826 7.33679 4.64087 7.4 4.8 7.4C4.95913 7.4 5.11174 7.33679 5.22426 7.22426C5.33679 7.11174 5.4 6.95913 5.4 6.8V5.8H6.4C6.55913 5.8 6.71174 5.73679 6.82426 5.62426C6.93679 5.51174 7 5.35913 7 5.2C7 5.04087 6.93679 4.88826 6.82426 4.77574C6.71174 4.66321 6.55913 4.6 6.4 4.6H5.4V3.6ZM9.6 4.6C9.44087 4.6 9.28826 4.66321 9.17574 4.77574C9.06321 4.88826 9 5.04087 9 5.2C9 5.35913 9.06321 5.51174 9.17574 5.62426C9.28826 5.73679 9.44087 5.8 9.6 5.8H12.8C12.9591 5.8 13.1117 5.73679 13.2243 5.62426C13.3368 5.51174 13.4 5.35913 13.4 5.2C13.4 5.04087 13.3368 4.88826 13.2243 4.77574C13.1117 4.66321 12.9591 4.6 12.8 4.6H9.6ZM9.6 9.4C9.44087 9.4 9.28826 9.46321 9.17574 9.57574C9.06321 9.68826 9 9.84087 9 10C9 10.1591 9.06321 10.3117 9.17574 10.4243C9.28826 10.5368 9.44087 10.6 9.6 10.6H12.8C12.9591 10.6 13.1117 10.5368 13.2243 10.4243C13.3368 10.3117 13.4 10.1591 13.4 10C13.4 9.84087 13.3368 9.68826 13.2243 9.57574C13.1117 9.46321 12.9591 9.4 12.8 9.4H9.6ZM4.024 9.576C3.91026 9.47002 3.75982 9.41232 3.60438 9.41506C3.44894 9.4178 3.30063 9.48077 3.1907 9.5907C3.08077 9.70063 3.0178 9.84894 3.01506 10.0044C3.01232 10.1598 3.07002 10.3103 3.176 10.424L3.952 11.2L3.176 11.976C3.11705 12.0309 3.06977 12.0972 3.03698 12.1708C3.00418 12.2444 2.98655 12.3238 2.98513 12.4044C2.98371 12.4849 2.99852 12.565 3.0287 12.6397C3.05888 12.7144 3.10379 12.7823 3.16077 12.8392C3.21774 12.8962 3.28561 12.9411 3.36032 12.9713C3.43503 13.0015 3.51506 13.0163 3.59562 13.0149C3.67618 13.0135 3.75563 12.9958 3.82923 12.963C3.90283 12.9302 3.96907 12.8829 4.024 12.824L4.8 12.048L5.576 12.824C5.63093 12.8829 5.69717 12.9302 5.77077 12.963C5.84437 12.9958 5.92382 13.0135 6.00438 13.0149C6.08494 13.0163 6.16497 13.0015 6.23968 12.9713C6.31439 12.9411 6.38226 12.8962 6.43923 12.8392C6.49621 12.7823 6.54112 12.7144 6.5713 12.6397C6.60148 12.565 6.61629 12.4849 6.61487 12.4044C6.61345 12.3238 6.59582 12.2444 6.56302 12.1708C6.53023 12.0972 6.48295 12.0309 6.424 11.976L5.648 11.2L6.424 10.424C6.48295 10.3691 6.53023 10.3028 6.56302 10.2292C6.59582 10.1556 6.61345 10.0762 6.61487 9.99562C6.61629 9.91506 6.60148 9.83503 6.5713 9.76032C6.54112 9.68561 6.49621 9.61774 6.43923 9.56077C6.38226 9.50379 6.31439 9.45888 6.23968 9.4287C6.16497 9.39853 6.08494 9.38371 6.00438 9.38513C5.92382 9.38655 5.84437 9.40418 5.77077 9.43698C5.69717 9.46977 5.63093 9.51705 5.576 9.576L4.8 10.352L4.024 9.576ZM9.6 11.8C9.44087 11.8 9.28826 11.8632 9.17574 11.9757C9.06321 12.0883 9 12.2409 9 12.4C9 12.5591 9.06321 12.7117 9.17574 12.8243C9.28826 12.9368 9.44087 13 9.6 13H12.8C12.9591 13 13.1117 12.9368 13.2243 12.8243C13.3368 12.7117 13.4 12.5591 13.4 12.4C13.4 12.2409 13.3368 12.0883 13.2243 11.9757C13.1117 11.8632 12.9591 11.8 12.8 11.8H9.6Z" fill="#023F81"/>
</svg>
