<svg width="14" height="17" viewBox="0 0 14 17" fill="none" xmlns="http://www.w3.org/2000/svg">
<path d="M3.11133 7.33817H4.66688V8.93817H3.11133V7.33817ZM3.11133 10.5382H4.66688V12.1382H3.11133V10.5382ZM6.22244 7.33817H7.778V8.93817H6.22244V7.33817ZM6.22244 10.5382H7.778V12.1382H6.22244V10.5382ZM9.33355 7.33817H10.8891V8.93817H9.33355V7.33817ZM9.33355 10.5382H10.8891V12.1382H9.33355V10.5382Z" fill="#464F60" fill-opacity="0.8"/>
<path d="M1.55556 16.1382H12.4444C13.3023 16.1382 14 15.4206 14 14.5382V3.33815C14 2.45575 13.3023 1.73815 12.4444 1.73815H10.8889V0.138153H9.33333V1.73815H4.66667V0.138153H3.11111V1.73815H1.55556C0.697667 1.73815 0 2.45575 0 3.33815V14.5382C0 15.4206 0.697667 16.1382 1.55556 16.1382ZM12.4444 4.93815L12.4452 14.5382H1.55556V4.93815H12.4444Z" fill="#464F60" fill-opacity="0.8"/>
</svg>
