<svg width="16" height="16" viewBox="0 0 14 15" fill="none" xmlns="http://www.w3.org/2000/svg">
<path d="M0.7 3.88254H1.6968C1.84221 4.37658 2.12922 4.80779 2.51631 5.1138C2.90339 5.41981 3.37048 5.58474 3.85 5.58474C4.32952 5.58474 4.79661 5.41981 5.18369 5.1138C5.57078 4.80779 5.85779 4.37658 6.0032 3.88254H13.3C13.4857 3.88254 13.6637 3.80281 13.795 3.66087C13.9263 3.51894 14 3.32644 14 3.12571C14 2.92499 13.9263 2.73249 13.795 2.59056C13.6637 2.44862 13.4857 2.36889 13.3 2.36889H6.0032C5.85779 1.87485 5.57078 1.44363 5.18369 1.13763C4.79661 0.831621 4.32952 0.666687 3.85 0.666687C3.37048 0.666687 2.90339 0.831621 2.51631 1.13763C2.12922 1.44363 1.84221 1.87485 1.6968 2.36889H0.7C0.514348 2.36889 0.336301 2.44862 0.205025 2.59056C0.0737498 2.73249 0 2.92499 0 3.12571C0 3.32644 0.0737498 3.51894 0.205025 3.66087C0.336301 3.80281 0.514348 3.88254 0.7 3.88254ZM13.3 6.90986H12.3032C12.1578 6.41582 11.8708 5.98461 11.4837 5.6786C11.0966 5.37259 10.6295 5.20766 10.15 5.20766C9.67048 5.20766 9.20339 5.37259 8.81631 5.6786C8.42922 5.98461 8.14221 6.41582 7.9968 6.90986H0.7C0.514348 6.90986 0.336301 6.9896 0.205025 7.13153C0.0737498 7.27346 0 7.46596 0 7.66669C0 7.86741 0.0737498 8.05991 0.205025 8.20185C0.336301 8.34378 0.514348 8.42352 0.7 8.42352H7.9968C8.14221 8.91755 8.42922 9.34877 8.81631 9.65477C9.20339 9.96078 9.67048 10.1257 10.15 10.1257C10.6295 10.1257 11.0966 9.96078 11.4837 9.65477C11.8708 9.34877 12.1578 8.91755 12.3032 8.42352H13.3C13.4857 8.42352 13.6637 8.34378 13.795 8.20185C13.9263 8.05991 14 7.86741 14 7.66669C14 7.46596 13.9263 7.27346 13.795 7.13153C13.6637 6.9896 13.4857 6.90986 13.3 6.90986ZM13.3 11.4508H6.0032C5.85779 10.9568 5.57078 10.5256 5.18369 10.2196C4.79661 9.91357 4.32952 9.74863 3.85 9.74863C3.37048 9.74863 2.90339 9.91357 2.51631 10.2196C2.12922 10.5256 1.84221 10.9568 1.6968 11.4508H0.7C0.514348 11.4508 0.336301 11.5306 0.205025 11.6725C0.0737498 11.8144 0 12.0069 0 12.2077C0 12.4084 0.0737498 12.6009 0.205025 12.7428C0.336301 12.8848 0.514348 12.9645 0.7 12.9645H1.6968C1.84221 13.4585 2.12922 13.8897 2.51631 14.1957C2.90339 14.5018 3.37048 14.6667 3.85 14.6667C4.32952 14.6667 4.79661 14.5018 5.18369 14.1957C5.57078 13.8897 5.85779 13.4585 6.0032 12.9645H13.3C13.4857 12.9645 13.6637 12.8848 13.795 12.7428C13.9263 12.6009 14 12.4084 14 12.2077C14 12.0069 13.9263 11.8144 13.795 11.6725C13.6637 11.5306 13.4857 11.4508 13.3 11.4508Z" fill="#023F81"/>
</svg>
