<svg width="14" height="15" viewBox="0 0 14 15" fill="none" xmlns="http://www.w3.org/2000/svg">
<path d="M13.2961 7.66872C13.1105 7.66872 12.9326 7.74244 12.8013 7.87368C12.6701 8.00492 12.5963 8.18291 12.5963 8.36851V12.5673C12.5963 12.7529 12.5226 12.9309 12.3914 13.0621C12.2601 13.1934 12.0821 13.2671 11.8966 13.2671H2.09939C1.91379 13.2671 1.7358 13.1934 1.60456 13.0621C1.47332 12.9309 1.39959 12.7529 1.39959 12.5673V2.77014C1.39959 2.58454 1.47332 2.40654 1.60456 2.2753C1.7358 2.14407 1.91379 2.07034 2.09939 2.07034H6.29817C6.48377 2.07034 6.66177 1.99661 6.793 1.86537C6.92424 1.73414 6.99797 1.55614 6.99797 1.37054C6.99797 1.18494 6.92424 1.00695 6.793 0.87571C6.66177 0.744473 6.48377 0.670745 6.29817 0.670745H2.09939C1.5426 0.670745 1.00861 0.89193 0.614898 1.28564C0.221185 1.67935 0 2.21334 0 2.77014V12.5673C0 13.1241 0.221185 13.6581 0.614898 14.0518C1.00861 14.4455 1.5426 14.6667 2.09939 14.6667H11.8966C12.4533 14.6667 12.9873 14.4455 13.381 14.0518C13.7748 13.6581 13.9959 13.1241 13.9959 12.5673V8.36851C13.9959 8.18291 13.9222 8.00492 13.791 7.87368C13.6597 7.74244 13.4817 7.66872 13.2961 7.66872ZM2.79919 8.20056V11.1677C2.79919 11.3533 2.87292 11.5313 3.00415 11.6625C3.13539 11.7938 3.31339 11.8675 3.49899 11.8675H6.46613C6.55822 11.868 6.64952 11.8504 6.73478 11.8156C6.82004 11.7807 6.89759 11.7294 6.96298 11.6646L11.8056 6.81496L13.793 4.86953C13.8586 4.80447 13.9107 4.72707 13.9462 4.6418C13.9817 4.55652 14 4.46505 14 4.37267C14 4.28029 13.9817 4.18882 13.9462 4.10355C13.9107 4.01827 13.8586 3.94087 13.793 3.87582L10.8259 0.873686C10.7608 0.808095 10.6834 0.756034 10.5981 0.720506C10.5129 0.684978 10.4214 0.666687 10.329 0.666687C10.2366 0.666687 10.1452 0.684978 10.0599 0.720506C9.9746 0.756034 9.8972 0.808095 9.83215 0.873686L7.85872 2.85411L3.00213 7.70371C2.93727 7.76909 2.88596 7.84664 2.85113 7.9319C2.81631 8.01717 2.79866 8.10846 2.79919 8.20056ZM10.329 2.35726L12.3094 4.33768L11.3157 5.33139L9.33529 3.35097L10.329 2.35726ZM4.19878 8.48748L8.34858 4.33768L10.329 6.31811L6.17921 10.4679H4.19878V8.48748Z" fill="#023F81"/>
</svg>
