<svg width="20" height="21" viewBox="0 0 20 21" fill="none" xmlns="http://www.w3.org/2000/svg">
<path d="M10 0.315125C4.47458 0.315125 0 4.7897 0 10.3151C0 15.8405 4.47458 20.3151 10 20.3151C15.5254 20.3151 20 15.8405 20 10.3151C20 4.7897 15.5254 0.315125 10 0.315125ZM9.5 14.1965C9.4661 14.2134 9.44068 14.2389 9.39831 14.2473L4.78814 15.9253C4.66949 15.9677 4.5339 15.9422 4.44068 15.849C4.34746 15.7558 4.32203 15.6287 4.36441 15.51L6.04237 10.9083C6.05085 10.8744 6.07627 10.849 6.09322 10.8151L10.2373 6.67106C10.6864 7.12021 11.0593 7.48462 11.0593 7.48462L7.82203 10.7134C7.77119 10.7643 7.74576 10.8321 7.74576 10.8999C7.74576 10.9677 7.77119 11.0355 7.82203 11.0863C7.87288 11.1372 7.94068 11.1626 8.00847 11.1626C8.07627 11.1626 8.14407 11.1372 8.19491 11.0863L11.4322 7.8575L12.4492 8.87445L9.22034 12.0948C9.11864 12.1965 9.11864 12.366 9.22034 12.4677C9.27119 12.5185 9.33898 12.5439 9.40678 12.5439C9.47458 12.5439 9.54237 12.5185 9.59322 12.4677L12.8136 9.24733C12.8136 9.24733 13.2881 9.7219 13.6271 10.0609L9.5 14.1965ZM15.2966 8.39987L14.0085 9.68801C13.3475 9.02699 11.8051 7.48462 10.6186 6.29818L11.9068 5.01004C12.3729 4.54394 13.1271 4.54394 13.5847 5.01004L15.2966 6.7219C15.7627 7.17953 15.7627 7.93377 15.2966 8.39987Z" fill="#023F81"/>
</svg>
