<svg width="17" height="16" viewBox="0 0 17 16" fill="none" xmlns="http://www.w3.org/2000/svg">
<path d="M8.15857 0.003501C7.50101 0.0238269 6.69432 0.166108 6.03676 0.376143C2.9998 1.34501 0.850871 3.96028 0.484808 7.1379C0.437356 7.53087 0.437356 8.48619 0.484808 8.87915C0.850871 12.0568 3.00658 14.672 6.04354 15.6409C6.8299 15.8916 7.57558 16 8.45007 16C9.32455 16 10.077 15.8848 10.8566 15.6409C13.8936 14.6653 16.0425 12.05 16.4153 8.87915C16.4357 8.70977 16.4492 8.3168 16.4492 8.01191C16.4492 7.70025 16.4357 7.30728 16.4153 7.14467C16.2933 6.11483 15.9611 5.05788 15.4866 4.19742C13.9952 1.49407 11.2294 -0.084578 8.15857 0.003501ZM8.94493 3.13369C9.17541 3.24887 9.33811 3.41148 9.45335 3.64862C9.52792 3.7909 9.52792 3.818 9.54148 5.34244L9.55503 6.88721L11.1006 6.90076L12.6462 6.91431L12.8089 6.98884C13.0191 7.09725 13.2292 7.31406 13.3377 7.53087C13.4123 7.6867 13.4258 7.76123 13.4258 7.99159C13.4258 8.22195 13.4123 8.29648 13.3377 8.45231C13.236 8.67589 13.0259 8.88593 12.8089 8.99433L12.6462 9.07564L11.1006 9.08919L9.55503 9.10274L9.54148 10.6475L9.52792 12.1923L9.44657 12.3549C9.33811 12.5717 9.12796 12.775 8.90425 12.8834C8.74834 12.9579 8.67377 12.9714 8.44329 12.9714C8.2128 12.9714 8.13823 12.9579 7.98232 12.8834C7.75861 12.7817 7.54169 12.5717 7.44 12.3549L7.36544 12.1923L7.35188 10.6475L7.33832 9.10274L5.79272 9.08919L4.24034 9.08241L4.07765 9.00788C3.8675 8.89948 3.65735 8.68267 3.54889 8.46586C3.47432 8.31003 3.46076 8.2355 3.46076 8.00514C3.46076 7.77478 3.47432 7.70025 3.54889 7.54442C3.65057 7.32083 3.86072 7.10402 4.07765 7.00239L4.24034 6.92786L5.78594 6.91431L7.33154 6.90076L7.3451 5.35599C7.35866 4.01448 7.36544 3.7909 7.41289 3.69604C7.6976 3.08627 8.36872 2.84913 8.94493 3.13369Z" fill="#7F7F7F"/>
</svg>
