<svg width="17" height="15" viewBox="0 0 17 15" fill="none" xmlns="http://www.w3.org/2000/svg">
<path d="M11.9773 14.8955L11.9772 14.8955H12.2063C13.4575 14.8955 14.4623 13.822 14.4624 12.5102V6.79661V6.69661H14.3624H13.2844H13.1844V6.79661V12.5817C13.1844 13.1636 12.7407 13.6245 12.2065 13.6245H2.50532C1.9702 13.6245 1.52737 13.1636 1.52737 12.5817V3.29703C1.52737 2.71557 1.97017 2.25425 2.50532 2.25425H4.66111H4.76111V2.15425V1.08298V0.982977H4.66111H2.50532C1.25413 0.982977 0.249609 2.05652 0.249609 3.36832V12.51C0.249609 13.8217 1.25409 14.8955 2.50532 14.8955H11.9773Z" fill="#023F81" stroke="#023F81" stroke-width="0.2"/>
<path d="M16.349 3.26025C13.4096 1.65493 11.4367 3.02574 9.36916 6.96295L11.2111 8.13206C11.3431 8.2155 11.4231 8.36975 11.4055 8.53246C11.3997 8.58514 11.3847 8.63675 11.3603 8.68202C11.3141 8.77121 11.2342 8.83917 11.1346 8.86564L5.8772 11.0706C5.67806 11.1258 5.46855 10.9926 5.41176 10.7766L4.5065 4.65841C4.46497 4.50003 4.51575 4.33153 4.63382 4.23492C4.75307 4.13756 4.91387 4.13559 5.04609 4.21979L6.92278 5.41027C9.02988 1.3996 11.9624 -1.22644 16.3491 2.81573V3.2608L16.349 3.26027L16.349 3.26025Z" fill="#023F81"/>
</svg>
