<svg width="12" height="13" viewBox="0 0 12 13" fill="none" xmlns="http://www.w3.org/2000/svg">
<path d="M6 0.470703C7.5913 0.470703 9.11742 1.10284 10.2426 2.22806C11.3679 3.35328 12 4.8794 12 6.4707C12 8.062 11.3679 9.58812 10.2426 10.7133C9.11742 11.8386 7.5913 12.4707 6 12.4707C4.4087 12.4707 2.88258 11.8386 1.75736 10.7133C0.632141 9.58812 0 8.062 0 6.4707C0 4.8794 0.632141 3.35328 1.75736 2.22806C2.88258 1.10284 4.4087 0.470703 6 0.470703ZM6.89994 4.15444C7.34562 4.15444 7.70731 3.84503 7.70731 3.38649C7.70731 2.92796 7.34476 2.61855 6.89994 2.61855C6.45425 2.61855 6.09428 2.92796 6.09428 3.38649C6.09428 3.84503 6.45425 4.15444 6.89994 4.15444ZM7.05678 8.97724C7.05678 8.88553 7.08849 8.64726 7.07049 8.51184L6.36597 9.32264C6.22027 9.47606 6.03771 9.58234 5.952 9.55405C5.91312 9.53974 5.88062 9.51202 5.86035 9.47589C5.84009 9.43975 5.83338 9.39757 5.84144 9.35693L7.01564 5.64748C7.11163 5.17694 6.84765 4.74754 6.28798 4.69269C5.69745 4.69269 4.82837 5.29179 4.29955 6.05202C4.29955 6.14287 4.28241 6.36914 4.30041 6.50456L5.00407 5.6929C5.14977 5.5412 5.31948 5.43406 5.40519 5.4632C5.44741 5.47836 5.48201 5.50947 5.50156 5.54985C5.52111 5.59023 5.52405 5.63666 5.50975 5.67919L4.34583 9.37064C4.21127 9.80261 4.46582 10.226 5.08292 10.322C5.99143 10.322 6.52796 9.73747 7.05764 8.97724H7.05678Z" fill="#7F7F7F" fill-opacity="0.5"/>
</svg>
