<svg width="10" height="15" viewBox="0 0 10 15" fill="none" xmlns="http://www.w3.org/2000/svg">
<path d="M7.91737 0.997445C7.57467 0.86437 7.19756 0.829581 6.83376 0.89748C6.46997 0.965379 6.13583 1.13291 5.87362 1.37889L0.636743 6.28846C0.285235 6.6181 0.0877686 7.06512 0.0877686 7.53123C0.0877686 7.99734 0.285235 8.44437 0.636743 8.77401L5.87362 13.6836C6.13584 13.9293 6.4699 14.0967 6.83356 14.1645C7.19722 14.2323 7.57416 14.1975 7.91672 14.0645C8.25928 13.9314 8.55209 13.7062 8.75812 13.4172C8.96416 13.1282 9.07416 12.7884 9.07424 12.4408V2.62166C9.07434 2.27403 8.96448 1.93417 8.75856 1.64507C8.55264 1.35596 8.2599 1.13059 7.91737 0.997445Z" fill="#023F81"/>
</svg>
