<svg width="14" height="15" viewBox="0 0 14 15" fill="none" xmlns="http://www.w3.org/2000/svg">
<path d="M11.0923 3.17785H8.70601V0.987161C8.76215 1.02435 8.81568 1.06474 8.86629 1.1081L10.9605 3.03069C11.0078 3.07716 11.0518 3.12631 11.0923 3.17785ZM12.6274 14.5055L11.4413 12.8723V13.2225C11.4409 13.622 11.2678 14.0049 10.9601 14.2874C10.6524 14.5699 10.2353 14.7287 9.80014 14.7292H2.1412C1.70607 14.7287 1.28891 14.5699 0.981224 14.2874C0.673543 14.0049 0.500478 13.622 0.5 13.2225V2.17338C0.500478 1.77392 0.673543 1.39094 0.981224 1.10847C1.28891 0.826007 1.70607 0.667126 2.1412 0.666687H7.61187V3.17785C7.61226 3.44414 7.72766 3.69942 7.93277 3.88771C8.13787 4.07601 8.41594 4.18195 8.70601 4.18231H11.4413V4.86193C10.302 4.36581 8.99559 4.30207 7.80542 4.68454H3.23533C3.09024 4.68454 2.9511 4.73746 2.8485 4.83164C2.74591 4.92583 2.68827 5.05358 2.68827 5.18678C2.68827 5.31998 2.74591 5.44772 2.8485 5.54191C2.9511 5.63609 3.09024 5.68901 3.23533 5.68901H6.04726C5.71758 5.98491 5.43656 6.32327 5.21304 6.69347H3.23533C3.09024 6.69347 2.9511 6.74639 2.8485 6.84057C2.74591 6.93476 2.68827 7.0625 2.68827 7.1957C2.68827 7.32891 2.74591 7.45665 2.8485 7.55084C2.9511 7.64502 3.09024 7.69794 3.23533 7.69794H4.76751C4.67368 8.02615 4.62135 8.36319 4.61154 8.7024H3.23533C3.09024 8.7024 2.9511 8.75531 2.8485 8.8495C2.74591 8.94369 2.68827 9.07143 2.68827 9.20463C2.68827 9.33783 2.74591 9.46558 2.8485 9.55977C2.9511 9.65395 3.09024 9.70687 3.23533 9.70687H4.70251C4.78012 10.0541 4.90352 10.3914 5.06998 10.7113H3.23533C3.09024 10.7113 2.9511 10.7642 2.8485 10.8584C2.74591 10.9526 2.68827 11.0804 2.68827 11.2136C2.68827 11.3468 2.74591 11.4745 2.8485 11.5687C2.9511 11.6629 3.09024 11.7158 3.23533 11.7158H5.78237C6.46398 12.4304 7.37921 12.9232 8.39123 13.1206C9.40325 13.3181 10.4577 13.2095 11.3969 12.8111L10.784 11.9669C9.92066 12.2915 8.95551 12.3044 8.08219 12.0031C7.20887 11.7017 6.49194 11.1084 6.07521 10.3421C5.65848 9.57573 5.57276 8.69309 5.83525 7.87117C6.09773 7.04925 6.68901 6.34883 7.49049 5.9104C8.29196 5.47196 9.24437 5.32792 10.1567 5.50718C11.069 5.68644 11.8738 6.17574 12.4095 6.87694C12.9453 7.57813 13.1725 8.43937 13.0456 9.28792C12.9186 10.1365 12.4469 10.9096 11.725 11.4522L13.5375 13.9483C13.6155 14.0591 13.6428 14.1936 13.6136 14.3227C13.5844 14.4519 13.501 14.5653 13.3815 14.6385C13.2619 14.7117 13.1158 14.7388 12.9748 14.7139C12.8337 14.689 12.7089 14.6142 12.6274 14.5055ZM10.8396 10.8077C11.2661 10.5445 11.598 10.171 11.7934 9.73462C11.9887 9.2982 12.0387 8.8184 11.9371 8.35589C11.8354 7.89338 11.5866 7.46894 11.2222 7.13624C10.8577 6.80354 10.394 6.57753 9.88963 6.48679C9.38527 6.39604 8.86292 6.44464 8.38865 6.62644C7.91437 6.80823 7.50947 7.11506 7.22515 7.50811C6.94082 7.90117 6.78984 8.3628 6.7913 8.83464C6.79276 9.30647 6.9466 9.76731 7.23336 10.1589C7.61838 10.6833 8.21427 11.0462 8.89033 11.1678C9.56638 11.2895 10.2674 11.16 10.8396 10.8077Z" fill="#023F81"/>
</svg>
