<svg width="17" height="12" viewBox="0 0 17 12" fill="none" xmlns="http://www.w3.org/2000/svg">
<path fill-rule="evenodd" clip-rule="evenodd" d="M16.2695 10.4427C16.2695 10.6679 16.1765 10.8838 16.011 11.043C15.8457 11.2022 15.6212 11.2917 15.3873 11.2917C12.5957 11.2917 3.97412 11.2917 1.16465 11.2917C0.927252 11.2917 0.699568 11.2009 0.531704 11.0394C0.36384 10.8778 0.269531 10.6587 0.269531 10.4303C0.269531 8.26935 0.269531 2.79021 0.269531 2.79021H16.2695C16.2695 2.79021 16.2695 8.2904 16.2695 10.4427ZM7.00206 6.00766C6.06205 6.51626 5.89763 8.03751 6.92063 8.969C7.77433 9.74633 8.84518 9.92366 9.27645 9.89761C9.41416 9.8893 9.23977 10.5374 9.44677 10.4341C9.65288 10.3312 10.568 9.60757 10.8474 9.24416C10.9 9.17587 10.93 9.1203 10.9287 9.08396C10.9222 8.90548 9.66903 7.96227 9.40545 7.84756C9.19049 7.75403 9.44018 8.43006 9.26147 8.40652C9 8.37209 7.84665 8.3416 7.19267 7.36641C6.72222 6.66488 7.13094 5.93793 7.00206 6.00766ZM11.2512 8.00177C12.1769 7.46942 12.2995 5.9445 11.2512 5.03938C10.3764 4.28406 9.30109 4.13405 8.87068 4.17107C8.73325 4.18289 8.88977 3.53056 8.68567 3.63915C8.48245 3.74725 7.58753 4.49389 7.3182 4.86428C7.26758 4.93389 7.23906 4.9902 7.24137 5.0265C7.25277 5.20476 8.53144 6.11574 8.79807 6.22369C9.01553 6.31172 8.74735 5.64227 8.92664 5.66124C9.18897 5.68902 10.3428 5.69014 11.0233 6.64834C11.5129 7.33765 11.1243 8.07475 11.2512 8.00177ZM3.71076 5.26044H2.2355C2.04394 5.26045 1.88844 5.4101 1.88844 5.59441V6.26236C1.88844 6.44669 2.04396 6.59634 2.2355 6.59634H3.71076C3.9023 6.59634 4.05781 6.44669 4.05781 6.26236V5.59441C4.05781 5.4101 3.90232 5.26045 3.71076 5.26044ZM16.2695 1.65371H0.269531C0.269531 1.65371 0.269531 1.27886 0.269531 0.890678C0.269531 0.421793 0.66452 0.041687 1.15176 0.041687C3.94337 0.041687 12.5649 0.041687 15.3744 0.041687C15.6118 0.041687 15.8394 0.132442 16.0073 0.293995C16.1752 0.455534 16.2695 0.674639 16.2695 0.903095V1.65371Z" fill="#464F60" fill-opacity="0.5"/>
</svg>
