<svg width="15" height="15" viewBox="0 0 15 15" fill="none" xmlns="http://www.w3.org/2000/svg">
<path d="M5.42632 0.936027C3.93153 1.05692 2.61469 1.40145 1.83171 1.87291C1.51732 2.06029 1.18515 2.40482 1.07245 2.65264L0.977539 2.84001V7.90522V12.9704L1.06058 13.1518C1.10804 13.2545 1.19701 13.3935 1.2504 13.4661C1.71307 14.0282 2.79264 14.4936 4.19846 14.7294C4.95179 14.8563 5.36107 14.8926 6.3576 14.9046C7.31854 14.9167 7.81087 14.8986 8.47522 14.814C8.77181 14.7777 9.58445 14.6387 9.60818 14.6206C9.60818 14.6206 9.46582 14.4574 9.28193 14.27L8.94383 13.9254L8.73029 13.9617C7.63885 14.137 6.06102 14.1551 4.89247 14.0101C3.46293 13.8348 2.16388 13.3815 1.8673 12.9583L1.79018 12.8495V11.7797V10.7159L1.97407 10.8247C2.60876 11.1934 3.78917 11.5137 5.04669 11.6467C5.84154 11.7313 7.31854 11.7374 8.01848 11.6648L8.20829 11.6467L8.22609 11.3808C8.23795 11.2357 8.25575 11.0544 8.27354 10.9758C8.28541 10.9032 8.29727 10.8307 8.29134 10.8247C8.28541 10.8186 8.08966 10.8307 7.86426 10.8549C7.25922 10.9093 5.8712 10.9032 5.2721 10.8428C4.70859 10.7884 3.97898 10.6615 3.57563 10.5587C2.72146 10.3411 2.07491 10.0268 1.86136 9.73063L1.79018 9.63997V8.57615V7.51234L2.07491 7.6574C2.91721 8.09864 4.13321 8.37669 5.65173 8.48549C6.25083 8.5278 7.62106 8.50362 8.1727 8.44317C9.43023 8.30415 10.4564 8.04424 11.1682 7.68158L11.4826 7.51838V7.72389V7.9294H11.8919H12.3012V5.49955C12.3012 4.15165 12.2893 3.02739 12.2774 2.93672C12.2359 2.6889 12.1232 2.47735 11.9038 2.25975C11.6902 2.04215 11.5063 1.90918 11.1623 1.72784C10.4149 1.33496 9.14551 1.03878 7.78714 0.929983C7.35413 0.899761 5.84747 0.899761 5.42632 0.936027ZM7.42531 1.73993C8.89637 1.82455 10.0946 2.09051 10.8776 2.49548C11.4351 2.78561 11.5894 3.03948 11.3758 3.32357C11.1148 3.67414 10.0709 4.07912 8.91417 4.27858C7.51429 4.52036 5.71104 4.52036 4.32896 4.27858C3.08923 4.06098 2.01559 3.61974 1.82577 3.24499C1.67155 2.94277 1.97407 2.6345 2.72739 2.33228C3.87221 1.87291 5.69325 1.63718 7.42531 1.73993ZM2.61469 4.68356C3.16041 4.88907 4.07389 5.08853 4.90433 5.18524C7.24143 5.4512 9.80393 5.14898 11.1623 4.45387L11.4767 4.29067V5.32426C11.4767 6.49083 11.4826 6.46666 11.2631 6.66008C11.0852 6.82327 10.6522 7.02878 10.1776 7.18594C7.88205 7.95358 4.12135 7.81456 2.3537 6.88976C2.09863 6.75679 1.89102 6.58754 1.82577 6.46061C1.79018 6.39412 1.78425 6.2007 1.78425 5.33635V4.28463L2.06897 4.42969C2.2232 4.51431 2.47233 4.62916 2.61469 4.68356Z" fill="#023F81"/>
<path d="M11.6248 8.48709C10.4029 8.60195 9.34108 9.44223 8.94958 10.615C8.82502 10.9898 8.7835 11.28 8.80129 11.7454C8.80722 12.0719 8.83095 12.223 8.88433 12.4346C9.05635 13.1056 9.47751 13.7403 10.0232 14.1635C10.2605 14.3449 10.7469 14.5927 11.0435 14.6713C12.4434 15.0763 13.95 14.4174 14.6203 13.1056C15.255 11.8663 15.0296 10.3853 14.0627 9.39991C13.4221 8.74703 12.5027 8.40246 11.6248 8.48709ZM13.6356 11.014C13.6712 11.0321 13.7305 11.0865 13.7602 11.1228C13.8136 11.1953 13.8195 11.2376 13.8195 11.6124C13.8195 11.9026 13.8077 12.0477 13.7839 12.1142C13.7127 12.2955 13.7661 12.2895 11.8739 12.2895C9.98763 12.2895 10.0825 12.2955 9.98763 12.1202C9.92832 12.0054 9.92832 11.2558 9.98763 11.1409C10.0766 10.9717 10.0173 10.9777 11.8739 10.9777C13.167 10.9777 13.5882 10.9837 13.6356 11.014Z" fill="#023F81"/>
</svg>
