<svg width="15" height="16" viewBox="0 0 15 16" fill="none" xmlns="http://www.w3.org/2000/svg">
<path d="M0.199219 7.24999V14H6.26308H12.3269V7.24999V0.5H6.26308H0.199219V7.24999ZM9.7716 2.90254V3.20127H6.26308H2.7478V2.90254V2.59746H6.25632H9.76484V2.90254H9.7716ZM9.31191 4.3072C9.42007 4.33898 9.58908 4.42161 9.67696 4.49788C10.1907 4.91101 10.1907 5.65466 9.68372 6.06779C9.36599 6.32203 8.88602 6.38559 8.52097 6.22033L8.37901 6.15042L7.89228 6.51906C7.62187 6.72245 7.38527 6.90677 7.35823 6.92584C7.32442 6.95126 7.31766 7.04025 7.32442 7.21821C7.35147 7.56143 7.28386 7.77118 7.06754 7.99364C6.83093 8.24152 6.58757 8.34321 6.25632 8.34321C5.93859 8.33686 5.76283 8.2733 5.52622 8.06355C5.3099 7.87287 5.2085 7.69491 5.18145 7.42796L5.16117 7.22457L4.74881 6.9894L4.33643 6.74788L4.20799 6.84321C3.99843 6.99576 3.80238 7.05296 3.5117 7.05296C3.18721 7.05296 2.97764 6.97033 2.76132 6.7733C2.33543 6.37288 2.32867 5.71821 2.7478 5.32415C3.19397 4.91101 3.95111 4.93644 4.35672 5.37499C4.53248 5.57203 4.62712 5.83898 4.60684 6.09321L4.59332 6.2966L4.96513 6.51271L5.33694 6.72881L5.48566 6.59533C5.82367 6.28389 6.33068 6.21398 6.74305 6.41737C6.88502 6.48728 6.99318 6.51906 7.02022 6.49999C7.04726 6.48093 7.27034 6.30932 7.52047 6.11864C7.7706 5.9216 7.98016 5.76271 7.99368 5.76271C8.00044 5.75635 7.9734 5.69279 7.9396 5.62288C7.79764 5.29872 7.91256 4.82203 8.20325 4.55508C8.52097 4.27542 8.89278 4.18644 9.31191 4.3072ZM9.7716 10.0974V10.3962H6.26308H2.7478V10.0974V9.79872H6.25632H9.76484V10.0974H9.7716ZM9.7716 11.9025V12.2013H6.26308H2.7478V11.9025V11.6038H6.25632H9.76484V11.9025H9.7716Z" fill="#023F81"/>
<path d="M12.6376 2.26058V2.55931H13.0973H13.5569V8.73091V14.9025H8.11503H2.66634V14.6038V14.3051H2.34861H2.03088V14.9025V15.5H8.11503H14.1992V8.73091V1.96185H13.415H12.6376V2.26058Z" fill="#023F81"/>
</svg>
