<svg width="13" height="16" viewBox="0 0 13 16" fill="none" xmlns="http://www.w3.org/2000/svg">
<path d="M0 14.7255V0.607863C0 0.364208 0.21069 0.166687 0.470588 0.166687H11.7647C12.0246 0.166687 12.2353 0.364208 12.2353 0.607863V14.7255C12.2353 14.9692 12.0246 15.1667 11.7647 15.1667H0.470588C0.21069 15.1667 0 14.9692 0 14.7255ZM5.41226 3.03433C5.22891 3.03433 5.14017 2.80993 5.27393 2.68453C5.4577 2.51224 5.4577 2.2329 5.27393 2.06061C5.09015 1.88832 4.7922 1.88832 4.60843 2.06061L3.43196 3.16355C3.24818 3.33584 3.24818 3.61518 3.43196 3.78747L4.60843 4.89041C4.7922 5.0627 5.09015 5.0627 5.27393 4.89041C5.4577 4.71812 5.4577 4.43878 5.27393 4.26649C5.14017 4.14109 5.22891 3.91669 5.41226 3.91669H7.057C7.83637 3.91669 8.46955 4.51051 8.46955 5.24022C8.46955 5.97185 7.8384 6.56375 7.057 6.56375H4.23529C3.9754 6.56375 3.76471 6.76127 3.76471 7.00492C3.76471 7.24858 3.9754 7.4461 4.23529 7.4461H7.057C8.35826 7.4461 9.41073 6.4591 9.41073 5.24022C9.41073 4.02327 8.35624 3.03433 7.057 3.03433H5.41226ZM2.35294 10.9755H9.88235C10.1423 10.9755 10.3529 10.778 10.3529 10.5343C10.3529 10.2907 10.1423 10.0932 9.88235 10.0932H2.35294C2.09304 10.0932 1.88235 10.2907 1.88235 10.5343C1.88235 10.778 2.09304 10.9755 2.35294 10.9755ZM2.35294 13.402H6.11765C6.37755 13.402 6.58824 13.2045 6.58824 12.9608C6.58824 12.7171 6.37755 12.5196 6.11765 12.5196H2.35294C2.09304 12.5196 1.88235 12.7171 1.88235 12.9608C1.88235 13.2045 2.09304 13.402 2.35294 13.402Z" fill="#464F60" fill-opacity="0.5"/>
</svg>
