<svg width="10" height="15" viewBox="0 0 10 15" fill="none" xmlns="http://www.w3.org/2000/svg">
<path d="M3.89984 1.37892C3.63762 1.13316 3.30356 0.965808 2.9399 0.898014C2.57624 0.830219 2.1993 0.865029 1.85674 0.998043C1.51418 1.13106 1.22137 1.3563 1.01534 1.6453C0.809308 1.93431 0.699298 2.27409 0.699219 2.6217L0.699219 12.4408C0.699298 12.7884 0.809308 13.1282 1.01534 13.4172C1.22137 13.7062 1.51418 13.9315 1.85674 14.0645C2.1993 14.1975 2.57624 14.2323 2.9399 14.1645C3.30356 14.0967 3.63762 13.9294 3.89984 13.6836L9.13672 8.77404C9.48823 8.4444 9.68569 7.99738 9.68569 7.53127C9.68569 7.06516 9.48823 6.61813 9.13672 6.28849L3.89984 1.37892Z" fill="#023F81"/>
</svg>
