<svg width="15" height="14" viewBox="0 0 15 14" fill="none" xmlns="http://www.w3.org/2000/svg">
<path fill-rule="evenodd" clip-rule="evenodd" d="M10.1313 10.7458C9.11497 11.5361 7.83788 12.0067 6.45089 12.0067C3.13626 12.0067 0.449219 9.31891 0.449219 6.00335C0.449219 2.68779 3.13626 0 6.45089 0C9.76553 0 12.4526 2.68779 12.4526 6.00335C12.4526 7.39059 11.9822 8.66794 11.1922 9.6845L14.2292 12.7186C14.5223 13.0115 14.5226 13.4867 14.2298 13.7799C13.937 14.0731 13.462 14.0734 13.1689 13.7805L10.1313 10.7458ZM10.9521 6.00335C10.9521 8.49002 8.93687 10.5059 6.45089 10.5059C3.96492 10.5059 1.94964 8.49002 1.94964 6.00335C1.94964 3.51668 3.96492 1.50084 6.45089 1.50084C8.93687 1.50084 10.9521 3.51668 10.9521 6.00335Z" fill="#023F81"/>
</svg>
