<svg width="17" height="17" viewBox="0 0 17 17" fill="none" xmlns="http://www.w3.org/2000/svg">
<path d="M8.43201 0.760337C7.77445 0.780663 6.96776 0.922944 6.3102 1.13298C3.27323 2.10185 1.12431 4.71712 0.758246 7.89474C0.710793 8.2877 0.710793 9.24302 0.758246 9.63599C1.12431 12.8136 3.28001 15.4289 6.31698 16.3977C7.10334 16.6484 7.84902 16.7568 8.7235 16.7568C9.59799 16.7568 10.3504 16.6417 11.13 16.3977C14.167 15.4221 16.3159 12.8068 16.6888 9.63599C16.7091 9.46661 16.7227 9.07364 16.7227 8.76875C16.7227 8.45709 16.7091 8.06412 16.6888 7.90151C16.5667 6.87166 16.2346 5.81472 15.76 4.95425C14.2687 2.2509 11.5029 0.672258 8.43201 0.760337ZM9.21837 3.89053C9.44885 4.00571 9.61154 4.16832 9.72679 4.40545C9.80136 4.54773 9.80136 4.57484 9.81491 6.09928L9.82847 7.64405L11.3741 7.6576L12.9197 7.67115L13.0824 7.74568C13.2925 7.85408 13.5027 8.07089 13.6111 8.2877C13.6857 8.44353 13.6992 8.51806 13.6992 8.74842C13.6992 8.97878 13.6857 9.05331 13.6111 9.20914C13.5094 9.43273 13.2993 9.64276 13.0824 9.75117L12.9197 9.83247L11.3741 9.84602L9.82847 9.85957L9.81491 11.4043L9.80135 12.9491L9.72001 13.1117C9.61154 13.3285 9.4014 13.5318 9.17769 13.6402C9.02178 13.7147 8.94721 13.7283 8.71672 13.7283C8.48624 13.7283 8.41167 13.7147 8.25576 13.6402C8.03205 13.5386 7.81512 13.3285 7.71344 13.1117L7.63887 12.9491L7.62532 11.4043L7.61176 9.85957L6.06616 9.84602L4.51378 9.83925L4.35109 9.76472C4.14094 9.65631 3.93079 9.4395 3.82233 9.2227C3.74776 9.06686 3.7342 8.99234 3.7342 8.76198C3.7342 8.53161 3.74776 8.45709 3.82233 8.30125C3.92401 8.07767 4.13416 7.86086 4.35109 7.75923L4.51378 7.6847L6.05938 7.67115L7.60498 7.6576L7.61854 6.11283C7.63209 4.77132 7.63887 4.54773 7.68633 4.45288C7.97104 3.8431 8.64216 3.60597 9.21837 3.89053Z" fill="#023F81"/>
</svg>
