<svg width="17" height="17" viewBox="0 0 17 17" fill="none" xmlns="http://www.w3.org/2000/svg">
<path d="M16.0177 3.92862H10.5653C10.2316 3.92862 9.95794 3.65766 9.95794 3.32722C9.95794 2.99678 10.2249 2.72582 10.5653 2.72582H16.0177C16.3514 2.72582 16.625 2.99678 16.625 3.32722C16.625 3.65766 16.3581 3.92862 16.0177 3.92862ZM16.0177 6.92902H10.5653C10.2316 6.92902 9.95794 6.65805 9.95794 6.32761C9.95794 5.99717 10.2249 5.72621 10.5653 5.72621H16.0177C16.3514 5.72621 16.625 5.99717 16.625 6.32761C16.625 6.65805 16.3581 6.92902 16.0177 6.92902ZM16.0177 11.727H10.5653C10.2316 11.727 9.95794 11.4627 9.95794 11.1256C9.95794 10.7952 10.2249 10.5242 10.5653 10.5242H16.0177C16.3514 10.5242 16.625 10.7886 16.625 11.1256C16.625 11.456 16.3581 11.727 16.0177 11.727ZM16.0177 14.7274H10.5653C10.2316 14.7274 9.95794 14.4631 9.95794 14.126C9.95794 13.7956 10.2249 13.5246 10.5653 13.5246H16.0177C16.3514 13.5246 16.625 13.789 16.625 14.126C16.625 14.4564 16.3581 14.7274 16.0177 14.7274ZM6.32744 8.12521H2.69025C1.68919 8.12521 0.875 7.31893 0.875 6.32761V2.72582C0.875 1.7345 1.68919 0.928223 2.69025 0.928223H6.32744C7.3285 0.928223 8.14269 1.7345 8.14269 2.72582V6.32761C8.14269 7.31893 7.3285 8.12521 6.32744 8.12521ZM2.69025 2.13102C2.35657 2.13102 2.08294 2.40199 2.08294 2.73243V6.33422C2.08294 6.66466 2.35657 6.93562 2.69025 6.93562H6.32744C6.66112 6.93562 6.93475 6.66466 6.93475 6.33422V2.72582C6.93475 2.39538 6.66112 2.12442 6.32744 2.12442H2.69025V2.13102ZM6.32744 16.525H2.69025C1.68919 16.525 0.875 15.7187 0.875 14.7274V11.1322C0.875 10.1409 1.68919 9.33462 2.69025 9.33462H6.32744C7.3285 9.33462 8.14269 10.1409 8.14269 11.1322V14.734C8.14269 15.7187 7.3285 16.525 6.32744 16.525ZM2.69025 10.5242C2.35657 10.5242 2.08294 10.7952 2.08294 11.1256V14.7274C2.08294 15.0578 2.35657 15.3288 2.69025 15.3288H6.32744C6.66112 15.3288 6.93475 15.0578 6.93475 14.7274V11.1256C6.93475 10.7952 6.66112 10.5242 6.32744 10.5242H2.69025Z" fill="#023F81"/>
</svg>
