<svg width="142" height="36" viewBox="0 0 142 36" fill="none" xmlns="http://www.w3.org/2000/svg">
<rect x="0.449219" width="141" height="36" rx="6" fill="#ECFAF2"/>
<path d="M46.4102 13.3916L42.9297 24H40.126L44.8809 11.2031H46.665L46.4102 13.3916ZM49.3018 24L45.8125 13.3916L45.5312 11.2031H47.333L52.1143 24H49.3018ZM49.1436 19.2363V21.3018H42.3848V19.2363H49.1436ZM60.5605 19.7549H63.1885C63.1357 20.6162 62.8984 21.3809 62.4766 22.0488C62.0605 22.7168 61.4775 23.2383 60.7275 23.6133C59.9834 23.9883 59.0869 24.1758 58.0381 24.1758C57.2178 24.1758 56.4824 24.0352 55.832 23.7539C55.1816 23.4668 54.625 23.0566 54.1621 22.5234C53.7051 21.9902 53.3564 21.3457 53.1162 20.5898C52.876 19.834 52.7559 18.9873 52.7559 18.0498V17.1621C52.7559 16.2246 52.8789 15.3779 53.125 14.6221C53.377 13.8604 53.7344 13.2129 54.1973 12.6797C54.666 12.1465 55.2256 11.7363 55.876 11.4492C56.5264 11.1621 57.2529 11.0186 58.0557 11.0186C59.1221 11.0186 60.0215 11.2119 60.7539 11.5986C61.4922 11.9854 62.0635 12.5186 62.4678 13.1982C62.8779 13.8779 63.124 14.6514 63.2061 15.5186H60.5693C60.54 15.0029 60.4375 14.5664 60.2617 14.209C60.0859 13.8457 59.8193 13.5732 59.4619 13.3916C59.1104 13.2041 58.6416 13.1104 58.0557 13.1104C57.6162 13.1104 57.2324 13.1924 56.9043 13.3564C56.5762 13.5205 56.3008 13.7695 56.0781 14.1035C55.8555 14.4375 55.6885 14.8594 55.5771 15.3691C55.4717 15.873 55.4189 16.4648 55.4189 17.1445V18.0498C55.4189 18.7119 55.4688 19.2949 55.5684 19.7988C55.668 20.2969 55.8203 20.7188 56.0254 21.0645C56.2363 21.4043 56.5059 21.6621 56.834 21.8379C57.168 22.0078 57.5693 22.0928 58.0381 22.0928C58.5889 22.0928 59.043 22.0049 59.4004 21.8291C59.7578 21.6533 60.0303 21.3926 60.2178 21.0469C60.4111 20.7012 60.5254 20.2705 60.5605 19.7549ZM70.3779 11.2031V24H67.75V11.2031H70.3779ZM74.3154 11.2031V13.2686H63.874V11.2031H74.3154ZM78.6221 11.2031V24H75.9941V11.2031H78.6221ZM85.7061 21.3281L88.7207 11.2031H91.6562L87.2002 24H85.2666L85.7061 21.3281ZM82.9287 11.2031L85.9346 21.3281L86.3916 24H84.4404L80.0107 11.2031H82.9287ZM101.438 21.9434V24H94.627V21.9434H101.438ZM95.4883 11.2031V24H92.8516V11.2031H95.4883ZM100.551 16.415V18.4189H94.627V16.415H100.551ZM101.43 11.2031V13.2686H94.627V11.2031H101.43Z" fill="#41C980"/>
</svg>
