<svg width="4" height="6" viewBox="0 0 4 6" fill="none" xmlns="http://www.w3.org/2000/svg">
<path fill-rule="evenodd" clip-rule="evenodd" d="M3.63216 2.55122C3.75006 2.66926 3.81628 2.82928 3.81628 2.99611C3.81628 3.16294 3.75006 3.32295 3.63216 3.441L1.25831 5.8157C1.1402 5.93374 0.980042 6.00004 0.813058 6C0.646074 5.99996 0.485946 5.93359 0.367898 5.81549C0.249851 5.69738 0.183554 5.53722 0.183594 5.37024C0.183633 5.20326 0.250005 5.04313 0.368108 4.92508L2.29708 2.99611L0.368108 1.06714C0.253372 0.948456 0.18984 0.789458 0.191196 0.624388C0.192552 0.459318 0.258687 0.301385 0.375358 0.184604C0.492029 0.0678229 0.6499 0.00153828 0.814968 2.6226e-05C0.980037 -0.00148535 1.1391 0.0618973 1.25789 0.176522L3.63258 2.5508L3.63216 2.55122Z" fill="#023F81"/>
</svg>
