<svg width="31" height="31" viewBox="0 0 31 31" fill="none" xmlns="http://www.w3.org/2000/svg">
<path fill-rule="evenodd" clip-rule="evenodd" d="M7.72461 1.4375C7.72461 1.18886 7.62584 0.950403 7.45002 0.774587C7.27421 0.598772 7.03575 0.5 6.78711 0.5C6.53847 0.5 6.30001 0.598772 6.1242 0.774587C5.94838 0.950403 5.84961 1.18886 5.84961 1.4375V2.375H3.97461C2.98005 2.375 2.02622 2.77009 1.32296 3.47335C0.619698 4.17661 0.224609 5.13044 0.224609 6.125V8H30.2246V6.125C30.2246 5.13044 29.8295 4.17661 29.1263 3.47335C28.423 2.77009 27.4692 2.375 26.4746 2.375H24.5996V1.4375C24.5996 1.18886 24.5008 0.950403 24.325 0.774587C24.1492 0.598772 23.9107 0.5 23.6621 0.5C23.4135 0.5 23.175 0.598772 22.9992 0.774587C22.8234 0.950403 22.7246 1.18886 22.7246 1.4375V2.375H7.72461V1.4375ZM30.2246 26.75V9.875H0.224609V26.75C0.224609 27.7446 0.619698 28.6984 1.32296 29.4016C2.02622 30.1049 2.98005 30.5 3.97461 30.5H26.4746C27.4692 30.5 28.423 30.1049 29.1263 29.4016C29.8295 28.6984 30.2246 27.7446 30.2246 26.75ZM12.668 24.5426V14.5689H12.4561L8.33398 16.0386V17.5904L10.6992 16.8385V24.5426H12.668ZM22.7168 24.5426V23.0045H18.4512L20.1807 21.0631C20.5133 20.7258 20.8164 20.4 21.0898 20.0855C21.3633 19.7711 21.5957 19.4612 21.7871 19.1558C21.9831 18.8459 22.1335 18.536 22.2383 18.2261C22.3431 17.9117 22.3955 17.5904 22.3955 17.2623C22.3955 16.6789 22.2702 16.1776 22.0195 15.7584C21.7734 15.3345 21.4089 15.011 20.9258 14.7877C20.4473 14.5598 19.8594 14.4459 19.1621 14.4459C18.4557 14.4459 17.8451 14.594 17.3301 14.8902C16.8151 15.1819 16.4163 15.5761 16.1338 16.0728C15.8512 16.565 15.71 17.1073 15.71 17.6998H17.6855C17.6855 17.3717 17.7402 17.0777 17.8496 16.8179C17.9635 16.5582 18.1276 16.3554 18.3418 16.2095C18.5605 16.0637 18.8203 15.9908 19.1211 15.9908C19.4036 15.9908 19.6406 16.05 19.832 16.1685C20.028 16.287 20.1761 16.4556 20.2764 16.6744C20.3766 16.8886 20.4268 17.1461 20.4268 17.4468C20.4268 17.6474 20.3835 17.8593 20.2969 18.0826C20.2148 18.3013 20.0804 18.5497 19.8936 18.8277C19.7067 19.1011 19.4515 19.4179 19.1279 19.7779L15.9082 23.2301V24.5426H22.7168Z" fill="white"/>
</svg>
