<svg width="9" height="5" viewBox="0 0 9 5" fill="none" xmlns="http://www.w3.org/2000/svg">
<path d="M1.1756 1.43573L4.39016 4.65029C4.39359 4.65385 4.39465 4.65887 4.39822 4.66231C4.54964 4.81373 4.74955 4.88891 4.94919 4.88838C5.14884 4.88891 5.34862 4.81386 5.50017 4.66231C5.50374 4.65874 5.50466 4.65385 5.50823 4.65029L8.72278 1.43573C9.0247 1.13382 9.0247 0.639789 8.72278 0.338008C8.42087 0.036226 7.92684 0.0360939 7.62506 0.338008L4.94906 3.01374L2.27333 0.338008C1.97141 0.0360939 1.47739 0.0360939 1.1756 0.338008C0.873823 0.639921 0.873691 1.13395 1.1756 1.43573Z" fill="#464F60"/>
</svg>
