<svg width="6" height="6" viewBox="0 0 6 6" fill="none" xmlns="http://www.w3.org/2000/svg">
<path d="M0.135254 0.132277C0.0527539 0.163215 0.00634766 0.256027 0.00634766 0.364309C0.00634766 0.436496 0.18166 0.627278 1.11494 1.56056C1.72338 2.169 2.22354 2.68462 2.22354 2.70009C2.22354 2.71556 1.72338 3.23118 1.11494 3.83962C0.0733789 4.88118 0.00634766 4.95853 0.00634766 5.0565C0.00634766 5.19571 0.104317 5.29884 0.248692 5.29884C0.34666 5.29884 0.439473 5.21118 1.48104 4.17478L2.6051 3.05072L3.72916 4.17478C4.90994 5.35556 4.9151 5.36071 5.0801 5.2679C5.14713 5.23181 5.20385 5.07197 5.17807 4.99978C5.16775 4.974 4.66244 4.44806 4.04885 3.83447L2.9351 2.71556L4.03338 1.61728C4.63666 1.00884 5.14713 0.477746 5.1626 0.43134C5.22447 0.26634 5.06979 0.0807152 4.89963 0.116809C4.84291 0.132278 4.44072 0.51384 3.69822 1.25118L2.57932 2.36493L1.44494 1.23056C0.707598 0.488059 0.30541 0.10134 0.26416 0.106496C0.233223 0.106496 0.171348 0.116809 0.135254 0.132277Z" fill="#7F7F7F" fill-opacity="0.5"/>
</svg>
