<svg width="26" height="12" viewBox="0 0 26 12" fill="none" xmlns="http://www.w3.org/2000/svg">
<path d="M24.0677 0H1.71481C0.891621 0 0.224609 0.639428 0.224609 1.42857V10.5714C0.224609 11.3606 0.891621 12 1.71481 12H24.0677C24.8909 12 25.5579 11.3606 25.5579 10.5714V1.42857C25.5579 0.639428 24.8909 0 24.0677 0ZM6.79786 10.4171L6.2909 8.29H3.64997L3.1138 10.4171H1.73567L4.26632 1.58257H5.7893L8.21772 10.4171H6.79786ZM10.6503 10.4294C8.01804 10.4294 8.2216 7.29829 8.2216 7.29829V1.67086H9.53327V7.27486C9.53327 9.07143 10.2554 9.17914 10.5558 9.18029H10.65H10.7442C11.0446 9.17914 11.7677 9.07143 11.7677 7.27486V1.67086H13.0787V7.29829C13.0787 7.29829 13.2826 10.4294 10.6503 10.4294ZM17.023 10.3286H15.5698V2.92771H13.7797V1.67086H18.7808V2.92771H17.023V10.3286ZM21.414 10.452C19.6481 10.452 18.7808 8.45914 18.7808 6C18.7808 3.54143 19.6574 1.54771 21.414 1.54771C23.1701 1.54771 24.0469 3.54114 24.0469 6C24.0469 8.45914 23.1796 10.452 21.414 10.452Z" fill="#7F7F7F"/>
<path d="M3.96191 7.05403H5.99663L5.00744 2.9046L3.96191 7.05403Z" fill="#7F7F7F"/>
<path d="M21.4135 2.75745C20.4068 2.75745 20.0205 4.20945 20.0205 6.00002C20.0205 7.79116 20.4244 9.2423 21.4135 9.2423C22.4021 9.2423 22.8063 7.79116 22.8063 6.00002C22.8063 4.20916 22.42 2.75745 21.4135 2.75745Z" fill="#7F7F7F"/>
</svg>
