<svg width="31" height="31" viewBox="0 0 31 31" fill="none" xmlns="http://www.w3.org/2000/svg">
<path fill-rule="evenodd" clip-rule="evenodd" d="M7.72461 1.4375C7.72461 1.18886 7.62584 0.950403 7.45002 0.774587C7.27421 0.598772 7.03575 0.5 6.78711 0.5C6.53847 0.5 6.30001 0.598772 6.1242 0.774587C5.94838 0.950403 5.84961 1.18886 5.84961 1.4375V2.375H3.97461C2.98005 2.375 2.02622 2.77009 1.32296 3.47335C0.619698 4.17661 0.224609 5.13044 0.224609 6.125V8H30.2246V6.125C30.2246 5.13044 29.8295 4.17661 29.1263 3.47335C28.423 2.77009 27.4692 2.375 26.4746 2.375H24.5996V1.4375C24.5996 1.18886 24.5008 0.950403 24.325 0.774587C24.1492 0.598772 23.9107 0.5 23.6621 0.5C23.4135 0.5 23.175 0.598772 22.9992 0.774587C22.8234 0.950403 22.7246 1.18886 22.7246 1.4375V2.375H7.72461V1.4375ZM30.2246 26.75V9.875H0.224609V26.75C0.224609 27.7446 0.619698 28.6984 1.32296 29.4016C2.02622 30.1049 2.98005 30.5 3.97461 30.5H26.4746C27.4692 30.5 28.423 30.1049 29.1263 29.4016C29.8295 28.6984 30.2246 27.7446 30.2246 26.75ZM10.9385 18.7115H9.88574V19.19V19.7574V20.2086H10.9385C11.2757 20.2086 11.5674 20.261 11.8135 20.3658C12.0596 20.4706 12.2487 20.6347 12.3809 20.858C12.513 21.0767 12.5791 21.3684 12.5791 21.733C12.5791 22.0155 12.5176 22.2639 12.3945 22.4781C12.276 22.6877 12.1029 22.8518 11.875 22.9703C11.6517 23.0842 11.3828 23.1412 11.0684 23.1412C10.7904 23.1412 10.5374 23.0842 10.3096 22.9703C10.0863 22.8564 9.91081 22.6991 9.7832 22.4986C9.6556 22.2981 9.5918 22.0702 9.5918 21.815H7.61621C7.61621 22.3072 7.71191 22.7333 7.90332 23.0933C8.09928 23.4488 8.35905 23.745 8.68262 23.982C9.01074 24.2144 9.37533 24.3899 9.77637 24.5084C10.182 24.6223 10.5944 24.6793 11.0137 24.6793C11.5195 24.6793 11.9867 24.6155 12.415 24.4879C12.8434 24.3557 13.2171 24.1643 13.5361 23.9136C13.8597 23.663 14.1104 23.3577 14.2881 22.9976C14.4658 22.633 14.5547 22.2183 14.5547 21.7535C14.5547 21.3752 14.484 21.0312 14.3428 20.7213C14.2015 20.4068 13.9919 20.1357 13.7139 19.9078C13.4756 19.7086 13.1888 19.5496 12.8534 19.4307C13.1153 19.309 13.3452 19.1627 13.543 18.9918C13.8164 18.7548 14.026 18.4905 14.1719 18.1988C14.3177 17.9026 14.3906 17.5972 14.3906 17.2828C14.3906 16.663 14.2493 16.1435 13.9668 15.7242C13.6842 15.3049 13.29 14.9882 12.7842 14.774C12.2783 14.5552 11.6882 14.4459 11.0137 14.4459C10.4167 14.4459 9.86979 14.5598 9.37305 14.7877C8.8763 15.0155 8.47982 15.3323 8.18359 15.7379C7.89193 16.1435 7.74609 16.6197 7.74609 17.1666H9.72168C9.72168 16.9205 9.7832 16.7108 9.90625 16.5377C10.0293 16.3645 10.1934 16.2301 10.3984 16.1343C10.6035 16.0386 10.8268 15.9908 11.0684 15.9908C11.3737 15.9908 11.6266 16.0478 11.8271 16.1617C12.0277 16.2711 12.1758 16.426 12.2715 16.6265C12.3717 16.8225 12.4219 17.0481 12.4219 17.3033C12.4219 17.5858 12.3672 17.8342 12.2578 18.0484C12.153 18.258 11.9912 18.4221 11.7725 18.5406C11.5537 18.6545 11.2757 18.7115 10.9385 18.7115ZM20.707 24.5426V14.5689H20.4951L16.373 16.0386V17.5904L18.7383 16.8385V24.5426H20.707Z" fill="white"/>
</svg>
