<svg width="75" height="34" viewBox="0 0 75 34" fill="none" xmlns="http://www.w3.org/2000/svg">
<g filter="url(#filter0_d_2300_24066)">
<rect x="4" width="67" height="26" rx="6" fill="#ECFAF2" shape-rendering="crispEdges"/>
<path d="M18.9965 14.0967H16.3373V13.0234H18.9965C19.5115 13.0234 19.9285 12.9414 20.2475 12.7773C20.5665 12.6133 20.7989 12.3854 20.9447 12.0938C21.0951 11.8021 21.1703 11.4694 21.1703 11.0957C21.1703 10.7539 21.0951 10.4326 20.9447 10.1318C20.7989 9.83105 20.5665 9.58952 20.2475 9.40723C19.9285 9.22038 19.5115 9.12695 18.9965 9.12695H16.6449V18H15.3256V8.04688H18.9965C19.7484 8.04688 20.3842 8.17676 20.9037 8.43652C21.4232 8.69629 21.8174 9.05632 22.0863 9.5166C22.3552 9.97233 22.4896 10.4941 22.4896 11.082C22.4896 11.7201 22.3552 12.2646 22.0863 12.7158C21.8174 13.167 21.4232 13.5111 20.9037 13.748C20.3842 13.9805 19.7484 14.0967 18.9965 14.0967ZM24.0955 14.3838V14.2266C24.0955 13.6934 24.173 13.1989 24.328 12.7432C24.4829 12.2829 24.7062 11.8841 24.9979 11.5469C25.2896 11.2051 25.6427 10.9408 26.0575 10.7539C26.4722 10.5625 26.937 10.4668 27.452 10.4668C27.9715 10.4668 28.4386 10.5625 28.8534 10.7539C29.2726 10.9408 29.6281 11.2051 29.9198 11.5469C30.216 11.8841 30.4416 12.2829 30.5965 12.7432C30.7515 13.1989 30.8289 13.6934 30.8289 14.2266V14.3838C30.8289 14.917 30.7515 15.4115 30.5965 15.8672C30.4416 16.3229 30.216 16.7217 29.9198 17.0635C29.6281 17.4007 29.2749 17.665 28.8602 17.8564C28.45 18.0433 27.9852 18.1367 27.4657 18.1367C26.9461 18.1367 26.479 18.0433 26.0643 17.8564C25.6496 17.665 25.2941 17.4007 24.9979 17.0635C24.7062 16.7217 24.4829 16.3229 24.328 15.8672C24.173 15.4115 24.0955 14.917 24.0955 14.3838ZM25.3602 14.2266V14.3838C25.3602 14.7529 25.4035 15.1016 25.4901 15.4297C25.5767 15.7533 25.7066 16.0404 25.8797 16.291C26.0575 16.5417 26.2785 16.7399 26.5428 16.8857C26.8071 17.027 27.1148 17.0977 27.4657 17.0977C27.812 17.0977 28.1151 17.027 28.3748 16.8857C28.6392 16.7399 28.8579 16.5417 29.0311 16.291C29.2043 16.0404 29.3342 15.7533 29.4207 15.4297C29.5119 15.1016 29.5575 14.7529 29.5575 14.3838V14.2266C29.5575 13.862 29.5119 13.5179 29.4207 13.1943C29.3342 12.8662 29.202 12.5768 29.0243 12.3262C28.8511 12.071 28.6323 11.8704 28.368 11.7246C28.1082 11.5788 27.8029 11.5059 27.452 11.5059C27.1056 11.5059 26.8003 11.5788 26.536 11.7246C26.2762 11.8704 26.0575 12.071 25.8797 12.3262C25.7066 12.5768 25.5767 12.8662 25.4901 13.1943C25.4035 13.5179 25.3602 13.862 25.3602 14.2266ZM37.2815 16.0381C37.2815 15.8558 37.2405 15.6872 37.1585 15.5322C37.081 15.3727 36.9192 15.2292 36.6731 15.1016C36.4316 14.9694 36.067 14.8555 35.5794 14.7598C35.1692 14.6732 34.7978 14.5706 34.4651 14.4521C34.137 14.3337 33.8567 14.1901 33.6243 14.0215C33.3964 13.8529 33.221 13.6546 33.0979 13.4268C32.9749 13.1989 32.9134 12.9323 32.9134 12.627C32.9134 12.3353 32.9772 12.0596 33.1048 11.7998C33.2369 11.54 33.4215 11.3099 33.6585 11.1094C33.9 10.9089 34.1894 10.7516 34.5266 10.6377C34.8639 10.5238 35.2399 10.4668 35.6546 10.4668C36.247 10.4668 36.7529 10.5716 37.1721 10.7812C37.5914 10.9909 37.9127 11.2712 38.136 11.6221C38.3593 11.9684 38.471 12.3535 38.471 12.7773H37.2063C37.2063 12.5723 37.1448 12.374 37.0218 12.1826C36.9033 11.9867 36.7278 11.8249 36.4954 11.6973C36.2675 11.5697 35.9873 11.5059 35.6546 11.5059C35.3037 11.5059 35.0188 11.5605 34.8001 11.6699C34.5859 11.7747 34.4287 11.9092 34.3284 12.0732C34.2327 12.2373 34.1848 12.4105 34.1848 12.5928C34.1848 12.7295 34.2076 12.8525 34.2532 12.9619C34.3033 13.0667 34.3899 13.1647 34.513 13.2559C34.636 13.3424 34.8092 13.4245 35.0325 13.502C35.2558 13.5794 35.5406 13.6569 35.887 13.7344C36.4931 13.8711 36.9921 14.0352 37.3841 14.2266C37.776 14.418 38.0677 14.6527 38.2591 14.9307C38.4505 15.2087 38.5462 15.5459 38.5462 15.9424C38.5462 16.266 38.4778 16.5622 38.3411 16.8311C38.2089 17.0999 38.0152 17.3324 37.76 17.5283C37.5094 17.7197 37.2086 17.8701 36.8577 17.9795C36.5113 18.0843 36.1217 18.1367 35.6888 18.1367C35.0371 18.1367 34.4856 18.0205 34.0345 17.7881C33.5833 17.5557 33.2415 17.2549 33.0091 16.8857C32.7766 16.5166 32.6604 16.127 32.6604 15.7168H33.9319C33.9501 16.0632 34.0504 16.3389 34.2327 16.5439C34.415 16.7445 34.6383 16.888 34.9026 16.9746C35.1669 17.0566 35.429 17.0977 35.6888 17.0977C36.0351 17.0977 36.3245 17.0521 36.5569 16.9609C36.7939 16.8698 36.9739 16.7445 37.097 16.585C37.22 16.4255 37.2815 16.2432 37.2815 16.0381ZM43.864 10.6035V11.5742H39.865V10.6035H43.864ZM41.2185 8.80566H42.4831V16.168C42.4831 16.4186 42.5219 16.6077 42.5993 16.7354C42.6768 16.863 42.7771 16.9473 42.9001 16.9883C43.0232 17.0293 43.1553 17.0498 43.2966 17.0498C43.4014 17.0498 43.5108 17.0407 43.6247 17.0225C43.7432 16.9997 43.8321 16.9814 43.8913 16.9678L43.8982 18C43.7979 18.0319 43.6657 18.0615 43.5017 18.0889C43.3422 18.1208 43.1485 18.1367 42.9206 18.1367C42.6107 18.1367 42.3259 18.0752 42.0661 17.9521C41.8064 17.8291 41.599 17.624 41.4441 17.3369C41.2937 17.0452 41.2185 16.6533 41.2185 16.1611V8.80566ZM48.9767 18.1367C48.4617 18.1367 47.9946 18.0501 47.5754 17.877C47.1606 17.6992 46.8029 17.4508 46.5021 17.1318C46.2059 16.8128 45.978 16.4346 45.8185 15.9971C45.659 15.5596 45.5793 15.0811 45.5793 14.5615V14.2744C45.5793 13.6729 45.6681 13.1374 45.8459 12.668C46.0236 12.194 46.2651 11.793 46.5705 11.4648C46.8758 11.1367 47.2222 10.8883 47.6095 10.7197C47.9969 10.5511 48.3979 10.4668 48.8127 10.4668C49.3413 10.4668 49.797 10.5579 50.1798 10.7402C50.5672 10.9225 50.8839 11.1777 51.13 11.5059C51.3761 11.8294 51.5584 12.2122 51.6769 12.6543C51.7954 13.0918 51.8546 13.5703 51.8546 14.0898V14.6572H46.3312V13.625H50.59V13.5293C50.5718 13.2012 50.5034 12.8822 50.3849 12.5723C50.271 12.2624 50.0887 12.0072 49.838 11.8066C49.5874 11.6061 49.2456 11.5059 48.8127 11.5059C48.5255 11.5059 48.2612 11.5674 48.0197 11.6904C47.7782 11.8089 47.5708 11.9867 47.3976 12.2236C47.2244 12.4606 47.09 12.75 46.9943 13.0918C46.8986 13.4336 46.8507 13.8278 46.8507 14.2744V14.5615C46.8507 14.9124 46.8986 15.2428 46.9943 15.5527C47.0946 15.8581 47.2381 16.127 47.425 16.3594C47.6164 16.5918 47.8465 16.7741 48.1154 16.9062C48.3888 17.0384 48.6987 17.1045 49.0451 17.1045C49.4917 17.1045 49.8699 17.0133 50.1798 16.8311C50.4897 16.6488 50.7609 16.4049 50.9933 16.0996L51.7589 16.708C51.5994 16.9495 51.3966 17.1797 51.1505 17.3984C50.9045 17.6172 50.6014 17.7949 50.2414 17.9316C49.8859 18.0684 49.4643 18.1367 48.9767 18.1367ZM58.5533 16.5645V7.5H59.8248V18H58.6627L58.5533 16.5645ZM53.5768 14.3838V14.2402C53.5768 13.6751 53.6451 13.1624 53.7818 12.7021C53.9231 12.2373 54.1214 11.8385 54.3766 11.5059C54.6363 11.1732 54.9439 10.918 55.2994 10.7402C55.6594 10.5579 56.0605 10.4668 56.5025 10.4668C56.9674 10.4668 57.373 10.5488 57.7193 10.7129C58.0702 10.8724 58.3665 11.1071 58.608 11.417C58.8541 11.7223 59.0478 12.0915 59.1891 12.5244C59.3303 12.9574 59.4283 13.4473 59.483 13.9941V14.623C59.4329 15.1654 59.3349 15.653 59.1891 16.0859C59.0478 16.5189 58.8541 16.888 58.608 17.1934C58.3665 17.4987 58.0702 17.7334 57.7193 17.8975C57.3684 18.057 56.9583 18.1367 56.4889 18.1367C56.0559 18.1367 55.6594 18.0433 55.2994 17.8564C54.9439 17.6696 54.6363 17.4076 54.3766 17.0703C54.1214 16.7331 53.9231 16.3366 53.7818 15.8809C53.6451 15.4206 53.5768 14.9215 53.5768 14.3838ZM54.8482 14.2402V14.3838C54.8482 14.7529 54.8847 15.0993 54.9576 15.4229C55.0351 15.7464 55.1536 16.0312 55.3131 16.2773C55.4726 16.5234 55.6754 16.7171 55.9215 16.8584C56.1676 16.9951 56.4615 17.0635 56.8033 17.0635C57.2226 17.0635 57.5667 16.9746 57.8355 16.7969C58.109 16.6191 58.3277 16.3844 58.4918 16.0928C58.6559 15.8011 58.7835 15.4844 58.8746 15.1426V13.4951C58.8199 13.2445 58.7402 13.0029 58.6354 12.7705C58.5351 12.5335 58.4029 12.3239 58.2389 12.1416C58.0794 11.9548 57.8811 11.8066 57.6441 11.6973C57.4117 11.5879 57.136 11.5332 56.817 11.5332C56.4706 11.5332 56.1721 11.6061 55.9215 11.752C55.6754 11.8932 55.4726 12.0892 55.3131 12.3398C55.1536 12.5859 55.0351 12.873 54.9576 13.2012C54.8847 13.5247 54.8482 13.8711 54.8482 14.2402Z" fill="#41C980"/>
</g>
<defs>
<filter id="filter0_d_2300_24066" x="0" y="0" width="75" height="34" filterUnits="userSpaceOnUse" color-interpolation-filters="sRGB">
<feFlood flood-opacity="0" result="BackgroundImageFix"/>
<feColorMatrix in="SourceAlpha" type="matrix" values="0 0 0 0 0 0 0 0 0 0 0 0 0 0 0 0 0 0 127 0" result="hardAlpha"/>
<feOffset dy="4"/>
<feGaussianBlur stdDeviation="2"/>
<feComposite in2="hardAlpha" operator="out"/>
<feColorMatrix type="matrix" values="0 0 0 0 0 0 0 0 0 0 0 0 0 0 0 0 0 0 0.25 0"/>
<feBlend mode="normal" in2="BackgroundImageFix" result="effect1_dropShadow_2300_24066"/>
<feBlend mode="normal" in="SourceGraphic" in2="effect1_dropShadow_2300_24066" result="shape"/>
</filter>
</defs>
</svg>
