<svg width="31" height="31" viewBox="0 0 31 31" fill="none" xmlns="http://www.w3.org/2000/svg">
<path fill-rule="evenodd" clip-rule="evenodd" d="M7.72461 1.4375C7.72461 1.18886 7.62584 0.950403 7.45002 0.774587C7.27421 0.598772 7.03575 0.5 6.78711 0.5C6.53847 0.5 6.30001 0.598772 6.1242 0.774587C5.94838 0.950403 5.84961 1.18886 5.84961 1.4375V2.375H3.97461C2.98005 2.375 2.02622 2.77009 1.32296 3.47335C0.619698 4.17661 0.224609 5.13044 0.224609 6.125V8H30.2246V6.125C30.2246 5.13044 29.8295 4.17661 29.1263 3.47335C28.423 2.77009 27.4692 2.375 26.4746 2.375H24.5996V1.4375C24.5996 1.18886 24.5008 0.950403 24.325 0.774587C24.1492 0.598772 23.9107 0.5 23.6621 0.5C23.4135 0.5 23.175 0.598772 22.9992 0.774587C22.8234 0.950403 22.7246 1.18886 22.7246 1.4375V2.375H7.72461V1.4375ZM30.2246 26.75V9.875H0.224609V26.75C0.224609 27.7446 0.619698 28.6984 1.32296 29.4016C2.02622 30.1049 2.98005 30.5 3.97461 30.5H26.4746C27.4692 30.5 28.423 30.1049 29.1263 29.4016C29.8295 28.6984 30.2246 27.7446 30.2246 26.75ZM7.54883 18.9019L5.76758 15.0113H3.8457L6.6582 20.4371V23.5426H8.43945V20.4371L11.2461 15.0113H9.33008L7.54883 18.9019ZM15.9453 23.5426V16.3883H18.5703V15.0113H15.9453H14.1934H11.6094V16.3883H14.1934V23.5426H15.9453ZM21.3301 23.5426H22.1914C22.7695 23.5426 23.2969 23.4468 23.7734 23.2554C24.2539 23.0601 24.666 22.7847 25.0098 22.4293C25.3574 22.0699 25.625 21.6402 25.8125 21.1402C26.0039 20.6402 26.0996 20.0875 26.0996 19.482V19.0777C26.0996 18.4683 26.0039 17.9156 25.8125 17.4195C25.625 16.9195 25.3574 16.4898 25.0098 16.1304C24.6621 15.7711 24.25 15.4957 23.7734 15.3043C23.3008 15.109 22.7793 15.0113 22.209 15.0113H21.3301H20.2988H19.5723V23.5426H20.334H21.3301ZM21.3301 22.1715H22.1914C22.6523 22.1715 23.041 22.0679 23.3574 21.8609C23.6738 21.65 23.9121 21.3433 24.0723 20.941C24.2363 20.5386 24.3184 20.0523 24.3184 19.482V19.066C24.3184 18.6285 24.2715 18.2437 24.1777 17.9117C24.0879 17.5797 23.9531 17.3004 23.7734 17.0738C23.5938 16.8472 23.373 16.6773 23.1113 16.564C22.8496 16.4468 22.5488 16.3883 22.209 16.3883H21.3301V22.1715Z" fill="white"/>
</svg>
