<svg width="19" height="19" viewBox="0 0 19 19" fill="none" xmlns="http://www.w3.org/2000/svg">
<path d="M13.4177 5.42538C13.4997 5.50728 13.5647 5.60453 13.6091 5.71157C13.6535 5.81862 13.6763 5.93337 13.6763 6.04925C13.6763 6.16513 13.6535 6.27987 13.6091 6.38692C13.5647 6.49397 13.4997 6.59122 13.4177 6.67311L10.7882 9.30173L13.1479 11.6605C13.3133 11.826 13.4063 12.0504 13.4063 12.2844C13.4063 12.5184 13.3133 12.7428 13.1479 12.9082C12.9824 13.0737 12.758 13.1667 12.524 13.1667C12.29 13.1667 12.0656 13.0737 11.9002 12.9082L9.54137 10.5486L7.18258 12.9082C7.01712 13.0737 6.79271 13.1667 6.55872 13.1667C6.32472 13.1667 6.10031 13.0737 5.93485 12.9082C5.76939 12.7428 5.67644 12.5184 5.67644 12.2844C5.67644 12.0504 5.76939 11.826 5.93485 11.6605L8.29452 9.30173L5.66502 6.67311C5.5831 6.59113 5.51812 6.49381 5.4738 6.38671C5.42949 6.27962 5.4067 6.16484 5.40674 6.04894C5.40678 5.93303 5.42965 5.81827 5.47404 5.71121C5.51843 5.60414 5.58348 5.50687 5.66546 5.42494C5.74745 5.34301 5.84477 5.27804 5.95186 5.23372C6.05896 5.1894 6.17374 5.16662 6.28964 5.16666C6.40554 5.1667 6.52031 5.18957 6.62737 5.23396C6.73444 5.27835 6.83171 5.3434 6.91364 5.42538L9.54137 8.05576L12.17 5.42626C12.2519 5.34428 12.3491 5.27924 12.4562 5.23486C12.5632 5.19049 12.678 5.16765 12.7938 5.16765C12.9097 5.16765 13.0245 5.19049 13.1315 5.23486C13.2386 5.27924 13.3358 5.3434 13.4177 5.42538Z" fill="#444444" fill-opacity="0.5"/>
<path d="M1.29443 9.33333C1.29443 5.405 1.29443 3.44083 2.51443 2.22C3.7361 1 5.69943 1 9.62777 1C13.5561 1 15.5203 1 16.7403 2.22C17.9611 3.44167 17.9611 5.405 17.9611 9.33333C17.9611 13.2617 17.9611 15.2258 16.7403 16.4458C15.5211 17.6667 13.5561 17.6667 9.62777 17.6667C5.69943 17.6667 3.73527 17.6667 2.51443 16.4458C1.29443 15.2267 1.29443 13.2617 1.29443 9.33333Z" stroke="#444444" stroke-opacity="0.5" stroke-width="1.125"/>
</svg>
