<svg width="19" height="19" viewBox="0 0 19 19" fill="none" xmlns="http://www.w3.org/2000/svg">
<path d="M13.88 5.16666L9.7133 9.33332L5.54663 13.5M13.88 5.16666H10.755M13.88 5.16666V8.29166M5.54663 13.5H8.67163M5.54663 13.5V10.375" stroke="#444444" stroke-opacity="0.5" stroke-width="1.125" stroke-linecap="round" stroke-linejoin="round"/>
<path d="M1.38 9.33333C1.38 5.405 1.38 3.44083 2.6 2.22C3.82167 1 5.785 1 9.71334 1C13.6417 1 15.6058 1 16.8258 2.22C18.0467 3.44167 18.0467 5.405 18.0467 9.33333C18.0467 13.2617 18.0467 15.2258 16.8258 16.4458C15.6067 17.6667 13.6417 17.6667 9.71334 17.6667C5.785 17.6667 3.82084 17.6667 2.6 16.4458C1.38 15.2267 1.38 13.2617 1.38 9.33333Z" stroke="#444444" stroke-opacity="0.5" stroke-width="1.125"/>
</svg>
