<svg width="12" height="8" viewBox="0 0 12 8" fill="none" xmlns="http://www.w3.org/2000/svg">
<path d="M0.339578 2.40323L5.16141 7.22506C5.16656 7.23041 5.16815 7.23794 5.1735 7.2431C5.40063 7.47023 5.70049 7.583 5.99996 7.58221C6.29943 7.583 6.5991 7.47042 6.82643 7.2431C6.83178 7.23775 6.83316 7.23041 6.83852 7.22506L11.6603 2.40323C12.1132 1.95036 12.1132 1.20932 11.6603 0.756645C11.2075 0.303973 10.4664 0.303775 10.0138 0.756645L5.99976 4.77025L1.98616 0.756645C1.53329 0.303775 0.792251 0.303775 0.339578 0.756645C-0.113094 1.20952 -0.113292 1.95056 0.339578 2.40323Z" fill="white"/>
</svg>
