<svg width="12" height="12" viewBox="0 0 12 12" fill="none" xmlns="http://www.w3.org/2000/svg">
<path d="M2.40363 11.6604L7.22546 6.83859C7.23081 6.83344 7.23834 6.83185 7.24349 6.8265C7.47062 6.59937 7.58339 6.29951 7.5826 6.00004C7.58339 5.70057 7.47082 5.4009 7.24349 5.17357C7.23814 5.16822 7.23081 5.16684 7.22546 5.16148L2.40363 0.339653C1.95076 -0.113217 1.20971 -0.113217 0.757042 0.339653C0.30437 0.792523 0.304171 1.53357 0.757042 1.98624L4.77064 6.00024L0.757042 10.0138C0.304171 10.4667 0.304171 11.2077 0.757042 11.6604C1.20991 12.1131 1.95095 12.1133 2.40363 11.6604Z" fill="white"/>
</svg>
