<svg width="20" height="20" viewBox="0 0 20 20" fill="none" xmlns="http://www.w3.org/2000/svg">
<path d="M7.80972 1.38961L5.64917 2.78762L7.82667 2.79609C9.02132 2.79609 10.9785 2.79609 12.1732 2.79609L14.3422 2.78762L12.1732 1.38961C10.9785 0.627067 9.99569 -0.00838898 9.98722 8.37604e-05C9.97874 8.37604e-05 9.00438 0.627067 7.80972 1.38961Z" fill="white"/>
<path d="M4.04794 3.18531C4.03099 3.19378 4.02252 4.10884 4.02252 5.21877V7.21833H9.99581H15.9691L15.9606 5.19335L15.9521 3.17684L10.0128 3.16836C6.75075 3.15989 4.05641 3.16836 4.04794 3.18531ZM6.71686 4.14273C7.09813 4.30371 7.16591 4.83749 6.84395 5.04931L6.72533 5.13404L6.86089 5.18488C7.06424 5.26113 7.15744 5.43059 7.14049 5.72713C7.13202 5.922 7.1066 5.98979 7.03035 6.07451C6.827 6.28633 6.75922 6.30328 5.88653 6.32022L5.07314 6.33717V5.18488V4.04953L5.82722 4.06647C6.39489 4.07495 6.61518 4.09189 6.71686 4.14273ZM9.25868 5.18488C9.49591 5.79491 9.68232 6.30328 9.68232 6.30328C9.68232 6.31175 9.52133 6.31175 9.31799 6.31175H8.95366L8.89435 6.12535L8.84351 5.93895H8.45377H8.06402L8.00471 6.12535L7.9454 6.31175H7.59802C7.41162 6.31175 7.25064 6.30328 7.25064 6.28633C7.25064 6.26939 7.43704 5.76102 7.6658 5.15099L8.08097 4.04106L8.47071 4.06647L8.84351 4.07495L9.25868 5.18488ZM10.9702 4.67651L11.3769 5.27808L11.3938 4.67651L11.4108 4.07495L11.7327 4.06647L12.0547 4.058V5.19335V6.3287H11.7242H11.3938L10.9956 5.7356L10.5974 5.14251L10.5889 5.7356L10.5804 6.3287H10.25H9.91955V5.18488V4.04953L10.2415 4.058L10.5635 4.06647L10.9702 4.67651ZM13.2409 4.48164L13.2578 4.88833L13.6052 4.47317L13.9526 4.058H14.3932C14.6304 4.058 14.8337 4.06647 14.8337 4.09189C14.8337 4.10884 14.7067 4.2444 14.5541 4.38844C14.4016 4.54095 14.2322 4.72735 14.1644 4.79513L14.0543 4.93917L14.1559 5.10862C14.2152 5.21029 14.4101 5.51531 14.5796 5.80339L14.8931 6.32022H14.4694H14.0373L13.8594 5.96437C13.7577 5.76102 13.656 5.56615 13.6137 5.51531L13.5544 5.42211L13.3849 5.59157C13.2154 5.75255 13.2154 5.75255 13.2154 6.04062V6.3287H12.8681H12.5376V5.18488V4.04953L12.8765 4.06647L13.2154 4.07495L13.2409 4.48164Z" fill="white"/>
<path d="M5.77637 4.73623V4.94805H5.97971C6.21695 4.94805 6.36099 4.8718 6.36099 4.73623C6.36099 4.60067 6.21695 4.52441 5.97971 4.52441H5.77637V4.73623Z" fill="white"/>
<path d="M5.77637 5.61744V5.85467H5.97124C6.08139 5.85467 6.22542 5.82925 6.30168 5.80384C6.41182 5.753 6.43724 5.72758 6.43724 5.62591C6.43724 5.45645 6.31862 5.38867 6.02208 5.38867H5.77637V5.61744Z" fill="white"/>
<path d="M8.32657 5.07529L8.20795 5.46504H8.46213H8.70784L8.64853 5.27864C8.61464 5.17697 8.5638 4.99904 8.52991 4.88889C8.49602 4.77875 8.46213 4.68555 8.46213 4.68555C8.45366 4.68555 8.39435 4.855 8.32657 5.07529Z" fill="white"/>
<path d="M1.87887 5.21965C0.87909 5.8551 0.0826523 6.39736 0.0487613 6.4482C0.00639758 6.51598 -0.0020752 6.81252 -0.0020752 7.60049V8.66806L0.108071 8.7782C0.16738 8.83751 0.26058 8.88835 0.311416 8.89682C0.362253 8.89682 0.726581 8.89682 1.1248 8.89682C1.52302 8.89682 1.89582 8.89682 1.95513 8.91377L2.0568 8.93918V9.63395C2.0568 10.3118 2.0568 10.3372 2.15 10.4389C2.23473 10.5321 2.27709 10.549 2.5228 10.5575L2.8024 10.5744V13.8534V17.1323H2.55669C2.34488 17.1323 2.28557 17.1493 2.19237 17.2255C2.08222 17.3187 2.08222 17.3272 2.06527 17.8779L2.04833 18.4371L1.1248 18.471C-0.044439 18.4964 0.0233431 18.4541 0.00639758 19.1573C-0.0105479 19.708 0.023343 19.8521 0.201271 19.9368C0.362253 20.0215 19.6377 20.0215 19.7987 19.9368C19.9597 19.8521 20.0021 19.725 20.0021 19.2251C20.0021 18.7506 19.9597 18.5896 19.8072 18.5049C19.7564 18.4795 19.4175 18.4625 18.9684 18.4625H18.2059V17.9118V17.3696L18.0957 17.2594C17.994 17.1577 17.9517 17.1493 17.7653 17.1493H17.5365V13.8703V10.5914H17.7144C17.9263 10.5914 18.0872 10.5151 18.155 10.388C18.1889 10.3287 18.2059 10.0576 18.2143 9.617L18.2228 8.93071L18.7312 8.92224C19.0108 8.92224 19.3581 8.91377 19.5022 8.91377C19.7479 8.91377 19.7818 8.89682 19.8835 8.79515L19.9936 8.685V7.60049C19.9936 6.821 19.9767 6.50751 19.9428 6.4482C19.9004 6.38041 16.5452 4.1775 16.3757 4.10972C16.3334 4.09277 16.3249 4.41474 16.3249 5.65176C16.3249 6.66849 16.308 7.25311 16.2825 7.33783C16.1893 7.60049 16.6808 7.58354 9.99576 7.58354C4.57321 7.58354 3.92928 7.57507 3.84455 7.52424C3.79371 7.49034 3.74288 7.43104 3.71746 7.39714C3.70051 7.36325 3.6751 6.60071 3.66662 5.71107L3.64968 4.09277L1.87887 5.21965ZM8.19954 9.65937C8.20801 10.0661 8.22496 10.405 8.22496 10.4134C8.22496 10.4134 8.29274 10.4558 8.36052 10.4982C8.44525 10.549 8.5554 10.5744 8.70791 10.5744H8.9282V13.8534V17.1323H8.67402C8.44525 17.1323 8.41136 17.1408 8.30121 17.2425L8.19107 17.3526V17.9033V18.4541H7.07267H5.93732L5.92885 17.8864C5.92037 17.3187 5.92037 17.3187 5.81023 17.2255C5.7255 17.1493 5.65772 17.1323 5.48826 17.1323H5.27644V13.8534V10.5744H5.47979C5.65772 10.5744 5.69161 10.5575 5.81023 10.4389L5.94579 10.3033V9.62548C5.94579 9.25268 5.95426 8.93071 5.97121 8.92224C5.98815 8.91377 6.48805 8.90529 7.09808 8.90529L8.19954 8.91377V9.65937ZM14.3338 9.62548C14.3423 10.0152 14.3677 10.3626 14.3846 10.3965C14.4355 10.5066 14.6219 10.5829 14.8591 10.5829H15.0709V13.8618V17.1408H14.8168C14.588 17.1408 14.5541 17.1493 14.444 17.2509L14.3338 17.3611V17.9118V18.4625H13.1985H12.0631V17.9118V17.3696L11.953 17.2594C11.8513 17.1577 11.8089 17.1493 11.6225 17.1493H11.4022V13.8703V10.5914H11.5802C11.8005 10.5914 11.9614 10.5151 12.0207 10.3795C12.0546 10.3118 12.0716 10.0491 12.0716 9.617C12.0716 8.9646 12.0716 8.95613 12.1648 8.93918C12.2156 8.93071 12.7155 8.93071 13.2832 8.93071H14.3169L14.3338 9.62548ZM3.75135 13.8618V17.1408H3.57342H3.3955V13.8618V10.5829H3.57342H3.75135V13.8618ZM4.68335 13.8618V17.1408H4.50542H4.3275V13.8618V10.5829H4.50542H4.68335V13.8618ZM9.87714 13.8618V17.1408H9.69922H9.52129V13.8618V10.5829H9.69922H9.87714V13.8618ZM10.8176 13.8618V17.1408H10.6397H10.4618V13.8618V10.5829H10.6397H10.8176V13.8618ZM16.0114 13.8618V17.1408H15.8335H15.6556V13.8618V10.5829H15.8335H16.0114V13.8618ZM16.9434 13.8618V17.1408H16.774H16.596V13.8618V10.5829H16.774H16.9519V13.8618H16.9434Z" fill="white"/>
</svg>
