<svg width="22" height="20" viewBox="0 0 22 20" fill="none" xmlns="http://www.w3.org/2000/svg">
<path d="M5.53743 0.0723747C5.34166 0.183885 5.28573 0.321129 5.22047 0.792904L5.16454 1.21321L4.87555 1.29899C4.71707 1.35046 4.40943 1.46197 4.20434 1.5649L3.81281 1.73646L3.57975 1.5649C3.03906 1.16175 2.81533 1.08455 2.5543 1.21321C2.48905 1.24752 2.18141 1.51343 1.86445 1.80508C1.07206 2.53418 1.06274 2.61996 1.59411 3.23756L1.89242 3.58067L1.72462 3.9152C1.6314 4.09533 1.51953 4.35266 1.48224 4.48133C1.43563 4.61 1.39834 4.73008 1.38902 4.73866C1.38902 4.74724 1.16528 4.77297 0.90426 4.79871C0.0559337 4.87591 0 4.94453 0 5.99101C0 7.05465 0.0559337 7.14043 0.839004 7.22621C1.49156 7.29483 1.43563 7.26052 1.59411 7.65509C1.66869 7.85238 1.77123 8.08398 1.82717 8.17833L1.92971 8.35847L1.61275 8.72731C1.07206 9.35348 1.09071 9.43926 1.78055 10.0912C2.47972 10.7431 2.56362 10.8031 2.79668 10.8031C3.02974 10.8031 3.08567 10.7774 3.54246 10.4429L3.90603 10.1769L4.19502 10.3056C4.3535 10.3828 4.6052 10.4772 4.76368 10.5286C4.92216 10.5801 5.06199 10.6316 5.08064 10.6487C5.09928 10.6659 5.14589 10.8889 5.18318 11.1462C5.29505 11.9525 5.33234 11.9783 6.51627 11.9783C7.7002 11.9783 7.74681 11.9525 7.84935 11.1462C7.88664 10.8889 7.91461 10.6745 7.92393 10.6659C7.93325 10.6659 8.07309 10.6144 8.23157 10.5715C8.39937 10.5201 8.67903 10.4171 8.86548 10.3399L9.2104 10.1941L9.52736 10.4257C9.70448 10.5544 9.89093 10.6916 9.94686 10.7259C10.0774 10.8117 10.385 10.8117 10.5435 10.7345C10.6087 10.7002 10.9164 10.4429 11.2333 10.1426C11.9978 9.42211 12.0164 9.33633 11.4664 8.71873L11.1774 8.3842L11.3172 8.12687C11.3918 7.98105 11.513 7.72371 11.5783 7.55216C11.6435 7.38061 11.6995 7.22621 11.6995 7.22621C11.6995 7.22621 11.8859 7.20047 12.1096 7.17474C12.6317 7.12327 12.7529 7.08038 12.9113 6.93456L13.0325 6.81448L13.0419 6.00817C13.0605 4.86733 13.0325 4.82444 12.2122 4.73008C11.9512 4.69577 11.7181 4.66146 11.7088 4.64431C11.6995 4.62715 11.6342 4.47275 11.5596 4.3012C11.4944 4.12964 11.3825 3.88089 11.3172 3.7608L11.196 3.5292L11.4757 3.20325C12.0071 2.58565 11.9884 2.52561 11.1401 1.75361C10.3384 1.01593 10.2638 0.99877 9.67652 1.41908C9.4994 1.54775 9.33159 1.65926 9.31295 1.67641C9.28498 1.69357 9.09854 1.63352 8.90277 1.54775C8.707 1.46197 8.41801 1.35046 8.25953 1.29899C7.94257 1.20464 7.9519 1.21321 7.90529 0.767171C7.868 0.389751 7.82139 0.269663 7.66291 0.123841L7.5324 0.0123305L6.61881 0.00375276C5.74252 -0.00482498 5.66794 -0.00482496 5.53743 0.0723747ZM7.01967 3.82942C7.48578 3.92378 7.84003 4.09533 8.19428 4.42129C9.10786 5.25333 9.13583 6.50568 8.27818 7.38061C7.37392 8.29842 5.85439 8.32416 4.91284 7.44065C4.45605 7.02034 4.24163 6.53141 4.24163 5.93097C4.24163 5.08177 4.72639 4.36982 5.54675 4.00955C6.05948 3.77796 6.47898 3.72649 7.01967 3.82942Z" fill="white"/>
<path d="M15.9877 6.19687C15.3817 6.24834 15.2419 6.377 15.2046 6.93456L15.1766 7.26051L14.7851 7.44064C14.5707 7.54357 14.3376 7.65509 14.263 7.69797L14.1325 7.77517L13.8342 7.59504C13.4893 7.3806 13.2842 7.33771 13.0791 7.43206C12.9486 7.49211 12.2681 8.18691 12.1655 8.35846C12.1376 8.40993 12.1189 8.52144 12.1189 8.62437C12.1189 8.81308 12.1749 8.89886 12.5198 9.22481L12.6876 9.38779L12.5664 9.73948C12.5011 9.93676 12.4266 10.1598 12.3986 10.2284C12.3613 10.3657 12.352 10.3656 12.0071 10.4343C11.3638 10.5458 11.2799 10.6659 11.3265 11.3435C11.3731 12.0212 11.4011 12.1412 11.5782 12.2871C11.7181 12.4072 11.7554 12.4157 12.1655 12.4415L12.6037 12.4758L12.6876 12.6559C12.7342 12.7588 12.8461 12.939 12.9206 13.0676L13.0698 13.2992L12.8554 13.5995C12.4732 14.1399 12.5011 14.2685 13.0978 14.7489C13.6571 15.1949 13.6944 15.2121 13.9368 15.2121C14.1232 15.2121 14.1698 15.1949 14.4402 14.9719C14.608 14.8432 14.7478 14.7146 14.7665 14.6974C14.7758 14.6803 14.9809 14.7231 15.2139 14.8003C15.447 14.8775 15.6707 14.9376 15.7173 14.9376C15.8105 14.9376 15.8478 15.0234 15.9224 15.375C15.9877 15.7096 16.0995 15.8726 16.3046 15.9583C16.4445 16.0098 16.5377 16.0098 17.0691 15.9669C17.4233 15.9412 17.7216 15.8983 17.7962 15.864C18.0013 15.761 18.0852 15.5895 18.0852 15.2721C18.0852 14.8432 18.0945 14.8347 18.4954 14.6631C18.6911 14.5773 18.9149 14.4658 18.9894 14.4229L19.12 14.3371L19.3903 14.5001C19.7445 14.7231 19.931 14.7832 20.1268 14.7317C20.3225 14.6803 20.3691 14.6374 20.798 14.1742C21.3014 13.6166 21.3107 13.4708 20.8725 13.0162L20.6022 12.7417L20.7047 12.5101C20.7607 12.3814 20.8352 12.1584 20.8819 12.0212L20.9471 11.7638L21.3014 11.7038C21.7022 11.6352 21.8327 11.558 21.9446 11.3521C22.0099 11.2234 22.0192 11.172 21.9632 10.6316C21.8793 9.82525 21.8048 9.7309 21.1429 9.69659L20.7514 9.67085L20.6581 9.45641C20.6022 9.33632 20.4996 9.13903 20.4251 9.02752C20.3505 8.91601 20.2946 8.8045 20.2946 8.78735C20.2946 8.77019 20.3878 8.63295 20.4903 8.48713C20.7047 8.18691 20.7327 7.99819 20.6208 7.79233C20.5463 7.65509 19.7632 7.03749 19.5674 6.96887C19.3344 6.88309 19.1572 6.93456 18.8403 7.19189L18.5606 7.41491L18.253 7.3034C18.0759 7.24335 17.8335 7.17473 17.703 7.14042L17.4606 7.08895L17.386 6.77158C17.2369 6.15398 17.097 6.09394 15.9877 6.19687ZM17.2555 9.35348C17.7216 9.47357 18.225 9.8853 18.4301 10.3228C18.8403 11.1805 18.4301 12.1927 17.5072 12.613C16.8919 12.8961 16.1275 12.836 15.5682 12.4672C14.5893 11.8239 14.4868 10.5115 15.3631 9.75663C15.6148 9.54219 16.0343 9.3449 16.3512 9.29343C16.6029 9.25054 16.9479 9.27628 17.2555 9.35348Z" fill="white"/>
<path d="M8.12906 12.1069C7.95194 12.2013 7.896 12.3042 7.84007 12.5959L7.79346 12.8275L7.51379 12.9132C7.35531 12.9647 7.15022 13.0333 7.057 13.0848L6.87988 13.1706L6.77733 13.0762C6.65614 12.9561 6.35783 12.8189 6.20867 12.8189C6.05952 12.8189 5.75188 13.0076 5.5095 13.2478C5.15526 13.5995 5.13661 13.771 5.40696 14.1399L5.5934 14.3972L5.47221 14.6116C5.40696 14.7317 5.33238 14.9033 5.29509 14.9891L5.23916 15.152L4.98746 15.1778C4.45609 15.2207 4.29761 15.4094 4.29761 16.0184C4.29761 16.3443 4.31625 16.4387 4.38151 16.5416C4.49338 16.7046 4.66118 16.7904 4.97813 16.8161L5.23916 16.8418L5.31374 17.0477C5.35102 17.1592 5.4256 17.3136 5.47221 17.3994C5.56544 17.5624 5.56544 17.5624 5.32306 17.8369C5.18322 17.9998 5.15526 18.0599 5.15526 18.2143C5.15526 18.4287 5.21119 18.5059 5.51882 18.8061C5.78917 19.0721 5.91968 19.1321 6.16206 19.1321C6.32054 19.1321 6.39512 19.1064 6.60021 18.9605L6.84259 18.789L7.07564 18.9005C7.20616 18.9605 7.3926 19.0292 7.4765 19.0549C7.6443 19.0978 7.6443 19.1064 7.66295 19.3637C7.71888 19.8955 7.90533 20.0156 8.65111 19.9985C9.1079 19.9899 9.11722 19.9813 9.24773 19.8612C9.37825 19.7411 9.45282 19.5353 9.46215 19.2951C9.46215 19.2093 9.49011 19.1578 9.53672 19.1407C9.57401 19.1321 9.7791 19.0549 9.98419 18.9777L10.3664 18.8405L10.5808 19.0034C10.9817 19.2951 11.1868 19.2779 11.6249 18.8919C11.7927 18.7461 11.9512 18.5745 11.9885 18.5145C12.091 18.3344 12.0444 18.0942 11.8486 17.854L11.6902 17.6482L11.83 17.3737C11.9046 17.2193 11.9792 17.0477 11.9978 16.9877C12.0258 16.8847 12.0537 16.8762 12.2961 16.8504C12.6038 16.8161 12.7436 16.7475 12.8648 16.5674C12.93 16.4644 12.9487 16.3615 12.9487 16.027C12.9487 15.4265 12.8275 15.2721 12.3054 15.2121C12.1376 15.1949 12.0724 15.1606 12.0537 15.1091C12.0444 15.0748 11.9698 14.8947 11.8859 14.7146L11.7461 14.3886L11.8953 14.2256C12.0724 14.0198 12.1376 13.8396 12.0724 13.6424C12.0258 13.4794 11.5783 13.0248 11.3825 12.9304C11.1774 12.8275 10.9444 12.8618 10.6927 13.0162L10.4596 13.1534L10.18 13.0419C10.0215 12.9733 9.82571 12.9047 9.74181 12.8789C9.59266 12.836 9.58334 12.8275 9.55537 12.5873C9.50876 12.1327 9.30367 12.004 8.64179 12.004C8.3528 12.0297 8.24093 12.0469 8.12906 12.1069ZM9.33163 14.6888C9.65791 14.8347 9.90962 15.0663 10.0681 15.3579C10.1986 15.5981 10.2079 15.6495 10.2079 16.0012C10.2079 16.4558 10.124 16.6531 9.79775 16.9705C9.48079 17.2879 9.15451 17.408 8.67908 17.408C8.37144 17.408 8.2689 17.3908 8.04516 17.2965C7.7282 17.1592 7.38328 16.8504 7.24345 16.5674C7.10361 16.2929 7.10361 15.701 7.24345 15.4265C7.42989 15.0405 7.75617 14.7746 8.19432 14.6202C8.44602 14.543 9.07993 14.5773 9.33163 14.6888Z" fill="white"/>
</svg>
