<svg width="24" height="24" viewBox="0 0 24 24" fill="none" xmlns="http://www.w3.org/2000/svg">
<path d="M4.00762 5.09945C2.61089 5.72914 1.77784 7.04947 1.79496 8.58437L1.79996 8.97685L2.4319 11.2307L3.06385 13.4846L3.27398 13.4673C4.10032 13.4237 5.44712 13.1449 5.75179 12.9573C5.99118 12.817 5.9722 12.7509 5.58097 12.3116C5.32519 12.0197 5.24939 11.9053 5.17732 11.704C5.03696 11.3145 5.08776 10.8416 5.3071 10.4564C5.56617 10.0097 6.20874 9.77529 6.87805 9.88417C7.49529 9.9865 7.89211 10.2953 8.02591 10.7869C8.0876 11.027 8.09333 11.097 8.01503 11.499C7.916 12.0288 7.94546 12.2065 8.13768 12.3018C8.43217 12.4537 9.08517 12.2307 10.143 11.6194L10.5925 11.3616L10.5138 11.1621C10.4664 11.0468 10.2872 10.6971 10.1157 10.3739C9.60201 9.43254 9.4767 8.89552 9.6534 8.43662C9.78286 8.11302 10.0563 7.99163 10.6593 8.01926C11.7678 8.0595 12.2664 7.6229 12.0349 6.81553C11.9001 6.34567 11.6236 6.13132 11.1929 6.15455C10.9392 6.17 10.7168 6.26957 10.346 6.52632C9.98169 6.78118 9.70725 6.8742 9.45637 6.82438C9.22064 6.77738 8.98767 6.61501 8.855 6.40238C8.71192 6.17841 8.5696 5.68208 8.54283 5.28869C8.52278 5.04377 8.53822 4.07248 8.57118 3.81236C8.57494 3.77547 8.12066 3.89141 6.39348 4.39383C5.1906 4.72443 4.11455 5.0473 4.00762 5.09945Z" fill="white"/>
<path d="M10.5841 3.13644C10.5824 3.53081 10.7802 4.77043 10.9367 5.29134C11.1483 6.00416 11.2486 6.05416 11.6781 5.6517C12.205 5.16399 12.5618 5.03304 13.0683 5.12415C13.6051 5.2209 13.9233 5.48059 14.0968 5.96081C14.3302 6.62443 14.1584 7.42568 13.6873 7.83293C13.3997 8.08012 13.112 8.12681 12.5884 8.02626C12.3764 7.9868 12.1397 7.96156 12.0545 7.9645C11.8576 7.97799 11.7205 8.12474 11.7102 8.3139C11.6868 8.65723 12.0433 9.50039 12.5502 10.3434L12.7132 10.6118L12.8779 10.5359C12.9668 10.4961 13.2971 10.3226 13.6075 10.1548C14.0967 9.88561 14.2367 9.82397 14.6806 9.69669C15.149 9.5552 15.2058 9.55324 15.4027 9.58988C15.5173 9.61433 15.6802 9.68222 15.7673 9.73602C16.0002 9.8984 16.0572 10.0969 16.0462 10.6587C16.0148 11.7993 16.4373 12.2726 17.2701 12.0266C18.0301 11.8016 18.1205 11.1669 17.5226 10.307C17.1815 9.8175 17.1387 9.49317 17.3808 9.13727C17.691 8.66875 18.3705 8.48823 19.6314 8.53491C19.9731 8.55151 20.2609 8.55494 20.2675 8.55304C20.2741 8.55114 19.9999 7.5698 19.6545 6.36536C18.9828 4.02265 18.9183 3.84777 18.5734 3.34506C17.9385 2.43132 16.8666 1.84345 15.7392 1.78715C15.5149 1.77986 15.1807 1.78973 15.0028 1.81926C14.8116 1.8526 13.8188 2.11579 12.6263 2.45772C10.7194 3.03319 10.5869 3.07118 10.5841 3.13644Z" fill="white"/>
<path d="M6.35355 12.2102C5.99691 12.5417 6.03983 13.0164 6.48516 13.6693C6.78458 14.1135 6.84341 14.3186 6.76221 14.6355C6.58848 15.2798 5.78028 15.5617 4.35941 15.4821C4.09625 15.4645 3.84823 15.4496 3.81321 15.4525C3.74127 15.4517 3.77543 15.5708 4.36179 17.6157C5.04874 20.0113 5.13692 20.2439 5.50739 20.7607C5.92522 21.3428 6.61278 21.8403 7.28122 22.0712C7.69402 22.2107 7.94963 22.252 8.38697 22.277L8.73722 22.2983L11.0956 21.622L13.4541 20.9458L13.4359 20.7075C13.3757 19.8725 13.0823 18.5242 12.8947 18.2199C12.7952 18.0479 12.7024 18.0745 12.3799 18.3747C11.7621 18.9457 11.3031 19.0702 10.6546 18.8336C9.84882 18.549 9.5669 17.3908 10.0945 16.5305C10.3999 16.0204 10.7434 15.8932 11.4383 16.0162C11.96 16.1102 12.1616 16.0882 12.2542 15.9112C12.3885 15.6793 12.3334 15.3872 12.0584 14.7785C11.9049 14.4429 11.3666 13.4657 11.3239 13.4421C11.2917 13.4298 10.9 13.6138 10.2859 13.9474C9.1608 14.5494 8.5077 14.622 8.13634 14.1771C7.98477 13.9985 7.96576 13.8822 7.98809 13.31C8.01685 12.4352 7.69183 11.9268 7.11347 11.935C6.81718 11.9269 6.54463 12.0265 6.35355 12.2102Z" fill="white"/>
<path d="M14.6358 12.0211C14.4664 12.1055 14.1381 12.2856 13.8921 12.4278L13.4559 12.6818L13.5156 12.8652C13.5507 12.9625 13.7232 13.3141 13.8948 13.6374C14.1677 14.1392 14.2379 14.2838 14.3536 14.6875C14.5055 15.2169 14.5065 15.3455 14.3486 15.6701C14.2437 15.8793 14.0545 16.0195 13.851 16.0348C13.7809 16.0406 13.5585 16.0399 13.3493 16.0355C12.8589 16.0257 12.6195 16.0657 12.3763 16.1927C11.9902 16.3965 11.8636 16.7551 12.0022 17.2382C12.0989 17.5757 12.2458 17.7628 12.4645 17.8505C12.8101 17.9806 13.1716 17.8912 13.6911 17.5274C14.1585 17.2072 14.4793 17.151 14.8145 17.3199C15.3543 17.602 15.5706 18.4065 15.4835 19.8281L15.4574 20.2868L17.7959 19.6162C20.0417 18.9722 20.1458 18.9352 20.4164 18.7789C21.005 18.431 21.4798 17.9368 21.7956 17.3377C22.1208 16.7217 22.2614 16.137 22.2439 15.476C22.2362 15.1488 22.2181 15.0608 21.5909 12.8486L20.9476 10.555L20.5927 10.5923C19.9026 10.6613 19.3423 10.7575 18.8171 10.901C18.2322 11.0615 18.0515 11.1563 18.0913 11.2953C18.1046 11.3416 18.26 11.5334 18.4324 11.7346C18.7421 12.0898 18.7507 12.0946 18.8531 12.4519C18.948 12.7828 18.9481 12.8329 18.8981 13.0836C18.7943 13.5717 18.5928 13.8444 18.1632 14.0463C17.9806 14.1345 17.8812 14.163 17.6342 14.1765C16.8031 14.2286 16.1573 13.8767 15.9846 13.2745C15.9267 13.0475 15.9276 12.9757 15.9993 12.5755C16.0842 12.1215 16.0651 11.9049 15.9419 11.7755C15.8046 11.6215 15.2462 11.7244 14.6358 12.0211Z" fill="white"/>
</svg>
