<svg width="22" height="20" viewBox="0 0 22 20" fill="none" xmlns="http://www.w3.org/2000/svg">
<path d="M10.1597 0.0577511C8.59443 0.163628 6.82414 0.741139 5.43586 1.57853C0.516324 4.57196 -1.37509 10.9053 1.05673 16.2473L1.31761 16.8344H3.53513H5.75265L6.02285 17.2483C7.69997 19.8182 10.9238 20.723 13.5978 19.3851C14.5389 18.9135 15.3868 18.1531 15.9737 17.2483L16.2439 16.8344H18.4615H20.679L20.9492 16.2473C22.3747 13.1095 22.3468 9.49042 20.884 6.41037C19.1323 2.72393 15.6849 0.327256 11.7251 0.0481259C11.3151 0.0192504 10.9331 0 10.8679 0C10.812 0.00962518 10.4858 0.0288756 10.1597 0.0577511ZM11.4176 3.30144V4.33133H10.9983H10.579V3.30144V2.27154H10.9983H11.4176V3.30144ZM9.36777 3.41694C9.49821 3.92707 9.6007 4.36983 9.6007 4.39871C9.6007 4.44683 8.846 4.67784 8.80873 4.63934C8.75283 4.58158 8.31491 2.74318 8.35218 2.70467C8.39877 2.65655 8.91122 2.50255 9.05098 2.49292C9.1162 2.49292 9.19074 2.72393 9.36777 3.41694ZM13.2717 2.57955C13.4488 2.62767 13.6165 2.68542 13.6351 2.70467C13.6724 2.73355 13.2345 4.58158 13.1786 4.63934C13.1692 4.64896 12.9829 4.61046 12.7779 4.55271C12.4704 4.47571 12.3866 4.42758 12.4052 4.36021C12.4239 4.1292 12.8711 2.49292 12.9177 2.49292C12.927 2.49292 13.0947 2.5218 13.2717 2.57955ZM7.4484 4.14845C7.69997 4.59121 7.90495 4.98584 7.90495 5.00509C7.90495 5.06284 7.22479 5.49598 7.19684 5.45748C7.14093 5.39972 6.21852 3.72494 6.23715 3.70569C6.33033 3.61907 6.88937 3.30144 6.93595 3.32069C6.9639 3.33031 7.19684 3.69607 7.4484 4.14845ZM15.424 3.49394C15.6011 3.59982 15.7501 3.69607 15.7501 3.70569C15.7688 3.72494 14.8464 5.39972 14.7904 5.45748C14.7625 5.48635 14.0823 5.07247 14.0823 5.01472C14.0823 4.98584 14.2594 4.64896 14.483 4.25433C14.9768 3.36881 15.0234 3.29181 15.07 3.29181C15.0979 3.30144 15.247 3.38806 15.424 3.49394ZM5.78061 5.36122L6.46077 6.06386L6.1533 6.37187L5.85514 6.6895L5.16566 5.97723L4.47618 5.24572L4.76502 4.94734C4.92341 4.78371 5.06317 4.64896 5.08181 4.64896C5.09112 4.64896 5.40791 4.97622 5.78061 5.36122ZM17.2316 4.94734L17.5204 5.24572L16.8216 5.96761L16.1321 6.67987L15.834 6.36224L15.5265 6.05424L16.2067 5.3516C16.5794 4.96659 16.8962 4.64896 16.9148 4.64896C16.9334 4.64896 17.0732 4.79334 17.2316 4.94734ZM4.18734 6.81463C4.40164 6.93975 4.73707 7.14188 4.93273 7.25738L5.28679 7.45951L5.08181 7.82527C4.97 8.0274 4.84887 8.1814 4.8116 8.17178C4.66253 8.12365 3.19971 7.22851 3.19971 7.17076C3.19971 7.14188 3.28357 6.959 3.38606 6.7665C3.56308 6.43924 3.58172 6.41999 3.68421 6.49699C3.74011 6.54512 3.97305 6.6895 4.18734 6.81463ZM18.6199 6.77612C18.7224 6.96863 18.8062 7.15151 18.8062 7.18038C18.8062 7.22851 18.3683 7.49801 17.1757 8.20065C17.1477 8.2199 16.7657 7.61351 16.7471 7.50764C16.7378 7.46914 18.3217 6.45849 18.4242 6.43924C18.4242 6.43924 18.5174 6.59325 18.6199 6.77612ZM13.7376 9.57705L13.0854 12.3684L13.2251 12.7726C13.4022 13.3116 13.4394 13.6581 13.3649 14.0816C13.2251 14.8901 12.7406 15.5447 12.0046 15.9104C11.6132 16.1029 11.5946 16.1029 11.0076 16.1029C10.4206 16.1029 10.3927 16.0933 10.0107 15.9104C8.88327 15.3522 8.35218 14.072 8.76215 12.8592C9.03235 12.0411 9.73115 11.4155 10.579 11.2422L10.9051 11.1748L12.4891 9.17279C13.3556 8.0659 14.1382 7.07451 14.2314 6.96863C14.3246 6.85313 14.3991 6.7665 14.4084 6.77612C14.3898 6.78575 14.101 8.04665 13.7376 9.57705ZM3.48855 8.84554C3.97305 8.98029 4.39233 9.09579 4.42959 9.11504C4.47618 9.13429 4.45755 9.24017 4.38301 9.52892C4.3271 9.7503 4.2712 9.93318 4.26188 9.94281C4.25257 9.95243 3.82397 9.84656 3.31152 9.70218L2.37047 9.45192L2.47296 9.02842C2.52886 8.78779 2.58477 8.60491 2.59408 8.60491C2.59408 8.60491 3.00405 8.71079 3.48855 8.84554ZM19.5143 9.00917C19.5702 9.23055 19.5889 9.42305 19.5795 9.4423C19.5516 9.4808 17.8745 9.95243 17.7813 9.95243C17.7347 9.95243 17.5577 9.41342 17.5297 9.17279C17.5204 9.13429 19.1603 8.62416 19.3652 8.60491C19.3932 8.61453 19.4677 8.78779 19.5143 9.00917ZM4.13144 11.3962V11.8582H3.16244H2.19344V11.3962V10.9342H3.16244H4.13144V11.3962ZM19.8032 11.3962V11.8582H18.8342H17.8652V11.3962V10.9342H18.8342H19.8032V11.3962ZM4.47618 13.6292C4.42028 13.687 2.64067 14.1586 2.6034 14.1201C2.57545 14.1009 2.51023 13.9084 2.46364 13.6966L2.37047 13.3116L2.51023 13.2731C2.58477 13.2539 3.02268 13.1384 3.46059 13.0132L4.2712 12.7919L4.38301 13.1961C4.43891 13.4271 4.4855 13.6196 4.47618 13.6292ZM18.5174 13.0132C18.8994 13.1191 19.3 13.225 19.4212 13.2539L19.6448 13.3116L19.5423 13.7063C19.4864 13.918 19.4212 14.1105 19.4025 14.1298C19.3746 14.1586 17.5856 13.6774 17.5391 13.6292C17.4925 13.5811 17.7347 12.7822 17.7906 12.8015C17.8093 12.8111 18.1447 12.9074 18.5174 13.0132Z" fill="white"/>
</svg>
