<svg width="22" height="20" viewBox="0 0 22 20" fill="none" xmlns="http://www.w3.org/2000/svg">
<path d="M5.24124 0.0416177C4.76561 0.105035 4.15942 0.295288 3.71178 0.503659C3.36671 0.666733 3.20817 0.775448 2.97502 0.99288C2.58333 1.36432 2.47142 1.59988 2.47142 2.00756C2.47142 2.27029 2.49007 2.36089 2.58333 2.5602C2.82581 3.04036 3.45997 3.48428 4.25268 3.74701C4.89618 3.95538 5.40911 4.02786 6.17384 4.03692C6.91992 4.03692 7.4888 3.95538 8.05769 3.77419C10.212 3.06754 10.557 1.5274 8.78511 0.558017C8.4587 0.385884 7.73128 0.150333 7.237 0.0687966C6.79868 -0.0127402 5.67956 -0.0217997 5.24124 0.0416177Z" fill="white"/>
<path d="M2.45276 3.76504V4.46263L2.67658 4.66194C4.2993 6.09336 7.91779 6.1296 9.62444 4.73442L9.92287 4.48981L9.9322 3.78316L9.94152 3.0765L9.69905 3.29393C8.86904 4.03683 7.44216 4.43545 5.89405 4.37203C4.49515 4.31767 3.35738 3.92811 2.65793 3.2577L2.45276 3.06744V3.76504Z" fill="white"/>
<path d="M12.3384 4.80695C11.154 5.45018 10.1374 6.00282 10.0815 6.03C9.97888 6.08436 10.1841 6.20213 13.7652 8.28585L17.5516 10.4873L19.7991 9.26429C21.6737 8.24055 22.0374 8.03218 21.9814 7.99594C21.8882 7.94159 14.6978 3.73791 14.5766 3.6745C14.502 3.64732 14.1663 3.81039 12.3384 4.80695Z" fill="white"/>
<path d="M2.45276 5.56792V6.25646L2.63928 6.41953C3.35738 7.06276 4.4765 7.46139 5.81011 7.54292L6.25776 7.5701L8.08565 6.57354L9.91355 5.57698L9.92287 5.22366L9.9322 4.87033L9.79231 5.01528C9.2141 5.54074 8.41206 5.90313 7.40486 6.08432C6.8453 6.19304 5.56764 6.19304 4.99875 6.08432C4.09413 5.92125 3.21749 5.54074 2.71389 5.09682L2.46208 4.87033L2.45276 5.56792Z" fill="white"/>
<path d="M7.25553 7.57013C6.16439 8.16806 5.26909 8.66634 5.25977 8.68446C5.25977 8.70258 6.93844 9.7082 8.99949 10.9041L12.7485 13.0874V15.1168C12.7485 16.2311 12.7579 17.1462 12.7765 17.1462C12.7952 17.1462 13.7184 16.6569 14.8282 16.0499L16.8426 14.9537L16.8333 12.9063L16.824 10.8588L13.0749 8.66634C11.0139 7.46141 9.30724 6.48297 9.27927 6.48297C9.26061 6.49203 8.34667 6.98125 7.25553 7.57013Z" fill="white"/>
<path d="M2.46201 7.3799L2.47134 8.08655L2.76977 8.33116C2.93764 8.46706 3.22674 8.64825 3.41326 8.7479L3.76765 8.92004L4.64429 8.43988L5.52093 7.95972L5.04531 7.88724C4.11271 7.73323 3.22674 7.37084 2.69516 6.89974L2.44336 6.67325L2.46201 7.3799Z" fill="white"/>
<path d="M2.45276 9.04689C2.45276 9.36398 2.46208 9.61765 2.47141 9.61765C2.48074 9.61765 2.68591 9.50893 2.92838 9.3821L3.35738 9.14655L3.09625 8.98348C2.95636 8.89288 2.75119 8.74792 2.6486 8.64827L2.45276 8.47614V9.04689Z" fill="white"/>
<path d="M19.7617 9.92573L17.5328 11.1397V11.5112C17.5328 11.7105 17.5422 11.8826 17.5515 11.8826C17.5608 11.8826 21.916 9.5271 22 9.47274C22 9.47274 22 9.30061 22 9.09224L21.9907 8.72079L19.7617 9.92573Z" fill="white"/>
<path d="M2.35013 10.2519C1.16573 10.8951 0.1492 11.4477 0.0932438 11.4749C-1.6056e-05 11.5202 0.251786 11.6742 3.74903 13.7217C5.8194 14.9266 7.53538 15.9141 7.55403 15.9141C7.59134 15.9141 11.9652 13.5496 12.0492 13.4952C12.0585 13.4861 4.52309 9.08316 4.50444 9.08316C4.50444 9.08316 3.53453 9.60862 2.35013 10.2519Z" fill="white"/>
<path d="M19.7617 11.2665L17.5328 12.4805V12.8519C17.5328 13.0512 17.5422 13.2234 17.5515 13.2234C17.5608 13.2234 21.916 10.8679 22 10.8135C22 10.8135 22 10.6414 22 10.433L21.9907 10.0616L19.7617 11.2665Z" fill="white"/>
<path d="M19.7617 12.6072L17.5328 13.8212V14.1927C17.5328 14.392 17.5422 14.5641 17.5515 14.5641C17.5608 14.5641 21.9254 12.1996 22 12.1543C22 12.1543 22 11.9821 22 11.7738L21.9907 11.4023L19.7617 12.6072Z" fill="white"/>
<path d="M0 12.5529V12.9425L3.75837 15.1259C5.82874 16.3399 7.5354 17.3183 7.55405 17.3183C7.5727 17.3183 8.59856 16.7657 9.82959 16.1043L12.0678 14.8813V14.5098C12.0678 14.3014 12.0585 14.1384 12.0492 14.1384C12.0398 14.1384 11.0326 14.6819 9.80161 15.3524C8.57058 16.0137 7.56337 16.5573 7.54472 16.5482C7.5354 16.5392 5.83807 15.5517 3.78635 14.3467C1.73463 13.1509 0.037304 12.1634 0.027978 12.1634C0.009326 12.1724 0 12.3446 0 12.5529Z" fill="white"/>
<path d="M0 13.8938V14.2833L3.75837 16.4667C5.82874 17.6716 7.5354 18.6591 7.55405 18.6591C7.5727 18.6591 8.59856 18.1065 9.82026 17.4452L12.0585 16.2221V15.8507C12.0585 15.6423 12.0492 15.4792 12.0398 15.4792C12.0305 15.4792 11.0233 16.0319 9.79229 16.6932L7.56337 17.9072L3.805 15.7057C1.73463 14.4917 0.0279779 13.5042 0.018652 13.5042C0.00932597 13.5133 0 13.6854 0 13.8938Z" fill="white"/>
<path d="M0 15.2346V15.6242L3.75837 17.8076C5.82874 19.0125 7.5354 20 7.55405 20C7.5727 20 8.59856 19.4474 9.82026 18.786L12.0585 17.563V17.1915C12.0585 16.9831 12.0492 16.8201 12.0398 16.8201C12.0305 16.8201 11.0233 17.3727 9.79229 18.0341L7.56337 19.248L3.805 17.0466C1.73463 15.8416 0.0279779 14.8451 0.018652 14.8451C0.00932597 14.8541 0 15.0263 0 15.2346Z" fill="white"/>
</svg>
