<svg width="22" height="20" viewBox="0 0 22 20" fill="none" xmlns="http://www.w3.org/2000/svg">
<path d="M8.67882 1.52391C7.43899 2.36469 6.34831 3.11088 6.25509 3.17394L6.07797 3.28954L8.53899 4.95008L11 6.62113L13.461 4.96059C15.5864 3.53127 15.9127 3.28954 15.8475 3.23699C15.5025 2.97425 11.0373 0 10.9907 0C10.9534 0 9.91865 0.693642 8.67882 1.52391Z" fill="white"/>
<path d="M5.6864 6.95744V9.86864L8.14742 11.7183L10.6084 13.5681V10.4782V7.38834L8.2686 5.79086C6.97284 4.91856 5.86352 4.16186 5.80759 4.11982L5.6864 4.04625V6.95744Z" fill="white"/>
<path d="M13.8339 5.72776L11.3822 7.3883V10.5097V13.6311L13.8432 11.96L16.3042 10.289V7.17811C16.3042 5.46502 16.2949 4.05672 16.2949 4.06723C16.2949 4.06723 15.1856 4.81342 13.8339 5.72776Z" fill="white"/>
<path d="M2.63813 8.16606C1.3983 9.00683 0.382202 9.70048 0.382202 9.70048C0.391524 9.71099 1.51017 10.4677 2.85254 11.3715L5.31356 13.0321L6.2178 12.5276L7.12203 12.0231L6.11525 11.2559C5.55593 10.8355 5.06186 10.4467 5.02458 10.3836C4.95 10.289 4.94068 10.0998 4.93135 8.44982L4.90339 6.63164L2.63813 8.16606Z" fill="white"/>
<path d="M17.0687 8.63899C17.0687 10.3626 17.0593 10.6779 16.9941 10.7725C16.9475 10.8355 16.5746 11.1298 16.1458 11.4136C15.7263 11.6973 15.3534 11.9601 15.3161 11.9916C15.2695 12.0441 15.3907 12.1492 15.9407 12.5171C16.3136 12.7693 16.6492 12.9795 16.6771 12.9795C16.7144 12.9795 21.5153 9.77404 21.5992 9.68996C21.6085 9.67945 20.639 9.01734 19.4458 8.2186C18.2526 7.40935 17.2271 6.72622 17.1712 6.68418L17.0593 6.61061V8.63899H17.0687Z" fill="white"/>
<path d="M0 13.3789V16.2901L2.43305 18.1188C3.7661 19.1172 4.87542 19.9369 4.89407 19.9369C4.91271 19.9369 4.92203 18.5497 4.91271 16.8576L4.90339 13.7782L2.5822 12.2018C1.30508 11.34 0.205085 10.5938 0.130508 10.5518L0 10.4677V13.3789Z" fill="white"/>
<path d="M19.539 12.1177L17.0966 13.7782L17.078 16.8891C17.0687 18.6022 17.078 20 17.0966 20C17.1153 20 18.2246 19.2643 19.5577 18.3605L22 16.7105V13.5996C22 11.8865 21.9907 10.4782 21.9907 10.4782C21.9814 10.4782 20.8721 11.2139 19.539 12.1177Z" fill="white"/>
<path d="M6.76776 13.2002L5.6864 13.8203V16.9101C5.6864 18.9385 5.70505 20 5.73301 19.979C5.76098 19.9685 6.8703 19.2328 8.19403 18.329L10.6084 16.7V15.6595V14.619L9.24742 13.5996C8.50166 13.0426 7.86776 12.5801 7.85844 12.5801C7.85844 12.5801 7.36437 12.8534 6.76776 13.2002Z" fill="white"/>
<path d="M12.911 13.6101L11.3822 14.6505V15.6805V16.7105L13.8246 18.3605C15.1669 19.2643 16.2763 20 16.2856 20C16.3042 20 16.3042 18.6022 16.3042 16.8891L16.2856 13.7782L15.3814 13.1792C14.8873 12.8429 14.4678 12.5801 14.4585 12.5801C14.4492 12.5696 13.75 13.032 12.911 13.6101Z" fill="white"/>
</svg>
