<svg width="65" height="76" viewBox="0 0 177 148" fill="none" xmlns="http://www.w3.org/2000/svg">
<path d="M83.2691 40.6507L97.1189 39.6507L83.4046 79.6506L69.2191 118L59.1188 117.651L83.2691 40.6507Z" fill="#0A83EB"/>
<path d="M36.3108 85.4113C29.0295 78.1553 24.8211 68.3748 24.5587 58.0988C24.2963 47.8228 28.0001 37.8401 34.9016 30.2221C41.803 22.604 51.3724 17.9353 61.6243 17.1845C71.8762 16.4338 82.0236 19.6586 89.9613 26.19L81.8283 36.0741C76.4307 31.6327 69.5305 29.4398 62.5592 29.9503C55.5879 30.4608 49.0807 33.6356 44.3877 38.8159C39.6947 43.9962 37.1761 50.7843 37.3546 57.772C37.533 64.7597 40.3947 71.4105 45.346 76.3445L36.3108 85.4113Z" fill="#5CB0FB"/>
<path d="M43.8524 85.8652C44.4808 85.9466 45.1191 85.903 45.7309 85.737C46.3427 85.5709 46.916 85.2857 47.418 84.8976C47.9201 84.5094 48.3411 84.0259 48.657 83.4747C48.9729 82.9235 49.1775 82.3154 49.2592 81.685C49.3408 81.0547 49.2979 80.4145 49.1328 79.801C48.9678 79.1875 48.6839 78.6127 48.2973 78.1095C47.9107 77.6062 47.429 77.1843 46.8797 76.8679C46.3304 76.5515 45.7242 76.3467 45.0958 76.2654L44.4741 81.0653L43.8524 85.8652Z" fill="#0A83EB"/>
<path d="M83.2798 40.6156C86.3625 33.4991 91.4475 27.4321 97.9158 23.1533C104.384 18.8746 111.957 16.5684 119.712 16.5157C127.468 16.4629 135.071 18.6658 141.597 22.8562C148.123 27.0466 153.29 33.0438 156.469 40.1177C159.648 47.1917 160.702 55.0373 159.503 62.6995C158.304 70.3617 154.903 77.5101 149.715 83.2745C144.527 89.0389 137.774 93.1707 130.28 95.167C122.786 97.1632 114.873 96.9378 107.505 94.5182L111.498 82.3571C116.509 84.0024 121.889 84.1557 126.986 82.7983C132.082 81.4408 136.673 78.6312 140.201 74.7114C143.729 70.7916 146.042 65.9307 146.857 60.7204C147.673 55.5101 146.956 50.1751 144.794 45.3648C142.632 40.5545 139.119 36.4764 134.681 33.627C130.243 30.7775 125.073 29.2795 119.799 29.3154C114.526 29.3513 109.376 30.9194 104.978 33.829C100.579 36.7386 97.1215 40.8641 95.0253 45.7033L83.2798 40.6156Z" fill="url(#paint0_linear_1889_13231)"/>
<path d="M111.587 82.3922C110.791 82.1299 109.951 82.0273 109.116 82.0904C108.28 82.1534 107.464 82.3809 106.715 82.7598C105.967 83.1387 105.299 83.6616 104.752 84.2986C104.204 84.9357 103.787 85.6744 103.524 86.4726C103.26 87.2708 103.157 88.1128 103.218 88.9506C103.279 89.7885 103.505 90.6057 103.881 91.3556C104.258 92.1055 104.778 92.7735 105.413 93.3213C106.047 93.8692 106.783 94.2862 107.579 94.5485L109.583 88.4704L111.587 82.3922Z" fill="#57ADFA"/>
<path d="M45.3789 76.3793C39.8472 75.6894 34.2326 76.5545 29.1651 78.8774C24.0976 81.2004 19.7775 84.8893 16.6895 89.5304C13.6015 94.1716 11.8677 99.5813 11.6827 105.153C11.4976 110.724 12.8686 116.237 15.6418 121.073C18.4151 125.909 22.4808 129.876 27.3831 132.53C32.2853 135.184 37.83 136.42 43.3953 136.099C48.9607 135.778 54.3264 133.912 58.8906 130.711C63.4548 127.511 67.0369 123.102 69.2352 117.979L60.4131 114.193C58.9183 117.677 56.4824 120.675 53.3787 122.851C50.2751 125.028 46.6264 126.296 42.842 126.515C39.0576 126.733 35.2872 125.893 31.9536 124.088C28.6201 122.283 25.8554 119.586 23.9696 116.297C22.0838 113.009 21.1516 109.26 21.2774 105.472C21.4032 101.683 22.5822 98.0043 24.682 94.8483C26.7819 91.6923 29.7195 89.1838 33.1654 87.6042C36.6114 86.0246 40.4292 85.4364 44.1908 85.9055L45.3789 76.3793Z" fill="#0A83EB"/>
<defs>
<linearGradient id="paint0_linear_1889_13231" x1="87.001" y1="35" x2="108.233" y2="96.5425" gradientUnits="userSpaceOnUse">
<stop offset="0.00852842" stop-color="#0A83EB"/>
<stop offset="1" stop-color="#5CB0FB"/>
</linearGradient>
</defs>
</svg>
