<svg width="22" height="20" viewBox="0 0 22 20" fill="none" xmlns="http://www.w3.org/2000/svg">
<path d="M10.7864 0.0595448C10.5439 0.152802 10.4973 0.263015 10.4973 0.703868C10.4973 0.975162 10.4786 1.09385 10.4413 1.10233C10.4133 1.11081 10.2267 1.1532 10.0401 1.18711C9.85356 1.22102 9.52705 1.33124 9.32181 1.42449C8.32362 1.86535 7.83852 2.85726 8.0904 3.93396C8.18369 4.34938 8.36094 4.63763 8.68745 4.93436C9.00463 5.22261 9.44309 5.43456 10.1148 5.63803L10.4879 5.74824V6.39256V7.03689L11.4301 7.96946C11.9526 8.48661 12.391 8.90203 12.4003 8.89355C12.5962 8.8003 13.6504 8.20684 13.725 8.1475C13.781 8.10511 13.893 7.91859 13.9676 7.74903C14.3874 6.83342 14.1822 5.80759 13.4452 5.17174C13.0627 4.8411 12.8201 4.71393 12.1111 4.51046L11.5048 4.33242L11.4954 3.40833C11.4861 2.79792 11.4954 2.48423 11.5328 2.48423C11.5514 2.48423 11.682 2.56901 11.8033 2.67923C11.9805 2.84031 12.0458 2.94204 12.1298 3.16247C12.2977 3.63723 12.5496 3.83223 12.9974 3.83223C13.3146 3.8407 13.5665 3.72201 13.753 3.48463C14.0609 3.07769 13.865 2.41641 13.2493 1.82296C12.8854 1.47536 12.503 1.28037 11.9526 1.17015C11.7566 1.12776 11.5701 1.09385 11.5421 1.08537C11.5048 1.0769 11.4861 0.958206 11.4861 0.686912C11.4861 0.246059 11.4395 0.144324 11.1876 0.0425889C11.0103 -0.0167566 10.973 -0.0167567 10.7864 0.0595448ZM10.4973 3.27268C10.4973 3.69658 10.4786 4.0357 10.4599 4.0357C10.3666 4.0357 9.98416 3.77288 9.9002 3.65419C9.78826 3.48463 9.77893 3.05226 9.88154 2.87422C9.95618 2.74705 10.404 2.44184 10.4599 2.48423C10.4786 2.49271 10.4973 2.84879 10.4973 3.27268ZM11.8126 6.16366C11.9526 6.23148 12.1018 6.30778 12.1485 6.3417C12.5309 6.62147 12.503 7.31666 12.1111 7.65578C11.9619 7.78294 11.5701 7.96946 11.5328 7.92707C11.5048 7.89316 11.4954 6.03649 11.5328 6.03649C11.5421 6.04497 11.6727 6.09583 11.8126 6.16366Z" fill="white"/>
<path d="M15.759 4.49366C15.5911 4.66322 15.6564 4.77343 16.44 5.83318C17.0558 6.65553 17.1864 6.85901 17.1397 6.9014C17.0278 7.00313 12.4006 9.52108 12.3353 9.52108C12.298 9.52955 11.6263 8.90219 10.852 8.14765C8.71574 6.07904 8.72507 6.08751 8.55715 6.08751C8.42654 6.08751 7.99741 6.46054 4.20989 9.88563C1.05673 12.7342 0.00256348 13.7177 0.00256348 13.7855C0.00256348 13.9126 0.161154 14.0483 0.310416 14.0483C0.394376 14.0483 1.09404 13.6498 2.45606 12.8275C6.96191 10.123 7.57761 9.74998 7.61493 9.75846C7.63359 9.76694 8.56647 10.6741 9.68594 11.7677C11.4771 13.5227 11.7383 13.7685 11.8689 13.777C11.9902 13.7855 12.1394 13.7177 12.8018 13.2853C13.2402 13.0055 14.8075 11.9882 16.2908 11.0301C18.4924 9.60586 18.9962 9.30065 19.0428 9.34304C19.0708 9.36847 19.3693 9.76694 19.7052 10.2078C20.041 10.6571 20.3582 11.0556 20.4141 11.098C20.5354 11.1997 20.7127 11.1743 20.8153 11.0471C20.8619 10.9793 21.0765 10.0806 21.4497 8.30025L22.0001 5.65514L21.9161 5.5534C21.8321 5.45167 21.6829 5.41776 18.9495 4.93451C17.3636 4.65474 16.0109 4.42584 15.9456 4.42584C15.8803 4.41736 15.7964 4.45127 15.759 4.49366Z" fill="white"/>
<path d="M19.0799 11.7927C19.024 11.8096 18.9587 11.869 18.9307 11.9114C18.8934 11.9622 18.884 13.217 18.884 15.9129V19.8297L19.0053 19.9145C19.1266 19.9993 19.1639 19.9993 20.274 19.9908C21.4122 19.9823 21.4122 19.9823 21.5054 19.8806C21.5894 19.7874 21.5894 19.6602 21.5894 15.896C21.5894 13.7595 21.5801 11.9792 21.5614 11.9368C21.4961 11.7757 21.3189 11.7503 20.2274 11.7503C19.6583 11.7503 19.1359 11.7672 19.0799 11.7927Z" fill="white"/>
<path d="M3.89246 12.9545L3.78052 13.0308V16.4135V19.7962L3.91112 19.8979L4.04173 19.9996L5.18918 19.9912C6.3273 19.9827 6.33663 19.9827 6.42059 19.8809C6.50455 19.7877 6.50455 19.669 6.50455 16.422V13.0562L6.40193 12.9714C6.29931 12.8867 6.262 12.8782 5.14253 12.8782C4.07904 12.8782 3.98575 12.8782 3.89246 12.9545Z" fill="white"/>
<path d="M7.76402 13.1237C7.70805 13.1407 7.64275 13.2 7.61476 13.2424C7.57744 13.2933 7.56812 14.353 7.56812 16.5573V19.7874L7.68006 19.8891L7.79201 19.9909H8.91147C9.97497 19.9909 10.0403 19.9909 10.1522 19.9061L10.2735 19.8213V16.5573C10.2735 13.4035 10.2735 13.2933 10.1895 13.2C10.1056 13.0983 10.0962 13.0983 8.98611 13.0898C8.36107 13.0898 7.81067 13.1068 7.76402 13.1237Z" fill="white"/>
<path d="M15.3297 13.1242C15.0685 13.2174 15.0778 13.0733 15.0778 16.5492V19.7539L15.2084 19.8726L15.339 19.9913H16.4212C17.5593 19.9913 17.6899 19.9743 17.7738 19.7963C17.8485 19.6522 17.8485 13.4124 17.7738 13.2683C17.7459 13.2089 17.6619 13.1411 17.5779 13.1157C17.4287 13.0733 15.4696 13.0733 15.3297 13.1242Z" fill="white"/>
<path d="M11.4395 14.6073L11.3275 14.7091V17.244C11.3275 19.6856 11.3368 19.7874 11.4115 19.8806C11.4954 19.9823 11.5048 19.9824 12.6429 19.9908L13.7903 19.9993L13.9209 19.8976L14.0515 19.7958L14.0609 17.3203C14.0609 15.9638 14.0609 14.8108 14.0515 14.7515C14.0422 14.7006 13.9862 14.6243 13.9396 14.5734C13.8556 14.4971 13.781 14.4886 12.6989 14.4886H11.5514L11.4395 14.6073Z" fill="white"/>
<path d="M0.198239 15.3795C0.142265 15.3964 0.0769632 15.4643 0.0489766 15.5236C-0.0163255 15.6677 -0.0163255 19.6608 0.0489766 19.805C0.132937 19.983 0.263541 19.9999 1.37368 19.9999C2.48381 19.9999 2.61442 19.983 2.69838 19.805C2.76368 19.6608 2.76368 15.6677 2.69838 15.5321C2.67039 15.4727 2.59576 15.4049 2.53046 15.3795C2.39052 15.3201 0.338172 15.3201 0.198239 15.3795Z" fill="white"/>
</svg>
