<svg width="20" height="20" viewBox="0 0 20 20" fill="none" xmlns="http://www.w3.org/2000/svg">
<path d="M4.64302 0V5.71429H11.0715C11.1662 5.71499 11.257 5.75207 11.3251 5.81786L12.7536 7.24643C12.8205 7.31386 12.8581 7.405 12.8581 7.5C12.8581 7.595 12.8205 7.68614 12.7536 7.75357L11.3251 9.18214C11.257 9.24793 11.1662 9.28501 11.0715 9.28571H4.64302V16.4286H16.7857C16.8804 16.4286 16.9713 16.4662 17.0383 16.5332C17.1052 16.6002 17.1429 16.691 17.1429 16.7857V17.5C17.1422 17.5847 17.1469 17.6694 17.1571 17.7536V17.7714C17.2202 18.3376 17.4742 18.8655 17.8773 19.268C18.2805 19.6705 18.8087 19.9236 19.375 19.9857H19.3893C19.4521 19.9928 19.5153 19.9964 19.5785 19.9964C19.6107 19.9964 19.6393 20 19.6714 20C19.7616 19.9942 19.8461 19.9539 19.9073 19.8873C19.9685 19.8208 20.0017 19.7332 20 19.6429V0H4.64302ZM8.57154 1.42857H15.7143V2.14286H8.57154V1.42857ZM7.50013 3.57143V2.85714H16.7857V3.57143H7.50013ZM5.3573 10.3571H7.50013V11.0714H5.3573V10.3571ZM6.78585 12.5H5.3573V11.7857H6.78585V12.5ZM18.5714 14.2857C18.5714 14.3804 18.5338 14.4713 18.4668 14.5383C18.3998 14.6052 18.309 14.6429 18.2143 14.6429H7.50013C7.42948 14.6431 7.36038 14.6222 7.30179 14.5827C7.2432 14.5432 7.19783 14.487 7.17156 14.4214C7.14421 14.3564 7.13674 14.2847 7.15009 14.2154C7.16343 14.1461 7.197 14.0824 7.24656 14.0321L17.9607 3.31786C18.0109 3.2683 18.0747 3.23473 18.144 3.22138C18.2133 3.20803 18.285 3.21551 18.35 3.24286C18.4156 3.26913 18.4718 3.3145 18.5112 3.37309C18.5507 3.43168 18.5717 3.50078 18.5714 3.57143V14.2857Z" fill="white"/>
<path d="M9.28562 13.2143H9.9999V13.9286H10.7142V13.2143H11.4285V13.9286H12.1427V13.2143H12.857V13.9286H13.5713V13.2143H14.2856V13.9286H14.9998V13.2143H15.7141V13.9286H16.4284V13.2143H17.1427V12.5H17.8569V11.7858H17.1427V11.0715H17.8569V10.3572H17.1427V9.6429H17.8569V8.92861H17.1427V8.21432H17.8569V7.50004H17.1427V6.78575H17.8569V6.07147H17.1427V5.35718H17.8569V4.43361L8.36206 13.9286H9.28562V13.2143ZM12.4206 11.8904L15.8188 8.49218C15.8687 8.44225 15.9323 8.40825 16.0016 8.39447C16.0709 8.3807 16.1427 8.38777 16.2079 8.4148C16.2732 8.44182 16.3289 8.48759 16.3682 8.5463C16.4074 8.60502 16.4284 8.67406 16.4284 8.74468V12.1429C16.4284 12.2376 16.3908 12.3285 16.3238 12.3954C16.2568 12.4624 16.166 12.5 16.0712 12.5H12.6731C12.6025 12.5 12.5334 12.4791 12.4747 12.4398C12.416 12.4006 12.3702 12.3448 12.3432 12.2796C12.3162 12.2143 12.3091 12.1425 12.3229 12.0732C12.3366 12.004 12.3706 11.9403 12.4206 11.8904Z" fill="white"/>
<path d="M15.7141 9.60674L13.5352 11.7857H15.7141V9.60674Z" fill="white"/>
<path d="M17.857 13.2143H17.1427V13.9286H17.857V13.2143Z" fill="white"/>
<path d="M10.9791 6.48428L10.7252 7.5L10.9791 8.51571L11.9948 7.5L10.9791 6.48428Z" fill="white"/>
<path d="M1.07141 8.57129H1.42855V6.42844H1.07141C0.787258 6.42844 0.514739 6.54132 0.31381 6.74225C0.112881 6.94318 0 7.2157 0 7.49986C0 7.78403 0.112881 8.05655 0.31381 8.25748C0.514739 8.45841 0.787258 8.57129 1.07141 8.57129Z" fill="white"/>
<path d="M3.92843 19.9999H17.6215C17.5391 19.9328 17.4593 19.8613 17.3822 19.7856C17.2936 19.6972 17.2101 19.6039 17.1322 19.506L17.1208 19.4906C17.0536 19.4058 16.9908 19.3175 16.9326 19.2263C16.9254 19.2153 16.919 19.2035 16.9118 19.1906C16.8583 19.1049 16.8091 19.0169 16.7643 18.9267C16.7558 18.9095 16.7479 18.891 16.7393 18.8749C16.699 18.7895 16.6622 18.7031 16.6297 18.6145C16.6208 18.5906 16.6122 18.567 16.604 18.5431C16.5754 18.4595 16.5508 18.3749 16.529 18.2888C16.5215 18.2592 16.5133 18.2299 16.5068 18.2003C16.4879 18.1156 16.4736 18.0295 16.4618 17.9431C16.4576 17.9124 16.4515 17.8824 16.4483 17.8513C16.4354 17.7346 16.4287 17.6173 16.4283 17.4999V17.1428H1.42847V17.4999C1.42922 18.1627 1.69285 18.7982 2.16153 19.2668C2.6302 19.7355 3.26563 19.9991 3.92843 19.9999Z" fill="white"/>
<path d="M10.0786 7.14272L10.2571 6.42844H2.14294V8.57129H10.2571L10.0786 7.85701H2.85722V7.14272H10.0786Z" fill="white"/>
</svg>
