<svg width="22" height="20" viewBox="0 0 22 20" fill="none" xmlns="http://www.w3.org/2000/svg">
<path d="M13.2933 0.031466C12.8365 0.0881047 12.1466 0.24993 11.6805 0.411754C9.6763 1.12378 8.12884 2.76631 7.73732 4.59493C7.68139 4.82957 7.69071 4.88621 7.75596 5.00758C7.90511 5.27459 8.32461 5.33123 8.55766 5.11277C8.60427 5.07231 8.69749 4.82148 8.77206 4.57065C9.18223 3.12232 10.217 1.98955 11.7458 1.34225C15.0271 -0.0494466 18.9144 1.6659 19.6043 4.8053C19.6695 5.09659 19.6882 5.84907 19.6509 6.35882C19.6229 6.64201 19.6322 6.6582 19.7627 6.77147C19.9585 6.94139 20.2382 6.94948 20.4432 6.78766C20.5644 6.69865 20.5924 6.62583 20.6297 6.39119C20.6949 5.97044 20.6856 5.22605 20.6017 4.78103C20.378 3.58352 19.7441 2.50739 18.7466 1.64971C17.8238 0.84059 16.7424 0.338933 15.4933 0.104287C14.9526 0.00719219 13.7966 -0.033264 13.2933 0.031466Z" fill="white"/>
<path d="M14.2534 2.28083C14.0762 2.36983 14.0203 2.50739 14.011 2.83913V3.15469L13.8152 3.20323C13.5076 3.27605 13.0881 3.47834 12.9203 3.64016C12.8364 3.72107 12.7152 3.8829 12.65 4.01236C12.5474 4.19846 12.5288 4.29555 12.5288 4.60302C12.5288 5.33123 12.7618 5.55779 14.1508 6.17272C14.6915 6.40737 15.1296 6.63392 15.1856 6.69056C15.2415 6.7472 15.2788 6.86048 15.2788 6.9333C15.2788 7.25695 15.5957 7.4835 15.9127 7.3945C16.155 7.32168 16.2576 7.17603 16.2576 6.92521C16.2576 6.55301 16.1364 6.31027 15.8474 6.05135C15.6237 5.85716 15.4279 5.75198 14.6262 5.40405C13.5822 4.94285 13.5169 4.8943 13.5169 4.57875C13.5262 4.19037 13.7686 4.03663 14.3839 4.03663C14.9805 4.03663 15.1762 4.16609 15.2601 4.60302C15.3254 4.91858 15.633 5.08849 15.95 4.97522C16.3042 4.84576 16.3508 4.44119 16.0805 3.94763C15.9127 3.64825 15.6983 3.47834 15.2974 3.31651L14.9991 3.19514V2.83104C14.9991 2.48311 14.9898 2.45884 14.8593 2.34556C14.7101 2.20801 14.4584 2.18374 14.2534 2.28083Z" fill="white"/>
<path d="M0.298305 5.29889C0.0372881 5.40408 0 5.54972 0 6.33457C0 7.12751 0.0372881 7.25697 0.307627 7.37025C0.50339 7.45116 0.540678 7.45116 0.727119 7.37025C0.969491 7.27316 1.03475 7.11133 1.03475 6.5854V6.13229L2.14407 6.14038L3.25339 6.15656L5.31356 10.7848C6.79576 14.1022 7.42034 15.4534 7.51356 15.5343L7.63475 15.6476H13.3305H19.0356L19.1754 15.5343C19.2873 15.4453 19.5576 14.8627 20.6576 12.3545C21.5898 10.2346 22 9.23124 22 9.12605C22 8.97232 21.9068 8.84286 21.739 8.77004C21.6924 8.74576 17.8703 8.28456 13.228 7.73436C8.59491 7.18415 4.74492 6.72295 4.67966 6.71486C4.5678 6.69868 4.52119 6.61776 4.26017 6.03519C3.98051 5.42835 3.94322 5.37171 3.79407 5.30698C3.64492 5.24225 3.45847 5.23416 2.0322 5.23416C0.68983 5.23416 0.419491 5.24225 0.298305 5.29889ZM16.2669 9.65198C16.5373 9.78953 16.5839 10.1213 16.3695 10.3155L16.2297 10.4368H12.5195H8.80932L8.66949 10.3236C8.44576 10.1294 8.50169 9.77335 8.77203 9.64389C8.86525 9.59534 9.59237 9.58725 12.5102 9.58725C15.8102 9.58725 16.1458 9.58725 16.2669 9.65198ZM18.2805 11.3997C18.5508 11.5211 18.5881 11.8852 18.3551 12.0713L18.2339 12.1684L13.5915 12.1845C9.35 12.2007 8.93051 12.1926 8.8 12.1279C8.51102 11.9984 8.45508 11.6505 8.67881 11.4563L8.81864 11.335H13.489C17.4695 11.335 18.1686 11.3431 18.2805 11.3997ZM18.2153 13.0989C18.3831 13.1636 18.5229 13.3416 18.5229 13.4872C18.5229 13.641 18.3831 13.819 18.2153 13.8756C18.0754 13.9242 17.3297 13.9323 13.5263 13.9323C8.65085 13.9323 8.78136 13.9323 8.60424 13.7219C8.43644 13.5196 8.55763 13.1717 8.82797 13.0746C8.8839 13.0503 10.9814 13.0341 13.489 13.0341C17.3297 13.0422 18.0754 13.0503 18.2153 13.0989Z" fill="white"/>
<path d="M9.9839 16.1977C8.97712 16.3838 8.25 17.1768 8.25 18.0668C8.25 18.6008 8.47373 19.062 8.90254 19.4342C10.3102 20.6398 12.6686 19.7902 12.6686 18.0749C12.6686 17.1606 11.9602 16.3919 10.9347 16.2058C10.5619 16.133 10.3288 16.1249 9.9839 16.1977Z" fill="white"/>
<path d="M15.8008 16.1815C15.4093 16.2463 14.9432 16.4809 14.6356 16.7641C14.3186 17.0635 14.1415 17.3467 14.0669 17.7189C13.8152 18.8193 14.7474 19.9035 16.0432 19.9925C17.2084 20.0815 18.2525 19.3614 18.4296 18.3419C18.6627 17.0554 17.2923 15.9307 15.8008 16.1815Z" fill="white"/>
</svg>
