<svg width="18" height="20" viewBox="0 0 18 20" fill="none" xmlns="http://www.w3.org/2000/svg">
<path d="M0.190674 9V18H7.79237H15.3941V9V0H7.79237H0.190674V9ZM9.76695 2.94068C10.0805 3.1017 10.25 3.26271 10.411 3.55932C10.5551 3.80509 10.5636 3.86441 10.5636 4.31356V4.79661L11.0551 5.09322L11.5466 5.38983L11.7754 5.25424C11.9788 5.14407 12.072 5.12712 12.4364 5.12712C12.9195 5.12712 13.1483 5.22034 13.4619 5.52542C13.7754 5.83898 13.8602 6.0678 13.8602 6.55085C13.8602 7.0339 13.7669 7.26271 13.4619 7.57627C13.1483 7.88983 12.9195 7.97458 12.4364 7.97458C12.0551 7.97458 11.9788 7.95763 11.75 7.82203C11.4534 7.66102 11.2924 7.49153 11.1229 7.17797C11.0297 7.00848 11.0127 6.88983 11.0127 6.49153L11.0212 6.01695L10.5297 5.71186L10.0297 5.41526L9.80932 5.54237C9.66525 5.61864 9.47034 5.66949 9.27542 5.69492L8.96186 5.72034L8.32627 6.77119L7.69068 7.82203L7.83474 8C8.1144 8.35593 8.16525 8.5 8.16525 8.95763C8.16525 9.44068 8.07203 9.66949 7.76695 9.98305C7.45339 10.2966 7.22457 10.3814 6.74152 10.3814C6.25847 10.3814 6.02966 10.2881 5.7161 9.98305C5.40254 9.66102 5.31779 9.44068 5.31779 8.92373V8.47458L4.82627 8.13559L4.33474 7.79661L4.13135 7.88983C3.81779 8.0339 3.19067 8.01695 2.91101 7.87288C2.63983 7.72881 2.37712 7.4661 2.23305 7.19492C2.13983 7.02542 2.1144 6.90678 2.1144 6.55932C2.1144 6.17797 2.13135 6.1017 2.26695 5.87288C2.42796 5.57627 2.59745 5.41526 2.91101 5.24576C3.07203 5.16102 3.19915 5.13559 3.53813 5.13559C4.02118 5.13559 4.25 5.22881 4.56356 5.5339C4.85169 5.83051 4.96186 6.07627 4.96186 6.50848C4.96186 6.71187 4.94491 6.94915 4.91949 7.04237C4.87712 7.19492 4.88559 7.20339 5.33474 7.50848L5.79237 7.82203L6.03813 7.68644C6.19915 7.6017 6.40254 7.54237 6.6144 7.52542L6.94491 7.49153L7.56356 6.4661C7.96186 5.81356 8.17373 5.42373 8.13983 5.38136C8.12288 5.34746 8.03813 5.22881 7.96186 5.11864C7.38559 4.31356 7.72457 3.23729 8.66525 2.88136C8.94491 2.77119 9.50424 2.80509 9.76695 2.94068ZM11.7924 12.3983V12.7966H7.79237H3.79237V12.3983V12H7.79237H11.7924V12.3983ZM11.7924 14.7966V15.1949H7.79237H3.79237V14.7966V14.3983H7.79237H11.7924V14.7966Z" fill="white"/>
<path d="M15.7925 2.39832V2.79663H16.3942H16.9959V11V19.2034H10.1993H3.38572V18.8051V18.4068H2.98742H2.58911V19.2034V20H10.1654H17.7417V16.7373C17.7417 14.9492 17.7586 10.8983 17.7756 7.7373L17.8095 2.00002H16.801H15.7925V2.39832Z" fill="white"/>
</svg>
