<svg width="17" height="94" viewBox="0 0 17 98" fill="none" xmlns="http://www.w3.org/2000/svg">
<path d="M16 82C16 90 1 96 1 96L1 2C1 2 16 7.5 16 15C16 22.5 16 74 16 82Z" fill="url(#paint0_linear_1335_13770)" fill-opacity="0.14"/>
<path d="M0.500005 96V96.7385L1.1857 96.4642L1 96C1.1857 96.4642 1.18586 96.4642 1.18608 96.4641L1.1868 96.4638L1.18927 96.4628L1.19826 96.4592L1.23216 96.4454C1.26171 96.4333 1.30503 96.4155 1.36121 96.392C1.47355 96.3451 1.63732 96.2756 1.84517 96.1845C2.26083 96.0024 2.85316 95.7339 3.56336 95.3867C4.98252 94.6929 6.87831 93.6821 8.77735 92.416C10.6733 91.1521 12.5915 89.6213 14.0404 87.8826C15.4877 86.1458 16.5 84.1607 16.5 82V81.8046V81.7533V81.701V81.5935V81.3669V81.248V81.1871V81.1252L16.5 80.9988V80.8686V80.8021V80.7347V80.5973V80.4562V80.3843V80.3115V80.2379V80.1633V80.0116V79.8564V79.6977V79.5357V79.3702V79.2014V79.0293V78.9419V78.8538V78.7649V78.6751V78.5846V78.4932V78.401V78.3081V78.2143V78.1198V78.0244V77.9283V77.8314V77.7338V77.6354V77.5362V77.4362V77.3355V77.234V77.1318V77.0289V76.9252V76.8207V76.7156V76.6097V76.5031V76.3957V76.2876V76.1789V76.0694V75.9592V75.8483V75.7367V75.6244V75.5114V75.3978V75.2834V75.1684V75.0527V74.9363V74.8193V74.7015V74.5832V74.4642V74.3445V74.2242V74.1032V73.9816V73.8594V73.7365V73.613V73.4889V73.3642V73.2388V73.1128V72.9862V72.8591V72.7313V72.6029V72.4739V72.3444V72.2142V72.0835V71.9522V71.8203V71.6879V71.5549V71.4213V71.2871V71.1525V71.0172V70.8814V70.7451V70.6083V70.4709V70.3329V70.1945V70.0555V69.916V69.776V69.6355V69.4945V69.353V69.2109V69.0684V68.9254V68.7819V68.6379V68.4935V68.3485V68.2031V68.0572V67.9109V67.7641V67.6169V67.4692V67.321V67.1724V67.0234V66.8739V66.724V66.5736V66.4229V66.2717V66.1201V65.9681V65.8157V65.6629V65.5096V65.356V65.202V65.0476V64.8928V64.7376V64.5821V64.4261V64.2699V64.1132V63.9562V63.7988V63.6411V63.483V63.3246V63.1658V63.0067V62.8472V62.6874V62.5273V62.3669V62.2062V62.0451V61.8837V61.7221V61.5601V61.3978V61.2352V61.0724V60.9092V60.7458V60.582V60.4181V60.2538V60.0893V59.9245V59.7594V59.5941V59.4285V59.2627V59.0966V58.9303V58.7638V58.597V58.43V58.2628V58.0954V57.9277V57.7598V57.5917V57.4234V57.2549V57.0862V56.9174V56.7483V56.579V56.4096V56.24V56.0702V55.9002V55.7301V55.5598V55.3893V55.2187V55.048V54.877V54.706V54.5348V54.3635V54.192V54.0205V53.8488V53.6769V53.505V53.3329V53.1608V52.9885L16.5 52.8162V52.6437V52.4712V52.2985V52.1258V51.953V51.7801V51.6072V51.4341V51.2611V51.0879V50.9147V50.7414V50.5681V50.3948V50.2214V50.048V49.8745V49.701V49.5275V49.354V49.1804V49.0068V48.8333V48.6597V48.4861V48.3125V48.1389V47.9653V47.6183V47.4447V47.2712V47.0978V46.9243V46.7509V46.5776V46.4043V46.231V46.0578V45.8847V45.7116V45.5386V45.3656V45.1927V45.0199V44.8472V44.6745V44.502V44.3295V44.1571V43.9849V43.8127V43.6407V43.4687V43.2969V43.1252V42.9536V42.7821V42.6108V42.4396V42.2685V42.0976V41.9268V41.7562V41.5857V41.4154V41.2453V41.0753V40.9055V40.7359V40.5664V40.3971V40.2281V40.0592V39.8905V39.7219V39.5536V39.3855V39.2176V39.05V38.8825V38.7153V38.5482V38.3815V38.2149V38.0486V37.8825V37.7167V37.5511V37.3857V37.2207V37.0558V36.8913V36.727V36.563V36.3993V36.2358V36.0726V35.9097V35.7471V35.5848V35.4228V35.2611V35.0997V34.9386V34.7779V34.6174V34.4573V34.2975V34.138V33.9789V33.8201V33.6616V33.5035V33.3458V33.1884V33.0313V32.8746V32.7183V32.5624V32.4068V32.2516V32.0968V31.9423V31.7883V31.6346V31.4814V31.3285V31.1761V31.024V30.8724V30.7212V30.5704V30.42V30.2701V30.1206V29.9715V29.8229V29.6747V29.527V29.3797V29.2328V29.0865V28.9406V28.7951V28.6501V28.5057V28.3616V28.2181V28.0751V27.9325V27.7904V27.6489V27.5078V27.3673V27.2272V27.0877V26.9487V26.8102V26.6722V26.5348V26.3979V26.2615V26.1257V25.9904V25.8557V25.7215V25.5879V25.4549V25.3224V25.1905V25.0591V24.9283V24.7981V24.6685V24.5395V24.4111V24.2833V24.156V24.0294V23.9034V23.778V23.6532V23.5291V23.4055V23.2826V23.1603V23.0387L16.5 22.9176V22.7973V22.6776V22.5585V22.4401V22.3223V22.2052V22.0888V21.9731V21.858V21.7436V21.6299V21.5168V21.4045V21.2928V21.1819V21.0717V20.9621V20.8533V20.7452V20.6378V20.5311V20.4251V20.3199V20.2154V20.1117V20.0087V19.9064V19.8049V19.7041V19.6041V19.5048V19.4064V19.3086V19.2117V19.1155V19.0201V18.9256V18.8317V18.7387V18.6465V18.5551V18.4644V18.3746V18.2856V18.1974V18.1101V18.0235V17.8529V17.7689V17.6856V17.6033V17.5218V17.3613V17.2042V17.0506V16.9005V16.7539V16.6109V16.4715V16.3357V16.2036V16.0751V15.9504V15.8294V15.5987V15.5435V15.4892V15.3835V15.1838V15C16.5 12.953 15.4772 11.0886 14.0287 9.47113C12.5776 7.85072 10.658 6.43082 8.76245 5.26192C6.86339 4.09083 4.96776 3.15907 3.54894 2.5206C2.83888 2.20107 2.24669 1.95432 1.83118 1.78712C1.6234 1.70351 1.4597 1.63976 1.34743 1.59673C1.29129 1.5752 1.24801 1.55886 1.21849 1.5478L1.18464 1.53518L1.17568 1.53187L1.17322 1.53096L1.17251 1.5307C1.17229 1.53062 1.17213 1.53056 1 2L1.17213 1.53056L0.500005 1.28412L0.500005 2L0.500005 96Z" stroke="white" stroke-opacity="0.2" stroke-miterlimit="1.83608"/>
<defs>
<linearGradient id="paint0_linear_1335_13770" x1="21.5" y1="46.5" x2="-1.5" y2="46" gradientUnits="userSpaceOnUse">
<stop offset="0.369792" stop-color="white"/>
<stop offset="1" stop-color="white" stop-opacity="0"/>
</linearGradient>
</defs>
</svg>
