<svg width="17" height="17" viewBox="0 0 17 17" fill="none" xmlns="http://www.w3.org/2000/svg">
<path d="M8.01599 0.642905C7.35844 0.663231 6.55174 0.805513 5.89418 1.01555C2.85722 1.98442 0.708293 4.59968 0.34223 7.7773C0.294777 8.17027 0.294777 9.12559 0.34223 9.51856C0.708293 12.6962 2.864 15.3114 5.90096 16.2803C6.68732 16.531 7.433 16.6394 8.30749 16.6394C9.18197 16.6394 9.93443 16.5242 10.714 16.2803C13.751 15.3047 15.8999 12.6894 16.2727 9.51856C16.2931 9.34917 16.3066 8.95621 16.3066 8.65132C16.3066 8.33965 16.2931 7.94669 16.2727 7.78408C16.1507 6.75423 15.8186 5.69728 15.344 4.83682C13.8527 2.13347 11.0869 0.554826 8.01599 0.642905ZM8.80235 3.7731C9.03284 3.88828 9.19553 4.05088 9.31077 4.28802C9.38534 4.4303 9.38534 4.4574 9.3989 5.98185L9.41246 7.52662L10.9581 7.54017L12.5037 7.55372L12.6663 7.62825C12.8765 7.73665 13.0866 7.95346 13.1951 8.17027C13.2697 8.3261 13.2832 8.40063 13.2832 8.63099C13.2832 8.86135 13.2697 8.93588 13.1951 9.09171C13.0934 9.3153 12.8833 9.52533 12.6663 9.63374L12.5037 9.71504L10.9581 9.72859L9.41246 9.74214L9.3989 11.2869L9.38534 12.8317L9.30399 12.9943C9.19553 13.2111 8.98538 13.4144 8.76168 13.5228C8.60576 13.5973 8.53119 13.6108 8.30071 13.6108C8.07023 13.6108 7.99566 13.5973 7.83974 13.5228C7.61604 13.4211 7.39911 13.2111 7.29743 12.9943L7.22286 12.8317L7.2093 11.2869L7.19574 9.74214L5.65014 9.72859L4.09776 9.72182L3.93507 9.64729C3.72492 9.53888 3.51478 9.32207 3.40631 9.10526C3.33174 8.94943 3.31819 8.8749 3.31819 8.64454C3.31819 8.41418 3.33174 8.33965 3.40631 8.18382C3.508 7.96024 3.71814 7.74343 3.93507 7.6418L4.09776 7.56727L5.64336 7.55372L7.18896 7.54017L7.20252 5.9954C7.21608 4.65389 7.22286 4.4303 7.27031 4.33545C7.55503 3.72567 8.22614 3.48853 8.80235 3.7731Z" fill="black"/>
</svg>
