<svg width="16" height="15" viewBox="0 0 16 15" fill="none" xmlns="http://www.w3.org/2000/svg">
<path fill-rule="evenodd" clip-rule="evenodd" d="M2.20119 7.70309C2.2013 6.6083 2.53589 5.53679 3.1648 4.61714C3.79371 3.69749 4.69024 2.96876 5.7468 2.51839C6.80336 2.06802 7.97508 1.91515 9.12136 2.07811C10.2676 2.24108 11.3398 2.71296 12.2091 3.43713C13.0785 4.1613 13.7081 5.10701 14.0225 6.16077C14.3369 7.21453 14.3226 8.33158 13.9815 9.37788C13.6403 10.4242 12.9868 11.3553 12.0992 12.0595C11.2116 12.7637 10.1278 13.211 8.97767 13.3479V9.12531H10.4835C10.6832 9.12531 10.8748 9.05039 11.016 8.91703C11.1572 8.78367 11.2365 8.6028 11.2365 8.4142C11.2365 8.2256 11.1572 8.04473 11.016 7.91137C10.8748 7.77801 10.6832 7.70309 10.4835 7.70309H8.97767V6.28087C8.97767 6.09227 9.05699 5.9114 9.1982 5.77804C9.3394 5.64468 9.53091 5.56976 9.73061 5.56976H10.1071C10.3068 5.56976 10.4983 5.49484 10.6395 5.36148C10.7807 5.22812 10.86 5.04725 10.86 4.85865C10.86 4.67005 10.7807 4.48917 10.6395 4.35582C10.4983 4.22246 10.3068 4.14754 10.1071 4.14754H9.73061C9.13153 4.14754 8.55699 4.3723 8.13338 4.77237C7.70977 5.17245 7.47178 5.71507 7.47178 6.28087V7.70309H5.9659C5.76621 7.70309 5.57469 7.77801 5.43349 7.91137C5.29229 8.04473 5.21296 8.2256 5.21296 8.4142C5.21296 8.6028 5.29229 8.78367 5.43349 8.91703C5.57469 9.05039 5.76621 9.12531 5.9659 9.12531H7.47178V13.3479C6.01606 13.1747 4.67732 12.5056 3.70689 11.4663C2.73646 10.4269 2.20106 9.08881 2.20119 7.70309ZM8.22472 14.8142C12.3832 14.8142 15.7541 11.6306 15.7541 7.70309C15.7541 3.77562 12.3832 0.59198 8.22472 0.59198C4.06623 0.59198 0.695312 3.77562 0.695312 7.70309C0.695312 11.6306 4.06623 14.8142 8.22472 14.8142Z" fill="#2E90FA"/>
</svg>
