<svg width="17" height="17" viewBox="0 0 17 17" fill="none" xmlns="http://www.w3.org/2000/svg">
<path d="M4.86461 0.703094H11.5846C14.1446 0.703094 16.2246 2.78309 16.2246 5.34309V12.0631C16.2246 13.2937 15.7358 14.4739 14.8656 15.3441C13.9954 16.2142 12.8152 16.7031 11.5846 16.7031H4.86461C2.30461 16.7031 0.224609 14.6231 0.224609 12.0631V5.34309C0.224609 4.11249 0.713465 2.93229 1.58363 2.06212C2.4538 1.19195 3.63401 0.703094 4.86461 0.703094ZM4.70461 2.30309C3.94079 2.30309 3.20825 2.60652 2.66814 3.14663C2.12804 3.68673 1.82461 4.41927 1.82461 5.18309V12.2231C1.82461 13.8151 3.11261 15.1031 4.70461 15.1031H11.7446C12.5084 15.1031 13.241 14.7997 13.7811 14.2596C14.3212 13.7195 14.6246 12.9869 14.6246 12.2231V5.18309C14.6246 3.59109 13.3366 2.30309 11.7446 2.30309H4.70461ZM12.4246 3.50309C12.6898 3.50309 12.9442 3.60845 13.1317 3.79599C13.3193 3.98352 13.4246 4.23788 13.4246 4.50309C13.4246 4.76831 13.3193 5.02267 13.1317 5.2102C12.9442 5.39774 12.6898 5.50309 12.4246 5.50309C12.1594 5.50309 11.905 5.39774 11.7175 5.2102C11.53 5.02267 11.4246 4.76831 11.4246 4.50309C11.4246 4.23788 11.53 3.98352 11.7175 3.79599C11.905 3.60845 12.1594 3.50309 12.4246 3.50309ZM8.22461 4.70309C9.28548 4.70309 10.3029 5.12452 11.053 5.87467C11.8032 6.62481 12.2246 7.64223 12.2246 8.70309C12.2246 9.76396 11.8032 10.7814 11.053 11.5315C10.3029 12.2817 9.28548 12.7031 8.22461 12.7031C7.16374 12.7031 6.14633 12.2817 5.39618 11.5315C4.64604 10.7814 4.22461 9.76396 4.22461 8.70309C4.22461 7.64223 4.64604 6.62481 5.39618 5.87467C6.14633 5.12452 7.16374 4.70309 8.22461 4.70309ZM8.22461 6.30309C7.58809 6.30309 6.97764 6.55595 6.52755 7.00604C6.07747 7.45613 5.82461 8.06658 5.82461 8.70309C5.82461 9.33961 6.07747 9.95006 6.52755 10.4002C6.97764 10.8502 7.58809 11.1031 8.22461 11.1031C8.86113 11.1031 9.47158 10.8502 9.92167 10.4002C10.3718 9.95006 10.6246 9.33961 10.6246 8.70309C10.6246 8.06658 10.3718 7.45613 9.92167 7.00604C9.47158 6.55595 8.86113 6.30309 8.22461 6.30309Z" fill="#2E90FA"/>
</svg>
