<svg width="15" height="15" viewBox="0 0 15 15" fill="none" xmlns="http://www.w3.org/2000/svg">
<path d="M12.0254 0.503098C12.6619 0.503098 13.2724 0.755954 13.7224 1.20604C14.1725 1.65613 14.4254 2.26658 14.4254 2.9031V12.5031C14.4254 13.1396 14.1725 13.7501 13.7224 14.2002C13.2724 14.6502 12.6619 14.9031 12.0254 14.9031H2.42539C1.78887 14.9031 1.17842 14.6502 0.728334 14.2002C0.278247 13.7501 0.0253906 13.1396 0.0253906 12.5031V2.9031C0.0253906 2.26658 0.278247 1.65613 0.728334 1.20604C1.17842 0.755954 1.78887 0.503098 2.42539 0.503098H12.0254ZM12.0254 2.1031H2.42539C2.21322 2.1031 2.00973 2.18738 1.85971 2.33741C1.70968 2.48744 1.62539 2.69092 1.62539 2.9031V12.5031C1.62539 12.7153 1.70968 12.9188 1.85971 13.0688C2.00973 13.2188 2.21322 13.3031 2.42539 13.3031H12.0254C12.2376 13.3031 12.441 13.2188 12.5911 13.0688C12.7411 12.9188 12.8254 12.7153 12.8254 12.5031V2.9031C12.8254 2.69092 12.7411 2.48744 12.5911 2.33741C12.441 2.18738 12.2376 2.1031 12.0254 2.1031ZM4.02539 6.1031C4.22134 6.10312 4.41046 6.17506 4.55689 6.30527C4.70332 6.43548 4.79686 6.6149 4.81979 6.8095L4.82539 6.9031V10.9031C4.82516 11.107 4.74709 11.3031 4.60711 11.4514C4.46714 11.5997 4.27583 11.6889 4.07227 11.7008C3.86872 11.7128 3.66829 11.6466 3.51192 11.5157C3.35556 11.3848 3.25507 11.1992 3.23099 10.9967L3.22539 10.9031V6.9031C3.22539 6.69092 3.30968 6.48744 3.45971 6.33741C3.60973 6.18738 3.81322 6.1031 4.02539 6.1031ZM6.42539 5.3031C6.61275 5.30307 6.79417 5.3688 6.93803 5.48883C7.08189 5.60886 7.17905 5.77557 7.21259 5.9599C7.37373 5.86684 7.54014 5.78323 7.71099 5.7095C8.24459 5.4815 9.04379 5.3559 9.76539 5.5823C10.1438 5.7023 10.5238 5.9263 10.8054 6.3079C11.0574 6.6479 11.1934 7.0615 11.2206 7.5263L11.2254 7.7031V10.9031C11.2252 11.107 11.1471 11.3031 11.0071 11.4514C10.8671 11.5997 10.6758 11.6889 10.4723 11.7008C10.2687 11.7128 10.0683 11.6466 9.91192 11.5157C9.75556 11.3848 9.65507 11.1992 9.63099 10.9967L9.62539 10.9031V7.7031C9.62539 7.4391 9.56139 7.3159 9.51979 7.2591C9.46 7.18491 9.37775 7.13213 9.28539 7.1087C9.00699 7.0207 8.60619 7.0671 8.33979 7.1807C7.93979 7.3519 7.57339 7.6207 7.32379 7.8695L7.22539 7.9751V10.9031C7.22516 11.107 7.14709 11.3031 7.00711 11.4514C6.86714 11.5997 6.67583 11.6889 6.47227 11.7008C6.26872 11.7128 6.06829 11.6466 5.91192 11.5157C5.75556 11.3848 5.65507 11.1992 5.63099 10.9967L5.62539 10.9031V6.1031C5.62539 5.89092 5.70968 5.68744 5.8597 5.53741C6.00973 5.38738 6.21322 5.3031 6.42539 5.3031ZM4.02539 3.7031C4.23756 3.7031 4.44105 3.78738 4.59108 3.93741C4.7411 4.08744 4.82539 4.29092 4.82539 4.5031C4.82539 4.71527 4.7411 4.91875 4.59108 5.06878C4.44105 5.21881 4.23756 5.3031 4.02539 5.3031C3.81322 5.3031 3.60973 5.21881 3.45971 5.06878C3.30968 4.91875 3.22539 4.71527 3.22539 4.5031C3.22539 4.29092 3.30968 4.08744 3.45971 3.93741C3.60973 3.78738 3.81322 3.7031 4.02539 3.7031Z" fill="#2E90FA"/>
</svg>
