<svg width="16" height="13" viewBox="0 0 16 13" fill="none" xmlns="http://www.w3.org/2000/svg">
<path d="M3.05101 12.6766V11.8802C3.05101 11.5748 2.86437 11.3758 2.54446 11.3758C2.38454 11.3758 2.21126 11.4289 2.09129 11.6014C1.99803 11.4554 1.86476 11.3758 1.66483 11.3758C1.5315 11.3758 1.39829 11.4156 1.29161 11.5616V11.4023H1.01172V12.6766H1.29161V11.9731C1.29161 11.7475 1.41159 11.6412 1.59822 11.6412C1.78474 11.6412 1.87812 11.7607 1.87812 11.9731V12.6766H2.15801V11.9731C2.15801 11.7475 2.29122 11.6412 2.4645 11.6412C2.65114 11.6412 2.7444 11.7607 2.7444 11.9731V12.6766H3.05101ZM7.19607 11.4023H6.74295V11.0174H6.46306V11.4023H6.20982V11.6545H6.463V12.2386C6.463 12.5307 6.58297 12.7032 6.90288 12.7032C7.02285 12.7032 7.15606 12.6634 7.24944 12.6103L7.16942 12.3713C7.08945 12.4244 6.9962 12.4377 6.92953 12.4377C6.79626 12.4377 6.74295 12.3581 6.74295 12.2253V11.6545H7.19607V11.4023ZM9.56856 11.3757C9.40864 11.3757 9.30202 11.4554 9.23536 11.5616V11.4023H8.95546V12.6766H9.23536V11.9598C9.23536 11.7475 9.32862 11.628 9.5019 11.628C9.55521 11.628 9.62187 11.6413 9.67518 11.6545L9.75514 11.3891C9.70183 11.3758 9.62187 11.3758 9.56856 11.3758M5.98323 11.5086C5.8499 11.4156 5.66332 11.3758 5.46339 11.3758C5.14354 11.3758 4.93031 11.5351 4.93031 11.7873C4.93031 11.9998 5.09024 12.1192 5.37013 12.159L5.5034 12.1723C5.65003 12.1988 5.72999 12.2387 5.72999 12.3051C5.72999 12.3979 5.62337 12.4643 5.43674 12.4643C5.2501 12.4643 5.10353 12.3979 5.01021 12.3316L4.87695 12.544C5.02357 12.6502 5.22351 12.7032 5.42338 12.7032C5.79659 12.7032 6.00988 12.5307 6.00988 12.2918C6.00988 12.0661 5.8366 11.9466 5.57001 11.9068L5.43674 11.8935C5.31676 11.8802 5.22351 11.8537 5.22351 11.7741C5.22351 11.6811 5.31676 11.628 5.46339 11.628C5.62337 11.628 5.7833 11.6944 5.86326 11.7342L5.98323 11.5086ZM13.4205 11.3758C13.2605 11.3758 13.1539 11.4555 13.0872 11.5617V11.4024H12.8073V12.6767H13.0872V11.9599C13.0872 11.7475 13.1805 11.628 13.3538 11.628C13.4071 11.628 13.4738 11.6414 13.5271 11.6546L13.6071 11.3891C13.5538 11.3758 13.4738 11.3758 13.4205 11.3758ZM9.84846 12.0395C9.84846 12.4245 10.115 12.7032 10.5282 12.7032C10.7148 12.7032 10.8481 12.6635 10.9813 12.5573L10.8481 12.3316C10.7415 12.4112 10.6348 12.451 10.5149 12.451C10.2883 12.451 10.1284 12.2918 10.1284 12.0395C10.1284 11.8006 10.2883 11.6413 10.5149 11.628C10.6348 11.628 10.7415 11.6678 10.8481 11.7475L10.9813 11.5219C10.8481 11.4156 10.7148 11.3758 10.5282 11.3758C10.115 11.3758 9.84846 11.6546 9.84846 12.0395ZM12.4342 12.0395V11.4024H12.1543V11.5617C12.061 11.4422 11.9277 11.3758 11.7544 11.3758C11.3946 11.3758 11.1147 11.6546 11.1147 12.0395C11.1147 12.4245 11.3946 12.7032 11.7544 12.7032C11.941 12.7032 12.0743 12.6369 12.1543 12.5174V12.6767H12.4342V12.0395ZM11.4079 12.0395C11.4079 11.8139 11.5545 11.628 11.7944 11.628C12.021 11.628 12.1809 11.8006 12.1809 12.0395C12.1809 12.2652 12.021 12.451 11.7944 12.451C11.5545 12.4377 11.4079 12.2652 11.4079 12.0395ZM8.06247 11.3758C7.68926 11.3758 7.42266 11.6413 7.42266 12.0395C7.42266 12.4378 7.6892 12.7032 8.07577 12.7032C8.26234 12.7032 8.44898 12.6502 8.59561 12.5307L8.46228 12.3316C8.35566 12.4112 8.22239 12.4643 8.08912 12.4643C7.91584 12.4643 7.74256 12.3847 7.70255 12.159H8.64892V12.0528C8.66227 11.6413 8.42239 11.3758 8.06247 11.3758ZM8.06241 11.6147C8.23563 11.6147 8.35566 11.721 8.38226 11.9201H7.71585C7.7425 11.7475 7.86248 11.6147 8.06241 11.6147ZM15.0065 12.0395V10.8979H14.7266V11.5617C14.6333 11.4422 14.5 11.3758 14.3267 11.3758C13.9669 11.3758 13.687 11.6546 13.687 12.0395C13.687 12.4245 13.9669 12.7032 14.3267 12.7032C14.5134 12.7032 14.6466 12.6369 14.7266 12.5174V12.6767H15.0065V12.0395ZM13.9802 12.0395C13.9802 11.8139 14.1268 11.628 14.3667 11.628C14.5933 11.628 14.7532 11.8006 14.7532 12.0395C14.7532 12.2652 14.5933 12.451 14.3667 12.451C14.1268 12.4377 13.9802 12.2652 13.9802 12.0395ZM4.62364 12.0395V11.4024H4.34375V11.5617C4.25043 11.4422 4.11716 11.3758 3.94388 11.3758C3.58402 11.3758 3.30413 11.6546 3.30413 12.0395C3.30413 12.4245 3.58402 12.7032 3.94388 12.7032C4.13052 12.7032 4.26379 12.6369 4.34375 12.5174V12.6767H4.62364V12.0395ZM3.58402 12.0395C3.58402 11.8139 3.73065 11.628 3.97053 11.628C4.19712 11.628 4.35711 11.8006 4.35711 12.0395C4.35711 12.2652 4.19712 12.451 3.97053 12.451C3.73065 12.4377 3.58402 12.2652 3.58402 12.0395Z" fill="black"/>
<path d="M5.88867 1.7251H10.0871V9.2384H5.88867V1.7251Z" fill="#FF5F00"/>
<path d="M6.15578 5.48191C6.15578 3.95538 6.87549 2.60136 7.98172 1.72523C7.16875 1.08807 6.14248 0.703125 5.0229 0.703125C2.37045 0.703125 0.224609 2.84027 0.224609 5.48191C0.224609 8.12355 2.37045 10.2607 5.02284 10.2607C6.14242 10.2607 7.16868 9.87575 7.98172 9.23853C6.87549 8.37571 6.15578 7.00845 6.15578 5.48191Z" fill="#EB001B"/>
<path d="M15.7532 5.48191C15.7532 8.12349 13.6074 10.2607 10.955 10.2607C9.83539 10.2607 8.80913 9.87575 7.99609 9.23853C9.11568 8.36246 9.82209 7.00845 9.82209 5.48191C9.82209 3.95538 9.10232 2.60136 7.99609 1.72523C8.80907 1.08807 9.83539 0.703125 10.955 0.703125C13.6074 0.703125 15.7532 2.85358 15.7532 5.48191Z" fill="#F79E1B"/>
</svg>
