<svg width="16" height="16" viewBox="0 0 16 16" fill="none" xmlns="http://www.w3.org/2000/svg">
<path d="M8 0C10.1217 0 12.1566 0.842855 13.6569 2.34315C15.1571 3.84344 16 5.87827 16 8C16 10.1217 15.1571 12.1566 13.6569 13.6569C12.1566 15.1571 10.1217 16 8 16C5.87827 16 3.84344 15.1571 2.34315 13.6569C0.842855 12.1566 0 10.1217 0 8C0 5.87827 0.842855 3.84344 2.34315 2.34315C3.84344 0.842855 5.87827 0 8 0ZM4 8C4 8.18186 4.07225 8.35628 4.20084 8.48487C4.32944 8.61347 4.50385 8.68571 4.68571 8.68571H11.3143C11.4961 8.68571 11.6706 8.61347 11.7992 8.48487C11.9278 8.35628 12 8.18186 12 8C12 7.81814 11.9278 7.64372 11.7992 7.51513C11.6706 7.38653 11.4961 7.31429 11.3143 7.31429H4.68571C4.59566 7.31429 4.5065 7.33202 4.4233 7.36648C4.34011 7.40094 4.26452 7.45145 4.20084 7.51513C4.13717 7.5788 4.08666 7.65439 4.0522 7.73759C4.01774 7.82078 4 7.90995 4 8Z" fill="#BBBBBB"/>
</svg>
