<svg width="25" height="9" viewBox="0 0 25 9" fill="none" xmlns="http://www.w3.org/2000/svg">
<path d="M12.6368 3.26063C12.6231 4.37507 13.599 4.99693 14.3341 5.36669C15.0893 5.74604 15.343 5.98933 15.34 6.32861C15.3344 6.8478 14.7376 7.07696 14.1791 7.08586C13.2048 7.10144 12.6382 6.81432 12.1879 6.59716L11.8369 8.29252C12.2887 8.50745 13.1255 8.6949 13.9931 8.70312C16.0298 8.70312 17.3623 7.66534 17.3695 6.0563C17.3775 4.0142 14.6331 3.90117 14.6519 2.98841C14.6584 2.71164 14.9142 2.41629 15.4748 2.3412C15.7523 2.30326 16.5184 2.27423 17.3869 2.68706L17.7277 1.04676C17.2607 0.871219 16.6604 0.703125 15.913 0.703125C13.996 0.703125 12.6477 1.75504 12.6368 3.26063ZM21.0032 0.844413C20.6313 0.844413 20.3179 1.06834 20.178 1.41198L17.2686 8.58264H19.3039L19.7089 7.42727H22.1959L22.4308 8.58264H24.2246L22.6593 0.844413H21.0032ZM21.2879 2.9348L21.8752 5.84059H20.2667L21.2879 2.9348ZM10.1692 0.84451L8.56498 8.58255H10.5044L12.1079 0.844316L10.1692 0.84451ZM7.3002 0.84451L5.28158 6.11136L4.46502 1.63301C4.3692 1.13309 3.99083 0.844413 3.57064 0.844413H0.270828L0.224609 1.06912C0.902047 1.22086 1.67173 1.4656 2.13805 1.72746C2.42342 1.88743 2.5048 2.02727 2.59855 2.40739L4.14514 8.58264H6.19461L9.33673 0.844413L7.3002 0.84451Z" fill="url(#paint0_linear_6305_68776)"/>
<defs>
<linearGradient id="paint0_linear_6305_68776" x1="1103.6" y1="24.7511" x2="1127.5" y2="-796.818" gradientUnits="userSpaceOnUse">
<stop stop-color="#222357"/>
<stop offset="1" stop-color="#254AA5"/>
</linearGradient>
</defs>
</svg>
