<svg width="17" height="17" viewBox="0 0 17 17" fill="none" xmlns="http://www.w3.org/2000/svg">
<path d="M13.893 3.03113C13.1557 2.29042 12.2777 1.70311 11.31 1.30343C10.3424 0.903744 9.30448 0.699684 8.25677 0.703138C3.86682 0.703138 0.288931 4.26313 0.288931 8.63112C0.288931 10.0311 0.65878 11.3911 1.35024 12.5911L0.224609 16.7031L4.44571 15.5991C5.61154 16.2311 6.9221 16.5671 8.25677 16.5671C12.6467 16.5671 16.2246 13.0071 16.2246 8.63912C16.2246 6.51912 15.3965 4.52713 13.893 3.03113ZM8.25677 15.2231C7.06682 15.2231 5.90099 14.9031 4.87989 14.3031L4.63868 14.1591L2.13014 14.8151L2.79747 12.3831L2.63667 12.1351C1.9754 11.0848 1.62435 9.87053 1.6236 8.63112C1.6236 4.99913 4.59848 2.03913 8.24873 2.03913C10.0176 2.03913 11.6819 2.72713 12.9281 3.97513C13.5453 4.58622 14.0344 5.31316 14.367 6.11379C14.6996 6.91441 14.8692 7.77279 14.8658 8.63912C14.8819 12.2711 11.907 15.2231 8.25677 15.2231ZM11.8909 10.2951C11.6899 10.1991 10.709 9.71911 10.5321 9.64711C10.3472 9.58311 10.2186 9.55111 10.0819 9.74311C9.94521 9.94311 9.56732 10.3911 9.45476 10.5191C9.3422 10.6551 9.22159 10.6711 9.02059 10.5671C8.81958 10.4711 8.17637 10.2551 7.42059 9.58311C6.82561 9.05512 6.43164 8.40712 6.31104 8.20712C6.19848 8.00712 6.29496 7.90312 6.39948 7.79912C6.48793 7.71112 6.60049 7.56712 6.69697 7.45512C6.79345 7.34312 6.83365 7.25512 6.89798 7.12712C6.9623 6.99112 6.93014 6.87912 6.8819 6.78312C6.83365 6.68712 6.43164 5.71112 6.27084 5.31113C6.11004 4.92713 5.94119 4.97513 5.82059 4.96713H5.43466C5.29798 4.96713 5.08893 5.01513 4.90401 5.21513C4.72712 5.41512 4.21255 5.89512 4.21255 6.87112C4.21255 7.84712 4.92813 8.79112 5.02461 8.91912C5.12109 9.05512 6.43164 11.0551 8.42561 11.9111C8.89999 12.1191 9.26983 12.2391 9.55928 12.3271C10.0337 12.4791 10.4678 12.4551 10.8136 12.4071C11.1995 12.3511 11.9955 11.9271 12.1563 11.4631C12.3251 10.9991 12.3251 10.6071 12.2688 10.5191C12.2125 10.4311 12.0919 10.3911 11.8909 10.2951Z" fill="#2E90FA"/>
</svg>
