<svg width="19" height="17" viewBox="0 0 19 17" fill="none" xmlns="http://www.w3.org/2000/svg">
<path d="M16.3803 9.09261L13.8027 13.5926C13.4891 14.139 12.9351 14.4046 12.586 14.1567C12.5708 14.1466 12.5607 14.1314 12.5481 14.1213C12.328 14.0074 12.0953 13.8177 11.9005 13.5825L10.6484 11.9585C10.4081 11.6474 10.4663 11.2098 10.742 10.9847C10.995 10.7773 11.3643 10.8076 11.5945 11.0504L12.7606 12.2747C12.7909 12.3076 12.8213 12.3506 12.8541 12.3936L15.4772 8.52094C15.6568 8.25787 15.9882 8.1744 16.2285 8.32364C16.4688 8.47541 16.5396 8.81436 16.3803 9.09261Z" fill="white"/>
<path fill-rule="evenodd" clip-rule="evenodd" d="M8.0133 7.14844L8.00139 15.6881L10.0917 14.9099C9.11096 13.9971 8.49757 12.6951 8.49757 11.25C8.49757 8.48856 10.7372 6.24998 13.5 6.24998C13.861 6.24998 14.2131 6.2882 14.5524 6.3608V4.7221L8.0133 7.14844ZM7.52496 0.75L0.509469 3.22702L7.52496 5.71038L14.5404 3.22702L7.52496 0.75ZM0.497559 13.2491L7.04257 15.6881L7.03661 7.14844L0.497559 4.7221V13.2491Z" fill="white"/>
<path d="M18.2525 11.25C18.2525 13.8732 16.1248 16 13.5 16C10.8752 16 8.74756 13.8732 8.74756 11.25C8.74756 8.62676 10.8752 6.5 13.5 6.5C16.1248 6.5 18.2525 8.62676 18.2525 11.25Z" stroke="white" stroke-width="0.5"/>
</svg>
