<svg width="18" height="16" viewBox="0 0 18 16" fill="none" xmlns="http://www.w3.org/2000/svg">
<path d="M9.01573 5.70375C8.95529 5.67225 8.88733 5.65805 8.81934 5.66274C8.75134 5.66742 8.68597 5.69081 8.63043 5.7303C8.57488 5.7698 8.53134 5.82387 8.50459 5.88656C8.47784 5.94924 8.46893 6.0181 8.47885 6.08553C8.54562 6.61699 8.75598 7.1202 9.08731 7.54106L9.26627 7.69616C9.61263 8.04464 9.88352 8.46069 10.0621 8.91841C10.2407 9.37614 10.3231 9.86572 10.3042 10.3567C10.2472 11.4492 9.77878 12.4797 8.99309 13.2411C8.20741 14.0024 7.16268 14.4382 6.06887 14.4608C5.12916 14.4664 4.22497 14.1021 3.55151 13.4467C3.21095 13.0976 2.94532 12.6826 2.77093 12.2271C2.59654 11.7717 2.51708 11.2854 2.53741 10.7981C2.58683 9.72973 3.03862 8.7196 3.80205 7.97056C4.30174 7.46893 4.91592 7.09633 5.59165 6.88488C5.49412 6.4581 5.44213 6.02219 5.43655 5.58444V5.39355C4.39146 5.64402 3.43701 6.18116 2.68058 6.94453C2.16499 7.42733 1.74975 8.00712 1.45863 8.65068C1.16752 9.29424 1.00626 9.98892 0.98409 10.6949C0.961924 11.4009 1.07929 12.1043 1.32946 12.7649C1.57963 13.4254 1.95768 14.0301 2.44197 14.5443C2.91094 15.0139 3.46933 15.3847 4.0841 15.6347C4.69887 15.8847 5.35754 16.0089 6.02115 15.9999C6.77162 15.9961 7.51401 15.8445 8.20591 15.5539C8.89782 15.2632 9.5257 14.8391 10.0537 14.3057C11.0945 13.3285 11.7054 11.9785 11.7523 10.5516C11.7993 9.12477 11.2785 7.73749 10.3042 6.69399C9.93205 6.29536 9.49672 5.9608 9.01573 5.70375Z" fill="white"/>
<path d="M15.5299 1.45599C15.0609 0.986399 14.5025 0.615632 13.8877 0.365624C13.273 0.115616 12.6143 -0.00855436 11.9507 0.000457643C10.4392 0.011224 8.9935 0.620385 7.93009 1.6946C6.88927 2.67178 6.2784 4.0218 6.23144 5.44868C6.18447 6.87555 6.70523 8.26282 7.67954 9.30633C8.07137 9.68714 8.52271 10.0015 9.01577 10.2369C9.07525 10.2675 9.14192 10.2815 9.20869 10.2772C9.27545 10.2729 9.33981 10.2506 9.3949 10.2127C9.44999 10.1747 9.49376 10.1225 9.52154 10.0617C9.54932 10.0008 9.56007 9.93355 9.55265 9.86707C9.48821 9.32924 9.27315 8.82055 8.93226 8.3996L8.7533 8.2445C8.40909 7.89502 8.14039 7.47851 7.96389 7.02083C7.78739 6.56316 7.70685 6.07408 7.72727 5.58398C7.7843 4.49142 8.25272 3.46093 9.03841 2.69958C9.82409 1.93824 10.8688 1.50248 11.9626 1.47985C12.9023 1.47431 13.8065 1.83856 14.48 2.49395C14.8206 2.84305 15.0862 3.25806 15.2606 3.71352C15.435 4.16898 15.5144 4.65527 15.4941 5.14255C15.4447 6.21093 14.9929 7.22107 14.2294 7.9701C13.7298 8.47173 13.1156 8.84433 12.4399 9.05578C12.5417 9.50202 12.5937 9.95817 12.595 10.4159V10.6068C13.64 10.3563 14.5945 9.81916 15.3509 9.05578C15.8625 8.56898 16.2729 7.98605 16.5588 7.34038C16.8448 6.6947 17.0005 5.99897 17.0171 5.29302C17.0337 4.58707 16.9109 3.88477 16.6557 3.22635C16.4005 2.56793 16.0179 1.96633 15.5299 1.45599Z" fill="white"/>
</svg>
