<svg width="16" height="16" viewBox="0 0 16 16" fill="none" xmlns="http://www.w3.org/2000/svg">
<path d="M15.9986 5.14252C16.0346 6.42053 15.5817 7.66413 14.7323 8.6197C13.8829 9.57528 12.701 10.1709 11.4276 10.285C11.4182 9.8937 11.3408 9.50702 11.199 9.14222C12.193 9.04 13.1147 8.57606 13.789 7.83861C14.4632 7.10117 14.8429 6.14165 14.8559 5.14252C14.8521 4.11186 14.4514 3.12226 13.737 2.37932C13.0227 1.63639 12.0495 1.19724 11.0198 1.15311C9.99008 1.10898 8.98293 1.46326 8.20761 2.14235C7.43229 2.82144 6.9484 3.77312 6.85647 4.79969C6.48852 4.66893 6.10363 4.59196 5.7137 4.57114C5.88336 3.32048 6.49524 2.17191 7.43856 1.33341C8.38187 0.49491 9.59425 0.0219053 10.8562 4.62328e-05C11.5323 -0.00282675 12.2023 0.128226 12.8275 0.385642C13.4527 0.643058 14.0208 1.02174 14.4989 1.49984C14.977 1.97793 15.3556 2.54598 15.6131 3.17119C15.8705 3.7964 16.0015 4.4664 15.9986 5.14252ZM5.14231 5.71391C3.77829 5.71391 2.47014 6.25576 1.50563 7.22027C0.541122 8.18478 -0.000732422 9.49293 -0.000732422 10.857C-0.000732422 12.221 0.541122 13.5291 1.50563 14.4936C2.47014 15.4581 3.77829 16 5.14231 16C6.50618 16 7.81419 15.4582 8.77859 14.4938C9.74299 13.5294 10.2848 12.2214 10.2848 10.8575C10.2848 9.49366 9.74299 8.18565 8.77859 7.22125C7.81419 6.25684 6.50618 5.71391 5.14231 5.71391Z" fill="white"/>
</svg>
