<svg width="17" height="17" viewBox="0 0 17 17" fill="none" xmlns="http://www.w3.org/2000/svg">
<path fill-rule="evenodd" clip-rule="evenodd" d="M15.1898 2.28384C15.1192 2.23781 15.0339 2.22072 14.9523 2.23781L6.03085 0.973977C5.96751 0.964771 5.90662 0.975292 5.85303 1.00159L0.699873 3.44773C0.57077 3.50822 0.496475 3.64631 0.500129 3.78834V14.4316C0.500129 14.625 0.641411 14.7828 0.818014 14.7907L11.0902 16.0243C11.1073 16.0282 11.1255 16.0295 11.1438 16.0295C11.2133 16.0295 11.2776 16.0073 11.331 15.9679C10.2829 15.9331 9.31642 15.5757 8.52779 14.9918L1.16878 14.1094V4.19735L3.52674 4.52218L3.20885 9.25006L4.74713 8.31106L6.2854 9.44207L6.42912 4.92198L10.8101 5.52562V6.01791C11.0288 5.98773 11.252 5.97169 11.4787 5.97075V5.42436L14.7343 3.20837L14.7608 7.18018C15.0059 7.39124 15.2303 7.62566 15.4306 7.87999L15.3957 2.61525C15.3957 2.46533 15.3104 2.33776 15.1898 2.28384ZM6.88585 4.25916L10.1171 2.27858L14.0352 2.83356L11.089 4.83781L6.88585 4.25916ZM7.07098 1.84722L3.93841 3.85279L2.0518 3.59371L6.03815 1.70124L7.07098 1.84722Z" fill="white"/>
<circle cx="11.5" cy="10.9707" r="4.75" stroke="white" stroke-width="0.5"/>
<path d="M14.6386 13.2348L13.7102 12.3064C13.6248 12.2209 13.487 12.2209 13.4016 12.3064L13.3768 12.3311C13.3768 12.3311 12.9167 11.8766 12.9057 11.8655C13.2694 11.4137 13.487 10.8379 13.487 10.2125C13.487 8.75226 12.3051 7.57031 10.8449 7.57031C9.38465 7.57031 8.19995 8.75226 8.19995 10.2125C8.19995 11.6727 9.38189 12.8546 10.8421 12.8546C11.4675 12.8546 12.0433 12.637 12.4952 12.2733C12.5034 12.2843 12.9608 12.7444 12.9608 12.7444L12.936 12.7692C12.8506 12.8546 12.8506 12.9924 12.936 13.0778L13.8645 14.0063C13.9499 14.0917 14.0876 14.0917 14.173 14.0063L14.6386 13.5406C14.7241 13.458 14.7241 13.3202 14.6386 13.2348ZM10.8421 11.838C9.94394 11.838 9.21934 11.1106 9.21934 10.2125C9.21934 9.3143 9.94669 8.58695 10.8449 8.58695C11.743 8.58695 12.4704 9.3143 12.4704 10.2125C12.4676 11.1106 11.7403 11.838 10.8421 11.838Z" fill="white"/>
</svg>
