<svg width="17" height="17" viewBox="0 0 17 17" fill="none" xmlns="http://www.w3.org/2000/svg">
<path d="M10.4588 1.86508H9.21433C9.09369 1.09048 8.43337 0.5 7.62702 0.5C6.82068 0.5 6.16036 1.09048 6.03972 1.86508H4.83337V4.05556H10.4651V1.86508H10.4588Z" fill="white"/>
<path d="M10.7034 14.5L10.7085 11.07L13.5 10.0954V13.5204L10.7034 14.5ZM7.50508 9.49491L10.5 8.5L13.4949 9.49491L10.5 10.4924L7.50508 9.49491ZM10.2941 14.5L7.5 13.5204V10.0954L10.2915 11.07L10.2941 14.5Z" fill="white"/>
<path fill-rule="evenodd" clip-rule="evenodd" d="M11.6079 1.90332H13.1762C13.5127 1.90332 13.7857 2.17634 13.7857 2.51919V7.7312C12.907 6.96452 11.7577 6.50012 10.5 6.50012C9.4624 6.50012 8.49862 6.81618 7.69968 7.35727H4.42064V8.11918H6.81632C6.39528 8.57768 6.05873 9.115 5.83135 9.70648H4.42064V10.4684H5.60657C5.53672 10.8013 5.5 11.1464 5.5 11.5001C5.5 11.7097 5.5129 11.9163 5.53795 12.1192H4.42064V12.8811H5.69315C5.99533 13.9349 6.63465 14.8461 7.48691 15.4906H2.11587C1.77302 15.4906 1.5 15.2113 1.5 14.8747V2.51919C1.5 2.17634 1.77937 1.90332 2.11587 1.90332H3.68413V5.03348H11.6079V1.90332ZM3.30369 7.04351C3.17887 7.05732 3.0484 7.115 2.95181 7.19912C2.9247 7.22315 2.87274 7.27843 2.85184 7.30666C2.8253 7.34151 2.79593 7.39138 2.77503 7.43704C2.61236 7.78732 2.74848 8.21149 3.07946 8.38513C3.30369 8.50289 3.57254 8.47645 3.77305 8.31604C3.80355 8.292 3.86059 8.23312 3.8877 8.19888C3.95096 8.11837 4.00179 8.00782 4.02382 7.90327C4.09047 7.58424 3.94249 7.258 3.6663 7.1132C3.55503 7.05492 3.42569 7.02969 3.30369 7.04351ZM3.70866 7.48571C3.72843 7.50133 3.73577 7.52536 3.72899 7.54819C3.72617 7.5566 3.6663 7.62269 3.50985 7.78912L3.48904 7.81119C3.30965 8.00159 3.2891 8.02341 3.2697 8.02242C3.2672 8.02229 3.26471 8.02178 3.26189 8.02121L3.25794 8.02043C3.24777 8.01863 3.23139 8.00241 3.13142 7.89667L3.12554 7.89041L3.12554 7.89041C3.03107 7.78992 3.0135 7.77124 3.01312 7.75221C3.01303 7.74786 3.01384 7.7435 3.01483 7.73814L3.01507 7.73685C3.0179 7.72003 3.0371 7.6996 3.05291 7.69659C3.08115 7.69059 3.08172 7.69119 3.1794 7.7945L3.17943 7.79453L3.2698 7.89066L3.46127 7.68698C3.56633 7.57463 3.65613 7.4815 3.66065 7.4797C3.67307 7.47489 3.69849 7.4779 3.70866 7.48571ZM2.95182 9.56967C3.0484 9.48556 3.17887 9.42788 3.30369 9.41406C3.42569 9.40024 3.55503 9.42547 3.6663 9.48375C3.94249 9.62855 4.09047 9.95479 4.02383 10.2738C4.0018 10.3784 3.95097 10.4889 3.88771 10.5694C3.8606 10.6037 3.80355 10.6626 3.77305 10.6866C3.57254 10.847 3.30369 10.8734 3.07947 10.7557C2.74849 10.582 2.61237 10.1579 2.77503 9.80759C2.79593 9.76193 2.8253 9.71206 2.85185 9.67722C2.87275 9.64898 2.92471 9.5937 2.95182 9.56967ZM3.729 9.91875C3.73577 9.89591 3.72843 9.87188 3.70866 9.85626C3.6985 9.84845 3.67308 9.84545 3.66065 9.85025C3.65614 9.85205 3.56633 9.94518 3.46128 10.0575L3.26981 10.2612L3.17944 10.1651L3.17941 10.1651C3.08172 10.0617 3.08116 10.0611 3.05292 10.0671C3.0371 10.0702 3.0179 10.0906 3.01508 10.1074L3.01484 10.1087C3.01385 10.1141 3.01304 10.1184 3.01312 10.1228C3.01351 10.1418 3.03107 10.1605 3.12553 10.2609L3.12554 10.261L3.12555 10.261L3.13143 10.2672C3.2314 10.373 3.24778 10.3892 3.25795 10.391L3.2619 10.3918C3.26471 10.3923 3.2672 10.3928 3.26971 10.393C3.2891 10.394 3.30966 10.3721 3.48906 10.1817L3.50985 10.1597C3.6663 9.99325 3.72617 9.92716 3.729 9.91875ZM3.30369 11.7846C3.17887 11.7984 3.0484 11.8561 2.95182 11.9402C2.92471 11.9642 2.87275 12.0195 2.85185 12.0478C2.8253 12.0826 2.79593 12.1325 2.77503 12.1781C2.61237 12.5284 2.74849 12.9526 3.07947 13.1262C3.30369 13.244 3.57254 13.2175 3.77305 13.0571C3.80355 13.0331 3.8606 12.9742 3.88771 12.94C3.95097 12.8595 4.0018 12.7489 4.02383 12.6444C4.09047 12.3253 3.94249 11.9991 3.6663 11.8543C3.55503 11.796 3.42569 11.7708 3.30369 11.7846ZM3.70866 12.2268C3.72843 12.2424 3.73577 12.2665 3.729 12.2893C3.72617 12.2977 3.6663 12.3638 3.50985 12.5302L3.48904 12.5523C3.30966 12.7427 3.2891 12.7645 3.26971 12.7635C3.2672 12.7634 3.26471 12.7629 3.2619 12.7623L3.25795 12.7615C3.24778 12.7597 3.2314 12.7435 3.13143 12.6378L3.12553 12.6315L3.12552 12.6315C3.03107 12.531 3.01351 12.5123 3.01312 12.4933C3.01304 12.489 3.01385 12.4846 3.01484 12.4792L3.01508 12.4779C3.0179 12.4611 3.0371 12.4407 3.05292 12.4377C3.08116 12.4317 3.08172 12.4323 3.17941 12.5356L3.17944 12.5356L3.26981 12.6318L3.46128 12.4281C3.56633 12.3157 3.65614 12.2226 3.66065 12.2208C3.67308 12.216 3.6985 12.219 3.70866 12.2268Z" fill="white"/>
<circle cx="10.5" cy="11.5" r="4.85" stroke="white" stroke-width="0.3"/>
</svg>
