<svg width="19" height="17" viewBox="0 0 19 17" fill="none" xmlns="http://www.w3.org/2000/svg">
<path fill-rule="evenodd" clip-rule="evenodd" d="M7.07877 6.29835L7.06755 14.3043L8.7241 13.6904C7.83687 12.7881 7.28955 11.5505 7.28955 10.1851C7.28955 7.42364 9.52813 5.18506 12.2896 5.18506C12.6137 5.18506 12.9307 5.21591 13.2376 5.27483V4.02365L7.07877 6.29835ZM6.61882 0.299805L0.0112183 2.62201L6.61882 4.95016L13.2264 2.62201L6.61882 0.299805ZM0 12.0177L6.16448 14.3043L6.15887 6.29835L0 4.02365V12.0177Z" fill="white"/>
<path d="M12.2663 5.71038C10.1133 5.8474 8.33785 7.52942 8.03495 9.71699C7.98835 10.0477 7.98835 10.6289 8.03495 10.9691C8.14213 11.7486 8.45435 12.5046 8.93434 13.1566C9.1254 13.4118 9.57276 13.8559 9.83838 14.059C10.2485 14.3662 10.831 14.6685 11.2224 14.7725L11.3576 14.8103L11.7304 14.4323C11.9354 14.2244 12.1032 14.0496 12.0985 14.0449C12.0985 14.0449 12.0146 14.0213 11.9121 14.0071C11.1898 13.8701 10.5514 13.5393 10.0248 13.0291C9.49354 12.5141 9.13472 11.8715 8.98094 11.158C8.72463 9.9863 9.01822 8.80511 9.80576 7.87433C10.5327 7.01442 11.7443 6.5136 12.8534 6.62226C13.352 6.66951 13.7342 6.77346 14.1629 6.98607C15.2021 7.49635 15.929 8.4413 16.176 9.61304C16.218 9.81148 16.2273 9.9107 16.2273 10.317V10.7942H16.67C17.1127 10.7942 17.1173 10.7942 17.1267 10.7423C17.15 10.6525 17.1406 10.0383 17.108 9.78786C16.9822 8.77203 16.5581 7.86488 15.8685 7.14199C14.9178 6.12616 13.641 5.62061 12.2663 5.71038Z" fill="white"/>
<path d="M12.1171 8.26635V8.51204L12.0099 8.54039C11.7909 8.59709 11.5206 8.8097 11.3808 9.02704C11.227 9.268 11.1711 9.63654 11.2456 9.92475C11.3482 10.3216 11.6744 10.6476 12.0612 10.7516C12.145 10.7752 12.2895 10.7847 12.5085 10.7847C12.872 10.7847 12.9559 10.8083 13.0071 10.9122C13.0631 11.0209 13.0537 11.1059 12.9699 11.191L12.8953 11.2666H12.0518H11.213V11.7249V12.1832H11.6651H12.1171V12.4241V12.6651H12.5691H13.0211V12.4147V12.1643L13.119 12.1407C13.3333 12.084 13.5617 11.9233 13.7108 11.7249C14.1022 11.1957 13.9764 10.4397 13.4359 10.0759C13.2075 9.92475 13.0584 9.88695 12.6204 9.8775L12.2336 9.86805L12.1777 9.80663C12.1078 9.73103 12.0938 9.58929 12.1497 9.50897C12.2243 9.39557 12.2476 9.39557 13.1283 9.39557H13.9438V8.93727V8.47897H13.4825H13.0211V8.25218V8.02539H12.5691H12.1171V8.26635Z" fill="white"/>
<path d="M16.2459 12.2073V12.6656H16.8423H17.4388L16.6093 13.5066L15.7845 14.3476L15.2253 13.7807C14.8572 13.4074 14.6381 13.2043 14.5869 13.1806C14.4844 13.1381 14.3352 13.1381 14.2281 13.1806C14.1721 13.2043 13.7201 13.6484 12.7462 14.6359L11.3435 16.058L11.6604 16.3793L11.9773 16.7006L13.1842 15.4769C13.8459 14.8059 14.4005 14.2532 14.4098 14.2532C14.4238 14.2532 14.6754 14.4988 14.969 14.8012C15.2673 15.1036 15.5375 15.3635 15.5702 15.3824C15.6727 15.4391 15.7752 15.4532 15.8917 15.4296C15.9989 15.406 16.0222 15.3824 17.0334 14.3618C17.6019 13.7901 18.0726 13.3176 18.0819 13.3176C18.0912 13.3176 18.0959 13.587 18.0959 13.9177V14.5177H18.5479H18.9999V13.1334V11.749H17.6252H16.2505L16.2459 12.2073Z" fill="white"/>
</svg>
