<svg width="19" height="17" viewBox="0 0 19 17" fill="none" xmlns="http://www.w3.org/2000/svg">
<path d="M13.7767 7.28286C13.7469 7.30027 13.7095 7.34007 13.6897 7.36992C13.6573 7.42215 13.6573 7.45448 13.6573 8.02903V8.63343H12.4634C11.6476 8.63343 11.2447 8.64089 11.185 8.65084C10.9885 8.69312 10.8368 8.815 10.7473 8.99905C10.705 9.09606 10.6975 9.1259 10.6975 9.25026C10.6975 9.37711 10.7025 9.40447 10.7522 9.50396C10.8194 9.64076 10.9512 9.76512 11.0855 9.81984L11.18 9.85715L12.4187 9.86212L13.6548 9.8671V10.4615C13.6548 10.9938 13.6573 11.0635 13.6847 11.1157C13.727 11.2027 13.809 11.25 13.9135 11.25H14.003L14.983 10.5362C15.5203 10.1432 16.0824 9.73528 16.2291 9.62832C16.3734 9.52137 16.5077 9.41442 16.5251 9.38955C16.5724 9.31493 16.5798 9.22788 16.5425 9.1458C16.5151 9.07865 16.4132 9.00154 15.2889 8.18324C14.6174 7.69326 14.0503 7.28286 14.0329 7.27043C13.9782 7.23809 13.8389 7.24555 13.7767 7.28286Z" fill="white"/>
<path d="M13.7767 11.2829C13.7469 11.3003 13.7095 11.3401 13.6897 11.3699C13.6573 11.4221 13.6573 11.4545 13.6573 12.029V12.6334H12.4634C11.6476 12.6334 11.2447 12.6409 11.185 12.6508C10.9885 12.6931 10.8368 12.815 10.7473 12.9991C10.705 13.0961 10.6975 13.1259 10.6975 13.2503C10.6975 13.3771 10.7025 13.4045 10.7522 13.504C10.8194 13.6408 10.9512 13.7651 11.0855 13.8198L11.18 13.8571L12.4187 13.8621L13.6548 13.8671V14.4615C13.6548 14.9938 13.6573 15.0635 13.6847 15.1157C13.727 15.2027 13.809 15.25 13.9135 15.25H14.003L14.983 14.5362C15.5203 14.1432 16.0824 13.7353 16.2291 13.6283C16.3734 13.5214 16.5077 13.4144 16.5251 13.3895C16.5724 13.3149 16.5798 13.2279 16.5425 13.1458C16.5151 13.0786 16.4132 13.0015 15.2889 12.1832C14.6174 11.6933 14.0503 11.2829 14.0329 11.2704C13.9782 11.2381 13.8389 11.2456 13.7767 11.2829Z" fill="white"/>
<path fill-rule="evenodd" clip-rule="evenodd" d="M8.0133 7.14844L8.00139 15.6881L10.0917 14.9099C9.11096 13.9971 8.49757 12.6951 8.49757 11.25C8.49757 8.48856 10.7372 6.24998 13.5 6.24998C13.861 6.24998 14.2131 6.2882 14.5524 6.3608V4.7221L8.0133 7.14844ZM7.52496 0.75L0.509469 3.22702L7.52496 5.71038L14.5404 3.22702L7.52496 0.75ZM0.497559 13.2491L7.04257 15.6881L7.03661 7.14844L0.497559 4.7221V13.2491Z" fill="white"/>
<path d="M18.2525 11.25C18.2525 13.8732 16.1248 16 13.5 16C10.8752 16 8.74756 13.8732 8.74756 11.25C8.74756 8.62676 10.8752 6.5 13.5 6.5C16.1248 6.5 18.2525 8.62676 18.2525 11.25Z" stroke="white" stroke-width="0.5"/>
</svg>
