<svg width="17" height="17" viewBox="0 0 17 17" fill="none" xmlns="http://www.w3.org/2000/svg">
<path d="M5.98475 3.54099C5.62881 3.63168 5.30254 3.88673 5.14831 4.18712L5.07119 4.33449L4.29407 4.34015C3.55847 4.34582 3.51695 4.35149 3.43983 4.4025C3.29746 4.50452 3.25 4.58954 3.25 4.75391C3.25 4.91827 3.29153 5.00329 3.43983 5.10531C3.51102 5.15632 3.55847 5.16199 4.29407 5.16766L5.07119 5.17332L5.14831 5.32069C5.18983 5.40571 5.29661 5.54173 5.39746 5.63242C5.78898 6.0065 6.36441 6.10852 6.87458 5.87614C7.1 5.77411 7.36695 5.5304 7.47373 5.32069L7.55085 5.16766L10.5169 5.16199C13.4653 5.15632 13.4831 5.15632 13.5602 5.09964C13.7025 4.99762 13.75 4.9126 13.75 4.74824C13.75 4.58387 13.7085 4.49885 13.5602 4.39683C13.489 4.34015 13.4653 4.34015 10.5169 4.33449L7.55085 4.32882L7.47966 4.18146C7.21271 3.67702 6.56017 3.38796 5.98475 3.54099ZM6.48305 4.37416C6.7678 4.48752 6.83305 4.83892 6.61356 5.04863C6.43559 5.21867 6.18644 5.21867 6.00847 5.04863C5.67034 4.7199 6.04407 4.19279 6.48305 4.37416Z" fill="white"/>
<path d="M10.3688 7.03879C10.0183 7.12936 9.69737 7.37278 9.53098 7.68413L9.44779 7.83132L6.4826 7.83698C3.53523 7.84264 3.5174 7.84264 3.44015 7.89925C3.29754 8.00115 3.25 8.08606 3.25 8.25023C3.25 8.41439 3.2916 8.49931 3.44015 8.60121C3.51146 8.65782 3.53523 8.65781 6.4826 8.66348L9.44779 8.66914L9.53098 8.81632C9.64389 9.02011 9.86969 9.24655 10.0598 9.34279C10.4699 9.54658 10.8977 9.55224 11.3018 9.35977C11.4919 9.2692 11.7653 9.00879 11.8544 8.82198L11.9317 8.6748L12.7101 8.66914C13.4469 8.66348 13.4885 8.65781 13.5598 8.60687C13.7025 8.50497 13.75 8.42006 13.75 8.25589C13.75 8.09172 13.7084 8.00681 13.5598 7.90491C13.4885 7.85396 13.441 7.8483 12.7101 7.84264L11.9317 7.83698L11.8604 7.69546C11.5989 7.17465 10.9452 6.8916 10.3688 7.03879ZM10.868 7.87094C11.1532 7.98416 11.2186 8.33514 10.9987 8.5446C10.8205 8.71442 10.5709 8.71442 10.3926 8.5446C10.0539 8.22192 10.4283 7.69546 10.868 7.87094Z" fill="white"/>
<path d="M6.85696 10.5389C6.50637 10.6294 6.18548 10.8728 6.0191 11.1842L5.93591 11.3314L4.72368 11.337C3.55306 11.3427 3.51146 11.3483 3.44015 11.3993C3.29754 11.5012 3.25 11.5861 3.25 11.7503C3.25 11.9144 3.2916 11.9993 3.44015 12.1012C3.51146 12.1522 3.55306 12.1578 4.72368 12.1635L5.93591 12.1692L6.0191 12.3163C6.132 12.5201 6.35781 12.7466 6.54796 12.8428C6.95798 13.0466 7.38582 13.0522 7.7899 12.8598C7.98005 12.7692 8.2534 12.5088 8.34253 12.322L8.41978 12.1692L10.9512 12.1635C13.4588 12.1578 13.4826 12.1578 13.5598 12.1012C13.7025 11.9993 13.75 11.9144 13.75 11.7503C13.75 11.5861 13.7084 11.5012 13.5598 11.3993C13.4885 11.3427 13.4588 11.3427 10.9512 11.337L8.41978 11.3314L8.34847 11.1842C8.08107 10.6747 7.43336 10.3917 6.85696 10.5389ZM7.35611 11.371C7.64134 11.4842 7.70671 11.8352 7.48684 12.0446C7.30857 12.2144 7.059 12.2144 6.88073 12.0446C6.53608 11.722 6.91044 11.1898 7.35611 11.371Z" fill="white"/>
<path d="M14.5136 0.5H2.48644C1.38814 0.5 0.5 1.38814 0.5 2.48644V14.5136C0.5 15.6119 1.38814 16.5 2.48644 16.5H10.7712C11.1169 16.5 11.3949 16.222 11.3949 15.8763C11.3949 15.5305 11.1169 15.2525 10.7712 15.2525H2.48644C2.07966 15.2525 1.74746 14.9203 1.74746 14.5136V2.48644C1.74746 2.07966 2.07966 1.74746 2.48644 1.74746H14.5136C14.9203 1.74746 15.2525 2.07966 15.2525 2.48644V14.5136C15.2525 14.9271 14.9407 15.2525 14.5339 15.2525C14.1881 15.2525 13.9102 15.5305 13.9102 15.8763C13.9102 16.222 14.1881 16.5 14.5339 16.5C15.6186 16.5 16.5 15.6051 16.5 14.5136V2.48644C16.5 1.38814 15.6119 0.5 14.5136 0.5Z" fill="white"/>
</svg>
