<svg width="14" height="18" viewBox="0 0 14 18" fill="none" xmlns="http://www.w3.org/2000/svg">
<path fill-rule="evenodd" clip-rule="evenodd" d="M8.04572 0V3.10279H11.0811L8.04572 0ZM0 0H7.58926V3.56939H11.0811V8.06189C10.232 7.39661 9.16233 7 8 7C6.70772 7 5.52994 7.49025 4.6425 8.29492H1.6142C1.47008 8.29492 1.35334 8.41425 1.35334 8.56157C1.35334 8.7089 1.47008 8.82823 1.6142 8.82823H4.1346C3.84321 9.18292 3.59969 9.57843 3.41391 10.0049H1.6142C1.47008 10.0049 1.35334 10.1242 1.35334 10.2715C1.35334 10.4189 1.47008 10.5382 1.6142 10.5382H3.21708C3.10249 10.9136 3.03089 11.3077 3.008 11.7148H1.6142C1.47008 11.7148 1.35334 11.8342 1.35334 11.9815C1.35334 12.1288 1.47008 12.2481 1.6142 12.2481H3.00605C3.02594 12.655 3.09446 13.0492 3.20594 13.4248H1.6142C1.47008 13.4248 1.35334 13.5441 1.35334 13.6915C1.35334 13.8388 1.47008 13.9581 1.6142 13.9581H3.39797C3.74476 14.7721 4.30122 15.4754 4.99951 16H0V0ZM11.0005 16C11.0276 15.9796 11.0545 15.959 11.0811 15.9381V16H11.0005ZM5.10194 1.45218C4.80287 1.4949 4.55363 1.62783 4.34001 1.85569C3.93174 2.29244 3.8819 2.94044 4.21658 3.44603C4.28779 3.55284 4.44445 3.71187 4.55364 3.78308C5.02124 4.0964 5.60753 4.08216 6.05614 3.7451C6.09175 3.71662 6.16296 3.65016 6.2128 3.59794C6.63293 3.14932 6.67566 2.48471 6.31961 1.97912C6.05377 1.59697 5.56005 1.38572 5.10194 1.45218ZM5.35592 1.9364C5.38441 1.96013 5.38678 1.972 5.39153 2.05271L5.39627 2.1429L5.48647 2.16189C5.59328 2.18563 5.69772 2.23073 5.75944 2.28532C5.80928 2.32805 5.8615 2.42299 5.8615 2.47046C5.8615 2.57253 5.7357 2.62712 5.66449 2.55591C5.64788 2.5393 5.63364 2.51319 5.63364 2.50132C5.63364 2.48945 5.62414 2.47284 5.61465 2.46334C5.58616 2.43486 5.50071 2.40163 5.44375 2.39451L5.3939 2.38739V2.50369V2.62L5.45799 2.63187C5.54344 2.64849 5.67399 2.69358 5.72146 2.72444C5.80928 2.77904 5.86388 2.86923 5.86388 2.95468C5.86388 3.04251 5.79267 3.1517 5.69298 3.20866C5.63364 3.24427 5.51495 3.28462 5.44612 3.29411L5.3939 3.30123V3.37719C5.3939 3.46501 5.38203 3.49824 5.33931 3.52198C5.28946 3.55284 5.24436 3.54572 5.20164 3.50299C5.16603 3.46739 5.16366 3.46264 5.16366 3.38431V3.30361L5.06396 3.27987C4.94291 3.25139 4.86695 3.21341 4.79812 3.15407C4.68181 3.04963 4.6652 2.91433 4.76489 2.86686C4.80999 2.8455 4.81948 2.8455 4.86221 2.86686C4.88594 2.87873 4.90493 2.90009 4.92155 2.93095C4.95003 2.98791 4.97377 3.0069 5.06396 3.03539L5.07721 3.03963C5.11776 3.05264 5.13933 3.05957 5.15079 3.05172C5.16382 3.0428 5.16377 3.0148 5.16368 2.95497V2.95496L5.16366 2.93807V2.82176L5.07109 2.80277C4.95478 2.78141 4.82186 2.71969 4.76726 2.66273C4.71742 2.61051 4.68656 2.51794 4.69843 2.4586C4.71742 2.3589 4.78862 2.27583 4.90731 2.21886C4.98564 2.18088 5.09482 2.14765 5.13992 2.14765C5.16366 2.14765 5.16603 2.1429 5.16603 2.06932C5.16603 1.98624 5.1779 1.95539 5.2135 1.9269C5.24436 1.90079 5.31794 1.90554 5.35592 1.9364ZM4.93578 2.49651C4.92629 2.46803 4.99512 2.4253 5.09719 2.39919L5.15653 2.38732L5.1589 2.48464C5.16128 2.53686 5.16128 2.58434 5.1589 2.58671C5.15653 2.58908 5.1233 2.58196 5.08295 2.57247C5.00462 2.55348 4.94765 2.52499 4.93578 2.49651ZM5.39151 2.96172C5.39151 3.03768 5.39389 3.05904 5.40575 3.05904C5.44373 3.05904 5.56716 3.01157 5.60039 2.98546L5.636 2.95698L5.60751 2.93087C5.57903 2.90713 5.45323 2.86203 5.41287 2.86203C5.39389 2.86203 5.39151 2.87153 5.39151 2.96172ZM0.959978 2.02648C0.959978 1.98139 0.981341 1.94341 1.01457 1.92442C1.03593 1.91492 1.12851 1.91018 1.4347 1.90543H1.82635L1.85484 1.93391C1.88332 1.9624 1.89044 1.99325 1.94978 2.28521L2.01387 2.60565H2.84464L2.93835 2.60564C3.63002 2.60558 3.71489 2.60557 3.73907 2.64387C3.74246 2.64923 3.74465 2.65534 3.74715 2.6623L3.74899 2.66736C3.75374 2.68398 3.76323 2.74807 3.76561 2.80978C3.77273 2.94271 3.80596 3.09699 3.85106 3.22754C3.99822 3.6453 4.35189 3.99897 4.76965 4.14614C4.95005 4.21022 5.0711 4.23159 5.27761 4.23159C5.53396 4.23159 5.70249 4.19598 5.92798 4.08917C5.98495 4.06306 6.04666 4.0417 6.06803 4.0417C6.11075 4.0417 6.16535 4.08442 6.17484 4.12477C6.17959 4.15326 6.09888 4.61137 6.08227 4.6446L6.07956 4.64957C6.07828 4.65198 6.07706 4.65427 6.07569 4.65648C6.05008 4.69783 5.97406 4.70795 4.47121 4.90816L4.31154 4.92943C3.36921 5.05523 2.59066 5.15967 2.58591 5.16205C2.56692 5.1668 2.66424 5.26411 2.72833 5.30684C2.76394 5.3282 2.82565 5.36143 2.86838 5.37567L2.94671 5.40416L4.36851 5.40891C5.15181 5.41128 5.79981 5.4184 5.81168 5.42315C5.83778 5.43739 5.86389 5.48724 5.86389 5.52996C5.86389 5.5537 5.85203 5.57506 5.82592 5.60117L5.78794 5.63915L4.34477 5.63677L2.90161 5.6344L2.82565 5.60829C2.55743 5.51809 2.36042 5.3282 2.27734 5.08609C2.26547 5.04811 1.68156 2.16653 1.68156 2.14042C1.68156 2.13805 1.53677 2.13805 1.35875 2.13805H1.03593L0.997956 2.10007C0.969473 2.07396 0.959978 2.05497 0.959978 2.02648ZM2.84464 5.88374C2.5147 5.94308 2.2987 6.26827 2.37703 6.59345C2.42688 6.80471 2.60253 6.97798 2.81141 7.02783C3.17457 7.11328 3.5235 6.84031 3.5235 6.47003C3.5235 6.20893 3.3787 6.00005 3.13185 5.90985C3.05352 5.87899 2.92771 5.8695 2.84464 5.88374ZM4.71746 6.30147C4.7863 6.07598 4.96669 5.92169 5.20643 5.87897C5.26102 5.86947 5.39869 5.88609 5.4699 5.90982C5.75236 6.00714 5.91614 6.30385 5.84731 6.59343C5.77372 6.902 5.44854 7.10376 5.14709 7.0278C4.94533 6.97558 4.79579 6.84029 4.72695 6.64565C4.69372 6.54833 4.68898 6.39404 4.71746 6.30147Z" fill="white"/>
<path d="M8 17.25C10.8995 17.25 13.25 14.8995 13.25 12C13.25 9.10051 10.8995 6.75 8 6.75C5.1005 6.75 2.75 9.10051 2.75 12C2.75 14.8995 5.1005 17.25 8 17.25Z" stroke="white" stroke-width="0.5"/>
<path d="M3.83337 10.5354L7.16267 13.2166V11.5917C8.17155 11.5917 10.7381 11.6093 10.7381 13.8207C10.7381 14.9794 9.75751 15.9438 8.45404 16.1663C10.5485 15.9297 12.1667 14.4389 12.1667 12.6232C12.1667 9.2425 7.85678 9.21424 7.16267 9.21424V7.83301L3.83337 10.5354Z" fill="white"/>
</svg>
