<svg width="13" height="17" viewBox="0 0 13 17" fill="none" xmlns="http://www.w3.org/2000/svg">
<path d="M9.15705 2.09294L9.1706 3.68582L10.7567 3.69938C11.6243 3.70616 12.336 3.69938 12.336 3.6926C12.336 3.67905 11.5837 2.91988 9.61797 0.974533L9.15027 0.506836L9.15705 2.09294Z" fill="white"/>
<path fill-rule="evenodd" clip-rule="evenodd" d="M0.643561 0.513556C0.636783 0.520335 0.630005 4.11957 0.630005 8.50508V16.4831L0.772348 16.4898C1.22649 16.5034 12.2547 16.5034 12.3089 16.4898C12.3699 16.4763 12.3699 16.1645 12.3699 10.6334V4.77706H10.2415H8.11317L8.10639 2.64192L8.09283 0.506778L4.37836 0.5C2.33134 0.5 0.650339 0.506778 0.643561 0.513556ZM10.7702 10.098L10.7838 10.6267H6.49995H2.22289V10.0912V9.55571L6.49317 9.56249L10.7635 9.57604L10.7702 10.098ZM10.7702 12.2331L10.7567 12.7618H6.49995H2.24322L2.22967 12.2331L2.21611 11.7044H6.49995H10.7838L10.7702 12.2331ZM10.7702 14.3615L10.7838 14.8902H6.49995H2.22289V14.3818C2.22289 14.0971 2.23644 13.8531 2.25 13.8463C2.26356 13.8328 4.1818 13.826 6.52028 13.826L10.7635 13.8395L10.7702 14.3615ZM5.79031 2.1385C5.50091 2.17984 5.25974 2.30847 5.05302 2.52897C4.65796 2.95159 4.60972 3.57863 4.93358 4.06786C5.00249 4.17122 5.15408 4.32511 5.25974 4.39402C5.71222 4.6972 6.27954 4.68342 6.71365 4.35727C6.7481 4.32971 6.81701 4.26539 6.86524 4.21486C7.27178 3.78076 7.31313 3.13763 6.9686 2.6484C6.71135 2.27861 6.2336 2.07419 5.79031 2.1385ZM6.03607 2.60706C6.06364 2.63003 6.06593 2.64151 6.07053 2.71961L6.07512 2.80689L6.1624 2.82526C6.26576 2.84823 6.36682 2.89187 6.42654 2.9447C6.47477 2.98604 6.52531 3.07792 6.52531 3.12385C6.52531 3.22262 6.40357 3.27545 6.33467 3.20654C6.31859 3.19046 6.30481 3.1652 6.30481 3.15371C6.30481 3.14223 6.29562 3.12615 6.28643 3.11696C6.25887 3.0894 6.17618 3.05724 6.12106 3.05035L6.07282 3.04346V3.15601V3.26856L6.13484 3.28004C6.21753 3.29612 6.34385 3.33976 6.38979 3.36962C6.47477 3.42245 6.5276 3.50973 6.5276 3.59241C6.5276 3.6774 6.4587 3.78305 6.36223 3.83818C6.30481 3.87263 6.18996 3.91168 6.12335 3.92086L6.07282 3.92775V4.00125C6.07282 4.08624 6.06134 4.11839 6.02 4.14136C5.97176 4.17122 5.92812 4.16433 5.88678 4.12299C5.85232 4.08854 5.85003 4.08394 5.85003 4.00815V3.93005L5.75356 3.90708C5.63642 3.87952 5.56292 3.84277 5.49631 3.78535C5.38377 3.68429 5.36769 3.55337 5.46416 3.50743C5.5078 3.48676 5.51698 3.48676 5.55833 3.50743C5.5813 3.51891 5.59967 3.53959 5.61575 3.56944C5.64331 3.62457 5.66628 3.64294 5.75356 3.67051L5.76638 3.67461C5.80562 3.6872 5.82649 3.6939 5.83758 3.68631C5.85018 3.67768 5.85014 3.65058 5.85005 3.59268L5.85003 3.57634V3.46379L5.76045 3.44541C5.6479 3.42474 5.51928 3.36502 5.46645 3.3099C5.41822 3.25937 5.38836 3.16979 5.39984 3.11237C5.41822 3.0159 5.48712 2.93551 5.60197 2.88039C5.67776 2.84364 5.78342 2.81148 5.82706 2.81148C5.85003 2.81148 5.85232 2.80689 5.85232 2.73568C5.85232 2.65529 5.86381 2.62544 5.89826 2.59787C5.92812 2.57261 5.99932 2.5772 6.03607 2.60706ZM5.62953 3.14912C5.62034 3.12156 5.68695 3.08021 5.78572 3.05495L5.84314 3.04346L5.84543 3.13764C5.84773 3.18817 5.84773 3.2341 5.84543 3.2364C5.84314 3.2387 5.81098 3.23181 5.77193 3.22262C5.69614 3.20424 5.64101 3.17668 5.62953 3.14912ZM6.07053 3.5993C6.07053 3.6728 6.07282 3.69347 6.08431 3.69347C6.12106 3.69347 6.24049 3.64753 6.27265 3.62227L6.3071 3.59471L6.27954 3.56944C6.25198 3.54647 6.13024 3.50283 6.0912 3.50283C6.07282 3.50283 6.07053 3.51202 6.07053 3.5993ZM1.78229 2.69434C1.78229 2.6507 1.80296 2.61395 1.83512 2.59557C1.85579 2.58638 1.94537 2.58179 2.24166 2.5772H2.62064L2.6482 2.60476C2.67577 2.63232 2.68266 2.66218 2.74008 2.94469L2.80209 3.25477H3.606L3.69668 3.25476C4.36598 3.2547 4.4481 3.25469 4.4715 3.29176C4.47477 3.29694 4.4769 3.30285 4.47932 3.30959L4.4811 3.31449C4.48569 3.33057 4.49488 3.39258 4.49718 3.4523C4.50407 3.58092 4.53622 3.73022 4.57986 3.85655C4.72227 4.2608 5.0645 4.60303 5.46875 4.74543C5.64331 4.80745 5.76045 4.82812 5.96028 4.82812C6.20834 4.82812 6.37142 4.79367 6.58962 4.69031C6.64474 4.66504 6.70446 4.64437 6.72513 4.64437C6.76647 4.64437 6.8193 4.68571 6.82849 4.72476C6.83308 4.75232 6.75499 5.19562 6.73891 5.22777L6.73629 5.23259C6.73505 5.23492 6.73387 5.23714 6.73255 5.23927C6.70777 5.27928 6.6342 5.28908 5.17995 5.48282H5.17994L5.02545 5.5034C4.1136 5.62513 3.36023 5.72619 3.35564 5.72849C3.33726 5.73308 3.43143 5.82725 3.49345 5.8686C3.5279 5.88927 3.58762 5.92143 3.62896 5.93521L3.70476 5.96277L5.08058 5.96736C5.83854 5.96966 6.46559 5.97655 6.47707 5.98114C6.50234 5.99493 6.5276 6.04316 6.5276 6.0845C6.5276 6.10747 6.51612 6.12814 6.49085 6.15341L6.4541 6.19016L5.05761 6.18786L3.66112 6.18556L3.58762 6.1603C3.32807 6.07302 3.13744 5.88927 3.05705 5.65499C3.04556 5.61824 2.48053 2.82985 2.48053 2.80459C2.48053 2.80229 2.34043 2.80229 2.16816 2.80229H1.85579L1.81904 2.76554C1.79148 2.74027 1.78229 2.7219 1.78229 2.69434ZM3.60599 6.42674C3.28673 6.48416 3.07772 6.79883 3.15351 7.1135C3.20175 7.31792 3.37171 7.48559 3.57384 7.53382C3.92526 7.61651 4.2629 7.35237 4.2629 6.99406C4.2629 6.74141 4.12279 6.53928 3.88391 6.452C3.80812 6.42214 3.68638 6.41296 3.60599 6.42674ZM5.41822 6.83099C5.48483 6.61279 5.65939 6.46349 5.89137 6.42215C5.9442 6.41296 6.07742 6.42904 6.14632 6.45201C6.41965 6.54618 6.57813 6.83329 6.51152 7.1135C6.44032 7.4121 6.12565 7.60733 5.83395 7.53383C5.63872 7.4833 5.49401 7.35238 5.42741 7.16404C5.39525 7.06986 5.39066 6.92057 5.41822 6.83099Z" fill="white"/>
</svg>
