<svg width="13" height="17" viewBox="0 0 13 17" fill="none" xmlns="http://www.w3.org/2000/svg">
<path d="M8.64717 2.3788C8.64717 4.08163 8.64717 4.18339 8.70822 4.27158C8.83034 4.47511 8.79642 4.47511 10.757 4.46832L12.5277 4.46154L10.5806 2.51449L8.64038 0.574219L8.64717 2.3788Z" fill="white"/>
<path fill-rule="evenodd" clip-rule="evenodd" d="M0.682621 0.527137C0.6487 0.540705 0.594427 0.58141 0.560506 0.615331C0.554468 0.621918 0.548686 0.627672 0.543147 0.633183L0.543147 0.633183L0.543147 0.633183C0.538789 0.637519 0.534583 0.641705 0.530522 0.646027C0.417497 0.766338 0.417315 0.992658 0.412047 7.51854L0.411255 8.48495C0.411255 13.7087 0.418039 16.09 0.445176 16.1714C0.458744 16.2392 0.519802 16.3342 0.567291 16.3885L0.655484 16.4902L6.45593 16.497C12.0664 16.5038 12.2564 16.5038 12.3581 16.4428C12.4192 16.4088 12.4938 16.3342 12.5278 16.2799C12.5888 16.1714 12.5888 16.1171 12.5888 10.6694V5.17428L10.4179 5.16071L9.90117 5.15658C8.39224 5.14488 8.1646 5.14311 8.08159 5.03265C8.06684 5.01303 8.05665 4.98997 8.04466 4.96282L8.04466 4.96281C8.0401 4.9525 8.03529 4.94159 8.02986 4.93005C7.98915 4.82829 7.98237 4.60441 7.98237 2.65736V0.5H4.36642C2.37866 0.5 0.716542 0.513568 0.682621 0.527137ZM3.33522 10.2624L2.60932 10.9883L2.39901 10.778C2.28368 10.6627 2.17513 10.5677 2.16157 10.5677C2.14121 10.5677 2.08016 10.6084 2.0191 10.6627L1.91055 10.7509L2.26333 11.1036L2.6161 11.4564L3.44377 10.6287L4.27144 9.80107V10.9815V12.1687L2.96888 12.162L1.65954 12.1552L1.65275 10.8458L1.64597 9.54327H2.84677H4.06113L3.33522 10.2624ZM11.388 10.8458L11.3948 11.1986H8.53188H5.66897V10.8594C5.66897 10.6694 5.67576 10.5134 5.68932 10.4998C5.69611 10.4863 6.9851 10.4795 8.53867 10.4863L11.3744 10.4931L11.388 10.8458ZM3.35558 13.3424C2.95531 13.7427 2.6161 14.0751 2.60254 14.0751C2.59575 14.0751 2.48721 13.9598 2.37187 13.8241L2.15478 13.5731L2.02588 13.702L1.89698 13.8309L2.24976 14.1836L2.60254 14.5364L3.4302 13.7087L4.25787 12.8811V14.0615V15.242H2.94853H1.63919V13.9258V12.6097H2.86712H4.09505L3.35558 13.3424ZM11.3948 13.9191V14.265H8.53188H5.66897V13.9191V13.5731H8.53188H11.3948V13.9191ZM5.39014 2.54739C5.08941 2.59035 4.83881 2.724 4.62401 2.95313C4.21349 3.39228 4.16337 4.04385 4.4999 4.55222C4.5715 4.65962 4.72902 4.81953 4.83881 4.89113C5.30899 5.20618 5.89851 5.19186 6.34959 4.85294C6.38539 4.8243 6.45699 4.75748 6.50711 4.70497C6.92956 4.25388 6.97252 3.5856 6.61452 3.07724C6.34721 2.69298 5.85077 2.48056 5.39014 2.54739ZM5.64551 3.03428C5.67416 3.05814 5.67654 3.07008 5.68131 3.15122L5.68609 3.24192L5.77678 3.26101C5.88418 3.28488 5.9892 3.33023 6.05125 3.38512C6.10138 3.42808 6.15388 3.52355 6.15388 3.57128C6.15388 3.67391 6.02739 3.72881 5.95579 3.65721C5.93908 3.6405 5.92476 3.61424 5.92476 3.60231C5.92476 3.59038 5.91521 3.57367 5.90567 3.56412C5.87703 3.53548 5.7911 3.50207 5.73382 3.49491L5.6837 3.48775V3.6047V3.72165L5.74814 3.73358C5.83406 3.75029 5.96533 3.79563 6.01307 3.82666C6.10138 3.88156 6.15627 3.97225 6.15627 4.05817C6.15627 4.14648 6.08467 4.25627 5.98443 4.31355C5.92476 4.34935 5.80542 4.38992 5.73621 4.39947L5.6837 4.40663V4.483C5.6837 4.57131 5.67177 4.60473 5.62881 4.62859C5.57869 4.65962 5.53334 4.65246 5.49038 4.6095C5.45458 4.5737 5.45219 4.56893 5.45219 4.49016V4.40902L5.35195 4.38515C5.23023 4.35651 5.15385 4.31832 5.08464 4.25865C4.96769 4.15364 4.95098 4.0176 5.05123 3.96986C5.09657 3.94838 5.10612 3.94838 5.14908 3.96986C5.17295 3.9818 5.19204 4.00328 5.20875 4.0343C5.23739 4.09159 5.26126 4.11068 5.35195 4.13932L5.36527 4.14358C5.40604 4.15667 5.42773 4.16363 5.43925 4.15574C5.45235 4.14677 5.45231 4.11862 5.45221 4.05845L5.45219 4.04146V3.92452L5.35911 3.90542C5.24216 3.88394 5.10851 3.82189 5.05361 3.76461C5.00349 3.7121 4.97246 3.61902 4.9844 3.55935C5.00349 3.45911 5.07509 3.37557 5.19443 3.31829C5.27319 3.28011 5.38298 3.24669 5.42832 3.24669C5.45219 3.24669 5.45458 3.24192 5.45458 3.16793C5.45458 3.0844 5.46651 3.05337 5.50231 3.02473C5.53334 2.99848 5.60733 3.00325 5.64551 3.03428ZM5.22306 3.59747C5.21351 3.56883 5.28273 3.52587 5.38535 3.49962L5.44502 3.48768L5.44741 3.58554C5.4498 3.63805 5.4498 3.68578 5.44741 3.68817C5.44502 3.69055 5.41161 3.68339 5.37103 3.67385C5.29227 3.65475 5.23499 3.62611 5.22306 3.59747ZM5.68129 4.06526C5.68129 4.14163 5.68368 4.16311 5.69562 4.16311C5.7338 4.16311 5.85791 4.11538 5.89132 4.08912L5.92713 4.06048L5.89849 4.03423C5.86984 4.01036 5.74335 3.96501 5.70278 3.96501C5.68368 3.96502 5.68129 3.97456 5.68129 4.06526ZM1.22535 3.12486C1.22535 3.07951 1.24683 3.04133 1.28025 3.02223C1.30173 3.01269 1.39481 3.00791 1.70269 3.00314H2.0965L2.12514 3.03178C2.15378 3.06042 2.16094 3.09145 2.22061 3.38501L2.28505 3.70722H3.1204L3.21463 3.70721C3.9101 3.70714 3.99544 3.70713 4.01976 3.74565C4.02316 3.75104 4.02536 3.75718 4.02788 3.76418L4.02973 3.76927C4.0345 3.78598 4.04405 3.85042 4.04644 3.91247C4.0536 4.04613 4.08701 4.20126 4.13236 4.33253C4.28033 4.75259 4.63595 5.10821 5.05601 5.25619C5.2374 5.32063 5.35912 5.34211 5.56677 5.34211C5.82453 5.34211 5.99399 5.30631 6.22072 5.19891C6.278 5.17265 6.34006 5.15117 6.36154 5.15117C6.4045 5.15117 6.45939 5.19413 6.46894 5.23471C6.47371 5.26335 6.39257 5.72398 6.37586 5.75739L6.37314 5.76239C6.37222 5.76411 6.37134 5.76576 6.37042 5.76737C6.37004 5.76803 6.36965 5.76869 6.36925 5.76934C6.34349 5.81092 6.26705 5.8211 4.75582 6.02242L4.75581 6.02243L4.59538 6.0438C3.64786 6.17029 2.86502 6.27531 2.86024 6.2777C2.84115 6.28247 2.93901 6.38032 3.00345 6.42328C3.03925 6.44476 3.1013 6.47818 3.14426 6.4925L3.22302 6.52114L4.65266 6.52591C5.44027 6.5283 6.09184 6.53546 6.10377 6.54023C6.13003 6.55455 6.15628 6.60467 6.15628 6.64763C6.15628 6.6715 6.14435 6.69298 6.11809 6.71924L6.07991 6.75742L4.62879 6.75504L3.17768 6.75265L3.1013 6.7264C2.8316 6.6357 2.63351 6.44477 2.54997 6.20132C2.53804 6.16313 1.95091 3.26568 1.95091 3.23942C1.95091 3.23704 1.80532 3.23704 1.62632 3.23704H1.30173L1.26354 3.19885C1.2349 3.1726 1.22535 3.1535 1.22535 3.12486ZM3.12039 7.00337C2.78864 7.06304 2.57145 7.39001 2.65021 7.71699C2.70033 7.92941 2.87695 8.10364 3.08698 8.15376C3.45214 8.23968 3.80299 7.96521 3.80299 7.59288C3.80299 7.33035 3.6574 7.12032 3.40918 7.02962C3.33042 6.99859 3.20392 6.98905 3.12039 7.00337ZM5.00353 7.42341C5.07275 7.19667 5.25414 7.04154 5.49519 6.99858C5.55009 6.98903 5.68852 7.00574 5.76012 7.02961C6.04414 7.12746 6.20882 7.4258 6.1396 7.71698C6.06562 8.02725 5.73864 8.23012 5.43553 8.15374C5.23266 8.10123 5.08229 7.96519 5.01308 7.76948C4.97967 7.67163 4.97489 7.51649 5.00353 7.42341Z" fill="white"/>
</svg>
