<svg width="19" height="17" viewBox="0 0 19 17" fill="none" xmlns="http://www.w3.org/2000/svg">
<path fill-rule="evenodd" clip-rule="evenodd" d="M3.15705 9.91866V14.5488C3.15705 15.3429 3.59973 16 4.35956 16H17.5541C17.9703 16 18.2875 15.7946 18.4923 15.4866C16.7612 12.2693 14.5544 12.8923 14.5544 12.8923V14.7542L11.5548 11.6464L14.5544 9.16158V11.0235C14.5544 11.0235 18.2148 10.4964 18.6971 14.9801C18.7302 14.8431 18.75 14.6926 18.75 14.542V7.92259H9.24572C8.62764 9.49333 7.13893 10.6004 5.40064 10.6004C4.57409 10.6004 3.80397 10.3501 3.15705 9.91866ZM9.88781 14.1452H4.27884V15.0168H9.88781V14.1452ZM4.27884 13.6803H9.88781V13.9709H4.27884V13.6803Z" fill="white"/>
<path d="M9.75 6L18.75 6.06069V5.02705C18.75 4.22616 18.3139 3.56901 17.5475 3.56901H9.04692C9.59132 4.25418 9.69999 5.05621 9.75 6Z" fill="white"/>
<path d="M4.45929 3.34888C4.35203 3.41389 4.2708 3.52997 4.23372 3.66802L4.21137 3.75042L4.14409 3.70176C4.02065 3.61562 3.90305 3.6101 3.80946 3.68798C3.73833 3.74717 3.69261 3.84391 3.66409 3.99143L3.65071 4.05361L3.73745 4.0797C4.02512 4.16319 4.30599 4.3825 4.37459 4.57426L4.39042 4.61851L4.90719 4.50498C5.37569 4.40227 5.42351 4.38928 5.41449 4.37764C5.41057 4.36941 5.39656 4.33386 5.38464 4.29783C5.34527 4.17236 5.36738 4.04676 5.45274 3.89789C5.48473 3.84064 5.58331 3.70246 5.60413 3.68642C5.60413 3.68642 5.60316 3.65021 5.60129 3.60966C5.59413 3.47014 5.53257 3.35419 5.43182 3.29255C5.28602 3.20458 5.10093 3.27565 5.05834 3.43998L5.04717 3.48118L4.96037 3.42324C4.86847 3.36189 4.77691 3.32322 4.69125 3.31283C4.62703 3.2999 4.50649 3.32237 4.45929 3.34888Z" fill="white"/>
<path d="M4.38834 4.87159C4.33735 5.0378 4.24258 5.28894 4.11162 5.59826C3.95186 5.98005 3.90558 6.09513 3.85425 6.23865C3.73146 6.58712 3.67856 6.84936 3.6792 7.11553C3.67961 7.25429 3.72882 7.50048 3.7817 7.62748C3.8626 7.82559 4.01374 8.04438 4.18008 8.20969C4.29383 8.32305 4.383 8.37135 4.58768 8.42564C5.07866 8.55689 5.7473 8.48672 6.23791 8.25841C6.82427 7.9836 7.20067 7.47132 7.29036 6.82753C7.35295 6.36964 7.14955 5.95315 6.63965 5.48925C6.49573 5.35762 6.33291 5.23022 6.03133 5.00644C5.73486 4.78608 5.58481 4.6672 5.50487 4.58951L5.44927 4.53368L4.42083 4.76415L4.38834 4.87159ZM5.2602 5.20657L5.29033 5.36143L5.34343 5.36319C5.48667 5.36523 5.81371 5.48997 5.82506 5.54434C5.82778 5.55738 5.75949 5.69333 5.7085 5.77532L5.65048 5.86571L5.60288 5.83768C5.57571 5.82329 5.51387 5.80072 5.46271 5.78715C5.37688 5.76541 5.36757 5.76295 5.29201 5.77988C5.15979 5.80951 5.09926 5.84584 5.07567 5.9012C5.06223 5.93153 5.06376 5.94939 5.07919 6.02333C5.09508 6.09943 5.09991 6.11201 5.13673 6.15156C5.1761 6.19281 5.1812 6.19622 5.47171 6.27225C5.76267 6.35045 5.76732 6.35168 5.86898 6.41767C5.98851 6.49559 6.03764 6.54149 6.0828 6.63152C6.10357 6.66784 6.12961 6.71891 6.1439 6.7453C6.16603 6.78814 6.16966 6.80553 6.17415 6.87964C6.18586 7.12513 6.13873 7.26771 5.98291 7.43693C5.92409 7.50246 5.88365 7.52974 5.84167 7.53914C5.82488 7.54291 5.8048 7.55196 5.80032 7.56207C5.79374 7.57265 5.80135 7.63012 5.82631 7.74972L5.86263 7.92368L5.552 7.99329L5.47982 7.64755L5.45191 7.64015C5.43585 7.63691 5.38905 7.63375 5.34991 7.63569C5.22063 7.63734 5.10105 7.61179 4.95486 7.5535C4.8591 7.51578 4.86001 7.52013 4.92937 7.31566C4.96113 7.21522 4.99022 7.13358 4.99232 7.13311C4.99442 7.13264 5.02369 7.14656 5.05552 7.16219C5.12683 7.19857 5.28243 7.23881 5.36837 7.24004C5.49017 7.24461 5.62551 7.19835 5.68598 7.13017C5.72325 7.08767 5.73719 7.00716 5.72085 6.92887C5.71086 6.88104 5.70076 6.85371 5.68664 6.83866C5.64216 6.794 5.56949 6.75111 5.53874 6.75117C5.5215 6.75276 5.48684 6.74459 5.46102 6.73672C5.43521 6.72884 5.38915 6.71868 5.3575 6.71439C5.32584 6.7101 5.27257 6.697 5.23701 6.68449C5.20354 6.6715 5.16377 6.65993 5.14981 6.65623C5.09955 6.647 4.95574 6.57908 4.90633 6.54235C4.72145 6.40396 4.64366 6.27344 4.63792 6.08807C4.63456 5.97729 4.64641 5.89724 4.67624 5.80861C4.71146 5.71422 4.74674 5.65169 4.79899 5.59673C4.84419 5.55018 4.96325 5.45749 4.98424 5.45279C4.99474 5.45043 4.99003 5.41735 4.96233 5.2847L4.92783 5.11944L5.22377 5.05312L5.2602 5.20657Z" fill="white"/>
<path d="M10.0055 6C10.0055 8.62322 7.87776 10.75 5.25275 10.75C2.62775 10.75 0.5 8.62322 0.5 6C0.5 3.37678 2.62775 1.25 5.25275 1.25C7.87776 1.25 10.0055 3.37678 10.0055 6Z" stroke="white" stroke-width="0.5"/>
</svg>
