<svg width="14" height="17" viewBox="0 0 14 17" fill="none" xmlns="http://www.w3.org/2000/svg">
<circle cx="8" cy="11.5" r="5.25" stroke="white" stroke-width="0.5"/>
<path d="M10.1457 8.9702C9.90168 9.22934 9.69066 9.46177 9.67795 9.48848C9.65252 9.53657 9.65252 9.60603 9.64744 10.9525L9.6449 12.3658H9.93219H10.2195V11.054V9.73961L10.611 9.32819L11 8.91677L10.8017 8.70838C10.6924 8.59351 10.6008 8.5 10.5983 8.5C10.5957 8.5 10.3924 8.71373 10.1457 8.9702Z" fill="#FFFBFB"/>
<path d="M6.45679 9.92689V10.8352H7.32119H8.1856V9.92689V9.01855H7.89831H7.61102V9.32044V9.62233H7.31865H7.02882V9.31777V9.01855H6.74408H6.45679V9.92689Z" fill="#FFFBFB"/>
<path d="M5.28723 12.0587V12.9671H6.15927H7.0313V12.0587V11.1504H6.74401H6.45672V11.4576V11.7675H6.15672H5.85927V11.4603V11.1531H5.57198H5.28723V12.0587Z" fill="#FFFBFB"/>
<path d="M7.61605 12.0587V12.9671H8.27452H8.933L8.98384 12.8896C9.04486 12.7907 9.17961 12.6518 9.27367 12.585L9.34486 12.5343V11.8423V11.1504H9.05757H8.77028V11.4576V11.7675H8.47791H8.18554V11.4603V11.1531H7.89825H7.61096V12.0587H7.61605Z" fill="#FFFBFB"/>
<path d="M9.6983 12.716C9.3983 12.8095 9.16948 13.0579 9.09321 13.3758C9.04745 13.5655 9.0805 13.8327 9.17202 14.017C9.22541 14.1239 9.40592 14.3189 9.50253 14.375C9.85338 14.5781 10.2678 14.5193 10.5449 14.2281C10.822 13.9342 10.878 13.4987 10.6847 13.1327C10.6237 13.0152 10.4432 12.8389 10.3263 12.7774C10.128 12.6759 9.8966 12.6545 9.6983 12.716Z" fill="#FFFBFB"/>
<path d="M5 13.5841V13.886H5.14237H5.28475L5.29237 13.9394C5.32034 14.1291 5.36356 14.2253 5.47034 14.3295C5.79576 14.6527 6.30932 14.4951 6.42627 14.0383C6.43644 13.9982 6.44407 13.9501 6.44407 13.9261V13.8887H7.60847H8.77288V13.5841V13.2822H6.88644H5V13.5841Z" fill="#FFFBFB"/>
<path fill-rule="evenodd" clip-rule="evenodd" d="M0 15.7874V8.14372V0.5H3.82834H7.65668L9.56113 2.40445L11.4656 4.30891V6.34291V6.34302C11.4656 7.11509 11.4656 7.5954 11.4625 7.89287C10.564 7.03022 9.34392 6.5 8 6.5C6.77916 6.5 5.66052 6.93754 4.79233 7.66437H1.91093V8.14372V8.6166H3.91465C3.60941 9.04828 3.37088 9.53048 3.21404 10.0482H1.91093V10.5275V11.0069H3.02401C3.00813 11.1691 3 11.3336 3 11.5C3 11.8208 3.03021 12.1345 3.08793 12.4385H1.91093V12.9178V13.3972H3.37248C3.7831 14.3977 4.50876 15.2356 5.42603 15.7874H3.65344H0ZM10.4939 4.32186L9.0753 2.90324C8.29798 2.12591 7.65668 1.48462 7.6502 1.48462C7.64372 1.48462 7.64372 2.12591 7.64372 2.90324V4.32186H9.06882H10.4939ZM5.73279 3.84899V3.36964V2.89028H3.82186H1.91093V3.36964V3.84899H3.82186H5.73279ZM9.55466 6.23279V5.75344V5.27409H5.73279H1.91093V5.75344V6.23279H5.73279H9.55466Z" fill="#FFFBFB"/>
</svg>
