<svg width="13" height="17" viewBox="0 0 13 17" fill="none" xmlns="http://www.w3.org/2000/svg">
<path d="M8.57446 2.58814V4.67627H10.6694H12.7711L10.6829 2.58814C9.53717 1.44237 8.5948 0.5 8.58802 0.5C8.58124 0.5 8.57446 1.44237 8.57446 2.58814Z" fill="white"/>
<path fill-rule="evenodd" clip-rule="evenodd" d="M0.22876 8.5V16.5H6.48639H12.744V10.9339V5.3678H10.3101H7.87622V2.9339V0.5H4.05249H0.22876V8.5ZM9.54514 7.10371C9.21419 7.45509 8.92806 7.77026 8.91082 7.80648C8.8767 7.87102 8.87635 7.96394 8.86967 9.73589L8.86945 9.79164L8.86601 11.708H9.25556H9.64511V9.9293V8.147L10.176 7.58913L10.7034 7.03126L10.4346 6.7487C10.2863 6.59293 10.1622 6.46614 10.1588 6.46614C10.1566 6.46614 10.0434 6.58424 9.87482 6.76012L9.87467 6.76028C9.77921 6.85989 9.666 6.97801 9.54514 7.10371ZM4.54303 9.63222V8.40055V7.16888H4.93259H5.31869V7.57461V7.98758H5.71169H6.10814V7.57823V7.16888H6.49769H6.88724V8.40055V9.63222H5.71514H4.54303ZM2.95724 11.2914V12.523H4.13969H5.32213V11.2914V10.0597H4.93258H4.54303V10.4763V10.8965H4.13624H3.7329V10.4799V10.0633H3.34335H2.95724V11.2914ZM6.11506 12.523V11.2914H6.10817V10.0633H6.49772H6.88727V10.4799V10.8965H7.28372H7.68016V10.4763V10.0597H8.06972H8.45927V10.9979V11.9362L8.36274 12.005C8.23519 12.0956 8.05248 12.284 7.96974 12.418L7.90079 12.523H7.00793H6.11506ZM8.93843 12.1825C8.53164 12.3093 8.22138 12.6462 8.11796 13.0773C8.0559 13.3345 8.10072 13.6967 8.22483 13.9467C8.29722 14.0916 8.54198 14.356 8.67298 14.4321C9.14872 14.7074 9.71064 14.6277 10.0864 14.2329C10.4622 13.8344 10.538 13.2439 10.276 12.7476C10.1933 12.5882 9.94851 12.3491 9.78993 12.2658C9.52103 12.1282 9.20732 12.0992 8.93843 12.1825ZM2.56774 13.769V13.3597V12.9503H5.12568H7.68362V13.3597V13.7726H6.10473H4.52584V13.8234C4.52584 13.856 4.51549 13.9212 4.50171 13.9755C4.34313 14.595 3.64676 14.8087 3.2055 14.3704C3.06071 14.2291 3.0021 14.0987 2.96418 13.8415L2.95384 13.769H2.76079H2.56774Z" fill="white"/>
</svg>
