<svg width="17" height="17" viewBox="0 0 17 17" fill="none" xmlns="http://www.w3.org/2000/svg">
<path d="M10.3167 6.88831V7.91011C11.0537 7.99017 14.2454 8.46294 14.25 10.6857C14.25 10.7505 14.1947 10.8077 14.1164 10.8192C14.1072 10.823 14.0934 10.823 14.0842 10.823C14.0197 10.823 13.9552 10.7887 13.9322 10.7391C13.9138 10.701 13.4394 9.82026 11.6662 9.64487C11.2978 9.61056 10.8556 9.5915 10.3167 9.58768V10.6857C10.3167 10.7353 10.2845 10.7849 10.2292 10.8077C10.174 10.8306 10.1095 10.8268 10.0588 10.8001L6.65063 8.9014C6.60457 8.87471 6.57694 8.83277 6.57694 8.78702C6.57694 8.74127 6.60457 8.69933 6.65063 8.67264L10.0588 6.77393C10.1095 6.74343 10.174 6.74343 10.2292 6.76631C10.2845 6.79299 10.3167 6.83875 10.3167 6.88831Z" fill="white"/>
<path d="M10.4412 11.6998L13.8494 13.5985C13.8954 13.6214 13.9231 13.6672 13.9231 13.7129C13.9231 13.7587 13.8954 13.8006 13.8494 13.8273L10.4412 15.726C10.3905 15.7565 10.326 15.7565 10.2708 15.7336C10.2155 15.707 10.1832 15.6612 10.1832 15.6116V14.5898C9.44173 14.5098 6.25 14.0332 6.25 11.8104C6.25 11.7456 6.30527 11.6884 6.38356 11.677C6.39278 11.6731 6.40659 11.6731 6.4158 11.6731C6.48028 11.6731 6.54016 11.7075 6.56779 11.757C6.58621 11.7952 7.0606 12.6759 8.83378 12.8513C9.20224 12.8894 9.64438 12.9085 10.1832 12.9123V11.8142C10.1832 11.7647 10.2155 11.7151 10.2708 11.6922C10.326 11.6693 10.3905 11.6731 10.4412 11.6998Z" fill="white"/>
<path fill-rule="evenodd" clip-rule="evenodd" d="M1.25 15.4147H6.65742C7.62117 16.2468 8.87682 16.75 10.25 16.75C13.2876 16.75 15.75 14.2876 15.75 11.25C15.75 9.06241 14.4728 7.17313 12.6235 6.28708C12.6235 6.21012 12.6235 6.12984 12.6235 6.04609V4.02831L8.84518 0.25H1.25V15.4147ZM12.6233 6.84805C11.9172 6.46656 11.1089 6.25 10.25 6.25C9.06173 6.25 7.97027 6.66451 7.11234 7.35683C6.77263 7.63096 6.46953 7.94865 6.21153 8.30141C5.89924 8.7284 5.65303 9.20678 5.48795 9.72149C5.39005 10.0268 5.32068 10.3448 5.28299 10.6725C5.2612 10.862 5.25 11.0547 5.25 11.25C5.25 11.5372 5.27421 11.8187 5.32069 12.0926C5.37653 12.4216 5.46452 12.7397 5.58132 13.0436C5.9557 14.0175 6.62602 14.8445 7.48215 15.4147C8.27468 15.9424 9.22642 16.25 10.25 16.25C13.0114 16.25 15.25 14.0114 15.25 11.25C15.25 9.34746 14.1874 7.69311 12.6233 6.84805ZM5.04908 13.0436C4.94368 12.7379 4.86447 12.42 4.81413 12.0926H3.14558V13.0436H5.04908ZM4.77996 10.6725C4.81401 10.3462 4.8766 10.0283 4.96518 9.72149H3.14558V10.6725H4.77996ZM5.60635 8.30141C5.82426 7.95895 6.079 7.64223 6.365 7.35683H3.14558V8.30141H5.60635ZM10.7279 5.77048C10.5704 5.75692 10.411 5.75 10.25 5.75C9.7567 5.75 9.27857 5.81494 8.82369 5.93675H3.14558V4.98574H10.7279V5.77048ZM10.2524 2.63394L11.6596 4.04116H8.83233V2.63394C8.83233 1.86285 8.83233 1.22671 8.83875 1.22671C8.84518 1.22671 9.48137 1.86289 10.2524 2.63394ZM6.93675 3.57209H3.14558V2.62108H6.93675V3.57209Z" fill="white"/>
</svg>
