<svg width="17" height="18" viewBox="0 0 17 18" fill="none" xmlns="http://www.w3.org/2000/svg">
<path d="M9.3457 2.08814V4.17627H11.4406H13.5423L11.4542 2.08814C10.3084 0.942373 9.36604 0 9.35926 0C9.35248 0 9.3457 0.942373 9.3457 2.08814Z" fill="white"/>
<path fill-rule="evenodd" clip-rule="evenodd" d="M1 16V8V0H4.82373H8.64746V2.4339V4.8678H11.0814H13.5153V7.67777C12.7764 7.24687 11.917 7 11 7C9.49001 7 8.13636 7.66935 7.21957 8.72752V7.55408V6.23964L7.6111 5.82821L8.00009 5.41677L7.80179 5.20839C7.69246 5.09351 7.60093 5 7.59839 5C7.59677 5 7.51326 5.08714 7.38889 5.21691C7.31849 5.29037 7.23499 5.3775 7.14584 5.47021C6.90177 5.72935 6.69074 5.96179 6.67803 5.9885C6.65287 6.0361 6.65261 6.10463 6.64768 7.4114V7.41144L6.64752 7.45256L6.64498 8.86585H6.93227H7.104C7.02124 8.96859 6.94247 9.07467 6.86791 9.18386C6.80981 9.1883 6.75285 9.19893 6.69837 9.21581C6.39836 9.30931 6.16955 9.55778 6.09327 9.8757C6.04751 10.0654 6.08056 10.3325 6.17209 10.5169C6.18058 10.5339 6.1923 10.5531 6.20638 10.5737C6.0721 11.0257 6 11.5044 6 12C6 13.6356 6.78534 15.0878 7.99951 16H7.25763H1ZM3.45677 6.42664V7.33499H4.3212H5.18562V6.42664V5.51828H4.89833H4.61103V5.82018V6.12207H4.31865H4.02882V5.81751V5.51828H3.74406H3.45677V6.42664ZM2.28728 9.46701V8.55865V7.65297H2.57203H2.85932V7.96021V8.26745H3.15679H3.45679V7.95754V7.6503H3.74409H4.03138V8.55865V9.46701H3.15933H2.28728ZM4.61613 8.55865V9.46701H5.27462H5.93311L5.98396 9.38953C6.04498 9.29068 6.17973 9.15176 6.2738 9.08497L6.34499 9.0342V8.34225V7.6503H6.05769H5.7704V7.95754V8.26745H5.47802H5.18564V7.96021V7.65297H4.89834H4.61105V8.55865H4.61613ZM2 10.084V10.3859H2.14238H2.28475L2.29238 10.4394C2.32035 10.629 2.36357 10.7252 2.47035 10.8294C2.79578 11.1527 3.30935 10.9951 3.4263 10.5382C3.43647 10.4981 3.4441 10.45 3.4441 10.426V10.3886H4.60853H5.77296V10.084V9.78214H3.88648H2V10.084Z" fill="white"/>
<path d="M11 17.25C13.8995 17.25 16.25 14.8995 16.25 12C16.25 9.10051 13.8995 6.75 11 6.75C8.1005 6.75 5.75 9.10051 5.75 12C5.75 14.8995 8.1005 17.25 11 17.25Z" stroke="white" stroke-width="0.5"/>
<path d="M6.83337 10.5354L10.1627 13.2166V11.5917C11.1715 11.5917 13.7381 11.6093 13.7381 13.8207C13.7381 14.9794 12.7575 15.9438 11.454 16.1663C13.5485 15.9297 15.1667 14.4389 15.1667 12.6232C15.1667 9.2425 10.8568 9.21424 10.1627 9.21424V7.83301L6.83337 10.5354Z" fill="white"/>
</svg>
