<svg width="31" height="32" viewBox="0 0 31 32" fill="none" xmlns="http://www.w3.org/2000/svg">
<path d="M12 5.2V5.6H18.4V5.2C18.4 4.35131 18.0629 3.53737 17.4627 2.93726C16.8626 2.33714 16.0487 2 15.2 2C14.3513 2 13.5374 2.33714 12.9373 2.93726C12.3371 3.53737 12 4.35131 12 5.2ZM10 5.6V5.2C10 3.82087 10.5479 2.49823 11.523 1.52304C12.4982 0.547855 13.8209 0 15.2 0C16.5791 0 17.9018 0.547855 18.877 1.52304C19.8521 2.49823 20.4 3.82087 20.4 5.2V5.6H29.4C29.6652 5.6 29.9196 5.70536 30.1071 5.89289C30.2946 6.08043 30.4 6.33478 30.4 6.6C30.4 6.86522 30.2946 7.11957 30.1071 7.30711C29.9196 7.49464 29.6652 7.6 29.4 7.6H27.0664L25.4664 26.6848C25.3448 28.1341 24.6832 29.4848 23.6127 30.4693C22.5421 31.4537 21.1408 32.0001 19.6864 32H10.7136C9.25936 31.9999 7.85822 31.4535 6.78784 30.469C5.71746 29.4846 5.05596 28.134 4.9344 26.6848L3.3344 7.6H1C0.734784 7.6 0.48043 7.49464 0.292893 7.30711C0.105357 7.11957 0 6.86522 0 6.6C0 6.33478 0.105357 6.08043 0.292893 5.89289C0.48043 5.70536 0.734784 5.6 1 5.6H10ZM6.9272 26.5176C7.00683 27.4671 7.44024 28.352 8.14153 28.9969C8.84281 29.6419 9.76081 29.9999 10.7136 30H19.6864C20.6393 30.0001 21.5575 29.6422 22.259 28.9972C22.9604 28.3522 23.394 27.4672 23.4736 26.5176L25.0592 7.6H5.3408L6.9272 26.5176ZM13.2 13C13.2 12.8687 13.1741 12.7386 13.1239 12.6173C13.0736 12.496 13 12.3858 12.9071 12.2929C12.8142 12.2 12.704 12.1264 12.5827 12.0761C12.4614 12.0259 12.3313 12 12.2 12C12.0687 12 11.9386 12.0259 11.8173 12.0761C11.696 12.1264 11.5858 12.2 11.4929 12.2929C11.4 12.3858 11.3264 12.496 11.2761 12.6173C11.2259 12.7386 11.2 12.8687 11.2 13V24.6C11.2 24.7313 11.2259 24.8614 11.2761 24.9827C11.3264 25.104 11.4 25.2142 11.4929 25.3071C11.5858 25.4 11.696 25.4736 11.8173 25.5239C11.9386 25.5741 12.0687 25.6 12.2 25.6C12.3313 25.6 12.4614 25.5741 12.5827 25.5239C12.704 25.4736 12.8142 25.4 12.9071 25.3071C13 25.2142 13.0736 25.104 13.1239 24.9827C13.1741 24.8614 13.2 24.7313 13.2 24.6V13ZM18.2 12C18.752 12 19.2 12.448 19.2 13V24.6C19.2 24.8652 19.0946 25.1196 18.9071 25.3071C18.7196 25.4946 18.4652 25.6 18.2 25.6C17.9348 25.6 17.6804 25.4946 17.4929 25.3071C17.3054 25.1196 17.2 24.8652 17.2 24.6V13C17.2 12.448 17.648 12 18.2 12Z" fill="#7F7F7F"/>
</svg>
