<svg width="41" height="40" viewBox="0 0 41 40" fill="none" xmlns="http://www.w3.org/2000/svg">
<g clip-path="url(#clip0_5902_63860)">
<path d="M12.1666 30C10.0871 30 8.09269 29.2098 6.62223 27.8033C5.15178 26.3968 4.32568 24.4891 4.32568 22.5C4.32568 20.5109 5.15178 18.6032 6.62223 17.1967C8.09269 15.7902 10.0871 15 12.1666 15C12.6577 12.812 14.0945 10.8891 16.1609 9.65452C17.1841 9.04321 18.331 8.61925 19.5362 8.40685C20.7414 8.19446 21.9813 8.1978 23.1851 8.41667C24.3889 8.63554 25.533 9.06566 26.5521 9.68247C27.5712 10.2993 28.4453 11.0907 29.1245 12.0115C29.8038 12.9324 30.2748 13.9646 30.5108 15.0493C30.7468 16.134 30.7431 17.2499 30.4999 18.3333H32.1666C33.7137 18.3333 35.1974 18.9479 36.2914 20.0419C37.3853 21.1358 37.9999 22.6196 37.9999 24.1667C37.9999 25.7138 37.3853 27.1975 36.2914 28.2915C35.1974 29.3854 33.7137 30 32.1666 30H30.4999" stroke="#2E90FA" stroke-width="2" stroke-linecap="round" stroke-linejoin="round"/>
<path d="M15.5 25L20.5 20L25.5 25" stroke="#2E90FA" stroke-width="2" stroke-linecap="round" stroke-linejoin="round"/>
<path d="M20.5 20V35" stroke="#2E90FA" stroke-width="2" stroke-linecap="round" stroke-linejoin="round"/>
</g>
<defs>
<clipPath id="clip0_5902_63860">
<rect width="40" height="40" fill="white" transform="translate(0.5)"/>
</clipPath>
</defs>
</svg>
