<svg width="6" height="4" viewBox="0 0 6 4" fill="none" xmlns="http://www.w3.org/2000/svg">
<path fill-rule="evenodd" clip-rule="evenodd" d="M3.44878 3.63216C3.33074 3.75006 3.17073 3.81628 3.00389 3.81628C2.83706 3.81628 2.67705 3.75006 2.559 3.63216L0.184304 1.25831C0.0662569 1.1402 -3.93376e-05 0.980042 1.75116e-08 0.813058C3.93726e-05 0.646074 0.066411 0.485946 0.184514 0.367898C0.302617 0.249851 0.462777 0.183554 0.629761 0.183594C0.796745 0.183633 0.956874 0.250005 1.07492 0.368108L3.00389 2.29708L4.93286 0.368108C5.05154 0.253372 5.21054 0.18984 5.37561 0.191196C5.54068 0.192552 5.69862 0.258687 5.8154 0.375358C5.93218 0.492029 5.99846 0.6499 5.99997 0.814968C6.00149 0.980037 5.9381 1.1391 5.82348 1.25789L3.4492 3.63258L3.44878 3.63216Z" fill="#023F81"/>
</svg>
