<svg width="63" height="20" viewBox="0 0 63 20" fill="none" xmlns="http://www.w3.org/2000/svg">
<rect width="63" height="20" rx="10" fill="#E1FCEF"/>
<path d="M17.925 6.22461L15.1008 14H13.9465L17.1984 5.46875H17.9426L17.925 6.22461ZM20.2922 14L17.4621 6.22461L17.4445 5.46875H18.1887L21.4523 14H20.2922ZM20.1457 10.8418V11.7676H15.3527V10.8418H20.1457ZM25.448 13.2266C25.7058 13.2266 25.9441 13.1738 26.1628 13.0684C26.3816 12.9629 26.5612 12.8184 26.7019 12.6348C26.8425 12.4473 26.9226 12.2344 26.9421 11.9961H27.9734C27.9538 12.3711 27.8269 12.7207 27.5925 13.0449C27.362 13.3652 27.0593 13.625 26.6843 13.8242C26.3093 14.0195 25.8972 14.1172 25.448 14.1172C24.9714 14.1172 24.5554 14.0332 24.1999 13.8652C23.8484 13.6973 23.5554 13.4668 23.321 13.1738C23.0905 12.8809 22.9167 12.5449 22.7995 12.166C22.6862 11.7832 22.6296 11.3789 22.6296 10.9531V10.707C22.6296 10.2812 22.6862 9.87891 22.7995 9.5C22.9167 9.11719 23.0905 8.7793 23.321 8.48633C23.5554 8.19336 23.8484 7.96289 24.1999 7.79492C24.5554 7.62695 24.9714 7.54297 25.448 7.54297C25.9441 7.54297 26.3777 7.64453 26.7487 7.84766C27.1198 8.04688 27.4109 8.32031 27.6218 8.66797C27.8366 9.01172 27.9538 9.40234 27.9734 9.83984H26.9421C26.9226 9.57812 26.8484 9.3418 26.7195 9.13086C26.5945 8.91992 26.4226 8.75195 26.2038 8.62695C25.989 8.49805 25.737 8.43359 25.448 8.43359C25.1159 8.43359 24.8366 8.5 24.6101 8.63281C24.3874 8.76172 24.2097 8.9375 24.0769 9.16016C23.948 9.37891 23.8542 9.62305 23.7956 9.89258C23.7409 10.1582 23.7136 10.4297 23.7136 10.707V10.9531C23.7136 11.2305 23.7409 11.5039 23.7956 11.7734C23.8503 12.043 23.9421 12.2871 24.071 12.5059C24.2038 12.7246 24.3816 12.9004 24.6042 13.0332C24.8308 13.1621 25.112 13.2266 25.448 13.2266ZM32.3264 7.66016V8.49219H28.8987V7.66016H32.3264ZM30.0588 6.11914H31.1428V12.4297C31.1428 12.6445 31.176 12.8066 31.2424 12.916C31.3088 13.0254 31.3948 13.0977 31.5002 13.1328C31.6057 13.168 31.719 13.1855 31.8401 13.1855C31.9299 13.1855 32.0237 13.1777 32.1213 13.1621C32.2229 13.1426 32.2991 13.127 32.3498 13.1152L32.3557 14C32.2698 14.0273 32.1565 14.0527 32.0159 14.0762C31.8791 14.1035 31.7131 14.1172 31.5178 14.1172C31.2522 14.1172 31.008 14.0645 30.7854 13.959C30.5627 13.8535 30.385 13.6777 30.2522 13.4316C30.1233 13.1816 30.0588 12.8457 30.0588 12.4238V6.11914ZM35.2556 7.66016V14H34.1658V7.66016H35.2556ZM34.0837 5.97852C34.0837 5.80273 34.1365 5.6543 34.242 5.5332C34.3513 5.41211 34.5115 5.35156 34.7224 5.35156C34.9295 5.35156 35.0877 5.41211 35.197 5.5332C35.3103 5.6543 35.367 5.80273 35.367 5.97852C35.367 6.14648 35.3103 6.29102 35.197 6.41211C35.0877 6.5293 34.9295 6.58789 34.7224 6.58789C34.5115 6.58789 34.3513 6.5293 34.242 6.41211C34.1365 6.29102 34.0837 6.14648 34.0837 5.97852ZM39.4036 13.0215L41.138 7.66016H42.2454L39.9661 14H39.2395L39.4036 13.0215ZM37.9563 7.66016L39.7434 13.0508L39.8665 14H39.1399L36.843 7.66016H37.9563ZM46.3172 14.1172C45.8758 14.1172 45.4754 14.043 45.116 13.8945C44.7605 13.7422 44.4539 13.5293 44.1961 13.2559C43.9422 12.9824 43.7469 12.6582 43.6102 12.2832C43.4734 11.9082 43.4051 11.498 43.4051 11.0527V10.8066C43.4051 10.291 43.4812 9.83203 43.6336 9.42969C43.7859 9.02344 43.993 8.67969 44.2547 8.39844C44.5164 8.11719 44.8133 7.9043 45.1453 7.75977C45.4773 7.61523 45.8211 7.54297 46.1766 7.54297C46.6297 7.54297 47.0203 7.62109 47.3484 7.77734C47.6805 7.93359 47.952 8.15234 48.1629 8.43359C48.3738 8.71094 48.5301 9.03906 48.6316 9.41797C48.7332 9.79297 48.784 10.2031 48.784 10.6484V11.1348H44.0496V10.25H47.7V10.168C47.6844 9.88672 47.6258 9.61328 47.5242 9.34766C47.4266 9.08203 47.2703 8.86328 47.0555 8.69141C46.8406 8.51953 46.5477 8.43359 46.1766 8.43359C45.9305 8.43359 45.7039 8.48633 45.4969 8.5918C45.2898 8.69336 45.1121 8.8457 44.9637 9.04883C44.8152 9.25195 44.7 9.5 44.618 9.79297C44.5359 10.0859 44.4949 10.4238 44.4949 10.8066V11.0527C44.4949 11.3535 44.5359 11.6367 44.618 11.9023C44.7039 12.1641 44.827 12.3945 44.9871 12.5938C45.1512 12.793 45.3484 12.9492 45.5789 13.0625C45.8133 13.1758 46.0789 13.2324 46.3758 13.2324C46.7586 13.2324 47.0828 13.1543 47.3484 12.998C47.6141 12.8418 47.8465 12.6328 48.0457 12.3711L48.702 12.8926C48.5652 13.0996 48.3914 13.2969 48.1805 13.4844C47.9695 13.6719 47.7098 13.8242 47.4012 13.9414C47.0965 14.0586 46.7352 14.1172 46.3172 14.1172Z" fill="#14804A"/>
</svg>
