<svg width="19" height="20" viewBox="0 0 15 18" fill="none" xmlns="http://www.w3.org/2000/svg">
<path d="M15.0683 13.143C14.7539 14.1173 14.2978 15.0399 13.7146 15.8812L13.7371 15.8468C12.8066 17.2603 11.8801 17.967 10.9576 17.967C10.4257 17.931 9.90307 17.81 9.40955 17.6085L9.44255 17.6205C8.9257 17.4094 8.37531 17.2924 7.8173 17.2747H7.80905C7.26934 17.2944 6.73867 17.4192 6.2468 17.6423L6.27305 17.6318C5.82862 17.8437 5.3477 17.9684 4.8563 17.9993L4.84505 18C3.74905 18 2.66355 17.0662 1.58855 15.1987C0.593414 13.5598 0.0452013 11.6886 -0.00144698 9.77175V9.75675C-0.0651852 8.3009 0.370368 6.86696 1.23305 5.6925L1.2203 5.7105C1.56802 5.2277 2.02552 4.83448 2.55507 4.56324C3.08463 4.29201 3.67108 4.15054 4.26605 4.1505H4.2938H4.2923C4.96012 4.17162 5.62174 4.28572 6.25805 4.4895L6.20705 4.47525C6.68095 4.63684 7.17154 4.74451 7.66955 4.79625L7.7003 4.79925C8.24428 4.75304 8.7781 4.62457 9.28355 4.41825L9.24755 4.431C9.84396 4.21 10.4719 4.08593 11.1076 4.0635H11.1713C11.9813 4.06221 12.772 4.31076 13.4356 4.77525L13.4228 4.767C13.8518 5.079 14.2223 5.4345 14.5388 5.835L14.5478 5.847C14.0905 6.2144 13.6807 6.63713 13.3276 7.1055L13.3148 7.1235C12.8551 7.77175 12.6092 8.5473 12.6113 9.342V9.36375V9.4095C12.6113 10.2952 12.8911 11.1158 13.3666 11.7878L13.3576 11.775C13.7509 12.4049 14.3448 12.8841 15.0436 13.1355L15.0668 13.143H15.0683ZM11.0011 0.4545C10.9875 0.969843 10.8776 1.4781 10.6771 1.953L10.6876 1.926C10.4577 2.48721 10.1157 2.99559 9.68255 3.42L9.6818 3.42075C9.36298 3.76229 8.97056 4.02673 8.5343 4.194L8.5133 4.20075C8.15138 4.29742 7.78086 4.35846 7.40705 4.383L7.3883 4.38375V4.36275C7.3883 3.33375 7.7033 2.3775 8.24255 1.587L8.2313 1.60425C8.89339 0.755245 9.84892 0.184388 10.9103 0.00375L10.9358 0C10.9456 0.03225 10.9553 0.07275 10.9621 0.114L10.9628 0.12C10.9703 0.16725 10.9801 0.20775 10.9921 0.2475L10.9898 0.24C10.9898 0.269 10.9916 0.305 10.9951 0.348C10.9986 0.391 11.0003 0.4265 11.0003 0.4545H11.0011Z" fill="#444444"/>
</svg>
