<svg width="19" height="20" viewBox="0 0 19 20" fill="none" xmlns="http://www.w3.org/2000/svg">
<path d="M18.5721 8.2133H17.8269V8.17545H9.50006V11.8234H14.7288C13.966 13.9469 11.9162 15.4713 9.50006 15.4713C6.43441 15.4713 3.94885 13.0213 3.94885 9.99942C3.94885 6.97756 6.43441 4.52751 9.50006 4.52751C10.9152 4.52751 12.2026 5.05373 13.1828 5.91327L15.7998 3.33373C14.1473 1.81573 11.937 0.879578 9.50006 0.879578C4.39064 0.879578 0.248047 4.96299 0.248047 9.99942C0.248047 15.0359 4.39064 19.1193 9.50006 19.1193C14.6095 19.1193 18.7521 15.0359 18.7521 9.99942C18.7521 9.38794 18.6882 8.79104 18.5721 8.2133Z" fill="#FFC107"/>
<path d="M1.31396 5.75515L4.35371 7.95284C5.17622 5.94533 7.16818 4.52794 9.49922 4.52794C10.9143 4.52794 12.2017 5.05421 13.182 5.91386L15.7989 3.33401C14.1465 1.81584 11.9362 0.879578 9.49922 0.879578C5.94552 0.879578 2.86368 2.85744 1.31396 5.75515Z" fill="#FF3D00"/>
<path d="M9.50028 19.1204C11.8901 19.1204 14.0615 18.2188 15.7033 16.7526L12.8398 14.3639C11.8797 15.0837 10.7065 15.473 9.50028 15.4721C7.09383 15.4721 5.05052 13.9594 4.28075 11.8483L1.26367 14.14C2.79488 17.0938 5.90448 19.1204 9.50028 19.1204Z" fill="#4CAF50"/>
<path d="M18.5721 8.2133H17.8268V8.17545H9.5V11.8234H14.7288C14.3639 12.8341 13.7066 13.7172 12.8381 14.3637L12.8395 14.3628L15.703 16.7513C15.5004 16.9328 18.752 14.5593 18.752 9.99942C18.752 9.38794 18.6882 8.79104 18.5721 8.2133Z" fill="#1976D2"/>
</svg>
