<svg width="19" height="18" viewBox="0 0 19 18" fill="none" xmlns="http://www.w3.org/2000/svg">
<g clip-path="url(#clip0_1988_13133)">
<path d="M13.5791 10.2005C13.7227 9.81677 13.7956 9.41015 13.7941 9.0004C13.7941 8.0906 13.4327 7.21806 12.7894 6.57474C12.1461 5.93142 11.2735 5.57 10.3637 5.57C9.95902 5.57047 9.55766 5.64329 9.17859 5.78502L9.98368 6.61512C10.1061 6.59554 10.2298 6.58551 10.3537 6.58512C10.997 6.58377 11.6147 6.83702 12.0719 7.28955C12.5291 7.74207 12.7887 8.35713 12.794 9.0004C12.7936 9.12434 12.7836 9.24805 12.764 9.37044L13.5791 10.2005Z" fill="#C7D2D6"/>
<path d="M18.1296 8.76558C16.4444 5.65022 13.4891 3.765 10.2187 3.765C9.32827 3.76709 8.44382 3.91056 7.59839 4.19005L8.40348 5.00014C8.99648 4.84689 9.60622 4.76794 10.2187 4.76512C13.034 4.76512 15.5943 6.3353 17.1195 8.9806C16.56 9.96202 15.8183 10.8276 14.9342 11.5309L15.6443 12.241C16.6675 11.4156 17.5172 10.3959 18.1446 9.24064L18.2746 9.00061L18.1296 8.76558Z" fill="#C7D2D6"/>
<path d="M3.418 2.89025L5.64825 5.12025C4.23855 6.0278 3.08641 7.28313 2.30287 8.76525L2.17285 9.00025L2.30287 9.24025C3.98806 12.3552 6.9434 14.2402 10.2138 14.2402C11.4903 14.24 12.7502 13.9511 13.8992 13.3952L16.3995 15.8952L17.2746 15.1452L4.27309 2.14525L3.418 2.89025ZM8.29356 7.76525L11.6189 11.0902C11.2432 11.3228 10.8107 11.4473 10.3688 11.4502C10.0477 11.4503 9.72982 11.3868 9.43338 11.2635C9.13694 11.1402 8.8678 10.9595 8.64147 10.7318C8.41514 10.5041 8.23607 10.2339 8.11457 9.93669C7.99307 9.63953 7.93154 9.32128 7.93352 9.00025C7.93915 8.56353 8.06362 8.13659 8.29356 7.76525ZM7.56848 7.04025C7.10064 7.69995 6.88136 8.5039 6.94946 9.30974C7.01756 10.1156 7.36866 10.8713 7.94057 11.4432C8.51249 12.015 9.26833 12.3661 10.0743 12.4342C10.8802 12.5023 11.6843 12.283 12.344 11.8152L13.1441 12.6152C12.2179 13.0111 11.2211 13.2152 10.2138 13.2152C7.39846 13.2152 4.83816 11.6452 3.31298 9.00025C4.04492 7.70436 5.09905 6.61935 6.37334 5.85025L7.56848 7.04025Z" fill="#C7D2D6"/>
</g>
<defs>
<clipPath id="clip0_1988_13133">
<rect x="0.982666" width="18.0021" height="18" rx="9" fill="white"/>
</clipPath>
</defs>
</svg>
