<svg width="18" height="18" viewBox="0 0 18 18" fill="none" xmlns="http://www.w3.org/2000/svg">
<path d="M15.3368 15.3371H12.6698V11.1603C12.6698 10.1643 12.652 8.88215 11.2827 8.88215C9.8936 8.88215 9.68105 9.96736 9.68105 11.0878V15.3368H7.01409V6.74768H9.57438V7.92148H9.61024C9.86647 7.48336 10.2367 7.12294 10.6816 6.87861C11.1264 6.63428 11.6292 6.51518 12.1364 6.534C14.8396 6.534 15.338 8.31206 15.338 10.6252L15.3368 15.3371ZM4.00472 5.57367C3.14993 5.57381 2.45686 4.88095 2.45672 4.02616C2.45658 3.17137 3.14937 2.4783 4.00416 2.47816C4.85895 2.47795 5.55202 3.17081 5.55216 4.0256C5.55223 4.43609 5.38924 4.82979 5.09904 5.12011C4.80884 5.41043 4.41521 5.57358 4.00472 5.57367ZM5.33827 15.3371H2.66843V6.74768H5.3382L5.33827 15.3371ZM16.6665 0.00126428H1.32827C0.603351 -0.00689197 0.00885938 0.573819 0 1.29874V16.7009C0.00857813 17.4262 0.603 18.0075 1.3282 17.9999H16.6665C17.3932 18.0089 17.9899 17.4276 18 16.7009V1.29755C17.9897 0.571217 17.3929 -0.00942322 16.6665 6.89661e-05" fill="#0A66C2"/>
</svg>
