<svg width="18" height="22" viewBox="0 0 18 22" fill="none" xmlns="http://www.w3.org/2000/svg">
<path d="M14.8098 9.72789V6.38347C14.8098 4.95569 14.1725 3.58638 13.038 2.57678C11.9035 1.56719 10.3648 1 8.76044 1C7.15605 1 5.61736 1.56719 4.48289 2.57678C3.34841 3.58638 2.71106 4.95569 2.71106 6.38347V9.72789C1.78816 10.7442 1.20738 11.9723 1.0359 13.27C0.86441 14.5678 1.10922 15.8822 1.74202 17.0614C2.37482 18.2405 3.36976 19.2361 4.61176 19.9331C5.85377 20.6301 7.29211 21 8.76044 21C10.2288 21 11.6671 20.6301 12.9091 19.9331C14.1511 19.2361 15.1461 18.2405 15.7789 17.0614C16.4117 15.8822 16.6565 14.5678 16.485 13.27C16.3135 11.9723 15.7327 10.7442 14.8098 9.72789Z" stroke="#BCBEC0" stroke-linecap="round" stroke-linejoin="round"/>
</svg>
