<svg width="23" height="20" viewBox="0 0 23 20" fill="none" xmlns="http://www.w3.org/2000/svg">
<path d="M1.21097 19.9875C1.2898 20.0084 1.37355 19.9968 1.44406 19.9554C1.51457 19.914 1.56617 19.846 1.58767 19.7662C2.22166 17.3644 4.79823 16.7419 6.33826 16.3694C6.72419 16.2762 7.02887 16.2025 7.22707 16.1156C8.9813 15.3425 9.55312 14.0987 9.72424 13.1912C9.73441 13.1373 9.73038 13.0815 9.71255 13.0296C9.69472 12.9777 9.66372 12.9315 9.62268 12.8956C8.70924 12.095 7.93861 10.8931 7.45235 9.51062C7.43863 9.47097 7.41706 9.4346 7.38895 9.40375C6.74573 8.69375 6.37642 7.94312 6.37642 7.345C6.37642 6.99562 6.5063 6.76125 6.79867 6.58437C6.84246 6.55779 6.87906 6.52057 6.90517 6.47606C6.93128 6.43154 6.94608 6.38114 6.94824 6.32937C7.08427 3.14562 9.31738 0.639375 12.0564 0.623125L12.1223 0.6275C14.8749 0.66625 17.0939 3.22625 17.1733 6.455C17.1744 6.49913 17.1847 6.54252 17.2036 6.58228C17.2225 6.62204 17.2495 6.65727 17.2828 6.68562C17.4755 6.85125 17.5654 7.06125 17.5654 7.34625C17.5654 7.84687 17.3025 8.4625 16.8261 9.07875C16.8034 9.1084 16.7859 9.14181 16.7744 9.1775C16.282 10.7625 15.3981 12.1619 14.3505 13.0181C14.3071 13.0537 14.274 13.1006 14.2547 13.1537C14.2354 13.2069 14.2307 13.2643 14.2409 13.32C14.412 14.2269 14.9839 15.47 16.7381 16.2444C16.9455 16.3356 17.2674 16.4069 17.6755 16.4962C19.2002 16.8312 21.7515 17.3931 22.3775 19.7662C22.388 19.8059 22.4061 19.843 22.4307 19.8756C22.4554 19.9081 22.4861 19.9354 22.5212 19.9559C22.5562 19.9764 22.5949 19.9897 22.6349 19.995C22.675 20.0003 22.7158 19.9975 22.7548 19.9869C22.7938 19.9762 22.8304 19.9578 22.8625 19.9328C22.8945 19.9078 22.9214 19.8766 22.9416 19.841C22.9618 19.8054 22.9748 19.7662 22.9801 19.7255C22.9853 19.6847 22.9826 19.6434 22.9721 19.6037C22.2488 16.8619 19.3584 16.2262 17.806 15.885C17.4459 15.8056 17.1351 15.7375 16.9837 15.67C15.8388 15.165 15.1334 14.3956 14.8841 13.3794C15.9472 12.4525 16.8366 11.0225 17.345 9.41875C17.8848 8.70625 18.1815 7.9725 18.1815 7.34562C18.1815 6.9275 18.0485 6.57875 17.7851 6.30625C17.6386 2.80375 15.1771 0.045625 12.1223 0.00125L12.0306 0C9.03116 0.01625 6.55923 2.70187 6.34318 6.14375C5.95787 6.43125 5.76213 6.83437 5.76213 7.34625C5.76213 8.08562 6.17391 8.97 6.89469 9.78125C7.39265 11.1706 8.16451 12.3912 9.08348 13.2456C8.83543 14.2656 8.12942 15.0375 6.98209 15.5431C6.83375 15.6087 6.5383 15.6806 6.19607 15.7631C4.63204 16.1406 1.72185 16.8437 0.993078 19.605C0.972031 19.6851 0.983162 19.7703 1.02402 19.8421C1.06489 19.9138 1.13213 19.9661 1.21097 19.9875Z" fill="#BCBEC0"/>
</svg>
