<svg width="16" height="15" viewBox="0 0 16 15" fill="none" xmlns="http://www.w3.org/2000/svg">
<path d="M10.3016 1.49542L9.30622 2.03983L10.3016 2.58425L10.846 3.57967L11.3905 2.58425L12.3859 2.03983L11.3905 1.49542L10.846 0.5L10.3016 1.49542ZM6.51514 2.06284C5.60219 2.24808 4.75019 2.65907 4.03694 3.25829C3.32369 3.8575 2.77191 4.62585 2.43199 5.49317C2.09207 6.36049 1.97484 7.29914 2.091 8.22342C2.20716 9.1477 2.55301 10.0282 3.09697 10.7844C3.64094 11.5406 4.36568 12.1485 5.20502 12.5526C6.04437 12.9567 6.97157 13.1441 7.90196 13.0977C8.83235 13.0513 9.7363 12.7725 10.5312 12.2869C11.3262 11.8012 11.9868 11.1242 12.4528 10.3176C10.7974 10.3047 9.21418 9.63804 8.04817 8.46289C6.88216 7.28775 6.2279 5.69937 6.22795 4.04392C6.22795 3.36079 6.31926 2.69369 6.51514 2.06284ZM0.651367 7.52928C0.651367 3.67935 3.77216 0.558554 7.62209 0.558554H8.83081L8.22575 1.60416C7.82215 2.30123 7.62209 3.13075 7.62209 4.04392C7.62198 4.76442 7.78144 5.47601 8.08901 6.12757C8.39658 6.77913 8.84462 7.35449 9.40096 7.81233C9.95729 8.27017 10.6081 8.59912 11.3067 8.77556C12.0053 8.952 12.7342 8.97155 13.4412 8.8328L14.6137 8.60486L14.2352 9.7383C13.3116 12.5043 10.7011 14.5 7.62209 14.5C3.77216 14.5 0.651367 11.3792 0.651367 7.52928ZM13.5472 3.63683L14.1843 4.80094L15.3484 5.43806L14.1843 6.07518L13.5472 7.23929L12.9101 6.07518L11.746 5.43806L12.9101 4.80094L13.5472 3.63683Z" fill="#464F60"/>
</svg>
