<svg width="16" height="16" viewBox="0 0 16 16" fill="none" xmlns="http://www.w3.org/2000/svg">
<rect x="0.5" y="0.5" width="15" height="15" rx="7.5" stroke="#023F81"/>
<path d="M9.21762 2.28613C9.88519 2.28613 10.219 2.78773 10.219 3.36248C10.219 4.08023 9.63908 4.74408 8.88433 4.74408C8.25213 4.74408 7.88347 4.33158 7.9009 3.64958C7.9009 3.07593 8.33981 2.28613 9.21762 2.28613ZM7.16359 13.2861C6.6365 13.2861 6.25041 12.9275 6.61907 11.3479L7.22387 8.54733C7.32898 8.09963 7.34642 7.91978 7.22387 7.91978C7.09803 7.91978 6.63851 8.11603 6.25206 8.3502C6.10308 8.44047 5.90264 8.39658 5.81947 8.24354C5.75755 8.12961 5.78013 7.9878 5.87674 7.9013C7.11803 6.7899 8.49641 6.14328 9.10253 6.14328C9.62912 6.14328 9.7168 6.84343 9.45376 7.91978L8.76078 10.8634C8.63822 11.3831 8.69053 11.5624 8.81359 11.5624C8.9456 11.5624 9.32929 11.4118 9.74904 11.1005C9.88561 10.9993 10.0827 11.0243 10.1771 11.1657C10.2481 11.2721 10.2385 11.4136 10.1509 11.5068C8.94597 12.7885 7.66909 13.2861 7.16359 13.2861Z" fill="#023F81"/>
</svg>
