<svg width="16" height="12" viewBox="0 0 16 12" fill="none" xmlns="http://www.w3.org/2000/svg">
<path d="M1.14286 1.09091V9.81818C1.14286 10.1075 1.26327 10.385 1.47759 10.5896C1.69192 10.7942 1.98261 10.9091 2.28571 10.9091H13.7143C14.0174 10.9091 14.3081 10.7942 14.5224 10.5896C14.7367 10.385 14.8571 10.1075 14.8571 9.81818V1.09091H1.14286ZM1.14286 0H14.8571C15.1602 0 15.4509 0.114935 15.6653 0.31952C15.8796 0.524105 16 0.801582 16 1.09091V9.81818C16 10.3968 15.7592 10.9518 15.3305 11.361C14.9019 11.7701 14.3205 12 13.7143 12H2.28571C1.67951 12 1.09812 11.7701 0.66947 11.361C0.240816 10.9518 0 10.3968 0 9.81818V1.09091C0 0.801582 0.120408 0.524105 0.334735 0.31952C0.549062 0.114935 0.839753 0 1.14286 0Z" fill="#023F81"/>
<path d="M15 1.09082L10.5806 5.91264C10.2588 6.26379 9.86203 6.54522 9.41696 6.73803C8.97188 6.93085 8.48877 7.0306 8 7.0306C7.51123 7.0306 7.02812 6.93085 6.58305 6.73803C6.13797 6.54522 5.74123 6.26379 5.41943 5.91264L1 1.09082H15ZM2.51886 1.09082L6.27886 5.19373C6.49339 5.42789 6.75791 5.61556 7.05466 5.74414C7.35141 5.87272 7.67354 5.93924 7.99943 5.93924C8.32532 5.93924 8.64745 5.87272 8.9442 5.74414C9.24095 5.61556 9.50546 5.42789 9.72 5.19373L13.4811 1.09082H2.51886Z" fill="#023F81"/>
</svg>
