<svg width="16" height="16" viewBox="0 0 16 16" fill="none" xmlns="http://www.w3.org/2000/svg">
<path fill-rule="evenodd" clip-rule="evenodd" d="M4.75 0.75C4.75 0.335786 4.41421 0 4 0C3.58579 0 3.25 0.335786 3.25 0.75V2.00879C1.43368 2.13698 0 3.65106 0 5.5V6.5C0 8.34894 1.43368 9.86302 3.25 9.99121L3.25 15.25C3.25 15.6642 3.58579 16 4 16C4.41421 16 4.75 15.6642 4.75 15.25L4.75 9.99121C6.56632 9.86302 8 8.34894 8 6.5V5.5C8 3.65106 6.56632 2.13698 4.75 2.00879V0.75ZM6.5 5.5C6.5 4.39543 5.60457 3.5 4.5 3.5H3.5C2.39543 3.5 1.5 4.39543 1.5 5.5V6.5C1.5 7.60457 2.39543 8.5 3.5 8.5H4.5C5.60457 8.5 6.5 7.60457 6.5 6.5V5.5Z" fill="#023F81"/>
<path fill-rule="evenodd" clip-rule="evenodd" d="M11.25 0.75L11.25 6.00879C9.43368 6.13698 8 7.65106 8 9.5V10.5C8 12.3489 9.43368 13.863 11.25 13.9912L11.25 15.25C11.25 15.6642 11.5858 16 12 16C12.4142 16 12.75 15.6642 12.75 15.25L12.75 13.9912C14.5663 13.863 16 12.3489 16 10.5V9.5C16 7.65106 14.5663 6.13698 12.75 6.00879L12.75 0.75C12.75 0.335786 12.4142 0 12 0C11.5858 0 11.25 0.335786 11.25 0.75ZM11.5 7.5C10.3954 7.5 9.5 8.39543 9.5 9.5V10.5C9.5 11.6046 10.3954 12.5 11.5 12.5H12.5C13.6046 12.5 14.5 11.6046 14.5 10.5V9.5C14.5 8.39543 13.6046 7.5 12.5 7.5H11.5Z" fill="#023F81"/>
</svg>
