<svg width="21" height="16" viewBox="0 0 21 16" fill="none" xmlns="http://www.w3.org/2000/svg">
<path d="M18.8235 4.70588C17.4118 4.70588 16.6588 6.02353 17.0353 7.05882L13.6471 10.4471C13.3647 10.3529 12.9882 10.3529 12.7059 10.4471L10.2588 8C10.6353 6.96471 9.88235 5.64706 8.47059 5.64706C7.15294 5.64706 6.30588 6.96471 6.68235 8L2.35294 12.2353C1.31765 11.9529 0 12.7059 0 14.1176C0 15.1529 0.847059 16 1.88235 16C3.2 16 4.04706 14.6824 3.67059 13.6471L7.90588 9.31765C8.18823 9.41176 8.56471 9.41176 8.84706 9.31765L11.2941 11.7647C11.0118 12.7059 11.7647 14.1176 13.1765 14.1176C14.5882 14.1176 15.3412 12.8 14.9647 11.7647L18.3529 8.37647C19.3882 8.65882 20.7059 7.90588 20.7059 6.58824C20.7059 5.55294 19.8588 4.70588 18.8235 4.70588ZM13.1765 5.64706L14.0235 3.67059L16 2.82353L14.0235 1.97647L13.1765 0L12.3294 1.97647L10.3529 2.82353L12.3294 3.67059L13.1765 5.64706ZM2.35294 7.52941L2.82353 5.64706L4.70588 5.17647L2.82353 4.70588L2.35294 2.82353L1.88235 4.70588L0 5.17647L1.88235 5.64706L2.35294 7.52941Z" fill="white"/>
</svg>
