<svg width="17" height="16" viewBox="0 0 17 16" fill="none" xmlns="http://www.w3.org/2000/svg">
<path d="M3.34186 5.91335H3.05333V5.47107H3.35003C3.4067 5.47107 3.45547 5.4811 3.49634 5.50115C3.53775 5.5212 3.56963 5.54887 3.59197 5.58409C3.61431 5.6193 3.62548 5.65997 3.62548 5.70605C3.62548 5.76893 3.60287 5.81934 3.55764 5.85728C3.51242 5.89466 3.44049 5.91335 3.34186 5.91335Z" fill="white"/>
<path d="M3.3157 5.23285H3.05333V4.82064H3.32224C3.40071 4.82064 3.46119 4.83905 3.5037 4.87591C3.54674 4.91277 3.56827 4.96129 3.56827 5.02145C3.56827 5.06537 3.5571 5.10303 3.53475 5.13447C3.51296 5.16591 3.48299 5.1903 3.44484 5.20766C3.40725 5.22446 3.3642 5.23285 3.3157 5.23285Z" fill="white"/>
<path d="M5.34746 5.07106C5.38288 5.15183 5.40059 5.25101 5.40059 5.36864C5.40059 5.48627 5.38288 5.58545 5.34746 5.66622C5.31259 5.74696 5.26328 5.80823 5.19952 5.84995C5.13577 5.89169 5.06112 5.91255 4.97556 5.91255C4.89002 5.91255 4.81536 5.89169 4.75161 5.84995C4.68785 5.80823 4.63827 5.74696 4.60285 5.66622C4.56797 5.58545 4.55054 5.48627 4.55054 5.36864C4.55054 5.25101 4.56797 5.15183 4.60285 5.07106C4.63827 4.99029 4.68785 4.92905 4.75161 4.8873C4.81536 4.84559 4.89002 4.8247 4.97556 4.8247C5.06112 4.8247 5.13577 4.84559 5.19952 4.8873C5.26328 4.92905 5.31259 4.99029 5.34746 5.07106Z" fill="white"/>
<path d="M6.9542 5.62231H6.65341L6.86793 5.90368C6.83884 5.90958 6.8082 5.91255 6.77601 5.91255C6.69047 5.91255 6.61581 5.89169 6.55205 5.84995C6.4883 5.80823 6.43872 5.74696 6.4033 5.66622C6.36842 5.58545 6.35099 5.48627 6.35099 5.36864C6.35099 5.25101 6.36842 5.15183 6.4033 5.07106C6.43872 4.99029 6.4883 4.92905 6.55205 4.8873C6.61581 4.84559 6.69047 4.8247 6.77601 4.8247C6.86157 4.8247 6.93622 4.84559 6.99997 4.8873C7.06373 4.92905 7.11304 4.99029 7.14791 5.07106C7.18333 5.15183 7.20104 5.25101 7.20104 5.36864C7.20104 5.48627 7.18333 5.58545 7.14791 5.66622C7.12892 5.7102 7.10564 5.74839 7.07807 5.78081L6.9542 5.62231Z" fill="white"/>
<path fill-rule="evenodd" clip-rule="evenodd" d="M5.14333 9.34929C7.36792 9.34929 9.1713 7.55542 9.1713 5.34261C9.1713 3.1298 7.36792 1.33594 5.14333 1.33594C2.91874 1.33594 1.11536 3.1298 1.11536 5.34261C1.11536 7.55542 2.91874 9.34929 5.14333 9.34929ZM2.69941 4.53606V6.20119H3.41461C3.53993 6.20119 3.64537 6.18113 3.73092 6.14103C3.81647 6.10092 3.88105 6.04642 3.92463 5.9776C3.96877 5.90822 3.99085 5.82937 3.99085 5.74102C3.99085 5.65916 3.97341 5.5887 3.93853 5.52962C3.90366 5.46999 3.85816 5.42366 3.80204 5.39058C3.74646 5.35753 3.68679 5.33964 3.62303 5.33692V5.32067C3.68133 5.30764 3.7331 5.2857 3.77833 5.25482C3.8241 5.22338 3.86006 5.18327 3.88622 5.13447C3.91238 5.08514 3.92546 5.02795 3.92546 4.96294C3.92546 4.87944 3.90475 4.80573 3.86334 4.74176C3.82192 4.67727 3.76007 4.62686 3.67779 4.59056C3.59551 4.55423 3.49279 4.53606 3.36965 4.53606H2.69941ZM5.65561 5.83206C5.72481 5.70468 5.75941 5.5502 5.75941 5.36864C5.75941 5.18705 5.72481 5.03256 5.65561 4.90519C5.58695 4.77781 5.49323 4.6808 5.37443 4.61414C5.25619 4.54692 5.12324 4.51332 4.97556 4.51332C4.82681 4.51332 4.6933 4.54692 4.57506 4.61414C4.45681 4.6808 4.36336 4.77781 4.2947 4.90519C4.22604 5.03256 4.19171 5.18705 4.19171 5.36864C4.19171 5.54968 4.22604 5.70388 4.2947 5.83126C4.36336 5.95863 4.45681 6.05593 4.57506 6.12314C4.6933 6.19036 4.82681 6.22397 4.97556 6.22397C5.12324 6.22397 5.25619 6.1906 5.37443 6.12395C5.49323 6.05673 5.58695 5.95943 5.65561 5.83206ZM7.29461 6.03863C7.35857 5.98197 7.41239 5.91307 7.45606 5.83206C7.52526 5.70468 7.55986 5.5502 7.55986 5.36864C7.55986 5.18705 7.52526 5.03256 7.45606 4.90519C7.3874 4.77781 7.29368 4.6808 7.17488 4.61414C7.05664 4.54692 6.92369 4.51332 6.77601 4.51332C6.62726 4.51332 6.49375 4.54692 6.37551 4.61414C6.25726 4.6808 6.16381 4.77781 6.09515 4.90519C6.02649 5.03256 5.99216 5.18705 5.99216 5.36864C5.99216 5.54968 6.02649 5.70388 6.09515 5.83126C6.16381 5.95863 6.25726 6.05593 6.37551 6.12314C6.49375 6.19036 6.62726 6.22397 6.77601 6.22397C6.88135 6.22397 6.97919 6.20699 7.06955 6.17306L7.20432 6.33778H7.53452L7.29461 6.03863Z" fill="white"/>
<path fill-rule="evenodd" clip-rule="evenodd" d="M14.7836 0.631058L15.7604 0.0601002C15.8141 0.0267212 15.8846 0.0667846 15.8846 0.133566V15.2988C15.8846 15.3289 15.8712 15.3556 15.8444 15.369L14.7836 15.99C14.7568 16.0033 14.7266 16.0033 14.6997 15.99L13.6424 15.369C13.6155 15.3556 13.582 15.3556 13.5551 15.369L12.5011 15.99C12.4743 16.0033 12.4407 16.0033 12.4138 15.99L11.3599 15.369C11.333 15.3556 11.2994 15.3556 11.2726 15.369L10.2186 15.99C10.1917 16.0033 10.1582 16.0033 10.1313 15.99L9.07734 15.369C9.0505 15.3556 9.02029 15.3556 8.99343 15.369L7.9361 15.99C7.90924 16.0033 7.87902 16.0033 7.85218 15.99L6.79483 15.369C6.76797 15.3556 6.73778 15.3556 6.71092 15.369L5.65693 15.99C5.63009 16.0033 5.59651 16.0033 5.56967 15.99L4.51568 15.369C4.48883 15.3556 4.47205 15.3289 4.47205 15.2988V9.2936C4.69035 9.33003 4.91461 9.34899 5.14333 9.34899C5.33807 9.34899 5.52958 9.33524 5.71694 9.30867C5.77848 9.37635 5.86734 9.41904 5.96576 9.41904H9.94673C10.1313 9.41904 10.2824 9.26878 10.2824 9.08515C10.2824 8.90151 10.1313 8.75126 9.94673 8.75126H7.26094C8.04263 8.26978 8.64639 7.52969 8.95151 6.65108H14.542C14.7266 6.65108 14.8776 6.50085 14.8776 6.31719C14.8776 6.13355 14.7266 5.9833 14.542 5.9833H9.12003C9.15377 5.77459 9.1713 5.56049 9.1713 5.34231C9.1713 5.18531 9.16222 5.03042 9.14456 4.87812H14.542C14.7266 4.87812 14.8776 4.73121 14.8776 4.54424C14.8776 4.3606 14.7266 4.21035 14.542 4.21035H9.0083C8.8912 3.81411 8.7142 3.44338 8.48771 3.10852H14.542C14.7266 3.10852 14.8776 2.95826 14.8776 2.77463C14.8776 2.58765 14.7266 2.44074 14.542 2.44074H7.92105C7.19837 1.75599 6.2202 1.33564 5.14333 1.33564C4.91461 1.33564 4.69035 1.3546 4.47205 1.39103V0.133566C4.47205 0.0667846 4.54254 0.0267212 4.5996 0.0601002L5.56968 0.631058C5.59652 0.644407 5.6301 0.644407 5.65694 0.631058L6.71093 0.0100267C6.73779 -0.00334224 6.76798 -0.00334224 6.79484 0.0100267L7.85219 0.631058C7.87903 0.644407 7.90925 0.644407 7.93611 0.631058L8.99344 0.0100267C9.0203 -0.00334224 9.05051 -0.00334224 9.07735 0.0100267L10.1313 0.631058C10.1582 0.644407 10.1918 0.644407 10.2186 0.631058L11.2726 0.0100267C11.2995 -0.00334224 11.333 -0.00334224 11.3599 0.0100267L12.4139 0.631058C12.4407 0.644407 12.4743 0.644407 12.5011 0.631058L13.5551 0.0100267C13.582 -0.00334224 13.6155 -0.00334224 13.6424 0.0100267L14.6997 0.631058C14.7266 0.644407 14.7568 0.644407 14.7836 0.631058ZM9.94673 10.4775H5.96576C5.78112 10.4775 5.63009 10.6244 5.63009 10.8114C5.63009 10.995 5.78112 11.1452 5.96576 11.1452H9.94673C10.1313 11.1452 10.2824 10.995 10.2824 10.8114C10.2824 10.6244 10.1313 10.4775 9.94673 10.4775ZM9.94673 12.2003H5.96576C5.78112 12.2003 5.63009 12.3506 5.63009 12.5342C5.63009 12.7212 5.78112 12.8681 5.96576 12.8681H9.94673C10.1313 12.8681 10.2824 12.7212 10.2824 12.5342C10.2824 12.3506 10.1313 12.2003 9.94673 12.2003ZM13.1859 12.1002C13.1523 12.1102 13.1154 12.1135 13.0751 12.1135C12.8368 12.1135 12.6388 11.9232 12.6388 11.6761V11.6694C12.6354 11.4424 12.4441 11.2521 12.2125 11.2454H12.2057C11.9641 11.2454 11.766 11.4424 11.766 11.6761C11.766 11.8331 11.7929 11.9833 11.8466 12.1235C11.9809 12.4875 12.2762 12.7813 12.6388 12.9015V12.9883C12.6388 13.2287 12.8368 13.4257 13.0751 13.4257C13.2195 13.4257 13.347 13.3556 13.4309 13.2454C13.4846 13.172 13.5148 13.0851 13.5148 12.9883V12.9015C13.7162 12.8314 13.8975 12.7145 14.0351 12.5609C14.2566 12.3305 14.3876 12.0234 14.3876 11.6761C14.3876 10.9616 13.8035 10.374 13.0751 10.374C13.0617 10.374 13.0516 10.374 13.0382 10.3773C12.8167 10.3606 12.6455 10.1736 12.6455 9.95326C12.6455 9.71621 12.8435 9.51586 13.0852 9.51586C13.3269 9.51586 13.5249 9.71621 13.5249 9.95326C13.5249 10.187 13.7196 10.384 13.9579 10.384C14.1996 10.384 14.3943 10.187 14.3943 9.95326C14.3943 9.79968 14.3641 9.6394 14.307 9.49917C14.1761 9.1419 13.8874 8.84808 13.5249 8.72788V8.63106C13.5249 8.39065 13.3269 8.19365 13.0852 8.19365C12.8435 8.19365 12.6455 8.39065 12.6455 8.63106V8.72788C12.283 8.84808 11.9943 9.1419 11.8634 9.49917C11.8097 9.6394 11.7761 9.79968 11.7761 9.95326C11.7761 10.6678 12.3635 11.2554 13.0852 11.2554C13.0986 11.2554 13.112 11.2554 13.1255 11.2521C13.3436 11.2721 13.5148 11.4591 13.5148 11.6761C13.5148 11.8831 13.3739 12.0534 13.1859 12.1002Z" fill="white"/>
<path d="M8.9213 5.34261C8.9213 7.41612 7.2311 9.09929 5.14333 9.09929C3.05556 9.09929 1.36536 7.41612 1.36536 5.34261C1.36536 3.26911 3.05556 1.58594 5.14333 1.58594C7.2311 1.58594 8.9213 3.26911 8.9213 5.34261Z" stroke="#023F81" stroke-width="0.5"/>
</svg>
