<svg width="17" height="16" viewBox="0 0 17 16" fill="none" xmlns="http://www.w3.org/2000/svg">
<path d="M11.4991 1.45701H10.1737C10.0452 0.630242 9.34195 0 8.48315 0C7.62436 0 6.9211 0.630242 6.79262 1.45701H5.50781V3.795H11.5058V1.45701H11.4991Z" fill="white"/>
<path fill-rule="evenodd" clip-rule="evenodd" d="M12.723 1.49805H14.3932C14.7516 1.49805 15.0424 1.78945 15.0424 2.1554V15.343C15.0424 15.709 14.7449 16.0004 14.3865 16.0004H2.61357C2.24841 16.0004 1.95764 15.7022 1.95764 15.343V2.1554C1.95764 1.78945 2.25518 1.49805 2.61357 1.49805H4.28382V4.839H12.723V1.49805ZM6.66387 6.44583C6.79088 6.23641 7.04492 6.05163 7.29486 5.99003C7.42598 5.96129 9.49517 5.95308 9.63448 5.98182C9.88442 6.0352 10.1426 6.21177 10.2778 6.4253C10.4212 6.64704 10.4335 6.70042 10.4458 7.16853L10.4581 7.58738L11.4168 7.59559L12.3756 7.6038L12.5027 7.65308C12.8755 7.8009 13.1419 8.07602 13.2607 8.44148C13.3055 8.56793 13.3057 8.59713 13.3138 9.39048L13.3139 9.40646L13.318 10.24L13.105 10.3427C12.3838 10.6876 11.3308 10.9052 9.94179 10.9997C9.79018 11.012 9.6058 11.0202 9.53205 11.0202H9.39273V10.8354C9.39273 10.6178 9.37225 10.5316 9.30259 10.4494C9.19606 10.3222 9.16738 10.318 8.48311 10.318C7.79884 10.318 7.77016 10.3222 7.66363 10.4494C7.59398 10.5316 7.57349 10.6178 7.57349 10.8354V11.0202H7.44237C7.15965 11.0202 6.39753 10.9545 5.94272 10.8929C5.09866 10.778 4.36932 10.585 3.86124 10.3427L3.64818 10.24L3.65637 9.41056L3.66047 8.57699L3.70964 8.42506C3.82846 8.07192 4.0948 7.8009 4.45946 7.65718L4.58648 7.59969L5.54527 7.59148L6.50407 7.58327L6.51226 7.17675C6.52046 6.72506 6.53685 6.65525 6.66387 6.44583ZM9.61399 7.31225C9.62219 6.98786 9.61399 6.92626 9.55253 6.86467L9.50746 6.8195H8.49131L8.37613 6.81949C7.55938 6.81938 7.4365 6.81936 7.39265 6.87822C7.38488 6.88864 7.37959 6.90091 7.37337 6.91535L7.37337 6.91536L7.36862 6.92626C7.35223 6.96322 7.34813 7.0823 7.35223 7.28351L7.35633 7.58738H8.48311H9.6099L9.61399 7.31225ZM3.64816 12.2069C3.64816 13.6478 3.64816 13.8681 3.72249 14.0595C3.7359 14.094 3.75174 14.1276 3.77043 14.1673C3.77331 14.1734 3.77626 14.1797 3.77928 14.1861C3.91859 14.4695 4.16444 14.683 4.47584 14.7939L4.62335 14.8472L8.42164 14.8513C8.75758 14.8517 9.065 14.852 9.34644 14.8524C12.158 14.8558 12.3777 14.8561 12.5563 14.7705C12.5714 14.7632 12.5862 14.7553 12.6023 14.7468C12.618 14.7385 12.6348 14.7296 12.6542 14.7199C12.8714 14.6091 13.0681 14.412 13.1787 14.1902C13.1818 14.1838 13.1849 14.1775 13.1879 14.1714C13.2073 14.1314 13.2237 14.0976 13.2376 14.0628C13.3139 13.8716 13.3139 13.6499 13.3139 12.211V10.6547L13.2443 10.6835C12.392 11.0612 11.1341 11.3035 9.70412 11.3692L9.40091 11.3815L9.39272 11.6197C9.38043 11.8907 9.35175 11.9769 9.24112 12.0509C9.13458 12.1248 9.06083 12.133 8.4831 12.133C7.90536 12.133 7.83161 12.1248 7.72508 12.0509C7.61445 11.9769 7.58577 11.8907 7.57347 11.6197L7.56528 11.3815L7.26207 11.3692C5.81569 11.3035 4.60286 11.0654 3.72192 10.6835L3.64816 10.6547V12.2069ZM7.9914 10.7615C8.02009 10.7328 8.05696 10.6999 8.07745 10.6917C8.09794 10.6835 8.29051 10.6794 8.50358 10.6794C8.86415 10.6835 8.90103 10.6876 8.9379 10.7204C9.01985 10.7943 9.03214 10.86 9.03214 11.2255C9.03214 11.4974 9.03417 11.6329 8.96743 11.7005C8.90012 11.7686 8.76288 11.7675 8.48309 11.7675C8.20658 11.7675 8.06826 11.7695 8.00007 11.7014C7.92982 11.6312 7.93398 11.4865 7.93814 11.1885L7.93815 11.1875C7.94223 10.8149 7.94228 10.8107 7.9914 10.7615Z" fill="white"/>
</svg>
