<svg width="17" height="16" viewBox="0 0 17 16" fill="none" xmlns="http://www.w3.org/2000/svg">
<path d="M13.0201 8.86992L13.7523 9.62479L13.513 9.8619L13.1636 9.50624L13.0201 9.64657L13.3694 10.0047L13.2139 10.1595L12.9889 9.92723L12.8454 10.07L13.0703 10.3022L12.8573 10.5127L12.5104 10.1547L12.3668 10.2974L12.7138 10.6555L12.5582 10.8079L12.3333 10.5756L12.1897 10.7184L12.6157 11.1466L14.1471 9.62721L13.0248 8.4707L11.4767 10.0071L11.6729 10.2079L13.0201 8.86992Z" fill="white"/>
<path d="M10.8474 11.9764L11.1106 12.2449L10.9144 12.4409L10.5291 12.0441L10.3855 12.1869L10.7708 12.5837L10.6153 12.7361L10.352 12.4675L10.2109 12.6103L10.4717 12.8788L10.2587 13.0893L9.87587 12.6949L9.7323 12.8353L10.1152 13.2321L9.95962 13.3869L9.6988 13.1159L9.55523 13.2587L9.81844 13.5297L9.62702 13.7184L8.89482 12.9635L10.5267 11.3449L10.3281 11.1465L8.5 12.9611L9.62223 14.1176L11.4503 12.3103L10.9909 11.8336L10.8474 11.9764Z" fill="white"/>
<path d="M10.7756 9.56682L10.0243 8.80469L9.13892 9.69989L9.89265 10.462L12.2257 12.821L13.659 13.4573L13.123 11.9476L10.7756 9.56682ZM9.74909 9.98297L9.47152 9.69989L10.0267 9.13858L10.3042 9.41923L9.74909 9.98297ZM13.1038 13.0823L12.2998 12.7267L12.1945 12.6178L12.6683 12.6468L12.5894 12.3129L12.9363 12.3758L12.9411 11.921L13.0177 11.9984L13.324 12.8597L13.1038 13.0823Z" fill="white"/>
<path d="M8.72208 1.76875C8.72208 3.3714 8.72208 3.46718 8.77955 3.55018C8.89448 3.74174 8.86256 3.74174 10.7078 3.73535L12.3744 3.72897L10.5418 1.89645L8.7157 0.0703125L8.72208 1.76875Z" fill="white"/>
<path fill-rule="evenodd" clip-rule="evenodd" d="M1.11105 0.108546C1.14298 0.076621 1.19406 0.0383105 1.22598 0.0255403C1.25791 0.0127701 2.82226 0 4.69309 0H8.09634V2.03046C8.09634 3.86298 8.10272 4.07368 8.14103 4.16946C8.15959 4.2089 8.17056 4.24053 8.18972 4.26602C8.27602 4.38086 8.5284 4.37088 10.3886 4.38655L12.4318 4.39932V6.71949C12.0764 6.63369 11.7053 6.58824 11.3235 6.58824C11.3178 6.58824 11.3121 6.58825 11.3065 6.58827L11.308 6.5064H8.61353H5.91902L5.92541 6.83843L5.93179 7.17045H8.61353H9.0544C8.15377 7.6671 7.43325 8.45022 7.0157 9.39698C6.36696 9.39875 5.94195 9.40407 5.93818 9.41161C5.92541 9.42438 5.91902 9.57124 5.91902 9.75002V10.0693H6.77862C6.67363 10.4598 6.61764 10.8704 6.61764 11.2941C6.61764 11.6408 6.65513 11.9787 6.72627 12.3041H5.91902V12.6297V12.9553H6.91924C7.23732 13.7982 7.7904 14.5258 8.49859 15.0581C7.96711 15.0576 7.35801 15.0569 6.65969 15.056L1.20044 15.0496L1.11744 14.9539C1.07274 14.9028 1.01528 14.8134 1.00251 14.7495C0.976966 14.6729 0.970581 12.4318 0.970581 7.51524C0.976505 0.484 0.971437 0.256014 1.08283 0.137437C1.09151 0.128198 1.1009 0.119623 1.11105 0.108546ZM3.03935 6.99167L3.74171 6.28931L4.43768 5.6061H3.30114C2.6754 5.6061 2.15182 5.61249 2.14544 5.62526C2.13267 5.63803 2.12628 6.19353 2.12628 6.86397V8.07713H3.36499H4.59731V6.96613V5.85512L3.81833 6.6341L3.81725 6.63517C3.04573 7.40032 3.03932 7.40668 2.96911 7.362C2.9308 7.33008 2.78395 7.20237 2.63709 7.0619L2.3753 6.81288L2.47746 6.70434C2.53493 6.64049 2.59878 6.59579 2.61155 6.59579C2.6307 6.59579 2.73286 6.68518 2.84141 6.79373L3.03935 6.99167ZM3.03935 9.87134L3.72255 9.18814L4.40576 8.51132H3.26283H2.13267L2.13905 9.73725L2.14544 10.9696L3.37776 10.976L4.60369 10.9823V9.86495V8.75395L3.82471 9.53293L3.04573 10.3119L2.71371 9.97989L2.38168 9.64786L2.48385 9.56486C2.54131 9.51378 2.59878 9.47546 2.61793 9.47546C2.6307 9.47546 2.73286 9.56486 2.84141 9.6734L3.03935 9.87134ZM3.03296 12.7766C3.04573 12.7766 3.36499 12.4637 3.74171 12.087L4.43768 11.3974H3.28198H2.12628V12.6361V13.8748H3.3586H4.59092V12.7638V11.6528L3.81194 12.4318L3.03296 13.2107L2.70094 12.8787L2.36891 12.5467L2.49023 12.4254L2.61155 12.3041L2.81587 12.5403C2.92442 12.668 3.02658 12.7766 3.03296 12.7766Z" fill="white"/>
<circle cx="11.3236" cy="11.2938" r="4.45588" stroke="white" stroke-width="0.5"/>
</svg>
